<svg width="240" height="274" viewBox="0 0 240 274" fill="none" xmlns="http://www.w3.org/2000/svg">
<path fill-rule="evenodd" clip-rule="evenodd" d="M47.4645 285.957C75.0656 290.151 103.167 290.362 130.998 288.839C142.012 288.014 153.06 287.865 164.065 288.92C170.568 289.404 199.081 291.584 201.411 285.757C199.944 254.73 196.975 223.438 187.865 193.598C184.119 183.002 180.901 174.208 173.589 165.44C171.284 163.046 166.315 158.025 163.467 156.387C161 154.969 159.969 155.475 158.552 153.079C157.144 150.433 156.106 146.012 154.107 144.145C152.072 142.243 149.056 142.924 145.317 143.536C146.004 134.251 141.72 131.887 135.818 130.121C125.444 126.16 115.198 128.15 112.587 140.784C107.746 140.784 105.026 142.868 102.086 144.871C100.884 145.689 101.72 147.775 100.285 148.419C97.6289 149.365 92.9354 149.133 90.3781 150.297C78.7492 155.591 68.3917 163.269 61.5897 174.481C46.3403 198.42 35.8652 248.847 37.6779 277.22C36.8837 278.466 37.9819 280.253 38.2611 281.593C38.6135 282.758 39.7545 283.533 40.9454 283.401C42.6072 285.189 45.1775 285.587 47.4645 285.957Z" fill="#D08B5B"/>
<path fill-rule="evenodd" clip-rule="evenodd" d="M104.887 142.681C106.588 140.906 109.254 139.846 111.78 139.906L111.898 139.91L112.755 139.948L112.182 142.759L112.153 142.893L112.037 143.381L111.881 144.02L111.826 144.255L111.767 144.515C111.758 144.557 111.749 144.599 111.74 144.64L111.715 144.763L111.471 145.958L111.516 146.064L111.503 146.335C111.465 147.317 111.676 147.856 112.142 148.029L112.179 148.042L112.445 148.127L112.662 148.598C113.16 149.673 113.625 150.613 114.103 151.498C115.496 154.079 117.158 156.66 119.074 159.253C120.895 161.717 122.791 164.069 124.763 166.302C125.65 167.306 126.586 168.314 127.583 169.341L128.441 170.22L128.714 170.496L128.898 170.679L129.127 170.904L129.457 171.218L129.696 171.454L129.773 171.527C129.871 171.618 129.946 171.679 130.014 171.723L130.039 171.739L130.115 171.783L134.093 175.969L135.498 176.742L136.165 177.112L136.3 176.842L136.328 176.756L137.806 173.508L138.709 171.518C140.562 167.425 142.004 164.169 143.322 161.069L143.487 160.682L143.973 159.529L144.23 158.913C145.408 156.088 146.279 153.908 147.058 151.79L147.169 151.488L147.333 151.035L147.577 150.352L147.621 150.236C147.832 149.694 147.313 147.724 146.801 146.645L146.772 146.585L146.639 146.318L146.494 146.036C146.156 145.375 145.911 144.641 145.704 143.753C145.671 143.609 145.64 143.465 145.61 143.319L145.567 143.099L145.54 142.954L145.502 142.752L145.448 142.463L146.593 142.271L147.222 142.169L147.496 142.126C147.851 142.071 148.168 142.026 148.465 141.988L148.576 141.974L148.775 141.951L148.782 141.99L149.191 142.03L149.494 142.062C150.99 142.22 152.143 142.394 152.962 142.587L153.042 142.607L153.189 142.644L153.255 142.661C154 142.862 154.574 143.295 155.028 143.934C155.34 144.373 155.542 144.793 155.862 145.589L155.977 145.876L156.358 146.818C156.402 146.932 156.471 147.116 156.564 147.368L156.888 148.248L158.507 152.723L160.165 153.595C160.936 153.998 161.499 154.289 161.778 154.427L161.876 154.475L161.947 154.507L162.518 154.734L162.457 154.912L162.526 154.951C169.35 158.879 174.613 164.92 178.71 172.941L178.834 173.184L178.961 173.437C182.227 179.97 184.566 187.26 186.851 196.994L186.992 197.599L187.103 198.08L187.699 200.678C189.936 210.485 191.474 217.798 192.747 224.974L192.829 225.442L193.041 226.661C194.639 235.949 195.978 245.153 197.048 254.267L197.226 255.8C197.673 259.716 198.076 263.764 198.514 268.625L198.573 269.278L198.766 271.462C198.971 273.815 199.158 276.163 199.328 278.506L199.412 279.677L199.583 282.223L199.684 283.674L199.696 283.87L199.737 284.627L199.748 284.804C199.763 285.031 199.781 285.223 199.803 285.4L199.82 285.531L199.84 285.658C199.896 286.004 200.008 286.315 200.192 286.661L200.24 286.749L200.557 287.316L199.982 287.619C196.985 289.199 191.083 289.894 182.987 289.93L182.741 289.931H182.234C178.3 289.929 174.13 289.777 169.78 289.518L168.796 289.457L167.975 289.405C167.621 289.382 167.277 289.359 166.92 289.334L166.372 289.295L164.084 289.128C153.794 288.142 143.002 288.158 131.112 289.049C100.111 290.745 73.3536 290.029 48.204 286.274L47.4424 286.16L46.8811 286.068L46.5464 286.012C43.8787 285.557 42.2037 284.973 40.8967 283.747L40.8282 283.682L40.7712 283.626L40.7464 283.627C39.4304 283.621 38.2256 282.76 37.7786 281.49L37.7554 281.421L37.7259 281.327L37.7055 281.232C37.6847 281.141 37.6587 281.043 37.6271 280.935L37.6023 280.852L37.3945 280.171L38.0945 280.043C38.1548 280.032 38.2175 279.99 38.2783 279.902L38.3366 279.818L38.4375 279.678L38.6814 279.344C38.9411 278.98 39.0688 278.751 39.1321 278.521C39.1881 278.318 39.2091 278.057 39.203 277.695L39.1984 277.517L39.1708 276.875C39.169 276.824 39.1677 276.778 39.1669 276.735L39.1661 276.67L39.1656 275.766L39.1679 274.772C39.1695 274.338 39.1719 273.915 39.1752 273.5L39.1809 272.882L39.1865 272.385C39.2202 269.631 39.301 266.88 39.4289 264.134C39.6788 258.771 40.1075 253.417 40.714 248.083C41.9663 237.07 43.8844 226.389 46.4937 216.068L46.7558 215.037C49.5772 204.007 52.2974 195.503 55.7548 187.639C60.1522 177.637 65.5139 169.405 72.2649 162.824C75.9766 159.206 80.0871 156.152 84.4554 153.81C86.4644 152.732 88.5995 151.776 90.8892 150.916L91.2174 150.794L91.747 150.601L92.1534 150.451L93.4627 149.961C93.7379 149.858 94.0374 149.742 94.3916 149.603L94.6109 149.517L96.9556 148.581L97.3449 148.428L97.7779 148.259L98.0961 148.137C98.6164 147.939 99.0875 147.765 99.5249 147.613L99.7834 147.523L100.018 147.444L101.019 147.098L100.999 148.009C100.986 148.614 101.142 149.072 101.488 149.4L101.5 149.411L101.512 149.42L101.523 149.427L101.583 149.426L101.82 149.425C101.844 149.411 101.867 149.395 101.888 149.377C102.225 149.091 102.381 148.708 102.533 147.829L102.574 147.584L102.644 147.126L102.672 146.952C102.773 146.342 102.861 146.005 103.033 145.62C103.28 145.063 103.608 144.52 103.993 144.021L104.083 143.907L104.443 143.474L104.498 143.406C104.625 143.244 104.689 143.13 104.716 143.025L104.723 142.997L104.759 142.815L104.887 142.681Z" fill="#FFCF77"/>
<path fill-rule="evenodd" clip-rule="evenodd" d="M161.709 155.686C161.54 155.591 161.689 155.349 161.859 155.429C170.045 159.27 176.324 166.01 180.743 173.797C185.318 181.861 187.926 191.016 190.174 199.963L190.255 200.287C192.652 209.859 194.69 219.53 196.526 229.224C198.384 239.042 199.876 248.92 201.076 258.839C201.669 263.744 202.199 268.657 202.612 273.58C202.818 276.04 203.005 278.502 203.174 280.965C203.241 281.95 203.304 282.935 203.358 283.921L203.397 284.661C203.431 285.331 203.511 286.004 203.345 286.666C203.202 287.236 202.9 287.753 202.635 288.276C202.109 289.312 200.67 289.141 200.104 288.276L199.939 288.024C199.564 287.444 199.252 286.905 199.134 286.183C199.02 285.483 199.016 284.751 198.965 284.044C198.871 282.745 198.791 281.444 198.7 280.144C198.508 277.407 198.293 274.672 198.055 271.94C197.583 266.545 197.078 261.155 196.457 255.774C195.353 246.213 193.969 236.677 192.337 227.191C190.742 217.925 188.726 208.753 186.623 199.593L186.406 198.645C182.723 182.652 177.048 164.233 161.709 155.686ZM74.5218 218.313C74.582 218.153 74.841 218.117 74.8848 218.313C75.4362 220.797 75.4907 223.355 75.575 225.898C75.658 228.406 75.6546 230.926 75.6181 233.435C75.4833 242.659 75.2302 251.876 75.0113 261.098C74.9019 265.711 74.7992 270.325 74.7204 274.939C74.6906 276.669 74.6656 278.4 74.6448 280.13L74.6193 282.412C74.6066 283.422 74.5801 284.418 74.4572 285.426C74.376 286.089 74.2032 286.722 73.8373 287.29C73.5776 287.693 73.2075 287.898 72.8468 288.172L72.7793 288.225C72.3191 288.588 71.8345 288.591 71.3788 288.225L71.2464 288.12C70.8111 287.779 70.4349 287.513 70.157 286.975C69.7704 286.226 69.7085 285.412 69.6428 284.587C69.5431 283.336 69.6092 282.067 69.6221 280.812C69.6479 278.295 69.6827 275.778 69.7269 273.261C69.8889 264.031 70.2092 254.799 70.7929 245.586C71.0679 241.246 71.4408 236.892 71.941 232.57L72.0362 231.76C72.1879 230.488 72.3263 229.194 72.4822 227.896C70.1547 226.258 68.1088 224.271 66.3641 222.016C66.2357 221.851 66.4472 221.618 66.6022 221.778C68.3849 223.625 70.4289 225.097 72.6918 226.255C73.0626 223.536 73.5724 220.833 74.5218 218.313ZM113.406 136.038C113.438 136.013 113.488 136.002 113.518 136.038C114.019 136.621 113.917 137.513 113.933 138.253L113.935 138.322C113.971 139.403 113.978 140.48 113.974 141.562L113.963 145.005C113.962 145.478 113.923 145.971 113.947 146.448L113.96 146.632C114.223 146.901 114.345 147.29 114.256 147.681C114.24 148.182 113.978 148.601 113.596 148.863L114.415 150.026L115.235 151.188C116.925 153.586 118.633 155.962 120.414 158.294C122.229 160.671 124.166 162.959 126.193 165.159C127.183 166.234 128.19 167.294 129.221 168.33C129.64 168.751 130.069 169.162 130.493 169.577L130.916 169.995C131.165 170.244 131.479 170.491 131.645 170.808C131.742 170.994 131.764 171.454 131.799 171.53C132.112 172.218 131.579 173.314 130.692 172.971L130.732 172.944C130.894 172.832 130.79 172.83 130.422 172.939C130.189 172.939 129.972 172.885 129.768 172.779L129.707 172.746C129.421 172.6 129.165 172.318 128.932 172.092L128.874 172.037C128.341 171.538 127.834 171.009 127.323 170.487C126.258 169.398 125.217 168.286 124.208 167.145C122.197 164.867 120.291 162.496 118.485 160.053C116.646 157.563 114.936 154.947 113.466 152.222C112.908 151.188 112.396 150.135 111.906 149.068C110.951 148.762 110.73 147.746 110.796 146.602C110.444 145.782 110.127 144.945 109.939 144.089C109.914 143.972 110.064 143.861 110.155 143.964C110.46 144.311 110.742 144.68 111.014 145.059C111.178 144.257 111.386 143.519 111.483 143.048L111.906 140.971C109.522 140.847 106.909 141.827 105.265 143.542C105.177 143.989 104.833 144.309 104.498 144.727C104.115 145.204 103.781 145.74 103.532 146.3C102.979 147.542 103.291 149.372 102.219 150.283C102.107 150.378 101.982 150.444 101.854 150.485C102.362 152.98 102.131 155.73 102.12 158.262L102.12 158.485C102.123 161.319 102.028 164.154 101.918 166.986L101.807 169.788C101.663 173.525 101.569 177.264 101.932 180.98C103.59 179.512 105.303 178.11 107.076 176.775C108.242 175.897 109.431 175.05 110.641 174.235L111.625 173.578C112.804 172.787 114.011 171.973 115.302 171.407C116.99 170.667 118.595 170.921 120.225 171.681C121.848 172.437 123.422 173.316 125.014 174.135C126.633 174.969 128.256 175.796 129.877 176.624C130.951 177.173 132.525 177.669 133.313 178.68C133.363 178.456 133.422 178.233 133.49 178.011C133.412 177.672 133.442 177.306 133.632 176.957C136.279 172.091 138.729 167.109 141.161 162.133C142.392 159.615 143.562 157.067 144.796 154.55L145.995 152.099C146.195 151.691 146.396 151.282 146.598 150.875C146.901 150.265 147.216 149.661 147.521 149.053C147.651 148.796 147.813 148.54 147.939 148.281L147.998 148.151C148.001 148.144 148.292 147.23 148.067 147.317L148.048 147.326C147.933 147.391 147.842 147.247 147.916 147.155C148.233 146.763 148.675 147.11 148.856 147.474C149.355 148.473 148.441 150.043 148.089 151L148.07 151.054C146.979 154.144 145.743 157.175 144.477 160.197C142.05 165.989 139.443 171.693 136.841 177.406L136.81 177.504C137.365 177.079 137.957 176.693 138.465 176.317C139.744 175.369 141.061 174.467 142.376 173.568C144.788 171.92 147.264 170.381 149.782 168.902L150.286 168.607C151.544 167.874 152.79 167.28 154.283 167.5C155.67 167.704 156.959 168.45 158.212 169.055L158.341 169.117L162.213 170.958C161.799 169.307 161.351 167.664 160.883 166.027C159.971 162.835 158.968 159.669 157.88 156.531C156.864 153.599 155.765 150.7 154.603 147.823L154.254 146.96C153.78 145.775 153.309 144.484 151.955 144.119C150.601 143.754 149.049 144.295 147.813 143.523C147.7 143.453 147.714 143.268 147.85 143.234L148.614 143.041C150.046 142.685 151.726 142.326 153.081 142.673C154.556 143.051 155.775 144.289 156.491 145.575C157.286 147.007 157.847 148.609 158.451 150.136L158.546 150.376C159.239 152.104 159.905 153.842 160.543 155.591C161.818 159.086 162.978 162.624 164.029 166.194C164.535 167.914 165.015 169.643 165.477 171.376C165.609 171.874 165.828 172.478 166.008 173.108C166.214 173.309 166.408 173.533 166.591 173.789C166.894 174.213 166.677 174.71 166.3 174.964C166.285 175.397 166.189 175.805 165.959 176.155C165.06 177.52 162.683 177.168 162.78 175.333C162.794 175.052 162.904 174.784 163.069 174.558L163.065 174.521L163.046 174.454C162.633 174.256 162.219 174.035 161.782 173.819L157.719 171.811C156.542 171.229 155.238 170.33 153.929 170.109C152.709 169.902 151.422 170.811 150.374 171.36L150.306 171.395C147.772 172.694 145.256 174.037 142.751 175.39C141.528 176.051 140.321 176.74 139.102 177.408C138.084 177.968 136.984 178.77 135.839 179.086C135.35 179.466 134.769 179.415 134.302 179.128C134.516 180.45 134.502 181.806 134.568 183.158C134.656 184.965 134.67 186.777 134.699 188.586L134.71 189.265C134.787 193.265 134.828 197.266 134.844 201.266C134.898 215.513 134.74 229.764 134.704 244.011C134.685 251.169 134.543 258.333 134.357 265.488C134.279 268.52 134.114 271.549 133.936 274.576L133.838 276.227C133.631 279.711 133.508 283.234 132.863 286.671C132.779 287.119 132.021 287.131 131.947 286.671C131.353 282.988 131.32 279.224 131.206 275.498L131.182 274.753C131.045 270.752 130.98 266.754 130.994 262.751C131.044 248.499 131.415 234.255 131.718 220.007C131.87 212.848 131.973 205.686 132.209 198.529C132.327 194.948 132.461 191.37 132.62 187.79C132.691 186.192 132.76 184.596 132.866 183L132.914 182.316C132.946 181.87 132.973 181.429 133.005 180.992C131.564 181.519 130.246 180.544 128.949 179.877C127.454 179.108 125.961 178.337 124.465 177.57L122.969 176.803L119.974 175.275C118.626 174.586 117.587 173.901 116.149 174.709C110.968 177.617 106.207 181.486 101.893 185.545C101.066 186.324 99.3173 186.115 99.1078 184.81C98.2126 179.235 98.757 173.58 99.2141 167.989L99.3825 165.913C99.5867 163.434 99.8091 160.954 100.105 158.485C100.238 157.38 100.37 156.276 100.516 155.174L100.628 154.347C100.811 153.041 100.93 151.742 101.319 150.488C101.196 150.449 101.078 150.383 100.973 150.283C99.8026 149.173 100.367 147.246 100.901 145.925C101.428 144.621 102.232 143.483 103.238 142.504C103.458 142.29 103.767 142.152 104.078 142.145C106.519 140.528 109.197 139.72 111.983 140.603C112.062 140.229 112.142 139.855 112.226 139.482L112.311 139.11C112.528 138.185 112.608 136.656 113.406 136.038ZM138.421 282.127C139.179 281.919 140.008 282.138 140.563 282.693C141.118 283.249 141.338 284.078 141.129 284.836C141.024 285.209 140.836 285.532 140.563 285.807C140.308 286.061 140.011 286.242 139.671 286.35L139.592 286.374L139.468 286.425C139.088 286.527 138.708 286.527 138.329 286.425C137.966 286.323 137.651 286.14 137.383 285.874C137.118 285.607 136.934 285.291 136.832 284.928C136.73 284.548 136.73 284.169 136.832 283.789L136.884 283.665C136.989 283.292 137.177 282.968 137.45 282.693C137.725 282.42 138.049 282.232 138.421 282.127ZM183.394 206.624C183.518 206.482 183.72 206.665 183.643 206.817C182.463 209.13 181.148 211.427 179.856 213.682C179.959 214.307 180.062 214.927 180.18 215.531C180.683 218.107 181.3 220.636 181.702 223.236C183.147 232.582 183.897 242.029 184.541 251.458C185.187 260.922 185.269 270.389 185.366 279.871C185.375 280.693 184.743 281.648 183.896 281.803C183.509 281.874 183.218 281.86 182.832 281.803C181.95 281.673 181.399 280.664 181.361 279.871C181.109 274.572 180.769 269.279 180.375 263.988C179.677 254.608 179.25 245.203 178.687 235.812L178.488 232.53C178.275 228.974 178.08 225.416 178.016 221.854C177.974 219.495 178.1 217.136 178.023 214.779C177.951 212.603 177.731 210.237 178.21 208.099C178.228 208.019 178.354 207.999 178.391 208.076C178.89 209.126 179.205 210.267 179.449 211.432C180.734 209.806 182.042 208.177 183.394 206.624ZM99.2255 149.149C99.4059 149.135 99.3988 149.406 99.2255 149.426C96.7038 149.719 94.2678 150.746 91.8868 151.618L91.6828 151.693C89.2774 152.566 86.9321 153.581 84.6751 154.791C80.2623 157.157 76.2102 160.209 72.6276 163.701C58.3237 177.644 51.805 197.751 47.0285 216.646C44.3745 227.144 42.4873 237.82 41.264 248.577C40.6592 253.897 40.2316 259.238 39.9823 264.586C39.8547 267.327 39.7742 270.071 39.7406 272.815C39.7233 274.221 39.7182 275.626 39.7199 277.032C39.7207 277.676 39.8357 278.487 39.6635 279.113C39.5038 279.692 39.0533 280.202 38.7202 280.685C38.3253 281.257 37.6157 281.227 37.2153 280.685L37.0677 280.487C36.6407 279.921 36.2229 279.379 36.1619 278.638C36.0966 277.845 36.1427 277.026 36.1397 276.229C36.133 274.622 36.1528 273.016 36.185 271.41C36.2469 268.331 36.3681 265.254 36.5483 262.18C36.9142 255.942 37.5166 249.717 38.379 243.528C39.9119 232.527 42.2097 221.631 45.2194 210.94C48.0588 200.855 51.4226 190.799 56.2146 181.457C60.6639 172.783 66.5008 164.714 74.2028 158.652C77.7844 155.833 81.6833 153.484 85.8869 151.715C88.007 150.822 90.2333 150.094 92.4975 149.678C94.7365 149.268 96.9658 149.325 99.2255 149.149ZM138.855 264.3C139.255 264.297 139.701 264.385 140.045 264.607L140.503 264.961C140.627 265.121 140.751 265.281 140.874 265.441C141.161 265.815 141.199 266.42 141.139 266.865C141.125 267.162 141.037 267.439 140.874 267.695L140.525 268.147C140.189 268.421 139.91 268.616 139.503 268.748C139.291 268.817 139.087 268.831 138.883 268.821L138.815 268.816L138.855 268.822L138.784 268.814C138.718 268.808 138.651 268.801 138.584 268.792C138.539 268.786 138.493 268.783 138.448 268.776C138.404 268.773 138.362 268.771 138.318 268.775C137.801 268.824 137.282 268.531 136.916 268.194C136.586 267.891 136.289 267.248 136.335 266.792L136.355 266.601C136.39 266.28 136.418 266.154 136.554 265.831C136.687 265.517 136.871 265.24 137.123 265.005C137.605 264.557 138.194 264.305 138.855 264.3ZM137.257 240.781C137.943 240.033 139.12 239.979 139.969 240.43C140.176 240.541 140.367 240.718 140.549 240.865C141.009 241.237 141.19 241.908 141.215 242.473C141.24 243.033 140.946 243.696 140.549 244.082L140.453 244.175C140.216 244.406 139.877 244.606 139.546 244.667C139.011 244.765 138.563 244.762 138.065 244.552C137.638 244.372 137.269 244.082 137.019 243.688L136.978 243.622C136.961 243.594 136.944 243.566 136.929 243.537L136.907 243.494C136.431 242.578 136.559 241.541 137.257 240.781ZM137.612 217.137C137.921 217.04 138.23 217.026 138.539 217.095C138.749 217.096 138.945 217.149 139.126 217.254C139.323 217.309 139.494 217.409 139.639 217.553C139.813 217.656 139.953 217.795 140.056 217.97C140.261 218.195 140.4 218.458 140.472 218.761L140.555 219.379L140.472 219.998L140.238 220.553C140.173 220.638 140.108 220.722 140.043 220.805C139.939 220.981 139.8 221.12 139.625 221.224C139.511 221.337 139.38 221.422 139.234 221.481C138.717 221.852 138.027 221.973 137.414 221.804C137.05 221.702 136.733 221.517 136.465 221.251C136.199 220.982 136.014 220.666 135.913 220.302L135.871 220.011C135.816 219.621 135.808 219.405 135.918 218.909C135.967 218.691 136.107 218.383 136.181 218.254C136.495 217.701 137.009 217.322 137.612 217.137ZM164.45 200.127C165.338 200.121 166.225 200.122 167.112 200.132L167.778 200.141C168.892 200.159 169.847 200.044 170.723 200.817C171.359 201.379 171.079 202.32 170.475 202.743C169.561 203.384 168.413 203.062 167.362 202.991C166.253 202.917 165.144 202.855 164.034 202.805C161.885 202.709 159.735 202.648 157.583 202.638C155.437 202.629 153.287 202.649 151.14 202.684C148.956 202.719 146.682 202.923 144.51 202.697C144.212 202.666 144.145 202.273 144.439 202.171C146.486 201.463 148.788 201.233 150.933 200.963C153.145 200.683 155.357 200.485 157.583 200.357C159.87 200.226 162.16 200.143 164.45 200.127ZM137.608 193.171L137.681 193.172C138.072 193.173 138.438 193.265 138.778 193.448L138.851 193.488L139.32 193.851C139.607 194.14 139.806 194.481 139.916 194.874L139.999 195.49C140.011 195.809 139.944 196.107 139.799 196.383C139.706 196.671 139.546 196.919 139.32 197.129C139.11 197.355 138.861 197.515 138.574 197.609C138.319 197.743 138.046 197.81 137.755 197.81L137.681 197.808C137.263 197.807 136.873 197.702 136.512 197.492L136.043 197.129C135.756 196.84 135.557 196.499 135.447 196.106L135.364 195.49C135.352 195.171 135.418 194.873 135.564 194.597C135.657 194.31 135.817 194.061 136.043 193.851C136.253 193.625 136.501 193.465 136.789 193.372C137.044 193.238 137.317 193.171 137.608 193.171ZM144.478 138.712C144.977 137.988 145.882 138.632 145.753 139.213C145.787 140.847 145.871 142.432 146.242 144.032C146.412 144.765 146.635 145.498 146.979 146.169L147.123 146.452C147.568 147.331 147.914 148.161 147.314 149.125C147.032 149.58 146.521 149.922 145.968 149.898C143.514 149.792 143.177 146.375 143.028 144.468C142.874 142.503 143.352 140.344 144.478 138.712Z" fill="black"/>
<path fill-rule="evenodd" clip-rule="evenodd" d="M169.646 95.1187C168.847 81.9723 164.591 67.0677 152.068 60.613C124.459 49.5049 88.1586 77.4783 86.2367 106.055C85.5667 115.838 90.9844 126.527 100.885 129.246C103.086 132.17 106.415 133.955 109.701 135.505C148.835 155.859 174.114 139.314 169.646 95.1187Z" fill="#D08B5B"/>
<path fill-rule="evenodd" clip-rule="evenodd" d="M178.561 86.9409C177.178 83.0901 175.717 79.2689 174.18 75.4773C172.683 71.7871 171.331 68.0172 169.472 64.5019C158.37 43.5063 138.182 43.5063 127.746 46.2497C122.335 43.9121 112.198 44.5715 106.563 46.6808C97.4404 50.0956 86.3198 63.5286 82.5176 69.5639C74.1229 82.8894 68.884 100.625 74.4602 116.023C75.189 118.036 76.1185 119.9 77.1651 121.696C76.5058 122.592 75.7471 123.44 74.9065 124.274C72.4087 126.751 69.9109 129.147 67.7531 131.941C65.6089 134.718 63.8312 137.671 62.5079 140.927C60.0126 147.067 59.8924 154.02 63.1914 159.879C66.0615 164.976 71.1459 168.772 76.8741 169.134C77.1682 169.175 77.4627 169.213 77.7585 169.243C78.5175 170.496 79.443 171.65 80.4992 172.656C83.7353 175.742 91.4493 177.325 95.8491 177.426C96.0747 177.608 96.3024 177.79 96.5301 177.97C99.2223 180.094 102.047 182.237 105.138 183.748C107.231 184.773 109.976 185.629 112.16 184.889C113.151 185.553 114.777 185.413 115.759 184.87C117.374 183.978 118.687 182.372 119.486 180.728C121.424 176.735 120.958 172.367 120.46 168.102C119.912 163.391 119.385 158.677 118.85 153.966C118.43 150.283 117.992 146.537 116.874 142.989C116.297 141.15 115.54 139.383 114.562 137.722C114.587 137.583 114.583 137.443 114.543 137.312C114.222 136.268 113.56 135.721 112.776 135.01C112.675 134.92 112.574 134.827 112.475 134.731C112.082 134.283 111.663 133.867 111.214 133.514C111.041 133.339 110.87 133.161 110.699 132.984C109.281 131.494 107.94 129.927 106.749 128.249C105.593 126.622 104.55 124.923 103.557 123.192C102.547 121.431 101.879 119.489 100.871 117.741C100.784 117.591 100.565 117.561 100.443 117.686C100.131 118.009 99.9307 118.369 99.9686 118.747L99.8126 118.77C99.7536 118.2 99.2286 117.735 98.516 117.859C97.4493 118.045 96.5723 118.115 95.6489 117.76C95.8112 116.68 95.9609 115.598 96.1085 114.514C96.3783 112.519 96.6292 110.517 96.8442 108.516C97.365 108.64 97.8815 108.82 98.3874 109.048C99.1085 109.372 99.7894 109.807 100.371 110.342C100.945 110.87 101.341 111.582 102.041 111.95C102.846 112.371 103.818 111.675 103.582 110.762C103.104 108.917 100.394 107.86 98.7184 107.512C98.1429 107.391 97.5547 107.34 96.9665 107.353C97.0993 106.068 97.2174 104.783 97.3144 103.496C97.3607 102.887 97.4029 102.279 97.443 101.668C98.7458 101.273 100.141 101.154 101.497 101.34C101.944 101.697 102.391 102.05 102.823 102.408C104.196 103.545 105.562 104.688 106.911 105.853C107.033 105.956 107.153 106.06 107.276 106.165C108.077 106.856 109.076 106.172 108.941 105.193C107.841 97.1745 112.74 90.796 118.477 85.8546C124.827 80.3827 136.371 79.7456 143.923 70.2675C147.401 70.9771 155.166 73.0848 158.37 78.2037C162.857 85.3769 162.271 91.8041 162.612 99.9411C162.954 108.084 163.822 116.579 161.978 124.608C160.276 132.011 155.67 138.337 148.523 141.245C148.346 141.317 148.167 141.387 147.988 141.455C144.292 142.852 140.259 143.247 136.371 142.511C132.068 141.695 128.476 139.721 124.896 137.293C124.69 137.156 124.388 137.439 124.544 137.646C129.262 143.915 138.53 146.009 145.881 144.354C146.225 144.276 146.567 144.192 146.906 144.099C145.262 148.839 145.593 154.043 147.735 158.658C149.023 161.436 150.988 163.839 153.38 165.734C156.018 167.823 159.29 169.509 161.12 172.441C162.796 175.127 162.298 178.145 159.429 179.696C158.706 180.089 158.427 181.36 159.144 181.918C159.418 182.129 159.692 182.344 159.973 182.556C161.579 183.771 165.992 186.054 166.706 186.138C173.052 186.893 177.319 182.222 180.054 176.712C183.264 170.245 182.429 162.363 178.892 156.205C176.054 151.263 170.465 146.394 172.687 140.14C173.48 137.906 175.101 136.002 176.676 134.281C178.472 132.322 180.403 130.488 182.126 128.459C183.838 126.444 185.356 124.253 186.203 121.725C187.441 118.031 186.825 114.036 185.895 110.348C183.903 102.431 181.316 94.6193 178.561 86.9409Z" fill="black"/>
<path fill-rule="evenodd" clip-rule="evenodd" d="M143.152 128.274C141.732 127.695 140.465 126.728 139.538 125.493C139.216 125.063 139.133 124.61 139.2 124.195C139.276 123.729 139.552 123.306 139.928 123.023C140.305 122.739 140.777 122.598 141.233 122.67C141.63 122.732 142.024 122.949 142.337 123.399L142.402 123.489C142.953 124.235 143.67 124.846 144.488 125.241C145.276 125.621 146.158 125.798 147.07 125.695C148.808 125.499 150.005 124.559 151.278 123.282C151.436 123.121 151.594 122.955 151.752 122.786C151.852 122.633 151.991 122.534 152.146 122.483C152.317 122.425 152.511 122.429 152.689 122.491C152.86 122.55 153.013 122.664 153.116 122.815C153.213 122.958 153.269 123.135 153.251 123.339C153.134 124.661 152.443 125.842 151.461 126.769C150.37 127.799 148.924 128.511 147.563 128.761C146.064 129.036 144.536 128.839 143.152 128.274ZM148.271 107.866C149.866 108.836 152.297 111.098 150.581 113.503C148.56 115.624 145.652 113.193 144.219 112.093C142.89 111.241 141.396 113.433 142.629 114.428C152.987 122.099 157.19 108.12 149.078 106.726C148.184 106.572 147.853 107.566 148.271 107.866ZM129.711 98.9429C129.887 96.7541 133.219 96.257 133.551 98.423C133.847 100.363 133.498 102.145 132.624 103.892C131.79 105.561 129.692 104.783 129.533 103.263C129.32 101.226 129.601 100.304 129.711 98.9429ZM155.076 97.9739C155.541 97.3652 156.212 96.9497 157.015 97.1845C159.526 97.9185 158.786 101.485 157.904 103.22C157.425 104.163 155.876 104.402 155.176 103.572C154.036 102.219 153.489 99.5157 154.94 98.1825C154.979 98.1136 155.023 98.044 155.076 97.9739ZM132.589 89.3654L132.986 89.2959C134.213 89.0836 135.738 88.8796 136.606 89.8665C137.067 90.3898 137.225 91.3624 136.606 91.8633C135.518 92.7446 134.314 92.4031 133.01 92.4777C131.935 92.5394 130.902 92.7174 129.867 93.0135C127.595 93.663 125.744 94.8486 123.804 96.1505C123.55 96.3213 123.29 95.9956 123.411 95.7574C124.531 93.563 126.701 91.7604 128.875 90.6616C130.036 90.0751 131.305 89.5885 132.589 89.3654ZM152.787 88.3823L153.091 88.4445C156.395 89.1353 160.687 90.5153 162.251 93.7615C162.311 94.2205 162.248 94.3189 162.197 94.3832L162.18 94.4046C162.137 94.4595 162.104 94.5351 161.905 94.5976C161.85 94.5844 161.794 94.5705 161.737 94.5557C161.02 94.3677 160.453 94.1087 159.904 93.84L159.308 93.5465C158.617 93.2076 157.92 92.881 157.181 92.6399C155.605 92.1255 153.983 91.7631 152.337 91.5696C151.98 91.5277 151.636 91.4072 151.365 91.2006C151.108 91.0046 150.911 90.7332 150.821 90.3724C150.705 89.9056 150.739 89.5521 150.989 89.1309C151.177 88.8146 151.447 88.5953 151.756 88.4694C152.071 88.3411 152.43 88.3108 152.787 88.3823Z" fill="black"/>
</svg>
