<svg width="240" height="236" viewBox="0 0 240 236" fill="none" xmlns="http://www.w3.org/2000/svg">
<path fill-rule="evenodd" clip-rule="evenodd" d="M181.079 176.597C179.237 169.454 177.544 166.425 174.273 163.942C171.213 161.62 166.746 159.669 160.229 158.244C153.441 157.057 153.249 153.528 151.547 147.857C151.05 146.152 148.59 145.698 147.528 146.927C147.378 146.766 147.222 146.618 147.061 146.484C147.205 145.671 146.022 143.34 146.061 142.562C146.474 134.444 143.819 130.367 137.192 128.852C135.751 128.522 125.963 128.328 124.558 128.716C118.415 130.415 112.368 135.808 113.293 142.305C111.365 144.826 109.478 146.364 106.503 147.176C101.87 147.765 104.198 213.41 112.243 252.739C115.696 269.613 198.24 240.892 194.51 232.441C195.039 230.892 194.075 229.189 194.51 227.59C194.825 226.432 195.631 225.953 196.037 224.807C196.608 223.194 195.987 221.029 195.344 219.383C195.081 218.563 195.829 217.68 196.037 216.843C197.023 212.894 194.765 213.242 193.136 210.602C193.16 210.594 193.584 208.71 193.582 208.719C193.831 207.374 193.207 205.65 192.662 204.527C192.294 203.768 191.505 203.293 190.721 203.38C191.51 200.7 192.509 198.47 193.582 195.887C195.48 191.336 197.286 186.574 200.012 182.455C201.128 180.768 200.227 179.216 198.42 179.101C192.573 178.729 186.789 177.887 181.079 176.597Z" fill="#D08B5B"/>
<path fill-rule="evenodd" clip-rule="evenodd" d="M171.951 177.149L158.603 199.744C158.603 199.744 161.769 200.06 163.051 200.676C164.332 201.292 170.216 208.774 170.216 208.774L171.151 212.894L168.936 216.216L169.8 218.301C169.8 218.301 170.416 216.888 171.951 215.791C173.485 214.694 176.869 212.894 176.869 212.894C176.869 212.894 175.745 212.292 175.745 211.586C175.745 210.879 174.754 207.865 176.869 206.726C178.985 205.587 189.915 202.923 189.915 202.923L200.993 179.549L171.951 177.149Z" fill="#EC7495"/>
<path fill-rule="evenodd" clip-rule="evenodd" d="M112.407 147.33L154.79 154.77L174.273 163.942L177.453 166.393L158.603 199.744L129.496 205.056L122.081 224.323L123.595 246.04L170.945 240.393L191.37 237.966L196.171 257.354L195.304 265.33L194.042 269.375L143.408 283.049C143.408 283.049 117.624 280.549 113.053 280.549C108.483 280.549 74.972 283.878 74.972 283.878L67.2185 283.049C67.2185 283.049 50.0638 264.964 47.4032 258.527C44.7425 252.091 38.989 212.965 38.989 212.965L39.6225 206.953L54.4437 168.801C54.4437 168.801 56.4229 167.003 58.9181 163.942C61.4133 160.881 112.407 147.33 112.407 147.33Z" fill="#9DDADB"/>
<path fill-rule="evenodd" clip-rule="evenodd" d="M189.116 202.441C185.286 202.635 181.451 203.546 177.986 205.197C176.569 205.873 175.284 206.85 174.908 208.456C174.718 209.276 174.765 210.124 174.866 210.952C174.942 211.58 174.961 212.381 175.506 212.805C175.599 212.877 175.698 212.932 175.802 212.972C174.524 213.549 173.307 214.243 172.225 214.957C171.236 215.61 170.22 216.616 169.764 217.751C169.726 217.622 169.688 217.502 169.65 217.388C168.872 215.088 167.674 213.205 165.788 211.939C165.574 211.158 163.274 207.797 161.139 207.923C158.8 208.061 156.919 208.232 154.804 209.308C154.033 209.291 153.264 209.301 152.503 209.335C152.372 209.339 152.379 209.517 152.503 209.532C153.12 209.61 153.737 209.696 154.354 209.798C155.82 210.033 157.282 210.331 158.712 210.7C160.428 211.144 162.203 211.59 163.806 212.366C166.916 213.873 168.841 217.813 168.446 221.24C168.38 221.803 168.163 223.502 167.383 223.326C166.724 223.179 166.462 221.803 166.232 221.293C165.615 219.941 164.503 219.057 163.17 218.459C161.605 217.755 159.929 217.28 158.307 216.726C157.388 216.411 156.469 216.096 155.548 215.783C154.605 215.46 153.71 215.014 152.706 215.24C152.1 215.378 152.03 216.1 152.37 216.515C152.888 217.147 153.657 217.333 154.403 217.593C155.387 217.935 156.37 218.277 157.352 218.62C158.871 219.148 160.462 219.594 161.943 220.241L161.896 220.346C161.776 220.313 161.634 220.433 161.658 220.581C161.879 221.948 162.188 223.529 161.845 224.899C161.575 225.985 160.622 227.188 159.384 226.869C159.579 226.691 159.651 226.385 159.52 226.101C159.029 225.053 152.607 220.915 152.034 222.452C152.015 222.506 152.074 222.547 152.121 222.538C152.609 222.437 153.427 223.269 153.817 223.534C154.381 223.914 154.954 224.286 155.512 224.677C156.122 225.104 156.718 225.552 157.299 226.015C157.755 226.379 158.1 226.757 158.624 226.941C158.349 227.072 158.131 227.315 158.039 227.625C157.802 228.435 157.346 229.122 156.553 229.479C155.723 229.851 154.787 229.616 153.913 229.707C152.721 229.828 151.682 230.394 150.813 231.204C148.99 232.907 148.075 235.908 145.525 236.713C144.002 237.193 142.312 236.891 140.77 236.673C139.048 236.43 137.37 236.238 135.636 236.491C133.975 236.735 132.405 237.309 130.889 238.011C129.467 238.668 127.895 239.413 126.634 240.393C126.374 239.592 126.112 238.799 125.913 237.981C125.444 236.048 125.191 234.078 125.129 232.091C125.072 230.2 125.178 228.3 125.34 226.416C125.421 225.476 125.548 224.54 125.628 223.599C125.649 223.362 125.691 223.109 125.723 222.855C127.975 221.526 130.341 220.507 132.726 219.459C132.733 219.457 132.739 219.452 132.746 219.45C132.82 219.416 132.891 219.385 132.965 219.353C132.963 219.349 132.961 219.345 132.957 219.34C133.229 219.174 133.42 218.951 133.534 218.702C136.971 216.422 139.844 213.309 141.986 209.677C142.884 208.156 143.748 206.577 144.923 205.244C146.174 203.821 147.659 202.976 149.497 202.536C151.646 202.02 153.86 201.712 156.061 201.536C157.263 201.441 158.607 201.293 159.917 201.3C160.829 201.306 161.723 201.384 162.543 201.61C163.758 201.944 164.467 202.868 165.23 203.802C165.959 204.698 166.684 205.596 167.364 206.531C168.008 207.416 168.617 208.331 169.145 209.291C169.462 209.866 169.755 210.458 170.003 211.068C170.089 211.284 170.203 211.529 170.256 211.753C170.309 211.979 170.212 212.218 170.465 212.218C169.42 212.233 168.725 214.841 169.764 214.78C171.225 214.695 171.96 212.942 171.674 211.387C171.163 208.613 168.404 205.262 167.858 204.552C166.652 202.984 165.408 200.938 163.477 200.209C163.449 200.198 163.42 200.188 163.392 200.179C163.954 199.647 164.398 199.009 164.822 198.36C165.26 197.692 165.781 196.927 165.925 196.134C166.016 195.629 165.389 195.342 165.091 195.783C164.658 196.428 164.448 197.244 164.125 197.952C163.796 198.67 163.394 199.349 163.077 200.074C162.315 199.839 161.491 199.732 160.652 199.696C161.71 198.263 163.519 195.498 163.736 195.143C164.738 193.499 165.691 191.804 166.601 190.106C167.586 188.268 168.429 186.353 169.371 184.493C169.905 183.439 170.444 182.375 171.038 181.352C171.243 181.001 171.463 180.651 171.712 180.331C171.76 180.268 171.822 180.215 171.879 180.156C171.944 180.12 172.012 180.08 172.05 180.059C172.392 179.862 172.513 179.406 172.753 179.116C173.138 178.649 173.59 178.594 174.169 178.588C175.402 178.575 176.641 178.624 177.872 178.658C179.683 178.708 181.491 178.78 183.3 178.875C183.847 178.905 184.392 178.934 184.939 178.968C187.57 179.125 190.198 179.33 192.82 179.581C195.139 179.803 197.459 180.165 199.781 180.338C196.637 187.809 193.151 195.145 189.205 202.225C189.165 202.297 189.135 202.369 189.116 202.441ZM171.674 221.688C171.167 221.921 170.675 222.211 170.216 222.54C170.292 222.027 170.311 221.486 170.29 220.942C170.668 221.348 171.152 221.581 171.674 221.688ZM193.318 208.836C193.282 208.84 193.248 208.86 193.232 208.895C192.53 210.343 192.824 211.96 193.969 213.095C194.569 213.687 195.877 214.355 195.834 215.327C195.798 216.113 194.943 216.772 194.577 217.421C194.237 218.026 194.11 218.689 194.383 219.345C194.732 220.184 195.705 220.518 196.039 221.342C196.462 222.388 195.775 223.65 195.294 224.561C194.846 225.404 194.267 226.247 193.882 227.139C191.307 228.473 185.463 230.895 184.76 231.03C183.902 231.197 183.042 231.356 182.18 231.504C180.526 231.791 178.867 232.057 177.205 232.292C176.258 232.425 175.31 232.556 174.361 232.66C173.533 232.748 172.599 232.869 171.932 232.246C170.586 230.986 171.34 228.874 172.191 227.602C172.208 227.577 172.208 227.553 172.202 227.532C173.005 227.344 173.805 227.124 174.604 226.97C176.14 226.674 177.686 226.425 179.235 226.203C182.417 225.749 185.62 225.448 188.818 225.146C189.61 225.07 189.619 223.823 188.818 223.897C184.223 224.318 179.605 224.717 175.071 225.603C173.934 225.822 172.806 226.072 171.684 226.353C171.154 226.484 170.586 226.689 170.03 226.696C169.996 226.696 169.962 226.696 169.929 226.693C168.841 226.66 168.682 225.728 169.28 224.952C169.354 224.857 169.43 224.762 169.508 224.671C170.565 223.411 171.881 222.57 173.237 221.699C174.756 221.492 176.271 221.031 177.758 220.693C181.43 219.856 185.102 219.019 188.776 218.184C189.496 218.019 189.19 216.912 188.47 217.075C185.681 217.707 182.892 218.339 180.103 218.971L176.022 219.896C175.206 220.08 174.188 220.45 173.229 220.583C172.755 220.649 172.297 220.657 171.883 220.56C170.546 220.243 170.478 218.571 171.055 217.578C171.701 216.462 172.922 215.764 174.006 215.132C175.884 214.035 177.883 213.247 179.835 212.338C180.182 212.262 180.528 212.186 180.875 212.11C182.89 211.666 185.193 211.449 187.09 210.635C187.658 210.394 187.348 209.498 186.786 209.51C185.313 209.542 183.773 210.066 182.334 210.377C180.777 210.715 179.218 211.051 177.661 211.387C177.505 211.421 176.579 211.717 176.44 211.651C176.351 211.609 176.32 211.301 176.29 211.098C176.195 210.43 176.125 209.728 176.229 209.058C176.457 207.555 177.71 206.85 178.977 206.273C181.8 204.99 184.895 204.187 187.975 203.865C188.685 203.791 189.395 203.745 190.109 203.722C190.948 203.696 191.639 203.548 192.063 204.375C192.731 205.677 193.098 207.351 193.318 208.836ZM189.398 256.04C188.783 253.912 188.951 251.64 188.529 249.47C188.312 248.35 188.015 247.239 187.691 246.146C187.43 245.263 186.993 244.324 186.944 243.403C186.941 243.341 187.013 243.306 187.063 243.334C187.931 243.831 188.597 244.906 189.092 245.749C189.684 246.758 190.137 247.815 190.502 248.926C191.229 251.14 191.826 253.81 190.888 256.04C190.609 256.704 189.629 256.837 189.398 256.04ZM165.397 272.149C164.48 271.509 163.812 270.614 163.035 269.825C162.271 269.049 163.466 267.853 164.23 268.63C164.893 269.303 165.469 270.144 166.249 270.689C166.625 270.95 166.799 271.424 166.553 271.845C166.335 272.217 165.771 272.41 165.397 272.149ZM160.286 247.559C161.959 246.835 163.604 246.047 165.355 245.526C166.401 245.214 166.844 246.846 165.804 247.156C164.192 247.636 162.679 248.352 161.139 249.018C160.15 249.446 159.29 247.989 160.286 247.559ZM142.617 247.052C142.208 246.042 143.844 245.607 144.247 246.603C144.711 247.749 145.243 248.865 145.707 250.011C146.116 251.021 144.481 251.457 144.078 250.461C143.613 249.315 143.081 248.198 142.617 247.052ZM125.178 267.219C124.906 267.583 124.451 267.78 124.022 267.523C123.662 267.307 123.443 266.734 123.719 266.366C124.524 265.292 125.34 264.231 126.285 263.273C127.05 262.497 128.245 263.693 127.48 264.469C126.637 265.324 125.898 266.26 125.178 267.219ZM122.685 154.064C123.46 154.594 124.14 155.238 124.803 155.901C125.573 156.671 124.378 157.866 123.607 157.096C123.049 156.538 122.486 155.971 121.832 155.524C121.454 155.266 121.284 154.785 121.528 154.367C121.747 153.993 122.308 153.807 122.685 154.064ZM148.056 181.273C147.617 182.151 147.223 183.012 147.198 184.011C147.171 185.099 145.481 185.1 145.508 184.011C145.54 182.704 146.022 181.571 146.597 180.419C147.083 179.444 148.54 180.302 148.056 181.273ZM157.365 159.42C158.274 158.815 159.119 160.28 158.218 160.88C157.488 161.367 156.758 161.854 156.028 162.341C155.119 162.947 154.274 161.482 155.174 160.881C155.905 160.394 156.635 159.907 157.365 159.42ZM116.988 197.627C116.833 198.701 115.205 198.242 115.359 197.178C115.596 195.533 115.886 193.91 116.332 192.308C116.624 191.26 118.254 191.708 117.962 192.757C117.516 194.359 117.226 195.982 116.988 197.627ZM111.063 216.995C109.975 216.972 109.975 215.281 111.063 215.304C112.047 215.325 113.015 215.584 113.965 215.821C115.021 216.085 114.57 217.716 113.515 217.452C112.712 217.251 111.895 217.013 111.063 216.995ZM108.875 256.01C108.501 256.192 108.118 256.356 107.74 256.529C106.984 256.875 106.228 257.221 105.472 257.569C103.897 258.292 102.323 259.017 100.75 259.745C97.6025 261.203 94.4303 262.609 91.2748 264.051C88.057 265.522 84.8477 267.012 81.6423 268.51C80.1322 269.215 78.6106 269.894 77.092 270.581C75.7936 271.169 74.1886 272.195 72.7632 272.291C72.6898 272.297 72.6653 272.204 72.7072 272.156C73.2457 271.543 74.1047 271.187 74.8125 270.789C75.5354 270.382 76.2719 269.999 77.005 269.611C78.5333 268.801 80.0635 267.997 81.6066 267.216C84.6932 265.653 87.7858 264.102 90.8789 262.552C94.0336 260.972 97.1842 259.381 100.367 257.857C101.865 257.14 103.365 256.424 104.865 255.711C105.678 255.324 106.492 254.939 107.305 254.554C107.656 254.387 108.004 254.208 108.363 254.059C108.84 253.861 109.203 253.902 109.695 253.78C110.498 253.582 110.846 254.603 110.23 255.048C109.722 255.414 109.455 255.727 108.875 256.01ZM97.592 273.348C97.4185 272.926 97.7817 272.413 98.1822 272.308C98.662 272.181 99.0467 272.473 99.2219 272.898C99.6852 274.026 100.345 275.06 101.195 275.934C101.954 276.715 100.759 277.911 99.9996 277.129C98.935 276.034 98.1702 274.754 97.592 273.348ZM89.291 246.208C88.5206 245.437 89.7159 244.242 90.4862 245.012L92.6766 247.204C93.4471 247.974 92.2515 249.17 91.4815 248.399L89.291 246.208ZM66.8185 242.635C65.2437 243.097 63.407 243.522 62.3333 244.866C62.2809 244.932 62.1928 244.848 62.2243 244.782C63.5988 241.931 67.5406 240.931 70.2698 239.933C72.2001 239.226 74.1808 238.64 76.1781 238.117C75.9784 235.838 76.529 233.395 76.7204 231.127C76.9247 228.705 77.091 226.277 77.1763 223.848C77.2636 221.37 77.2847 218.875 77.2032 216.396C77.122 213.926 76.8015 211.487 76.6613 209.026C76.6477 208.788 76.979 208.776 77.0504 208.973C77.8798 211.257 78.2341 213.787 78.5041 216.195C78.7822 218.677 78.8745 221.15 78.839 223.646C78.8022 226.212 78.6531 228.771 78.4484 231.329C78.3514 232.541 78.2388 233.752 78.1325 234.963C78.0514 235.888 78.0138 236.805 77.8253 237.7C79.03 237.404 80.2374 237.124 81.441 236.852C85.2789 235.986 89.1328 235.182 92.9546 234.245C94.8307 233.785 96.6799 233.235 98.5475 232.745C100.306 232.285 102.162 231.727 103.968 231.521C104.612 231.448 104.694 232.329 104.268 232.629C102.8 233.659 100.851 234.377 99.1562 234.954C97.4551 235.533 95.6868 235.95 93.9432 236.378C90.307 237.273 86.6365 238.005 82.9714 238.766C79.3114 239.527 75.6444 240.283 72.0256 241.222C70.2829 241.674 68.546 242.128 66.8185 242.635ZM58.1889 197.402C57.2479 197.954 56.3984 196.492 57.336 195.942C58.5628 195.221 59.8703 194.68 61.1884 194.152C62.2 193.747 62.6352 195.383 61.6378 195.783C60.4532 196.257 59.2913 196.754 58.1889 197.402ZM54.7815 260.218C53.838 260.765 52.9879 259.304 53.9286 258.758C55.2499 257.992 56.6969 257.481 58.0661 256.81C59.0403 256.333 59.8959 257.792 58.919 258.27C57.55 258.941 56.1028 259.452 54.7815 260.218ZM53.249 224.561C54.1613 225.427 55.3788 225.836 56.5268 226.291C57.5278 226.688 57.0888 228.322 56.0775 227.921C54.6472 227.354 53.1903 226.836 52.0539 225.756C51.2633 225.005 52.4605 223.811 53.249 224.561ZM63.3415 176.135C64.3444 176.528 63.9051 178.163 62.8921 177.765C61.7686 177.325 60.6083 176.989 59.4848 176.548C58.4821 176.155 58.9211 174.52 59.9341 174.918C61.0577 175.358 62.2179 175.694 63.3415 176.135ZM81.1456 156.9C82.2113 156.721 82.6651 158.35 81.595 158.531C80.2674 158.755 78.9601 159.017 77.7009 159.505C76.6841 159.898 76.2478 158.263 77.2515 157.874C78.5109 157.387 79.8182 157.125 81.1456 156.9ZM87.0284 203.732C86.0513 203.251 86.9086 201.794 87.8813 202.272C88.9063 202.776 89.9684 203.166 91.0868 203.404C92.1518 203.631 91.6982 205.261 90.6375 205.035C89.3787 204.766 88.181 204.299 87.0284 203.732ZM92.5845 177.352C93.6366 177.064 94.0815 178.695 93.0339 178.983C91.1906 179.488 89.2927 179.751 87.4359 180.2C86.3777 180.456 85.93 178.826 86.9865 178.57C88.8434 178.12 90.7414 177.858 92.5845 177.352ZM116.155 169.074C117.225 169.272 116.769 170.901 115.706 170.705C114.574 170.495 113.427 170.492 112.28 170.491C111.19 170.491 111.192 168.8 112.28 168.8C113.583 168.801 114.87 168.836 116.155 169.074ZM193.027 177.907C190.265 177.643 187.5 177.432 184.73 177.273C184.601 177.267 184.475 177.259 184.345 177.252C184.331 177.223 184.312 177.195 184.293 177.165C183.389 175.838 182.723 174.511 182.146 173.01C181.595 171.582 181.06 170.109 180.211 168.819C179.242 167.351 177.935 166.201 176.501 165.205C175.632 165.79 174.825 166.475 174.087 167.2C173.31 167.964 172.115 166.769 172.892 166.005C173.548 165.36 174.248 164.764 174.988 164.226C174.134 163.706 173.262 163.218 172.411 162.732C169.223 160.913 165.959 159.23 162.627 157.692C161.079 156.975 159.511 156.339 157.933 155.694C157.083 155.348 156.245 154.902 155.396 154.5C155.457 153.9 155.277 153.228 154.817 152.833C154.477 152.543 154.213 152.435 153.807 152.231C153.716 152.199 153.661 152.18 153.636 152.169C153.655 152.173 153.71 152.19 153.8 152.22C154.016 152.319 154.033 152.29 153.851 152.133C153.841 151.791 153.167 151.068 153.013 150.715C152.476 149.504 152.309 148.223 151.517 147.12C150.425 145.6 148.591 145.026 146.881 145.541C146.704 143.713 146.658 141.805 145.969 140.173C145.95 140.129 145.889 140.109 145.861 140.158C145.143 141.382 145.082 142.745 145.027 144.157C144.974 145.482 145.024 146.837 145.198 148.153C145.088 148.238 144.976 148.318 144.86 148.396C144.315 148.756 143.727 149.033 143.11 149.238C141.936 149.626 140.704 149.796 139.472 149.855C136.293 150.007 133.016 149.686 129.889 149.14C126.727 148.589 121.878 147.76 119.064 146.177C117.207 145.133 115.494 143.859 113.757 142.624C114.386 140.595 114.547 138.414 113.913 136.7C113.837 136.495 113.516 136.457 113.455 136.7C113.058 138.336 112.941 139.98 112.413 141.597C112.405 141.621 112.396 141.646 112.388 141.669C112.223 141.557 112.058 141.447 111.894 141.337C111.513 141.086 110.996 141.274 110.767 141.633C107.119 147.384 101.341 147.714 95.2731 148.741C88.6327 149.865 81.959 151.078 75.5745 153.279C69.4689 155.384 63.6336 158.448 59.0111 163.026C57.9647 164.063 56.9861 165.167 56.0625 166.32C56.9561 166.433 57.8424 166.608 58.7172 166.883C59.7531 167.209 59.3079 168.84 58.2679 168.513C57.1435 168.16 56.0067 167.985 54.8582 167.898C51.7173 172.197 49.2683 177.071 47.1506 181.868C43.0885 191.066 40.4445 200.862 39.2278 210.835C39.8958 210.434 40.5759 210.053 41.2729 209.698C42.2413 209.205 43.0955 210.664 42.126 211.158C41.0494 211.706 40.0036 212.31 38.9903 212.964C38.5477 217.33 38.3762 221.723 38.4801 226.11C38.7273 236.568 40.1386 247.332 43.3308 257.309C44.8963 262.206 46.971 267.063 50.0618 271.202C51.4604 273.076 53.0491 274.767 54.921 276.177C55.8273 276.861 56.7865 277.472 57.7984 277.988C59.102 278.656 60.8006 278.876 61.9245 279.82C62.2942 280.131 62.5794 280.541 62.7949 281.004C62.6703 281.883 62.6555 282.764 62.8963 283.644C62.9724 283.919 63.1794 284.142 63.4351 284.25C63.4393 284.326 63.4393 284.4 63.4393 284.472C63.4393 284.506 63.49 284.514 63.4963 284.481C63.5069 284.415 63.5175 284.35 63.528 284.282C63.6104 284.309 63.697 284.322 63.7858 284.322C66.9949 284.334 70.2081 284.256 73.4215 284.147C73.173 283.386 72.9039 282.631 72.6455 281.869C72.2946 280.835 73.9275 280.395 74.2752 281.42C74.5775 282.31 74.8936 283.192 75.1748 284.086C78.6178 283.958 82.0598 283.804 85.4956 283.69C92.8034 283.447 100.109 283.367 107.419 283.213C118.77 282.972 130.204 282.479 141.574 282.961C141.967 282.126 142.407 281.311 142.824 280.487C143.316 279.516 144.774 280.372 144.284 281.341C143.994 281.913 143.693 282.478 143.408 283.049C145.71 283.169 148.011 283.327 150.306 283.542C154.223 283.91 158.102 284.563 162.015 284.969C165.993 285.383 169.884 285.309 173.831 284.652C174.541 284.534 174.959 284.104 175.132 283.572C175.138 283.57 175.143 283.566 175.147 283.559C175.35 283.322 175.54 283.126 175.736 282.955C175.971 282.803 176.225 282.674 176.522 282.559C177.078 282.348 177.657 282.219 178.244 282.133C178.891 282.036 179.546 282.027 180.192 281.947C180.737 281.877 181.27 281.773 181.802 281.647C182.759 281.418 183.667 281.12 184.572 280.725C185.36 280.381 186.071 279.886 186.744 279.347C188.134 278.33 189.338 277.033 190.39 275.684C191.003 274.896 191.579 274.078 192.103 273.226C193.016 271.751 193.794 270.219 194.579 268.674C194.865 268.216 195.125 267.747 195.363 267.268C193.827 266.816 192.276 266.447 190.648 266.421C189.56 266.403 189.56 264.712 190.648 264.73C192.515 264.76 194.282 265.196 196.037 265.716C196.122 265.489 196.204 265.26 196.28 265.028C196.489 264.544 196.663 264.047 196.806 263.544C196.89 263.316 196.975 263.088 197.06 262.86C197.25 262.069 197.44 261.277 197.632 260.484C198.015 259.216 198.317 257.929 198.539 256.625C198.725 255.767 198.868 254.902 198.965 254.027C199.261 251.907 199.502 249.792 199.519 247.649C199.494 246.328 199.409 245.009 199.265 243.696C199.204 242.804 199.101 241.917 198.961 241.035C198.779 239.725 198.6 238.428 198.298 237.134C198.072 236.259 197.846 235.384 197.62 234.509C197.055 232.685 196.39 230.897 195.623 229.149C195.581 229.039 195.367 228.798 195.239 228.796C195.141 228.794 195.006 228.883 195.05 229.001C195.055 229.012 195.059 229.024 195.063 229.035C195.019 228.936 194.977 228.834 194.932 228.735C194.894 228.642 194.746 228.456 194.632 228.458C194.626 228.458 194.619 228.458 194.611 228.46C194.641 228.439 194.668 228.412 194.696 228.38C195.454 227.482 195.946 226.3 196.489 225.26C196.939 224.402 197.364 223.498 197.486 222.528C197.594 221.676 197.448 220.837 196.914 220.148C196.305 219.364 195.16 218.996 195.796 217.863C196.519 216.574 197.582 215.456 196.523 213.991C195.984 213.245 195.131 212.835 194.497 212.186C193.768 211.436 193.421 210.432 193.441 209.407C193.485 209.432 193.544 209.42 193.565 209.356C194.178 207.505 193.734 205.472 193.107 203.669C192.765 202.69 192.04 202.422 191.197 202.373C194.848 195.24 198.264 187.993 201.308 180.579C201.41 180.336 201.509 180.093 201.608 179.85C201.756 179.486 201.444 179.002 201.082 178.922C198.45 178.345 195.708 178.161 193.027 177.907Z" fill="black"/>
<path fill-rule="evenodd" clip-rule="evenodd" d="M111.061 50.5837L112.882 52.7546C111.873 53.4669 110.922 54.1827 110.026 54.9018L110.025 54.8996C114.172 52.1871 118.765 50.5837 123.727 50.5837C133.283 50.5837 152.694 58.8131 157.082 64.7489C159.259 67.6946 163.306 76.7378 165.405 86.5694C167.092 94.4689 169.6 116.786 167.092 125.172C163.881 135.904 153.319 145.824 142.428 145.824C131.537 145.824 114.628 137.941 102.594 120.667C102.043 119.877 95.7243 118.962 91.2164 115.997L92.3999 129.069L93.2995 136.673L93.101 137.214C89.8724 145.967 87.3139 150.534 85.4256 150.914C83.4987 151.302 79.5747 148.135 73.6534 141.415L72.8968 138.231C70.975 130.11 70.0142 125.75 70.0142 125.153L70.0155 125.044C70.0438 123.67 70.5161 115.89 70.5259 113.797L70.526 82.4188C76.8941 61.1954 82.9711 50.5837 88.7569 50.5837H111.061Z" fill="#D08B5B"/>
<path fill-rule="evenodd" clip-rule="evenodd" d="M95.9715 43.356C97.8438 42.6289 100.013 42.7663 101.79 43.8611C105.279 43.7111 108.75 45.7569 110.569 48.7433C110.607 48.7856 110.647 48.8278 110.683 48.8701L111.068 49.3206C111.433 49.7508 111.819 50.225 112.124 50.7146C110.629 50.7488 109.384 51.3594 108.515 52.5926C107.895 53.4726 109.316 54.3088 109.949 53.4765L109.972 53.4461C110.493 52.7057 111.281 52.4189 112.158 52.4039C112.41 52.3997 112.601 52.3031 112.736 52.1606C112.789 52.357 112.837 52.5554 112.881 52.7547C117.297 51.0333 122.056 50.5774 126.796 50.9857C126.588 51.323 126.415 51.6845 126.281 52.0643C126.13 52.4948 126.453 52.9891 126.87 53.1041C127.321 53.2284 127.729 52.9633 127.892 52.5537L127.907 52.5136C128.09 51.9962 128.387 51.5521 128.786 51.2079C131.018 51.5111 133.234 51.9934 135.395 52.6152C137.993 53.3632 140.567 54.276 143.083 55.3212C142.657 55.4888 142.289 55.772 142.031 56.2448C141.516 57.1885 142.931 58.0338 143.468 57.1316L143.487 57.0982C143.54 57.0014 143.587 56.9433 143.621 56.9102L143.633 56.8989L143.707 56.8646L143.846 56.8249L143.899 56.8118C143.945 56.8013 143.965 56.8019 144.088 56.7951C144.252 56.7858 144.416 56.7867 144.581 56.7865C144.967 56.7862 145.213 56.5705 145.325 56.2944C146.567 56.8564 147.793 57.4482 148.997 58.0681L149.284 58.2167C153.001 60.164 156.523 62.7213 158.567 66.484C158.702 66.7356 158.744 67.0103 158.71 67.2724C159.146 67.7965 159.568 68.3376 159.973 68.8871C161.208 70.5694 162.113 72.4822 162.969 74.378C164.691 78.1907 165.85 82.1071 166.755 86.1903C167.63 90.1257 168.336 94.1033 168.992 98.0809C169.719 102.5 170.324 106.958 170.451 111.44C170.674 119.432 169.116 127.469 164.64 134.196C160.648 140.199 154.635 144.965 147.505 146.491C140.252 148.042 132.579 146.529 126.863 141.685C125.942 140.905 126.069 139.33 126.863 138.531C127.764 137.631 129.092 137.756 130.009 138.531C135.391 143.094 143.225 143.798 149.71 141.473C155.706 139.322 160.403 134.359 163.285 128.786C166.801 121.989 167.394 114.182 166.854 106.662C166.559 102.532 165.945 98.436 165.313 94.3464L164.931 91.8846C164.515 89.2182 164.077 86.5555 163.506 83.9162L163.373 83.3013C162.675 80.1186 161.858 76.8543 160.595 73.8623C159.933 72.292 159.136 70.7787 158.32 69.2844C158.162 68.9949 157.999 68.7011 157.833 68.4052C157.609 68.4834 157.354 68.4961 157.087 68.4116C154.782 67.693 152.415 67.2111 150.005 67.0505C148.908 66.9769 147.808 66.9655 146.71 67.0084C144.83 66.8987 142.898 67.0644 141.107 67.6422C140.932 67.4916 140.754 67.344 140.577 67.1965C140.529 67.1927 140.481 67.1876 140.433 67.1781C139.976 67.0881 139.655 66.7626 139.461 66.3515C139.451 66.3298 139.442 66.308 139.433 66.2862C139.204 66.1106 138.973 65.9377 138.74 65.7671C138.171 65.9149 137.673 65.4408 137.539 64.9213C137.413 64.8357 137.284 64.7529 137.157 64.669C137.056 64.6935 136.957 64.7138 136.86 64.721C136.441 64.7512 136.037 64.6869 135.666 64.4868C135.197 64.2334 134.897 63.8246 134.696 63.3603C133.986 63.404 133.268 63.173 132.633 62.7554C132.118 62.4166 131.723 61.9489 131.331 61.482C126.55 59.3442 121.353 58.082 116.143 57.7587C115.63 57.8576 115.12 57.9753 114.617 58.1123C114.498 58.1448 114.329 58.2086 114.134 58.2851C115.296 58.1444 116.472 58.1304 117.665 58.3027C123.327 59.1234 127.736 63.3728 131.531 67.384C132.434 67.2012 133.346 68.3731 132.511 69.1492L125.997 75.2003C126.157 75.8771 125.383 76.5441 124.704 76.3816C123.567 76.1077 122.428 75.8414 121.288 75.5795C120.099 76.1563 118.604 76.0576 117.526 75.2215C117.475 75.1826 117.366 75.1205 117.272 75.0587C117.183 75.1321 117.064 75.2056 117.017 75.2369C116.633 75.4914 116.166 75.5662 115.718 75.4948C115.257 75.4214 114.841 75.187 114.483 74.8952C114.254 74.7092 113.722 73.9335 113.426 73.8763L113.398 73.8731C113.595 73.8788 112.96 74.4703 112.79 74.5927C112.392 74.8774 111.952 75.027 111.456 74.9725C110.593 74.8773 109.851 74.0887 109.429 73.3606L109.397 73.3047L109.384 73.2701L109.373 73.3076C109.371 73.3142 109.368 73.3213 109.365 73.3293C109.302 73.5007 109.104 73.6955 108.969 73.8154C108.584 74.1563 108.108 74.3061 107.6 74.2171C107.169 74.142 106.807 73.8814 106.516 73.5659L106.471 73.5157C106.385 73.4183 105.818 72.6546 105.907 72.4716L105.918 72.4562L105.89 72.4503C105.545 72.5352 105.255 72.45 105.043 72.2719C103.86 72.0119 102.691 71.709 101.561 71.324C101.472 71.5734 101.385 71.8228 101.301 72.0743C101.919 72.4568 102.49 73.0021 103.015 73.391C104.01 74.1265 105.005 74.862 105.998 75.5996L109.932 78.509L110.382 78.3879C110.957 78.2332 111.451 78.5687 111.662 79.0816L111.679 79.126C111.763 79.3506 111.863 79.5584 111.982 79.7573C112.965 79.718 113.798 80.3233 114.067 81.1915C114.31 81.186 114.556 81.1953 114.806 81.223C115.494 81.2986 115.957 81.8101 115.832 82.5124L115.823 82.5606L115.806 82.6388C116.204 82.8083 116.493 83.1357 116.557 83.6307C116.664 83.7915 116.75 83.9665 116.805 84.1614C117.092 85.1725 116.533 86.4224 116.236 87.391L116.213 87.4669C116.022 88.1035 115.824 88.737 115.624 89.3703L115.125 90.9425C113.743 95.3242 112.395 99.9441 113.514 104.538C113.752 105.51 112.513 105.949 111.975 105.189C110.672 103.346 109.264 101.611 107.785 99.9444L107.713 99.933C106.678 99.7244 106.276 98.9912 105.801 98.2439C105.521 98.3265 105.22 98.3459 104.929 98.2897C104.508 98.2084 104.13 97.9672 103.832 97.6627C103.58 97.4044 103.349 96.742 103.05 96.5778C102.677 96.3726 101.927 96.6659 101.481 96.6C101.119 96.5465 100.781 96.4218 100.452 96.2652C99.8491 97.0897 99.4492 98.0589 99.3511 99.1039C99.313 99.5012 99.1949 99.8372 99.0242 100.116C99.6524 100.093 100.283 100.137 100.905 100.254C103.207 100.683 104.858 102.107 105.785 104.229C105.825 104.322 105.705 104.398 105.65 104.309C104.274 102.185 101.278 102.078 99.1022 102.826C96.7915 103.62 95.495 105.66 95.0335 107.987C94.5275 110.538 95.1767 113.288 96.562 115.46C97.2048 116.47 98.082 117.392 99.2476 117.764C100.633 118.206 101.912 117.415 103.331 117.823C104.297 118.1 104.723 119.036 104.548 119.973C104.478 120.34 104.35 120.662 104.177 120.941C104.687 121.955 105.159 122.999 105.76 123.959C106.688 125.44 107.809 126.666 109.032 127.902C110.295 129.179 111.581 130.43 112.932 131.614C114.227 132.749 115.711 133.556 117.069 134.596C118.022 135.325 118.494 136.348 118.023 137.519C117.636 138.487 116.328 139.311 115.27 138.874C113.244 138.037 111.471 136.612 109.856 135.145C108.36 133.784 107.056 132.157 106.072 130.39C105.143 128.724 104.459 126.833 103.881 125.01L103.81 124.783C103.538 123.916 103.251 122.942 103.066 121.959C101.955 122.568 100.447 122.657 99.2584 122.492C97.3376 122.228 95.5856 121.258 94.2617 119.844C93.6446 119.186 93.0992 118.435 92.6282 117.622C92.671 118.117 92.6965 118.596 92.7239 119.032C93.8247 120.241 94.2661 121.985 93.8755 123.576C94.7963 124.526 95.0544 125.953 94.5737 127.167C95.5816 128.169 95.5437 129.764 95.1079 131.212C96.2995 132.547 96.4123 134.627 95.4819 136.134L95.4539 136.242C96.3933 137.818 96.1814 139.855 95.0044 141.246C95.8083 142.809 95.6839 144.912 93.675 145.518C92.9428 145.739 92.2332 145.551 91.7021 145.139C92.187 147.557 92.4039 150.011 91.7573 152.44C91.4999 153.404 90.5597 154.108 89.5709 154.108C88.7445 154.108 88.1436 153.691 87.7285 153.078C87.777 154.298 87.7032 155.524 87.4439 156.76C87.2875 157.507 86.5966 158.089 85.8632 158.269C86.1278 158.569 86.2332 159.001 85.9795 159.452C84.9041 161.36 82.3058 160.569 82.1302 158.74C81.3963 158.191 81.0552 157.289 80.9139 156.315C80.7082 154.895 80.6335 153.497 80.4004 152.095L80.3112 152.178L80.2652 152.218L80.2505 152.32C80.1168 153.013 79.7268 153.498 79.2206 153.788C79.3306 154.997 79.127 156.229 78.3617 157.147C77.8519 157.759 76.9836 158 76.2392 157.867C76.1924 157.87 76.1445 157.87 76.0947 157.863C74.4088 157.638 73.4333 156.035 73.8771 154.564C73.1983 153.73 72.9124 152.672 73.1133 151.626C71.7997 150.754 71.8264 148.839 72.2814 147.3C70.9043 146.211 70.3863 144.174 71.0782 142.555C69.8371 141.01 69.6645 138.857 70.5078 137.097C69.1423 135.973 69.1501 133.801 70.5044 132.651C69.7832 131.216 69.3482 129.496 70.069 128.183C69.5605 127.62 69.2814 126.818 69.3402 126.043C69.4264 124.905 70.1774 124.119 71.1092 123.595L71.1737 123.239C71.3926 123.267 71.6257 123.205 71.8313 123.008C72.0347 122.812 72.2441 122.654 72.4606 122.524C72.7058 122.52 72.9168 122.411 73.0652 122.242C73.4713 122.104 73.9079 122.043 74.3921 122.038C75.438 122.026 75.4749 120.458 74.5016 120.357C74.3479 120.201 74.1362 120.103 73.9066 120.103L73.7268 120.104C73.3065 120.108 72.8822 120.134 72.4922 120.302C72.2388 120.41 72.0434 120.574 71.9002 120.774C71.8735 121.078 71.709 121.38 71.3529 121.629C70.9416 121.918 70.3791 121.951 69.939 121.69C69.3227 121.325 69.3164 120.755 69.3874 120.136C69.543 118.78 68.7655 117.504 68.9506 116.117C69.0326 115.504 69.2363 114.975 69.5683 114.547C68.8682 113.497 68.7446 112.14 69.2837 110.987C68.1607 109.776 67.9665 107.909 68.6827 106.451C68.693 106.416 68.701 106.38 68.7122 106.345C68.7931 106.097 68.9047 105.874 69.0276 105.66C68.3989 104.568 68.4035 103.228 69.0425 102.141C68.0747 101.01 68.0439 99.2099 68.9047 97.9913C68.9097 97.8903 68.9203 97.7893 68.9289 97.6882C68.5338 96.66 68.6287 95.491 69.1298 94.5349C68.951 94.1217 68.8132 93.6768 68.725 93.2029C68.4993 91.9813 68.6154 90.7936 68.9527 89.6015C69.0073 89.4134 69.0685 89.2253 69.1338 89.0372C69.1448 88.2208 69.1758 87.4079 69.2167 86.5966C69.0564 85.9097 69.0305 85.1549 69.027 84.4542L69.026 83.9998C69.0181 82.8435 68.9377 81.1504 69.667 80.1675C69.1988 79.1057 69.3912 77.7678 70.1728 76.9262C69.6242 75.9804 69.5091 74.8191 70.0604 73.7697C70.1489 73.6008 70.2516 73.4436 70.3642 73.2948C70.3186 72.3338 70.5204 71.3428 71.0312 70.3877C71.3631 69.7659 71.8587 69.2276 72.4479 68.7969C72.438 68.6694 72.4319 68.5422 72.434 68.4168C72.4444 67.8576 72.5681 67.2961 72.7764 66.7721C72.4026 66.1326 72.2293 65.4117 72.4479 64.6347C72.6925 63.7555 73.3357 62.9989 74.1387 62.572C74.2035 61.743 74.3327 60.919 74.5174 60.1059C74.0238 59.0041 74.4168 57.5501 75.5323 56.901C75.3868 56.0205 75.5179 55.1075 76.1571 54.4198C76.3994 54.1592 76.6848 53.9615 76.992 53.8305C76.844 52.9452 77.011 52.0241 77.6217 51.3032C78.1205 50.7146 78.8597 50.357 79.6119 50.3043C79.9016 48.7644 81.3691 47.613 82.9174 47.7047C83.1109 47.0267 83.5732 46.4356 84.2904 46.1359C84.4741 46.0592 84.6596 46.0086 84.8445 45.9805C86.1035 44.7074 87.9779 43.8444 89.6006 43.4025C91.2283 42.961 92.8783 42.9182 94.2758 43.4316L94.3776 43.4701L94.4915 43.4553C94.985 43.4004 95.4781 43.3687 95.9715 43.356ZM83.6025 147.707C83.1678 147.571 82.6829 147.868 82.5651 148.298C82.4407 148.752 82.7177 149.201 83.1541 149.338C83.6978 149.508 84.2689 149.55 84.8356 149.55C85.2912 149.551 85.6789 149.162 85.6789 148.705C85.6789 148.246 85.2929 147.86 84.8356 147.86C84.3748 147.859 84.0345 147.842 83.6025 147.707ZM79.7354 138.729C79.0855 138.73 78.528 138.885 78.0461 139.342C77.7248 139.647 77.7168 140.235 78.0461 140.538C78.3787 140.844 78.8613 140.862 79.2027 140.57L79.2685 140.511C79.2764 140.504 79.2825 140.498 79.2874 140.493C79.3148 140.476 79.3425 140.457 79.3715 140.442L79.3165 140.478C79.2747 140.509 79.3718 140.459 79.4263 140.436L79.4434 140.429L79.4489 140.427L79.4926 140.424C79.5733 140.42 79.6545 140.42 79.7354 140.42C80.1765 140.42 80.599 140.032 80.5787 139.575C80.5581 139.117 80.2081 138.729 79.7354 138.729ZM92.0006 133.366C92.9134 132.804 92.0981 131.369 91.1827 131.886L91.1495 131.906C90.6802 132.194 90.103 132.155 89.5713 132.155C88.4862 132.156 88.4843 133.847 89.5713 133.846L89.751 133.846C90.5304 133.84 91.3188 133.785 92.0006 133.366ZM84.8169 127.194C84.1272 127.064 83.3547 126.948 82.6291 127.027L82.5086 127.042H82.2853C82.0914 127.042 81.9035 127.121 81.7528 127.244C81.5141 127.343 81.2881 127.476 81.0819 127.655C80.2604 128.369 81.4576 129.561 82.2746 128.851C82.3199 128.811 82.3726 128.779 82.4311 128.752L82.4761 128.733H83.3782C83.4602 128.733 83.5401 128.716 83.6179 128.691C83.9108 128.732 84.1836 128.79 84.3684 128.825C85.4293 129.025 85.8838 127.396 84.8169 127.194ZM84.0467 110.967C82.7249 110.352 81.2609 110.357 80.0384 111.21C79.1642 111.821 79.9762 113.26 80.8579 112.691L80.8895 112.67C80.9991 112.594 81.1117 112.53 81.2255 112.472C81.8462 112.651 82.4709 112.66 83.0709 112.439L83.1491 112.409L83.1956 112.427C84.1739 112.882 85.0315 111.425 84.0467 110.967ZM98.441 108.318C97.1057 108.168 97.0949 106.053 98.441 106.204C101.283 106.524 103.862 107.79 105.751 109.966C106.629 110.977 105.182 112.457 104.287 111.491L104.26 111.46C102.758 109.73 100.731 108.575 98.441 108.318ZM83.4813 97.4602C83.1845 97.4276 82.8883 97.4114 82.5967 97.4255C81.8963 97.4593 81.0434 97.9277 81.3507 98.7739C81.5972 99.4519 82.4051 99.4788 82.8039 99.1172C82.9699 99.1212 83.1356 99.1322 83.3006 99.1491C83.741 99.1945 84.1772 99.2786 84.6113 99.3644C85.6715 99.5735 86.1254 97.9442 85.0597 97.7339L84.5884 97.6404C84.4295 97.6092 84.2693 97.5788 84.1083 97.5509C84.012 97.5028 83.9087 97.4705 83.7983 97.4623L83.7425 97.4602H83.4813ZM75.1022 84.3427L75.0031 84.3293C73.579 84.1466 71.293 84.3147 71.1202 86.132C71.0247 87.1385 72.4751 87.2017 72.7614 86.341C73.813 86.151 74.8732 86.1147 75.9177 86.2301C76.3161 85.8243 76.3193 85.0442 75.656 84.8495C75.5624 84.5972 75.367 84.381 75.1022 84.3427ZM107.654 81.2733C107.325 80.9704 106.785 80.9303 106.462 81.2733C106.275 81.4707 106.119 81.6901 105.996 81.9314L105.914 82.0944C105.9 82.1215 105.886 82.1483 105.871 82.1749C105.843 82.2242 105.812 82.2711 105.782 82.3188L105.762 82.3388C105.754 82.347 105.744 82.3569 105.733 82.3689C105.43 82.6904 105.391 83.2498 105.733 83.5645C106.062 83.8674 106.602 83.9076 106.926 83.5645C107.112 83.3671 107.268 83.148 107.391 82.9064L107.473 82.7436C107.487 82.7166 107.501 82.6897 107.516 82.6631C107.544 82.6137 107.575 82.5667 107.605 82.519L107.638 82.4854C107.643 82.4804 107.648 82.4749 107.654 82.4689C107.958 82.1476 107.996 81.588 107.654 81.2733ZM90.3613 79.0716C89.1731 78.2275 87.7601 78.1882 86.6679 79.2037C85.8796 79.9367 87.0378 81.1112 87.8326 80.4244L87.8605 80.3994C87.8894 80.3723 87.9187 80.3486 87.9478 80.326C88.0903 80.4478 88.2714 80.5249 88.4784 80.5251C88.5325 80.5252 88.5865 80.5251 88.6405 80.5262L88.7215 80.5291L88.7649 80.5327L88.7704 80.5338L88.8083 80.5499C88.8777 80.5813 88.9734 80.6297 88.8421 80.5473C88.8714 80.5627 88.8988 80.5809 88.9266 80.5987L88.9751 80.6428C89.293 80.9442 89.8431 80.9839 90.1587 80.6506C90.7176 80.4613 91.0142 79.5351 90.3613 79.0716ZM101.978 76.302L102 76.2951C103.042 75.9969 102.599 74.3651 101.551 74.6646C100.44 74.9827 99.9094 76.0193 99.6872 77.0812C99.5938 77.5277 99.8179 77.995 100.276 78.1212C100.695 78.2364 101.22 77.9796 101.314 77.5307C101.38 77.215 101.456 76.9472 101.576 76.6986L101.649 76.5568C101.683 76.4921 101.695 76.4814 101.81 76.3807C101.829 76.3638 101.917 76.3229 101.978 76.302ZM84.3311 67.7864L84.1682 67.7491C83.1532 67.5262 81.806 67.4098 81.193 68.4185C80.6344 69.3375 82.0437 70.174 82.6241 69.3054C82.633 69.3051 82.6431 69.3052 82.655 69.3061L82.6741 69.3083L82.9342 69.2872C83.2583 69.2849 83.5684 69.3424 83.8827 69.417C84.9381 69.6674 85.3886 68.0375 84.3311 67.7864ZM120.769 61.2865C121.537 60.5161 120.345 59.3201 119.576 60.0911C118.969 60.7004 118.382 61.314 117.987 62.0882C117.78 62.4944 117.881 63.0054 118.29 63.2449C118.666 63.4658 119.235 63.3495 119.444 62.9416C119.786 62.2706 120.218 61.839 120.769 61.2865ZM111.072 59.2643C110.313 59.7149 109.822 60.4572 109.523 61.3163C109.374 61.7475 109.694 62.241 110.112 62.3562C110.562 62.48 110.973 62.2159 111.135 61.8058L111.15 61.7657C111.229 61.5359 111.357 61.2645 111.515 61.0597C111.65 60.885 111.86 60.71 112.018 60.6518C112.398 60.5119 112.667 60.1666 112.632 59.7633C112.007 59.98 111.427 59.7194 111.072 59.2643ZM88.3462 55.5868C87.5803 54.8742 86.5528 54.7797 85.6243 55.211C85.2109 55.403 85.1074 56.0004 85.3218 56.3678C85.5697 56.7928 86.0607 56.8638 86.4754 56.6711C86.3689 56.7205 86.5612 56.6552 86.6443 56.6313C86.6549 56.6363 86.7941 56.6299 86.8421 56.6306L86.8999 56.6343C86.9004 56.6346 86.8862 56.6344 86.8574 56.6334C86.8979 56.6426 86.9379 56.6535 86.9773 56.6661L87.0276 56.6836C87.0022 56.6783 87.1162 56.7527 87.1479 56.7775L87.1536 56.7822C87.9484 57.5217 89.144 56.3289 88.3462 55.5868Z" fill="black"/>
<path fill-rule="evenodd" clip-rule="evenodd" d="M149.69 120.752C150.415 119.473 152.578 119.681 152.909 121.173C153.579 124.198 149.973 126.992 147.234 127.062C144.513 127.131 141.459 124.813 141.853 121.886C141.95 121.162 142.917 121.25 143.247 121.704L143.374 121.878C144.27 123.081 145.451 124.326 147.112 124.033C147.801 123.912 148.426 123.481 148.842 122.928C149.344 122.259 149.289 121.461 149.69 120.752ZM132.383 98.6196C132.752 98.5179 133.125 98.5572 133.451 98.6963C134.181 98.8301 134.791 99.4388 135.005 100.134C135.022 100.194 135.041 100.253 135.061 100.312L135.094 100.4L135.007 100.177C135.047 100.396 135.225 100.627 135.29 100.847C135.369 101.118 135.388 101.425 135.361 101.723C135.593 101.726 135.825 101.734 136.057 101.754L136.28 101.774C137.532 101.89 138.906 102.104 139.647 103.185C140.064 103.793 139.673 104.887 138.908 105.004C137.729 105.185 136.714 104.533 135.54 104.402C134.43 104.278 133.269 104.349 132.173 104.55C129.911 104.963 127.832 105.881 125.628 106.456L125.328 106.532L125.328 106.531C124.951 106.622 124.522 106.097 124.895 105.789C126.661 104.338 128.922 103.162 131.15 102.446C130.825 101.929 130.725 101.249 130.947 100.695C130.981 100.58 131.024 100.468 131.069 100.357L131.162 100.128C131.172 100.02 131.192 99.9131 131.222 99.8084L131.227 99.7765L131.23 99.7784C131.396 99.2393 131.829 98.7726 132.383 98.6196ZM154.914 98.703C155.397 98.2196 156.076 98.2911 156.58 98.6715L156.647 98.724C157.122 98.9351 157.515 99.3965 157.773 99.824C158.041 100.268 158.219 100.72 158.226 101.209C159.395 101.213 160.515 101.564 161.374 102.508C161.651 102.813 161.84 103.283 161.688 103.696L161.597 103.942C161.309 104.722 160.013 105.172 159.572 104.254L159.552 104.209C159.084 103.119 157.288 103.234 156.333 103.345C155.667 103.423 155.01 103.589 154.368 103.774C154.141 103.839 153.917 103.91 153.692 103.983L153.468 104.055C153.349 104.094 152.726 104.432 153.113 104.352C153.218 104.331 153.296 104.482 153.19 104.533C152.728 104.754 152.235 104.314 152.266 103.818C152.319 102.957 153.687 102.484 154.345 102.187L154.384 102.169C154.636 102.053 154.901 101.941 155.173 101.837C155.02 101.609 154.893 101.355 154.788 101.083C154.688 100.826 154.622 100.576 154.585 100.303C154.549 100.169 154.549 100.036 154.585 99.902L154.591 99.8638C154.572 99.7754 154.563 99.6841 154.564 99.5922L154.561 99.5565H154.564C154.577 99.2346 154.705 98.9121 154.914 98.703ZM147.197 107.877C149.052 108.45 152.114 110.013 151.147 112.424C149.796 114.639 146.216 113.012 144.481 112.296C142.922 111.779 142.11 113.965 143.617 114.624C156.073 119.554 156.028 106.543 147.649 106.734C146.726 106.755 146.697 107.686 147.197 107.877ZM130.717 90.9122L131.033 90.8198C132.678 90.3432 134.357 89.5202 135.817 90.8043C136.391 91.3086 136.509 92.3565 136.099 92.9855C135.164 94.4186 133.778 94.1997 132.268 94.3218C131.119 94.4148 129.987 94.7526 128.914 95.1746C128.037 95.5198 127.224 96.0057 126.456 96.5476C125.702 97.0804 125.187 97.9133 124.413 98.3929C124.13 98.5687 123.802 98.3878 123.7 98.1027C123.339 97.0914 123.949 95.8315 124.465 94.9698C125.095 93.9186 126.052 93.0588 127.08 92.4083C128.207 91.6958 129.452 91.2844 130.717 90.9122ZM154.683 89.824C157.463 89.8231 160.138 91.37 161.693 93.6376C162.221 94.408 161.834 95.5492 161.075 95.9929C160.225 96.4908 159.315 96.1322 158.754 95.4187L158.721 95.3755C157.829 94.1875 156.68 93.2519 155.317 92.6428C154.652 92.3454 153.917 92.1042 153.198 91.9819L152.965 91.942C152.639 91.8874 152.262 91.8353 151.967 91.8863C151.809 91.907 151.664 91.9592 151.531 92.0387C151.595 92.1791 151.429 92.3481 151.276 92.264C150.585 91.8844 150.67 91.2073 151.24 90.681C152.048 89.9364 153.64 89.8242 154.683 89.824Z" fill="black"/>
<path fill-rule="evenodd" clip-rule="evenodd" d="M148.503 116.101C146.153 115.042 141.934 115.966 140.403 116.333C136.842 117.188 133.26 119.034 132.153 121.926C130.905 125.186 133.394 126.212 133.76 126.044C136.225 126.218 139.161 124.668 141.744 124.268C143.841 123.94 146.053 123.654 148.018 122.539C149.453 123.329 152.693 123.755 155.307 124.446C157.534 125.033 158.499 126.307 160.564 126.037C163.038 125.712 162.025 120.506 159.268 118.397C156.25 116.088 151.145 115.152 148.503 116.101ZM153.155 138.361C151.099 138.863 150.961 134.356 150.731 132.763C150.551 131.519 149.537 128.311 146.964 128.45C144.392 128.588 143.425 131.276 143.555 132.948C143.64 134.032 144.639 139.523 141.451 140.218C139.419 140.21 137.068 140.073 134.931 139.679C132.416 139.109 129.146 137.114 128.282 141.043C127.971 142.457 139.05 146.658 143.966 147.038C148.951 148.049 154.784 146.495 158.334 142.679C159.142 141.811 161.416 138.208 161.578 137.326C161.918 135.471 161.13 134.278 158.836 134.931C157.216 135.797 154.477 138.039 153.155 138.361Z" fill="black"/>
<path fill-rule="evenodd" clip-rule="evenodd" d="M167.179 109.153C164.614 111.805 160.332 112.566 156.919 111.144C148.156 107.481 152.445 96.0578 159.203 92.99C160.047 92.7795 161.175 92.2801 162.203 92.1668C162.296 92.1211 162.499 92.2532 162.744 92.1283C170.196 92.9606 171.892 104.532 167.179 109.153ZM138.916 109.832C136.039 113.649 130.69 114.827 126.321 113.052C117.688 109.651 120.75 99.5216 126.656 95.5503C139.133 90.8602 144.285 102.794 138.916 109.832ZM120.202 101.374C120.194 101.37 120.185 101.369 120.177 101.365C120.223 101.345 120.269 101.325 120.314 101.304C120.299 101.343 120.283 101.381 120.269 101.42C120.246 101.404 120.227 101.386 120.202 101.374ZM173.118 97.2481C172.413 97.2496 171.396 97.3654 170.813 97.8542C169.375 93.0031 164.067 88.5134 159.452 91.7872C155.817 92.9566 153.12 95.5501 151.587 98.9981C148.823 97.3533 144.476 98.0557 142.08 100.231C140.51 95.0418 136.647 93.2248 132.048 92.9566C127.03 92.1342 122.027 97.0103 120.466 100.922C119.168 100.774 117.229 100.361 116.008 101.162C108.084 99.0834 94.2304 97.9373 92.6195 99.0923C91.4715 99.533 90.8415 102.244 92.445 102.39C93.8423 102.192 92.2819 100.404 93.6904 100.209C101.195 99.7433 108.481 101.255 115.906 101.89C116.569 102.782 118.711 103.08 119.854 102.722C118.054 109.357 121.939 113.872 127.761 115.224C136.775 117.296 144.618 109.229 142.26 100.838C144.991 99.4791 148.132 99.5374 151.107 100.253C146.136 118.554 175.599 117.733 170.997 98.4813C174.059 100.005 174.724 97.5556 173.118 97.2481Z" fill="black"/>
</svg>
