<svg width="240" height="274" viewBox="0 0 240 274" fill="none" xmlns="http://www.w3.org/2000/svg">
<path fill-rule="evenodd" clip-rule="evenodd" d="M194.637 251.934C193.785 247.123 193.005 242.299 192.295 237.465C191.959 235.169 191.63 232.872 191.335 230.571C191.128 228.959 190.813 227.115 191.909 225.921C193.452 224.24 194.854 222.802 195.043 220.395C195.22 218.129 194.455 215.66 193.976 213.462C192.972 208.851 191.722 204.297 190.341 199.786C188.938 195.204 187.4 190.664 185.839 186.133C184.38 181.897 182.977 177.622 181.077 173.558C177.47 165.845 171.369 160.132 163.828 156.318C161.953 155.37 158.128 151.984 156.169 151.226C154.367 150.528 154.374 152.564 152.601 151.797C151.184 151.184 149.864 150.367 149.071 148.998C148.209 147.512 146.049 145.433 145.72 143.703C145.023 140.035 145.778 136.914 143.161 134.154C140.839 131.703 137.717 130.024 134.487 129.123C127.38 127.14 117.903 128.526 113.616 135.132C111.568 138.286 110.852 142.1 108.089 144.674C105.676 146.922 106.216 148.459 103.091 149.617C102.914 149.683 98.1169 148.654 97.9399 148.72C94.5211 147.988 91.2536 150.037 88.1171 151.226C83.4411 152.998 78.9893 155.304 74.8068 158.045C66.3732 163.573 59.15 170.752 53.195 178.874C47.1908 187.064 42.5321 196.244 39.215 205.838C38.4094 208.168 37.6858 210.527 37.0476 212.908C36.6903 214.241 36.3086 215.624 36.7436 216.988C37.0994 218.105 37.8908 218.936 38.8201 219.606C40.0799 220.514 42.6069 221.104 42.5577 222.931C42.5201 224.32 42.0491 225.781 41.8193 227.153C41.5457 228.787 41.3209 230.431 41.0961 232.073C40.0736 239.544 39.2777 247.057 38.9258 254.592C38.5793 262.011 38.2917 269.581 38.8062 276.998C38.8402 277.487 38.986 277.936 39.2211 278.315C39.0016 278.399 38.9847 278.808 39.2579 278.866C39.4493 278.907 39.6403 278.948 39.8317 278.988C40.2293 279.289 40.7251 279.474 41.2958 279.492C41.6826 279.504 42.0692 279.521 42.4556 279.541C46.5333 280.394 50.6103 281.199 54.7413 281.809C59.7627 282.551 64.7989 283.155 69.8507 283.646C80.2313 284.656 90.5302 284.321 100.925 283.777C111.303 283.234 121.675 283.107 132.064 283.377C142.462 283.648 152.857 284.1 163.257 284.285C174.877 284.492 186.478 284.174 198.064 283.25C199.653 283.124 200.636 281.859 200.322 280.281C198.445 270.825 196.318 261.431 194.637 251.934Z" fill="#D08B5B"/>
<path fill-rule="evenodd" clip-rule="evenodd" d="M88.1171 151.225L88.3441 151.138C91.4111 149.939 94.6035 148.005 97.9399 148.719C98.0579 148.676 100.229 149.118 101.716 149.399L100.304 150.873L97.8136 151.352C106.407 165.54 116.57 172.633 128.303 172.633C140.036 172.633 148.939 165.54 155.012 151.352L155.841 151.123C155.943 151.147 156.052 151.18 156.169 151.225C158.128 151.983 161.953 155.37 163.828 156.318C171.369 160.132 177.47 165.844 181.077 173.558C182.914 177.487 184.286 181.612 185.693 185.709L185.839 186.133C187.4 190.664 188.938 195.203 190.341 199.786C191.662 204.101 192.863 208.455 193.844 212.86L193.976 213.461C194.455 215.66 195.22 218.129 195.043 220.394C194.975 221.252 194.754 221.987 194.427 222.653L177.432 228.771L185.529 284.017C178.112 284.335 170.688 284.417 163.257 284.285C152.857 284.1 142.462 283.647 132.064 283.377C121.99 283.115 111.932 283.226 101.868 283.729L99.3124 283.859C89.4646 284.352 79.6944 284.604 69.8507 283.646L69.1799 283.58L69.1798 275.499L72.6376 230.5L55.1141 227.201L37.9123 218.842C37.3926 218.323 36.9755 217.716 36.7436 216.988C36.3407 215.724 36.6384 214.445 36.9684 213.204L37.0476 212.908C37.6858 210.526 38.4094 208.168 39.215 205.837C42.5321 196.243 47.1908 187.064 53.195 178.874C59.15 170.751 66.3732 163.573 74.8068 158.045C78.9893 155.304 83.4411 152.997 88.1171 151.225Z" fill="#EC7495"/>
<path fill-rule="evenodd" clip-rule="evenodd" d="M94.6977 148.487C95.7722 148.44 96.8679 148.614 97.9398 148.72C98.0332 148.729 98.0687 148.873 97.9635 148.895C96.045 149.296 94.1476 149.844 92.2634 150.401L91.4567 150.64C89.332 151.269 87.2696 151.917 85.2127 152.756C81.1132 154.427 77.2198 156.683 73.6365 159.275C59.8382 169.255 49.8515 184.366 43.5494 200.01C41.8379 204.259 40.3878 208.613 39.2131 213.04C38.9275 214.118 38.6588 215.199 38.404 216.284C38.3292 216.602 38.0032 217.417 38.182 217.742C38.34 218.03 38.9543 218.208 39.2398 218.357L40.2034 218.857C42.083 219.826 45.214 221.419 45.5279 221.574L46.0176 221.816C54.0269 225.743 62.5848 229.074 71.5977 229.305L71.6683 228.535C72.0701 224.278 72.5974 219.999 73.7484 215.873C73.8103 215.651 74.0924 215.726 74.1181 215.923C74.7593 220.807 74.5544 225.73 74.3307 230.637C73.9346 239.328 73.4085 248.014 72.941 256.702C72.7069 261.048 72.4043 265.391 72.1312 269.735C71.8576 274.087 71.7691 278.544 71.1443 282.861C71.0051 283.823 69.8786 284.346 69.0255 284.245C68.0816 284.132 67.3555 283.3 67.351 282.347C67.3396 279.832 67.6555 277.288 67.831 274.78C67.9977 272.397 68.1767 270.015 68.3601 267.633C69.0302 258.94 69.8011 250.257 70.5141 241.568C70.7668 238.486 71.0398 235.407 71.3208 232.328C61.7729 232.02 52.853 228.482 44.3436 224.348C44.2204 227.146 43.9229 229.939 43.635 232.725C42.8311 240.499 42.1223 248.271 41.5918 256.07C41.3239 260.009 41.1289 263.953 40.9591 267.897C40.8756 269.835 40.8076 271.774 40.7554 273.714C40.7379 274.36 40.7222 275.007 40.7082 275.653L40.6792 277.135C40.6554 278.073 40.5601 278.942 39.7707 279.626C38.9689 280.32 37.886 280.357 37.0924 279.626C36.0302 278.647 36.218 277.314 36.2495 276C36.2757 274.891 36.3072 273.783 36.3437 272.675C36.417 270.458 36.5106 268.243 36.6245 266.028C37.023 258.285 37.8191 250.573 38.8596 242.892L39.2658 239.927C40.0243 234.415 40.857 228.777 42.5527 223.467C41.8924 223.139 41.2341 222.808 40.5784 222.476C39.4151 221.887 38.2124 221.334 37.0817 220.683C36.1846 220.168 35.411 219.46 35.1612 218.416C34.8827 217.252 35.3086 215.98 35.5915 214.845L35.6161 214.745C35.8935 213.602 36.1922 212.464 36.5074 211.331C37.7856 206.736 39.3661 202.232 41.2158 197.837C44.9193 189.038 49.6996 180.678 55.5389 173.12C60.795 166.317 67.0041 160.147 74.2815 155.52C77.8392 153.258 81.6306 151.4 85.6403 150.087C87.5144 149.473 89.5536 148.939 91.5158 148.719C92.5743 148.601 93.6342 148.533 94.6977 148.487ZM113.736 134.544C115.013 133.172 117.55 134.592 116.937 136.408C115.494 140.682 113.198 144.579 109.614 147.387C106.245 150.027 102.228 151.742 97.9015 151.376C97.8681 151.373 97.8392 151.364 97.8136 151.352L98.1865 151.858C101.114 155.819 104.201 159.725 107.923 162.963C115.506 169.559 125.831 173.117 135.801 170.586C143.645 168.595 150.555 162.39 152.588 154.482C152.296 154.613 151.95 154.657 151.57 154.575C149.944 154.221 148.334 152.511 147.285 151.284C146.151 149.957 145.265 148.524 144.615 146.904C143.427 143.94 143.045 140.123 144.668 137.251C144.869 136.897 145.33 137.096 145.37 137.441L145.432 137.981C145.744 140.672 146.134 143.275 147.403 145.729C148.023 146.929 148.767 148.101 149.673 149.106C150.158 149.644 150.683 150.158 151.25 150.609C151.803 151.049 152.472 151.366 152.968 151.87L153.058 151.967L153.061 151.95C153.186 150.884 153.933 150.415 154.664 150.444C155.371 150.473 156.202 150.784 156.523 150.933L156.554 150.948C161.487 153.317 166.031 156.405 170.307 159.831C179.15 166.916 185.776 176.179 188.986 187.086C190.561 192.439 191.465 197.956 192.42 203.446L193.007 206.81C193.898 211.878 194.893 217.047 196.904 221.761C197.424 222.981 197.023 224.125 195.748 224.605C194.155 225.203 192.557 225.783 190.956 226.356C191.742 229.73 192.221 233.221 192.81 236.611C194.062 243.818 195.596 250.979 196.912 258.176C197.584 261.856 198.191 265.548 198.863 269.229C199.186 271.001 199.524 272.771 199.852 274.543C200.029 275.498 200.189 276.456 200.358 277.413L200.387 277.571C200.484 278.076 200.606 278.598 200.467 279.103C200.309 279.679 199.859 280.086 199.458 280.499C199.128 280.839 198.651 280.841 198.246 280.655L198.113 280.594C197.39 280.256 196.824 279.919 196.568 279.103C196.406 278.587 196.347 278.005 196.241 277.473C196.038 276.453 195.845 275.432 195.663 274.408C195.298 272.36 194.943 270.31 194.595 268.258L194.271 266.337C193.157 259.715 192.1 253.054 191.566 246.362C191.328 243.394 191.077 240.428 190.823 237.461L190.633 235.236C190.392 232.42 190.098 229.532 190.056 226.678L189.099 227.018L184.428 228.67C183.269 229.079 181.795 229.919 180.548 229.766C179.938 229.691 179.473 229.499 179.114 229.15C179.544 235.223 180.126 241.285 180.902 247.316C181.608 252.804 182.391 258.284 183.316 263.74C183.773 266.442 184.244 269.14 184.755 271.832C185.01 273.178 185.274 274.522 185.546 275.865C185.681 276.535 185.842 277.206 185.948 277.881C186.069 278.655 185.856 279.131 185.424 279.767C185.069 280.29 184.359 280.558 183.784 280.198C183.022 279.719 182.625 279.305 182.401 278.434C182.197 277.643 182.073 276.817 181.916 276.016C181.625 274.537 181.344 273.056 181.072 271.573C180.504 268.472 179.981 265.364 179.514 262.246C177.867 251.262 176.822 240.187 176.294 229.093C176.034 223.62 175.953 218.142 176 212.663C176.023 209.854 176.115 207.038 176.313 204.236C176.515 201.401 176.933 198.622 177.306 195.813C177.32 195.714 177.459 195.708 177.465 195.813C177.642 198.962 177.919 202.107 178.055 205.264C178.184 208.276 178.241 211.293 178.344 214.307C178.48 218.268 178.668 222.231 178.916 226.192C179.367 225.699 180.045 225.415 180.724 225.526C181.708 225.32 182.767 224.803 183.704 224.49L187.24 223.309C189.098 222.688 190.957 222.071 192.822 221.473C191.154 215.861 190.012 210.165 189.037 204.386L188.602 201.787C187.741 196.672 186.812 191.554 185.253 186.6C183.613 181.392 181.159 176.55 177.904 172.165C174.696 167.844 170.792 164.038 166.773 160.479C163.332 157.433 159.651 154.682 156.142 151.718C156.178 151.915 156.186 152.131 156.154 152.369C155.408 157.832 152.559 162.92 148.588 166.704C140.612 174.307 128.805 175.884 118.596 172.319C108.721 168.87 99.9897 160.703 96.905 150.597C96.8522 150.424 97.0837 150.356 97.1767 150.483C97.3478 150.717 97.5198 150.952 97.6919 151.186C97.6803 151.093 97.7287 150.992 97.8436 150.947C101.443 149.557 104.977 147.586 107.675 144.796C108.99 143.437 110.138 141.896 111.043 140.235C111.477 139.439 111.867 138.615 112.178 137.764L112.257 137.544C112.634 136.477 112.949 135.389 113.736 134.544Z" fill="black"/>
<path fill-rule="evenodd" clip-rule="evenodd" d="M111.061 50.5837L112.882 52.7546C111.873 53.4669 110.922 54.1827 110.026 54.9018L110.025 54.8996C114.172 52.1871 118.765 50.5837 123.727 50.5837C133.283 50.5837 152.694 58.8131 157.082 64.7489C159.259 67.6946 163.306 76.7378 165.405 86.5694C167.092 94.4689 169.6 116.786 167.092 125.172C163.881 135.904 153.319 145.824 142.428 145.824C131.537 145.824 114.628 137.941 102.594 120.667C102.043 119.877 95.7243 118.962 91.2164 115.997L92.3999 129.069L93.2995 136.673L93.101 137.214C89.8724 145.967 87.3139 150.534 85.4256 150.914C83.4987 151.302 79.5747 148.135 73.6534 141.415L72.8968 138.231C70.975 130.11 70.0142 125.75 70.0142 125.153L70.0155 125.044C70.0438 123.67 70.5161 115.89 70.5259 113.797L70.526 82.4188C76.8941 61.1954 82.9711 50.5837 88.7569 50.5837H111.061Z" fill="#D08B5B"/>
<path fill-rule="evenodd" clip-rule="evenodd" d="M95.9716 43.356C97.8439 42.6289 100.013 42.7663 101.79 43.8611C105.28 43.7111 108.75 45.7569 110.569 48.7433C110.607 48.7856 110.647 48.8278 110.683 48.8701L111.068 49.3206C111.434 49.7508 111.819 50.225 112.124 50.7146C110.629 50.7488 109.384 51.3594 108.515 52.5926C107.895 53.4726 109.316 54.3088 109.95 53.4765L109.972 53.4461C110.494 52.7057 111.281 52.4189 112.158 52.4039C112.41 52.3997 112.601 52.3031 112.736 52.1606C112.789 52.357 112.838 52.5554 112.882 52.7547C117.297 51.0333 122.056 50.5774 126.796 50.9857C126.589 51.323 126.415 51.6845 126.281 52.0643C126.13 52.4948 126.453 52.9891 126.87 53.1041C127.321 53.2284 127.729 52.9633 127.892 52.5537L127.908 52.5136C128.09 51.9962 128.387 51.5521 128.786 51.2079C131.018 51.5111 133.234 51.9934 135.395 52.6152C137.993 53.3632 140.567 54.276 143.084 55.3212C142.657 55.4888 142.289 55.772 142.031 56.2448C141.516 57.1885 142.931 58.0338 143.468 57.1316L143.487 57.0982C143.54 57.0014 143.587 56.9433 143.621 56.9102L143.633 56.8989L143.707 56.8646L143.846 56.8249L143.899 56.8118C143.946 56.8013 143.965 56.8019 144.088 56.7951C144.252 56.7858 144.417 56.7867 144.581 56.7865C144.967 56.7862 145.213 56.5705 145.325 56.2944C146.567 56.8564 147.793 57.4482 148.997 58.0681L149.284 58.2167C153.001 60.164 156.524 62.7213 158.567 66.484C158.702 66.7356 158.744 67.0103 158.71 67.2724C159.146 67.7965 159.568 68.3376 159.973 68.8871C161.208 70.5694 162.113 72.4822 162.969 74.378C164.691 78.1907 165.851 82.1071 166.755 86.1903C167.63 90.1257 168.336 94.1033 168.992 98.0809C169.719 102.5 170.324 106.958 170.451 111.44C170.674 119.432 169.116 127.469 164.64 134.196C160.648 140.199 154.635 144.965 147.505 146.491C140.253 148.042 132.579 146.529 126.864 141.685C125.942 140.905 126.069 139.33 126.864 138.531C127.764 137.631 129.092 137.756 130.009 138.531C135.391 143.094 143.225 143.798 149.71 141.473C155.706 139.322 160.403 134.359 163.285 128.786C166.801 121.989 167.394 114.182 166.854 106.662C166.559 102.532 165.945 98.436 165.313 94.3464L164.931 91.8846C164.515 89.2182 164.077 86.5555 163.506 83.9162L163.373 83.3013C162.675 80.1186 161.858 76.8543 160.595 73.8623C159.933 72.292 159.136 70.7787 158.32 69.2844C158.162 68.9949 158 68.7011 157.833 68.4052C157.61 68.4834 157.354 68.4961 157.087 68.4116C154.782 67.693 152.415 67.2111 150.005 67.0505C148.908 66.9769 147.808 66.9655 146.71 67.0084C144.83 66.8987 142.898 67.0644 141.107 67.6422C140.932 67.4916 140.754 67.344 140.577 67.1965C140.529 67.1927 140.481 67.1876 140.433 67.1781C139.976 67.0881 139.655 66.7626 139.461 66.3515C139.451 66.3298 139.442 66.308 139.433 66.2862C139.204 66.1106 138.973 65.9377 138.74 65.7671C138.172 65.9149 137.674 65.4408 137.54 64.9213C137.413 64.8357 137.284 64.7529 137.157 64.669C137.057 64.6935 136.957 64.7138 136.86 64.721C136.442 64.7512 136.037 64.6869 135.667 64.4868C135.197 64.2334 134.897 63.8246 134.696 63.3603C133.986 63.404 133.268 63.173 132.633 62.7554C132.118 62.4166 131.723 61.9489 131.331 61.482C126.55 59.3442 121.353 58.082 116.143 57.7587C115.63 57.8576 115.121 57.9753 114.617 58.1123C114.498 58.1448 114.329 58.2086 114.135 58.2851C115.296 58.1444 116.472 58.1304 117.665 58.3027C123.327 59.1234 127.736 63.3728 131.531 67.384C132.434 67.2012 133.346 68.3731 132.511 69.1492L125.997 75.2003C126.157 75.8771 125.383 76.5441 124.704 76.3816C123.567 76.1077 122.428 75.8414 121.288 75.5795C120.099 76.1563 118.604 76.0576 117.526 75.2215C117.476 75.1826 117.367 75.1205 117.272 75.0587C117.183 75.1321 117.064 75.2056 117.017 75.2369C116.633 75.4914 116.166 75.5662 115.718 75.4948C115.257 75.4214 114.841 75.187 114.483 74.8952C114.254 74.7092 113.723 73.9335 113.426 73.8763L113.398 73.8731C113.595 73.8788 112.96 74.4703 112.79 74.5927C112.392 74.8774 111.952 75.027 111.456 74.9725C110.593 74.8773 109.851 74.0887 109.429 73.3606L109.397 73.3047L109.384 73.2701L109.373 73.3076C109.371 73.3142 109.368 73.3213 109.366 73.3293C109.302 73.5007 109.104 73.6955 108.969 73.8154C108.584 74.1563 108.108 74.3061 107.6 74.2171C107.169 74.142 106.807 73.8814 106.516 73.5659L106.471 73.5157C106.385 73.4183 105.818 72.6546 105.908 72.4716L105.918 72.4562L105.89 72.4503C105.545 72.5352 105.255 72.45 105.043 72.2719C103.86 72.0119 102.692 71.709 101.561 71.324C101.472 71.5734 101.385 71.8228 101.301 72.0743C101.919 72.4568 102.49 73.0021 103.015 73.391C104.01 74.1265 105.005 74.862 105.998 75.5996L109.933 78.509L110.383 78.3879C110.957 78.2332 111.451 78.5687 111.662 79.0816L111.679 79.126C111.763 79.3506 111.864 79.5584 111.982 79.7573C112.965 79.718 113.798 80.3233 114.067 81.1915C114.31 81.186 114.556 81.1953 114.807 81.223C115.494 81.2986 115.957 81.8101 115.832 82.5124L115.823 82.5606L115.806 82.6388C116.205 82.8083 116.493 83.1357 116.557 83.6307C116.664 83.7915 116.75 83.9665 116.805 84.1614C117.093 85.1725 116.534 86.4224 116.236 87.391L116.213 87.4669C116.022 88.1035 115.824 88.737 115.624 89.3703L115.125 90.9425C113.743 95.3242 112.396 99.9441 113.514 104.538C113.752 105.51 112.513 105.949 111.975 105.189C110.672 103.346 109.264 101.611 107.785 99.9444L107.714 99.933C106.678 99.7244 106.276 98.9912 105.801 98.2439C105.521 98.3265 105.22 98.3459 104.929 98.2897C104.508 98.2084 104.13 97.9672 103.832 97.6627C103.58 97.4044 103.349 96.742 103.051 96.5778C102.677 96.3726 101.927 96.6659 101.482 96.6C101.119 96.5465 100.781 96.4218 100.453 96.2652C99.8492 97.0897 99.4493 98.0589 99.3513 99.1039C99.3131 99.5012 99.195 99.8372 99.0243 100.116C99.6525 100.093 100.283 100.137 100.905 100.254C103.207 100.683 104.858 102.107 105.786 104.229C105.825 104.322 105.705 104.398 105.65 104.309C104.274 102.185 101.278 102.078 99.1023 102.826C96.7917 103.62 95.4951 105.66 95.0336 107.987C94.5277 110.538 95.1768 113.288 96.5621 115.46C97.2049 116.47 98.0821 117.392 99.2477 117.764C100.633 118.206 101.913 117.415 103.331 117.823C104.297 118.1 104.723 119.036 104.548 119.973C104.478 120.34 104.35 120.662 104.177 120.941C104.687 121.955 105.159 122.999 105.76 123.959C106.688 125.44 107.809 126.666 109.032 127.902C110.295 129.179 111.581 130.43 112.932 131.614C114.227 132.749 115.711 133.556 117.069 134.596C118.022 135.325 118.494 136.348 118.024 137.519C117.636 138.487 116.329 139.311 115.27 138.874C113.244 138.037 111.471 136.612 109.857 135.145C108.36 133.784 107.057 132.157 106.072 130.39C105.143 128.724 104.459 126.833 103.882 125.01L103.81 124.783C103.538 123.916 103.251 122.942 103.066 121.959C101.955 122.568 100.447 122.657 99.2585 122.492C97.3377 122.228 95.5858 121.258 94.2618 119.844C93.6447 119.186 93.0993 118.435 92.6284 117.622C92.6712 118.117 92.6967 118.596 92.7241 119.032C93.8248 120.241 94.2662 121.985 93.8756 123.576C94.7965 124.526 95.0545 125.953 94.5738 127.167C95.5818 128.169 95.5438 129.764 95.108 131.212C96.2996 132.547 96.4124 134.627 95.482 136.134L95.454 136.242C96.3934 137.818 96.1815 139.855 95.0045 141.246C95.8084 142.809 95.684 144.912 93.6751 145.518C92.9429 145.739 92.2333 145.551 91.7022 145.139C92.1871 147.557 92.404 150.011 91.7575 152.44C91.5 153.404 90.5598 154.108 89.571 154.108C88.7446 154.108 88.1438 153.691 87.7286 153.078C87.7771 154.298 87.7033 155.524 87.444 156.76C87.2876 157.507 86.5967 158.089 85.8633 158.269C86.1279 158.569 86.2333 159.001 85.9797 159.452C84.9043 161.36 82.3059 160.569 82.1303 158.74C81.3964 158.191 81.0553 157.289 80.914 156.315C80.7083 154.895 80.6336 153.497 80.4005 152.095L80.3113 152.178L80.2653 152.218L80.2506 152.32C80.1169 153.013 79.7269 153.498 79.2207 153.788C79.3308 154.997 79.1271 156.229 78.3618 157.147C77.8521 157.759 76.9837 158 76.2393 157.867C76.1925 157.87 76.1446 157.87 76.0949 157.863C74.4089 157.638 73.4334 156.035 73.8772 154.564C73.1984 153.73 72.9125 152.672 73.1134 151.626C71.7998 150.754 71.8266 148.839 72.2815 147.3C70.9044 146.211 70.3864 144.174 71.0784 142.555C69.8372 141.01 69.6646 138.857 70.5079 137.097C69.1424 135.973 69.1502 133.801 70.5045 132.651C69.7833 131.216 69.3484 129.496 70.0692 128.183C69.5606 127.62 69.2815 126.818 69.3403 126.043C69.4266 124.905 70.1775 124.119 71.1093 123.595L71.1739 123.239C71.3927 123.267 71.6259 123.205 71.8314 123.008C72.0349 122.812 72.2442 122.654 72.4607 122.524C72.7059 122.52 72.9169 122.411 73.0654 122.242C73.4714 122.104 73.908 122.043 74.3923 122.038C75.4382 122.026 75.475 120.458 74.5017 120.357C74.348 120.201 74.1363 120.103 73.9067 120.103L73.727 120.104C73.3067 120.108 72.8823 120.134 72.4923 120.302C72.2389 120.41 72.0435 120.574 71.9004 120.774C71.8736 121.078 71.7091 121.38 71.3531 121.629C70.9417 121.918 70.3793 121.951 69.9391 121.69C69.3228 121.325 69.3165 120.755 69.3876 120.136C69.5432 118.78 68.7656 117.504 68.9507 116.117C69.0328 115.504 69.2364 114.975 69.5684 114.547C68.8683 113.497 68.7448 112.14 69.2838 110.987C68.1608 109.776 67.9666 107.909 68.6828 106.451C68.6931 106.416 68.7011 106.38 68.7123 106.345C68.7933 106.097 68.9048 105.874 69.0277 105.66C68.399 104.568 68.4037 103.228 69.0427 102.141C68.0748 101.01 68.044 99.2099 68.9048 97.9913C68.9098 97.8903 68.9204 97.7893 68.929 97.6882C68.5339 96.66 68.6288 95.491 69.1299 94.5349C68.9512 94.1217 68.8133 93.6768 68.7252 93.2029C68.4994 91.9813 68.6155 90.7936 68.9529 89.6015C69.0075 89.4134 69.0686 89.2253 69.1339 89.0372C69.1449 88.2208 69.1759 87.4079 69.2168 86.5966C69.0565 85.9097 69.0306 85.1549 69.0271 84.4542L69.0261 83.9998C69.0183 82.8435 68.9379 81.1504 69.6671 80.1675C69.1989 79.1057 69.3914 77.7678 70.1729 76.9262C69.6243 75.9804 69.5092 74.8191 70.0605 73.7697C70.1491 73.6008 70.2517 73.4436 70.3643 73.2948C70.3188 72.3338 70.5205 71.3428 71.0313 70.3877C71.3632 69.7659 71.8588 69.2276 72.4481 68.7969C72.4382 68.6694 72.432 68.5422 72.4342 68.4168C72.4445 67.8576 72.5682 67.2961 72.7765 66.7721C72.4027 66.1326 72.2294 65.4117 72.4481 64.6347C72.6926 63.7555 73.3358 62.9989 74.1389 62.572C74.2036 61.743 74.3328 60.919 74.5175 60.1059C74.024 59.0041 74.4169 57.5501 75.5324 56.901C75.3869 56.0205 75.5181 55.1075 76.1573 54.4198C76.3995 54.1592 76.685 53.9615 76.9921 53.8305C76.8441 52.9452 77.0111 52.0241 77.6218 51.3032C78.1207 50.7146 78.8598 50.357 79.612 50.3043C79.9017 48.7644 81.3692 47.613 82.9175 47.7047C83.111 47.0267 83.5733 46.4356 84.2906 46.1359C84.4742 46.0592 84.6597 46.0086 84.8446 45.9805C86.1036 44.7074 87.978 43.8444 89.6007 43.4025C91.2284 42.961 92.8784 42.9182 94.276 43.4316L94.3778 43.4701L94.4916 43.4553C94.9851 43.4004 95.4782 43.3687 95.9716 43.356ZM83.6027 147.707C83.1679 147.571 82.683 147.868 82.5652 148.298C82.4408 148.752 82.7178 149.201 83.1542 149.338C83.6979 149.508 84.2691 149.55 84.8358 149.55C85.2913 149.551 85.679 149.162 85.679 148.705C85.679 148.246 85.293 147.86 84.8358 147.86C84.3749 147.859 84.0346 147.842 83.6027 147.707ZM79.7355 138.729C79.0856 138.73 78.5282 138.885 78.0462 139.342C77.7249 139.647 77.7169 140.235 78.0462 140.538C78.3788 140.844 78.8614 140.862 79.2028 140.57L79.2686 140.511C79.2765 140.504 79.2826 140.498 79.2875 140.493C79.315 140.476 79.3426 140.457 79.3717 140.442L79.3167 140.478C79.2748 140.509 79.3719 140.459 79.4264 140.436L79.4436 140.429L79.449 140.427L79.4927 140.424C79.5734 140.42 79.6546 140.42 79.7355 140.42C80.1766 140.42 80.5991 140.032 80.5788 139.575C80.5582 139.117 80.2082 138.729 79.7355 138.729ZM92.0007 133.366C92.9136 132.804 92.0982 131.369 91.1828 131.886L91.1497 131.906C90.6804 132.194 90.1031 132.155 89.5714 132.155C88.4863 132.156 88.4844 133.847 89.5714 133.846L89.7511 133.846C90.5305 133.84 91.3189 133.785 92.0007 133.366ZM84.817 127.194C84.1273 127.064 83.3548 126.948 82.6292 127.027L82.5087 127.042H82.2854C82.0915 127.042 81.9036 127.121 81.7529 127.244C81.5143 127.343 81.2882 127.476 81.0821 127.655C80.2605 128.369 81.4578 129.561 82.2747 128.851C82.3201 128.811 82.3727 128.779 82.4312 128.752L82.4762 128.733H83.3783C83.4603 128.733 83.5402 128.716 83.618 128.691C83.9109 128.732 84.1837 128.79 84.3686 128.825C85.4294 129.025 85.884 127.396 84.817 127.194ZM84.0469 110.967C82.725 110.352 81.2611 110.357 80.0385 111.21C79.1643 111.821 79.9763 113.26 80.8581 112.691L80.8896 112.67C80.9992 112.594 81.1118 112.53 81.2256 112.472C81.8463 112.651 82.471 112.66 83.0711 112.439L83.1492 112.409L83.1958 112.427C84.174 112.882 85.0316 111.425 84.0469 110.967ZM98.4412 108.318C97.1058 108.168 97.0951 106.053 98.4412 106.204C101.283 106.524 103.862 107.79 105.751 109.966C106.629 110.977 105.183 112.457 104.288 111.491L104.26 111.46C102.758 109.73 100.731 108.575 98.4412 108.318ZM83.4814 97.4602C83.1846 97.4276 82.8884 97.4114 82.5968 97.4255C81.8965 97.4593 81.0435 97.9277 81.3509 98.7739C81.5973 99.4519 82.4052 99.4788 82.8041 99.1172C82.97 99.1212 83.1357 99.1322 83.3008 99.1491C83.7412 99.1945 84.1774 99.2786 84.6114 99.3644C85.6717 99.5735 86.1256 97.9442 85.0599 97.7339L84.5885 97.6404C84.4297 97.6092 84.2694 97.5788 84.1084 97.5509C84.0121 97.5028 83.9088 97.4705 83.7984 97.4623L83.7426 97.4602H83.4814ZM75.1023 84.3427L75.0033 84.3293C73.5792 84.1466 71.2931 84.3147 71.1203 86.132C71.0248 87.1385 72.4753 87.2017 72.7616 86.341C73.8131 86.151 74.8734 86.1147 75.9178 86.2301C76.3162 85.8243 76.3194 85.0442 75.6561 84.8495C75.5625 84.5972 75.3671 84.381 75.1023 84.3427ZM107.654 81.2733C107.325 80.9704 106.785 80.9303 106.462 81.2733C106.275 81.4707 106.119 81.6901 105.996 81.9314L105.914 82.0944C105.9 82.1215 105.886 82.1483 105.871 82.1749C105.843 82.2242 105.812 82.2711 105.782 82.3188L105.762 82.3388C105.754 82.347 105.744 82.3569 105.733 82.3689C105.43 82.6904 105.391 83.2498 105.733 83.5645C106.062 83.8674 106.602 83.9076 106.926 83.5645C107.112 83.3671 107.268 83.148 107.391 82.9064L107.473 82.7436C107.487 82.7166 107.501 82.6897 107.516 82.6631C107.544 82.6137 107.575 82.5667 107.605 82.519L107.639 82.4854C107.643 82.4804 107.649 82.4749 107.654 82.4689C107.958 82.1476 107.996 81.588 107.654 81.2733ZM90.3614 79.0716C89.1732 78.2275 87.7603 78.1882 86.668 79.2037C85.8797 79.9367 87.0379 81.1112 87.8327 80.4244L87.8606 80.3994C87.8895 80.3723 87.9188 80.3486 87.9479 80.326C88.0904 80.4478 88.2715 80.5249 88.4785 80.5251C88.5327 80.5252 88.5867 80.5251 88.6407 80.5262L88.7216 80.5291L88.765 80.5327L88.7705 80.5338L88.8085 80.5499C88.8778 80.5813 88.9735 80.6297 88.8422 80.5473C88.8715 80.5627 88.8989 80.5809 88.9267 80.5987L88.9752 80.6428C89.2932 80.9442 89.8432 80.9839 90.1588 80.6506C90.7177 80.4613 91.0143 79.5351 90.3614 79.0716ZM101.978 76.302L102 76.2951C103.042 75.9969 102.599 74.3651 101.551 74.6646C100.44 74.9827 99.9095 76.0193 99.6873 77.0812C99.5939 77.5277 99.818 77.995 100.276 78.1212C100.695 78.2364 101.22 77.9796 101.314 77.5307C101.38 77.215 101.456 76.9472 101.576 76.6986L101.649 76.5568C101.683 76.4921 101.695 76.4814 101.81 76.3807C101.829 76.3638 101.917 76.3229 101.978 76.302ZM84.3313 67.7864L84.1683 67.7491C83.1533 67.5262 81.8061 67.4098 81.1932 68.4185C80.6345 69.3375 82.0438 70.174 82.6242 69.3054C82.6331 69.3051 82.6432 69.3052 82.6551 69.3061L82.6742 69.3083L82.9343 69.2872C83.2584 69.2849 83.5685 69.3424 83.8828 69.417C84.9382 69.6674 85.3887 68.0375 84.3313 67.7864ZM120.769 61.2865C121.537 60.5161 120.345 59.3201 119.576 60.0911C118.969 60.7004 118.382 61.314 117.987 62.0882C117.78 62.4944 117.881 63.0054 118.29 63.2449C118.667 63.4658 119.235 63.3495 119.444 62.9416C119.786 62.2706 120.218 61.839 120.769 61.2865ZM111.072 59.2643C110.313 59.7149 109.822 60.4572 109.523 61.3163C109.374 61.7475 109.694 62.241 110.112 62.3562C110.562 62.48 110.973 62.2159 111.135 61.8058L111.15 61.7657C111.23 61.5359 111.357 61.2645 111.515 61.0597C111.65 60.885 111.86 60.71 112.018 60.6518C112.398 60.5119 112.668 60.1666 112.632 59.7633C112.007 59.98 111.427 59.7194 111.072 59.2643ZM88.3464 55.5868C87.5804 54.8742 86.5529 54.7797 85.6244 55.211C85.211 55.403 85.1075 56.0004 85.3219 56.3678C85.5698 56.7928 86.0608 56.8638 86.4755 56.6711C86.3691 56.7205 86.5613 56.6552 86.6444 56.6313C86.655 56.6363 86.7942 56.6299 86.8423 56.6306L86.9 56.6343C86.9005 56.6346 86.8863 56.6344 86.8575 56.6334C86.898 56.6426 86.938 56.6535 86.9774 56.6661L87.0277 56.6836C87.0024 56.6783 87.1163 56.7527 87.148 56.7775L87.1537 56.7822C87.9485 57.5217 89.1441 56.3289 88.3464 55.5868Z" fill="black"/>
<path fill-rule="evenodd" clip-rule="evenodd" d="M149.69 120.752C150.415 119.473 152.578 119.681 152.909 121.173C153.579 124.198 149.973 126.992 147.234 127.062C144.513 127.131 141.459 124.813 141.853 121.886C141.95 121.162 142.917 121.25 143.247 121.704L143.374 121.878C144.27 123.081 145.451 124.326 147.112 124.033C147.801 123.912 148.426 123.481 148.842 122.928C149.344 122.259 149.289 121.461 149.69 120.752ZM132.383 98.6196C132.752 98.5179 133.125 98.5572 133.451 98.6963C134.181 98.8301 134.791 99.4388 135.005 100.134C135.022 100.194 135.041 100.253 135.061 100.312L135.094 100.4L135.007 100.177C135.047 100.396 135.225 100.627 135.29 100.847C135.369 101.118 135.388 101.425 135.361 101.723C135.593 101.726 135.825 101.734 136.057 101.754L136.28 101.774C137.532 101.89 138.906 102.104 139.647 103.185C140.064 103.793 139.673 104.887 138.908 105.004C137.729 105.185 136.714 104.533 135.54 104.402C134.43 104.278 133.269 104.349 132.173 104.55C129.911 104.963 127.832 105.881 125.628 106.456L125.328 106.532L125.328 106.531C124.951 106.622 124.522 106.097 124.895 105.789C126.661 104.338 128.922 103.162 131.15 102.446C130.825 101.929 130.725 101.249 130.947 100.695C130.981 100.58 131.024 100.468 131.069 100.357L131.162 100.128C131.172 100.02 131.192 99.9131 131.222 99.8084L131.227 99.7765L131.23 99.7784C131.396 99.2393 131.829 98.7726 132.383 98.6196ZM154.914 98.703C155.397 98.2196 156.076 98.2911 156.58 98.6715L156.647 98.724C157.122 98.9351 157.515 99.3965 157.773 99.824C158.041 100.268 158.219 100.72 158.226 101.209C159.395 101.213 160.515 101.564 161.374 102.508C161.651 102.813 161.84 103.283 161.688 103.696L161.597 103.942C161.309 104.722 160.013 105.172 159.572 104.254L159.552 104.209C159.084 103.119 157.288 103.234 156.333 103.345C155.667 103.423 155.01 103.589 154.368 103.774C154.141 103.839 153.917 103.91 153.692 103.983L153.468 104.055C153.349 104.094 152.726 104.432 153.113 104.352C153.218 104.331 153.296 104.482 153.19 104.533C152.728 104.754 152.235 104.314 152.266 103.818C152.319 102.957 153.687 102.484 154.345 102.187L154.384 102.169C154.636 102.053 154.901 101.941 155.173 101.837C155.02 101.609 154.893 101.355 154.788 101.083C154.688 100.826 154.622 100.576 154.585 100.303C154.549 100.169 154.549 100.036 154.585 99.902L154.591 99.8638C154.572 99.7754 154.563 99.6841 154.564 99.5922L154.561 99.5565H154.564C154.577 99.2346 154.705 98.9121 154.914 98.703ZM147.197 107.877C149.052 108.45 152.114 110.013 151.147 112.424C149.796 114.639 146.216 113.012 144.481 112.296C142.922 111.779 142.11 113.965 143.617 114.624C156.073 119.554 156.028 106.543 147.649 106.734C146.726 106.755 146.697 107.686 147.197 107.877ZM130.717 90.9122L131.033 90.8198C132.678 90.3432 134.357 89.5202 135.817 90.8043C136.391 91.3086 136.509 92.3565 136.099 92.9855C135.164 94.4186 133.778 94.1997 132.268 94.3218C131.119 94.4148 129.987 94.7526 128.914 95.1746C128.037 95.5198 127.224 96.0057 126.456 96.5476C125.702 97.0804 125.187 97.9133 124.413 98.3929C124.13 98.5687 123.802 98.3878 123.7 98.1027C123.339 97.0914 123.949 95.8315 124.465 94.9698C125.095 93.9186 126.052 93.0588 127.08 92.4083C128.207 91.6958 129.452 91.2844 130.717 90.9122ZM154.683 89.824C157.463 89.8231 160.138 91.37 161.693 93.6376C162.221 94.408 161.834 95.5492 161.075 95.9929C160.225 96.4908 159.315 96.1322 158.754 95.4187L158.721 95.3755C157.829 94.1875 156.68 93.2519 155.317 92.6428C154.652 92.3454 153.917 92.1042 153.198 91.9819L152.965 91.942C152.639 91.8874 152.262 91.8353 151.967 91.8863C151.809 91.907 151.664 91.9592 151.531 92.0387C151.595 92.1791 151.429 92.3481 151.276 92.264C150.585 91.8844 150.67 91.2073 151.24 90.681C152.048 89.9364 153.64 89.8242 154.683 89.824Z" fill="black"/>
</svg>
