<svg width="240" height="270" viewBox="0 0 240 270" fill="none" xmlns="http://www.w3.org/2000/svg">
<path fill-rule="evenodd" clip-rule="evenodd" d="M189.444 219.876C188.032 215.534 189.714 210.519 188.615 205.838C188.238 203.986 187.522 197.108 186.802 193.085C186.4 190.835 188.807 190.137 189.177 189.239C191.78 181.171 172.79 162.193 171.631 161.494C169.894 160.489 168.356 159.625 166.659 158.599C161.708 156.859 155.771 152.019 151.282 155.128C143.505 143.546 146.581 129.277 142.361 127.581C138.141 125.885 125.679 122.457 118.554 126.834C114.284 129.995 114.598 135.437 112.65 139.924C111.506 142.037 110.944 145.097 109.613 146.475C105.089 151.156 99.4475 151.963 93.1407 152.758C92.6604 152.818 92.155 151.511 91.6882 151.673C81.0496 155.351 68.6706 156.424 56.6224 177.021C54.9209 179.967 50.3307 184.693 51.8655 188.097C41.7526 211.622 31.8018 264.573 59.5507 277.778C60.4377 278.346 66.4551 275.302 67.4355 275.331C69.0699 275.378 65.9383 279.347 67.4355 278.64C78.4275 279.474 138.911 277.322 162.095 279.474C178.038 279.355 188.136 282.151 191.817 279.355C190.345 275.797 190.414 271.986 190.879 268.225C194.267 265.703 190.078 247.928 190.433 242.723C193.605 238.919 191.079 224.655 189.444 219.876Z" fill="#D08B5B"/>
<path fill-rule="evenodd" clip-rule="evenodd" d="M92.5188 152.723L92.4168 152.789C92.3999 152.8 92.3833 152.811 92.3674 152.823C92.2588 152.905 92.2759 153.052 92.4039 153.102C92.5742 153.168 92.7531 153.219 92.9374 153.258C93.4968 154.07 93.9339 155.074 94.2392 155.582C95.1162 157.043 102.644 166.231 103.769 167.412C105.598 169.33 114.6 176.543 114.722 176.399C116.17 177.264 117.671 178.041 119.229 178.703C128.453 182.624 140.282 182.98 148.209 176.467C148.799 176.628 154.403 168.557 155.269 165.665C155.692 165.783 156.215 162.684 155.923 162.731C156.178 160.979 153.108 154.687 152.817 154.386C152.861 154.372 152.905 154.359 152.949 154.346C152.974 154.402 153.033 154.443 153.101 154.426C153.687 154.273 154.28 154.192 154.873 154.204C155.324 154.213 158.542 155.68 158.667 155.741C158.744 155.777 158.821 155.814 158.898 155.852C184.648 168.235 188.617 188.358 189.507 188.313C189.132 188.788 178.958 203.179 178.411 204.451C178.297 201.701 180.177 275.014 180.309 276.545C180.363 277.176 180.367 278.666 180.456 279.266C179.809 279.302 157.166 277.755 115.06 278.009C101.614 278.09 68.3817 279.553 68.3817 279.553L68.3708 279.461C68.2755 278.564 68.3584 276.823 68.3452 275.928C69.6214 275.191 70.8741 274.407 72.1121 273.637C74.9309 271.883 92.3239 255.945 105.107 241.685C112.685 233.232 122.138 227.542 122.65 226.989C122.66 226.978 122.665 226.966 122.672 226.954C122.699 226.974 122.732 226.992 122.774 226.986C128.662 226.145 137.447 227.956 143.915 224.607C146.802 223.111 156.6 212.932 159.487 210.119C159.574 210.034 159.636 209.945 159.68 209.854C161.605 208.681 169.109 202.731 169.64 201.996L169.798 201.775C170.384 200.944 171.266 200.068 170.244 199.27C169.167 198.429 167.102 199.439 165.966 199.923L165.808 199.99C165.255 200.217 164.713 200.464 164.179 200.726C163.505 198.837 161.861 198.798 160.089 199.059C158.826 199.245 157.6 199.677 156.369 200.006C154.807 200.424 153.237 200.817 151.662 201.186C148.826 201.85 145.548 203.065 142.679 203.568C142.603 203.48 142.498 203.41 142.357 203.375C141.375 203.129 140.291 203.317 139.283 203.336C138.42 203.352 137.556 203.354 136.693 203.341L136.175 203.332C134.324 203.295 131.841 202.434 129.99 202.402L129.88 202.334L129.77 202.264C129.293 201.956 128.775 201.544 128.634 201.024C128.616 200.96 130.508 196.604 130.536 193.079C130.551 191.119 129.879 189.285 129.718 188.313C129.327 185.939 128.451 187.468 127.183 189.792C125.915 192.117 124.225 194.231 122.958 195.922C121.324 198.101 119.721 198.759 118.888 200.022C118.747 200.237 118.608 200.457 118.473 200.684C118.147 200.359 115.401 206.832 115.881 208.079C115.546 207.968 102.042 225.299 72.676 237.769C72.8632 236.603 77.9577 205.855 76.6901 200.783C75.4225 195.71 58.6586 176.963 56.9154 176.547C57.0899 176.262 50.2817 180.916 62.5352 168.869C74.7887 156.822 82.954 154.782 89.0542 152.543C89.3957 152.437 89.7355 152.33 90.0736 152.221C89.9883 152.372 90.1819 152.539 90.3307 152.416C91.1741 151.719 91.9062 152.046 92.5188 152.723Z" fill="#9DDADB"/>
<path fill-rule="evenodd" clip-rule="evenodd" d="M184.39 193.84C182.869 196.053 181.472 198.331 180.208 200.701C179.557 201.923 178.95 203.17 178.403 204.442C178.289 201.691 178.264 198.909 177.943 196.186C177.92 195.989 177.592 195.894 177.557 196.133C177.203 198.603 177.144 201.136 177.01 203.631C176.855 203.584 176.685 203.557 176.497 203.557C174.671 203.557 172.873 203.706 171.055 203.854C170.24 203.92 169.387 203.97 168.556 204.1C169.225 203.361 169.848 202.58 170.423 201.765C171.01 200.935 171.68 199.636 170.658 198.838C169.529 197.957 167.314 199.11 166.222 199.558C165.669 199.785 165.127 200.032 164.593 200.295C163.919 198.405 161.852 198.155 160.081 198.415C158.818 198.602 157.592 199.034 156.361 199.363C154.798 199.781 153.229 200.174 151.654 200.543C148.818 201.207 145.962 201.787 143.093 202.29C143.017 202.202 142.912 202.133 142.771 202.098C141.789 201.852 140.705 202.04 139.697 202.059C138.661 202.078 137.625 202.076 136.589 202.055C134.738 202.017 132.889 202.002 131.038 201.97C130.512 201.651 129.845 201.193 129.682 200.593C129.478 199.843 130.115 199.013 130.41 198.376C131.545 195.926 131.942 193.186 131.497 190.518C131.418 190.043 131.254 189.523 131.018 189.036C133.045 189.253 135.047 189.4 137.085 189.467C141.156 189.599 145.226 189.738 149.298 189.768C157.441 189.829 165.583 189.829 173.726 189.77C178.33 189.736 182.923 189.694 187.521 189.459C187.147 189.934 186.782 190.419 186.426 190.912C186.353 190.89 186.257 190.93 186.268 191.021C186.272 191.053 186.275 191.085 186.279 191.116C185.63 192.023 185.005 192.945 184.39 193.84ZM175.336 278.056C173.444 277.996 171.552 277.936 169.66 277.875C165.946 277.757 162.231 277.639 158.518 277.521C151.16 277.286 143.802 277.06 136.443 276.857C129.102 276.655 121.757 276.441 114.414 276.67C107.054 276.899 99.7132 277.493 92.367 277.97C88.283 278.235 84.196 278.465 80.1044 278.575C76.2075 278.679 72.2763 278.521 68.3856 278.799C68.2548 277.837 68.3509 276.877 68.3368 275.919C69.613 275.182 70.8656 274.398 72.1037 273.627C76.6172 270.819 80.8835 267.642 84.9077 264.169C85.5263 263.635 86.1329 263.09 86.7333 262.539C86.3154 263.452 86.6499 264.63 87.8475 265.016C89.308 265.488 90.8034 265.32 92.3203 265.285C93.8606 265.248 95.401 265.214 96.9415 265.181C99.9523 265.118 102.963 265.06 105.974 265.01C111.856 264.911 117.739 264.838 123.621 264.791C135.456 264.695 147.283 264.856 159.117 265.07C162.444 265.13 165.768 265.205 169.096 265.129C170.761 265.092 172.432 265.08 174.095 264.99C175.427 264.918 176.768 264.729 178.1 264.56C178.268 266.881 178.443 269.201 178.639 271.52C178.768 273.051 178.901 274.582 179.033 276.113C179.087 276.744 179.091 277.389 179.18 277.989C177.901 278.059 176.63 278.097 175.336 278.056ZM176.637 212.521C176.591 214.298 176.566 216.075 176.553 217.853C176.4 217.765 176.227 217.701 176.032 217.671C173.962 217.355 171.748 217.595 169.654 217.63C167.631 217.664 165.6 217.653 163.578 217.748C161.552 217.844 159.527 217.958 157.502 218.063C156.552 218.113 155.612 218.155 154.669 218.284C154.023 218.372 153.196 218.366 152.506 218.55C155.402 215.745 158.281 212.923 161.169 210.11C161.255 210.025 161.318 209.936 161.362 209.845C163.287 208.671 165.135 207.351 166.809 205.838C168.136 206.35 169.647 206.414 171.055 206.529C172.874 206.676 174.671 206.826 176.497 206.826C176.62 206.826 176.736 206.814 176.844 206.792C176.755 208.701 176.687 210.61 176.637 212.521ZM101.458 247.032C105.879 248.444 110.668 248.428 115.266 248.711C120.169 249.013 125.064 249.263 129.972 249.455C139.775 249.836 149.571 250.353 159.372 250.765C164.971 251 170.568 251.26 176.164 251.542C176.561 251.562 176.939 251.46 177.273 251.273C177.461 254.96 177.681 258.645 177.938 262.328C177.969 262.788 178.005 263.248 178.038 263.709C175.404 263.379 172.79 263.062 170.136 262.838C167.157 262.586 164.179 262.374 161.195 262.176C155.38 261.791 149.556 261.274 143.731 261.086C131.856 260.702 119.955 260.833 108.075 260.917C104.714 260.941 101.353 260.973 97.9918 261.014C96.3113 261.035 94.6309 261.057 92.9505 261.081C91.2616 261.106 89.4466 260.93 87.8475 261.52C87.8323 261.526 87.8194 261.534 87.8044 261.539C92.6287 256.967 96.9506 251.913 101.458 247.032ZM116.997 232.413C124.385 233.758 131.888 233.666 139.376 233.799C147.038 233.936 154.711 233.845 162.374 233.861C166.727 233.87 171.118 234.061 175.455 233.674C175.968 233.628 176.365 233.434 176.648 233.158C176.727 237.773 176.872 242.386 177.072 246.998C176.79 246.878 176.483 246.805 176.164 246.786C166.371 246.21 156.579 245.687 146.774 245.368C136.978 245.048 127.169 244.67 117.368 244.788C112.584 244.846 107.526 244.54 102.808 245.583C104.601 243.677 106.433 241.807 108.348 240.016C111.141 237.405 114.121 234.959 116.997 232.413ZM122.641 226.98C122.651 226.969 122.656 226.956 122.664 226.945C122.69 226.964 122.723 226.978 122.765 226.977C129.681 226.821 137.439 229.004 143.906 225.654C146.794 224.159 149.185 221.796 151.506 219.525C151.507 219.541 151.509 219.558 151.51 219.575C151.525 219.759 151.603 219.981 151.79 220.063C152.553 220.398 153.446 220.42 154.265 220.539C155.207 220.676 156.133 220.756 157.083 220.814C159.178 220.939 161.273 221.072 163.369 221.191C165.46 221.309 167.561 221.319 169.654 221.371C171.754 221.423 173.953 221.678 176.032 221.378C176.222 221.351 176.392 221.291 176.543 221.207C176.546 223.897 176.57 226.586 176.596 229.274C176.6 229.712 176.608 230.15 176.613 230.588C176.333 230.331 175.947 230.151 175.455 230.107C171.601 229.768 167.718 229.919 163.851 229.932C160.053 229.945 156.255 229.957 152.457 229.97C144.789 229.995 137.127 230.07 129.46 230.216C125.731 230.287 122.019 230.601 118.345 231.205C119.833 229.849 121.279 228.453 122.641 226.98ZM62.5561 275.879C61.1404 276.312 59.735 276.124 58.3166 276.421C58.2293 276.439 58.1488 276.473 58.0751 276.518C53.8273 274.702 50.9959 271.059 49.0582 266.976C47.0156 262.673 45.6077 258.073 44.6646 253.41C42.7201 243.796 42.7168 233.828 43.7232 224.102C44.7122 214.547 46.6702 205.043 49.4644 195.854C51.383 189.544 53.828 183.17 57.2228 177.417C61.1429 180.044 64.183 183.827 67.047 187.525C70.4693 191.944 73.5534 196.621 76.314 201.48C76.0286 202.312 75.9842 203.356 75.8473 204.1C75.5835 205.535 75.3451 206.987 75.1577 208.434C74.7574 211.527 74.3733 214.621 73.9641 217.713C73.1547 223.826 72.1884 229.922 71.1208 235.995C71.0344 236.487 71.1726 236.903 71.4268 237.216C69.3094 238.332 67.2198 239.498 65.1838 240.762C60.7077 243.54 56.5244 246.777 53.24 250.929C53.1546 251.036 53.2884 251.181 53.394 251.083C60.4373 244.572 69.1875 240.485 77.7787 236.445C82.1691 234.381 86.5379 232.283 90.7501 229.87C95.1551 227.346 99.3559 224.494 103.382 221.403C107.98 217.874 112.308 214.016 116.365 209.876C116.843 209.388 116.727 208.778 116.367 208.392C116.489 208.354 116.587 208.248 116.593 208.072C116.69 205.369 117.502 203.066 119.091 200.878C120.564 198.848 122.443 197.175 124.137 195.338C124.89 194.522 125.61 193.672 126.252 192.765C126.914 191.831 127.317 190.801 127.892 189.825C128.565 188.685 129.137 189.268 129.448 190.299C129.802 191.469 129.78 192.838 129.638 194.041C129.488 195.313 129.101 196.553 128.543 197.703C128.019 198.784 127.415 199.882 127.767 201.121C128.347 203.155 130.831 204.333 132.714 204.792C134.809 205.302 137.002 205.203 139.124 204.938C141.782 204.607 144.427 204.121 147.054 203.605C150.096 203.008 153.121 202.318 156.122 201.539C157.532 201.173 158.933 200.691 160.357 200.388C160.865 200.28 161.805 200.117 162.402 200.382C154.73 204.957 146.366 208.006 137.87 210.662C136.815 210.991 137.248 212.586 138.328 212.322C147.454 210.089 156.041 205.946 164.212 201.409C164.337 201.339 164.443 201.231 164.521 201.104C165.343 200.815 166.179 200.563 167.031 200.356C167.412 200.264 169.372 199.617 169.617 199.865C169.964 200.217 168.763 201.36 168.463 201.692C166.327 204.059 163.787 205.99 161.038 207.587C158.249 209.206 155.281 210.498 152.3 211.716C148.96 213.081 145.43 214.154 142.184 215.723C140.894 216.346 141.799 218.463 143.158 218.034C144.909 217.48 146.61 216.667 148.311 215.976C149.757 215.389 151.203 214.802 152.64 214.196C153.642 213.772 154.637 213.335 155.623 212.878C154.146 214.268 152.67 215.658 151.194 217.048C148.637 219.456 146.209 222.199 143.083 223.887C139.996 225.556 136.474 225.75 133.037 225.714C131.312 225.696 129.594 225.641 127.868 225.711C126.053 225.784 124.44 226.063 122.719 226.635C122.687 226.645 122.664 226.664 122.645 226.686C122.585 226.612 122.483 226.576 122.377 226.638C117.701 229.404 113.439 232.992 109.34 236.538C105.115 240.192 101.139 244.079 97.3516 248.184C93.7261 252.114 90.1294 256.058 86.1842 259.673C82.3322 263.203 78.2156 266.409 73.9172 269.375C71.5751 270.992 69.1751 272.548 66.6918 273.94C65.3649 274.683 64.0172 275.432 62.5561 275.879ZM62.9492 169.486C64.6237 167.604 66.4261 165.86 68.3332 164.247C69.1746 164.496 70.058 164.566 70.948 164.575C72.3063 164.588 73.6675 164.645 75.0257 164.631C77.641 164.604 80.2552 164.521 82.8711 164.507C88.2198 164.478 93.5701 164.477 98.9188 164.523C99.6196 164.529 100.125 164.23 100.437 163.794C101.52 165.022 102.636 166.222 103.761 167.402C105.589 169.321 107.538 171.151 109.613 172.818C109.209 172.821 108.805 172.825 108.403 172.822C106.553 172.81 104.703 172.798 102.853 172.788C99.1406 172.767 95.428 172.752 91.7154 172.742C84.3346 172.723 76.9307 172.784 69.5594 173.163C67.5135 173.267 65.4515 173.31 63.4127 173.509C62.307 173.618 61.2025 173.744 60.0977 173.861C59.8717 173.886 59.6549 173.916 59.4422 173.95C60.5241 172.395 61.6894 170.901 62.9492 169.486ZM92.5104 152.714C92.4606 152.748 92.4067 152.778 92.3589 152.814C92.2504 152.895 92.2675 153.043 92.3955 153.092C92.5658 153.159 92.7447 153.209 92.9289 153.249C93.4884 154.061 93.9255 155.064 94.2308 155.573C95.1077 157.034 96.1161 158.426 97.142 159.785C97.3482 160.058 97.5585 160.328 97.7695 160.597C92.8016 160.585 87.8361 160.611 82.8711 160.799C80.2571 160.898 77.6342 160.981 75.0257 161.177C73.9531 161.258 72.8811 161.393 71.8119 161.527C77.3767 157.503 83.6349 154.43 90.118 152.149C90.1092 152.159 90.1001 152.166 90.0912 152.176C89.9484 152.335 90.1616 152.54 90.3223 152.407C91.1657 151.71 91.8978 152.037 92.5104 152.714ZM117.612 200.013C117.471 200.227 117.332 200.448 117.197 200.675C116.871 200.35 116.416 200.132 115.83 200.114C109.322 199.911 102.817 199.734 96.3052 199.729C93.0939 199.727 89.8535 199.619 86.6463 199.778C85.0358 199.858 83.4259 199.953 81.8163 200.044C80.6908 200.108 79.4953 200.187 78.3963 200.513C75.8634 196.081 73.0516 191.82 69.9811 187.746C76.9478 188.601 84.0339 188.51 91.0402 188.747C98.9782 189.016 106.921 189.074 114.861 189.262C117.039 189.314 119.218 189.371 121.395 189.431C122.519 189.463 123.643 189.495 124.768 189.529C125.119 189.54 125.483 189.55 125.847 189.54C125.819 189.597 125.791 189.654 125.764 189.71C125.151 190.977 124.38 192.142 123.482 193.224C121.573 195.524 119.266 197.505 117.612 200.013ZM109.074 213.665C108.833 212.995 108.246 212.479 107.31 212.522C101.978 212.764 96.6356 212.932 91.3094 213.283C88.7148 213.455 86.1096 213.57 83.5193 213.797C82.1832 213.914 80.8495 214.132 79.5192 214.305C78.6071 214.424 77.6522 214.562 76.7773 214.886C76.947 213.013 77.0965 211.138 77.2265 209.26C77.3306 207.751 77.3623 206.229 77.3543 204.716C77.3503 203.951 77.3243 203.181 77.2873 202.416C77.3659 202.432 77.4447 202.439 77.522 202.43C77.6585 202.413 77.7859 202.397 77.9042 202.365C79.1302 202.845 80.5178 202.951 81.8163 203.044C83.3564 203.154 84.8961 203.27 86.4363 203.38C89.7132 203.614 93.0211 203.599 96.3052 203.706C102.77 203.917 109.236 204.04 115.703 204.213C115.403 205.5 115.392 206.823 115.872 208.07C115.538 207.959 115.153 208.01 114.824 208.335C112.962 210.176 111.043 211.951 109.074 213.665ZM90.2644 227.358C90.1328 226.994 89.8844 226.659 89.5903 226.432C88.4596 225.561 86.3955 226.062 85.0383 226.129C83.4316 226.208 81.8247 226.286 80.218 226.365C79.7304 226.389 77.2417 226.516 75.4138 226.905C75.7915 224.052 76.1342 221.194 76.4406 218.33C76.5048 217.729 76.5644 217.128 76.6233 216.527C77.4844 216.804 78.4204 216.905 79.3085 216.948C80.6395 217.011 81.9766 217.119 83.3089 217.139C85.9706 217.181 88.6472 217.05 91.3094 217.005C96.1035 216.926 100.898 216.697 105.69 216.508C100.879 220.415 95.7952 223.979 90.4924 227.222C90.4168 227.268 90.3401 227.312 90.2644 227.358ZM75.1225 229.051C75.5275 229.105 75.9291 229.123 76.2363 229.154C77.7785 229.309 79.2967 229.451 80.8468 229.473C82.3837 229.496 83.9205 229.518 85.4575 229.541C85.7843 229.545 86.1111 229.55 86.438 229.555C82.3909 231.766 78.2196 233.747 74.1073 235.833C74.4696 233.576 74.8079 231.315 75.1225 229.051ZM119.221 178.694C128.444 182.615 140.274 182.97 148.2 176.457C148.988 176.673 149.859 176.745 150.554 176.814C152.117 176.971 153.665 177.116 155.235 177.165C158.295 177.261 161.358 177.404 164.42 177.442C170.613 177.518 176.807 177.554 183 177.609C183.527 177.614 183.949 177.453 184.269 177.195C184.896 178.259 185.48 179.349 186.012 180.468C186.789 182.099 187.448 183.784 187.988 185.507C187.872 185.487 187.752 185.473 187.623 185.471C179.484 185.33 171.338 185.565 163.197 185.599C155.054 185.633 146.912 185.598 138.77 185.656C136.516 185.672 134.28 185.672 132.032 185.84C130.862 185.927 129.678 185.965 128.52 186.154C128.39 186.174 128.258 186.193 128.125 186.212C126.573 185.304 124.646 185.494 122.871 185.46C120.833 185.422 118.796 185.387 116.758 185.357C112.753 185.298 108.748 185.254 104.743 185.227C96.7941 185.172 88.8646 185.376 80.9207 185.653C76.9683 185.79 73.0309 186.024 69.1294 186.633C68.8675 186.293 68.608 185.953 68.3427 185.616C65.5782 182.111 62.3011 177.624 57.752 176.538C57.9265 176.253 58.1036 175.971 58.2834 175.69C61.4351 176.521 64.9119 176.479 68.132 176.653C71.8438 176.854 75.5477 176.992 79.2639 177.084C86.6509 177.265 94.0364 177.379 101.425 177.491C103.475 177.523 105.526 177.555 107.577 177.59C108.683 177.608 109.789 177.629 110.895 177.646C111.513 177.656 112.065 177.654 112.654 177.449C113.199 177.259 113.731 176.974 114.258 176.738C114.442 176.655 114.592 176.533 114.714 176.389C116.162 177.255 117.662 178.031 119.221 178.694ZM155.261 165.656C156.421 165.978 157.618 166.032 158.845 166.124C160.455 166.246 162.061 166.267 163.675 166.277C166.248 166.294 168.822 166.276 171.395 166.205C172.5 166.174 173.146 165.434 173.337 164.587C173.364 164.609 173.391 164.63 173.418 164.652C176.549 167.232 179.386 170.184 181.79 173.451C176 173.47 170.21 173.473 164.42 173.512C161.359 173.533 158.295 173.659 155.235 173.738C153.734 173.776 152.255 173.901 150.76 174.043C150.73 174.046 150.699 174.048 150.669 174.051C150.827 173.868 150.984 173.683 151.138 173.492C152.925 171.277 154.395 168.547 155.261 165.656ZM192.906 281.939C193.417 280.533 193.219 279.025 193.19 277.547C193.16 276.029 193.144 274.513 193.139 272.996C193.129 270.03 193.109 267.064 193.076 264.099C193.01 258.099 192.94 252.094 192.704 246.098C192.238 234.244 191.339 222.42 189.873 210.645C189.16 204.921 188.275 199.21 187.074 193.567C187.091 193.544 187.108 193.521 187.125 193.498C188.32 191.9 189.68 190.423 190.855 188.814C190.959 188.671 191.002 188.488 191.001 188.303C191.044 188.282 191.087 188.26 191.131 188.235C192.105 187.68 191.225 186.167 190.251 186.729C190.364 186.665 188.746 182.511 188.574 182.092C187.959 180.59 187.266 179.121 186.485 177.698C186.014 176.839 185.51 175.998 184.982 175.173C184.889 174.557 184.557 173.985 183.985 173.68C182.982 172.242 181.898 170.86 180.743 169.544C176.015 164.154 170.109 159.804 163.656 156.705C162.724 156.257 161.764 155.884 160.808 155.493C159.789 155.076 158.845 154.532 157.841 154.095C156.208 153.384 154.596 153.424 152.992 154.177C152.855 154.242 152.953 154.453 153.093 154.416C154.126 154.147 155.183 154.102 156.219 154.394C157.233 154.681 158.004 155.314 158.89 155.843C160.468 156.784 162.233 157.398 163.85 158.277C165.989 159.44 168.08 160.716 170.079 162.118C168.008 162.228 165.934 162.307 163.86 162.362C162.32 162.403 160.78 162.41 159.242 162.499C158.147 162.563 157.009 162.545 155.914 162.722C156.178 160.908 156.179 159.077 155.849 157.309C155.849 157.309 155.849 157.308 155.849 157.307C155.769 156.882 155.672 156.459 155.554 156.041C155.301 155.152 154.491 155.019 153.902 155.355C153.844 155.312 153.785 155.27 153.729 155.224C153.024 154.652 152.39 153.967 151.839 153.247C150.693 151.752 149.767 150.021 149.066 148.276C148.355 146.509 147.852 144.661 147.359 142.824C147.112 141.903 146.845 140.987 146.593 140.067C146.374 139.267 146.215 138.383 145.813 137.654C145.737 137.518 145.51 137.543 145.474 137.699C145.261 138.612 145.374 139.653 145.413 140.584C145.456 141.617 145.515 142.641 145.653 143.666C145.938 145.794 146.398 147.886 147.134 149.907C147.841 151.844 148.773 153.652 150.039 155.285C150.88 156.369 152.074 157.805 153.458 158.39C153.639 160.425 153.618 162.463 153.137 164.479C152.509 167.117 151.305 169.624 149.65 171.773C146.182 176.277 140.815 178.823 135.217 179.347C129.425 179.89 123.498 178.594 118.293 176.046C112.504 173.211 107.702 168.838 103.388 164.117C100.902 161.396 98.3235 158.719 96.0189 155.84C95.6106 155.33 94.9569 154.294 94.1816 153.361C94.9706 153.354 95.7804 153.236 96.4789 153.146C97.924 152.961 99.3363 152.674 100.748 152.314C103.389 151.643 106.173 150.708 108.48 149.23C113.361 146.101 115.267 142.132 115.918 136.665C116.124 134.937 113.136 134.517 112.858 136.251C112.431 138.916 111.784 140.213 110.934 142.773C110.116 145.233 108.931 146.15 106.667 147.506C104.541 148.78 102.126 149.52 99.7842 150.284C98.4866 150.708 97.1735 151.094 95.8649 151.483C95.0319 151.731 94.043 151.948 93.1979 152.33C92.757 151.943 92.297 151.651 91.8339 151.541C91.868 151.484 91.8238 151.395 91.7385 151.412C91.6024 151.439 91.4668 151.469 91.3307 151.497C91.194 151.507 91.058 151.534 90.9221 151.583C82.7659 153.35 74.9334 157.112 68.2915 162.238C67.9567 162.378 67.6328 162.549 67.3246 162.766C67.1659 162.877 67.0607 163.054 67.0305 163.237C66.032 164.053 65.0632 164.899 64.127 165.775C56.5877 172.829 51.8108 182.213 48.4666 191.865C45.1723 201.374 42.9424 211.345 41.7162 221.329C40.4661 231.505 40.322 241.893 42.1351 252.012C43.1087 257.445 44.6847 262.785 47.011 267.796C49.1 272.297 52.5004 277.425 57.8412 277.973C57.8583 277.99 57.8744 278.008 57.8936 278.024C59.9892 279.75 63.1092 278.558 65.3 277.527C65.6473 277.363 65.9919 277.191 66.335 277.015C66.1537 277.713 66.072 278.444 66.0342 279.129C65.9554 280.551 67.9605 280.632 68.3401 279.451C71.5905 280.023 74.9469 280.031 78.2344 280.013C81.9077 279.993 85.5798 279.865 89.2489 279.693C96.5287 279.349 103.8 278.824 111.085 278.586C125.835 278.102 140.626 279.135 155.364 279.655C159.499 279.801 163.633 279.946 167.768 280.092C171.992 280.241 176.212 280.27 180.402 280.841C181.943 281.052 182.533 279.541 182.099 278.6C182.207 277.968 182.099 277.275 182.04 276.53C181.929 275.139 181.824 273.747 181.726 272.355C181.535 269.64 181.35 266.924 181.175 264.209C180.819 258.705 180.514 253.198 180.216 247.691C179.625 236.742 179.172 225.785 178.839 214.825C178.758 212.154 178.652 209.481 178.518 206.812C178.677 206.559 178.836 206.305 178.99 206.049C179.502 205.195 180.005 204.335 180.523 203.484C181.564 201.779 182.611 200.085 183.705 198.413C184.649 196.97 185.624 195.548 186.642 194.156C187.906 204.837 189.03 215.527 189.546 226.276C190.114 238.115 190.416 249.971 190.58 261.822C190.625 265.133 190.656 268.444 190.692 271.755C190.71 273.479 190.728 275.202 190.714 276.926C190.7 278.575 190.451 280.379 191.036 281.939C191.377 282.849 192.57 282.865 192.906 281.939Z" fill="black"/>
<path fill-rule="evenodd" clip-rule="evenodd" d="M128.441 56.3938C138.725 56.3938 158.57 68.3415 158.57 68.3415C158.57 68.3415 167.888 107.488 166.01 118.668C164.133 129.849 154.354 143.546 138.163 143.546C121.972 143.546 117.573 137.819 113.679 135.216C109.784 132.613 101.935 120.768 101.935 120.768C101.935 120.768 96.6085 122.431 95.0451 121.469C92.825 120.103 93.0945 116.509 92.3929 113.034C91.8758 110.473 90.1152 107.961 90.1159 106.535C90.1159 101.362 93.782 101.732 95.6289 100.492C91.582 96.4962 92.6471 82.6374 97.7451 75.3587C102.843 68.0799 118.157 56.3938 128.441 56.3938Z" fill="#D08B5B"/>
<path fill-rule="evenodd" clip-rule="evenodd" d="M146.939 47.5651C147.838 47.4207 148.561 48.6884 147.609 49.1585C143.555 51.1606 139.299 52.6669 135.171 54.4919C137.28 54.7455 139.43 55.1462 141.508 55.7665C143.898 54.7814 146.353 53.9834 148.881 53.4193L149.683 53.2411C152.257 52.6752 155.154 52.1398 157.654 53.0072C158.513 53.3049 158.461 54.3926 157.654 54.7077C156.203 55.2749 154.599 55.4237 153.063 55.6017C151.516 55.7807 149.986 55.9992 148.462 56.3218C147.351 56.5566 146.246 56.8294 145.151 57.1395C145.838 57.4609 146.508 57.8133 147.154 58.2036C150.634 60.3074 153.802 62.7094 156.453 65.8268C159.027 68.8523 161.051 72.2787 162.429 76.0082C162.79 76.9846 163.021 78.0224 163.171 79.0527C163.291 79.8778 163.216 80.6862 163.236 81.5001C163.28 81.517 163.317 81.5498 163.329 81.5993C163.822 83.5612 163.885 85.6933 164.04 87.7104C164.202 89.8028 164.367 91.8945 164.505 93.9888C164.643 96.0723 164.621 98.2465 165.01 100.3C165.364 102.165 166.414 103.821 167.005 105.627C170.55 116.459 167.089 129.439 158.467 136.92C154.114 140.697 148.686 143.091 142.992 143.88C140.031 144.291 137.091 144.28 134.134 143.843C132.73 143.635 131.343 143.323 129.989 142.9L129.487 142.744C128.924 142.568 128.353 142.377 127.834 142.118C127.094 141.748 126.774 141.125 126.514 140.368C126.356 139.909 126.611 139.203 127.068 139.003L127.216 138.939C128 138.609 128.631 138.468 129.486 138.791C130.175 139.051 130.874 139.282 131.582 139.483C132.987 139.882 134.428 140.179 135.882 140.322C138.811 140.61 141.775 140.463 144.648 139.818C149.811 138.658 154.541 136.056 158.121 132.13C161.62 128.295 163.812 123.402 164.652 118.293C165.069 115.759 165.103 113.098 164.768 110.551C164.594 109.23 164.299 107.919 163.916 106.643C163.7 105.923 163.422 105.225 163.196 104.509C162.991 103.86 162.929 103.167 162.835 102.49L162.813 102.334C162.559 100.614 162.646 98.8615 162.648 97.1278C162.65 95.3839 162.64 93.6397 162.657 91.8958L162.674 89.9241C162.68 89.2667 162.687 88.6092 162.699 87.952C162.459 87.9903 162.161 87.8134 162.138 87.527C162.053 86.4673 161.814 85.4382 161.682 84.3844L161.647 84.1072C161.522 83.1387 161.37 82.1892 160.966 81.2932C160.146 79.4741 159.569 77.5546 158.792 75.7176C157.248 72.068 154.947 68.7003 152.099 65.9515C148.679 62.6515 144.441 60.308 139.9 58.971C139.756 59.0317 139.61 59.0896 139.466 59.1515C136.59 60.3955 133.86 61.9961 131.268 63.7543C129.932 64.6606 128.646 65.6389 127.419 66.6891C126.821 67.2004 126.222 67.7112 125.639 68.2383C125.389 68.4636 125.141 68.6921 124.897 68.9235C124.734 69.0774 124.572 69.2327 124.412 69.3893C124.042 69.6497 124.034 70.0162 124.387 70.4879C124.513 70.4359 124.595 70.6437 124.479 70.7054C123.779 71.0782 123.228 70.2814 123.377 69.621C123.495 69.098 123.979 68.6179 124.319 68.2072L124.365 68.1517C124.894 67.4963 125.436 66.8455 126.011 66.2296C129.041 62.9854 132.616 60.303 136.492 58.1664C134.863 57.8737 133.211 57.7055 131.56 57.664C130.609 57.6406 129.662 57.656 128.72 57.7089C127.251 58.5094 125.8 59.343 124.377 60.2275C123.189 60.9658 122.019 61.7323 120.869 62.5281C120.27 62.9425 119.678 63.3665 119.088 63.7938C118.791 64.0096 118.336 64.2656 118.098 64.5363L118.08 64.5586C117.913 64.7773 117.43 65.7322 118.058 65.7057C118.125 65.703 118.137 65.8069 118.073 65.8226C117.501 65.9621 117.426 65.3705 117.524 64.9244C117.769 63.8117 119.251 62.9126 120.084 62.2186L120.137 62.1736C121.823 60.7379 123.564 59.3673 125.353 58.0629C119.777 58.9214 114.471 61.1162 109.858 64.4871C103.931 68.8183 99.4764 74.9231 96.5082 81.6007C95.0978 84.7739 93.9282 88.1556 93.5097 91.6141C93.1346 94.7137 93.5339 98.1137 95.9461 100.305C96.0775 100.292 96.2088 100.279 96.3402 100.27L96.5448 100.257C98.2628 100.165 101.846 100.282 101.73 102.653C101.725 102.751 101.576 102.813 101.528 102.708C100.964 101.481 99.3188 101.701 98.1462 101.895L97.4864 102.004C96.1164 102.232 94.7164 102.526 93.512 103.24C92.3567 103.925 91.3445 105.021 91.1215 106.393C90.9014 107.745 91.7963 108.765 92.5675 109.759C93.4418 110.887 94.1447 112.053 94.2286 113.517C94.3125 114.991 93.5921 116.475 93.801 117.932C94.2672 121.187 98.9923 120.138 101.024 119.638C101.633 119.488 102.472 119.721 102.753 120.344C104.097 123.321 105.924 126.039 108.226 128.357C109.364 129.503 110.595 130.552 111.926 131.466C113.272 132.389 114.579 133.147 115.501 134.544C115.859 135.085 115.373 135.689 114.818 135.736C113 135.89 111.518 134.993 110.083 133.98C108.638 132.959 107.27 131.821 106.026 130.563C103.802 128.316 101.95 125.715 100.565 122.874L100.375 122.91C97.2557 123.485 93.7974 123.482 91.7727 120.623C90.8721 119.351 90.7717 117.861 91.0049 116.363C91.232 114.903 91.7639 113.536 90.9416 112.173C90.1953 110.936 89.133 109.917 88.7069 108.497C88.2952 107.125 88.5284 105.671 89.1429 104.401C90.3189 101.973 92.7452 100.776 95.2852 100.386C92.2266 98.5402 91.201 94.7636 91.1957 91.3119C91.1889 86.9889 92.7132 82.6203 94.4413 78.7202C97.7012 71.3631 103.201 64.8806 109.912 60.4657C116.141 56.3689 123.649 54.1611 131.108 54.2275C133.024 53.0763 134.991 52.0104 136.993 51.0186L137.421 50.8083C140.487 49.3143 143.546 48.1102 146.939 47.5651ZM94.5815 107.418C94.9527 106.51 96.5847 106.513 97.3551 106.544L97.4966 106.55C99.8406 106.674 103.726 107.633 104.206 110.26C104.286 110.699 104.005 111.278 103.472 111.226C102.701 111.151 102.116 111.009 101.482 110.554L101.161 110.324C100.628 109.944 100.097 109.58 99.5118 109.267C98.7946 108.884 98.055 108.608 97.2743 108.386C96.9543 108.296 96.6319 108.202 96.3104 108.116C96.0977 108.06 95.8835 108.011 95.6681 107.968C95.4153 107.812 95.2508 107.908 95.1752 108.258C95.2745 108.292 95.2654 108.465 95.1488 108.452C94.6861 108.403 94.4012 107.859 94.5815 107.418ZM102.03 103.606C102.03 103.595 102.043 103.593 102.049 103.6L102.051 103.606V104.58C102.051 104.591 102.037 104.593 102.032 104.586L102.03 104.58V103.606Z" fill="black"/>
<path fill-rule="evenodd" clip-rule="evenodd" d="M143.152 128.274C141.732 127.695 140.465 126.728 139.538 125.493C139.216 125.063 139.133 124.61 139.2 124.195C139.276 123.729 139.552 123.306 139.928 123.023C140.305 122.739 140.777 122.598 141.233 122.67C141.63 122.732 142.024 122.949 142.337 123.399L142.402 123.489C142.953 124.235 143.67 124.846 144.488 125.241C145.276 125.621 146.158 125.798 147.07 125.695C148.808 125.499 150.005 124.559 151.278 123.282C151.436 123.121 151.594 122.955 151.752 122.786C151.852 122.633 151.991 122.534 152.146 122.483C152.317 122.425 152.511 122.429 152.689 122.491C152.86 122.55 153.013 122.664 153.116 122.815C153.213 122.958 153.269 123.135 153.251 123.339C153.134 124.661 152.443 125.842 151.461 126.769C150.37 127.799 148.924 128.511 147.563 128.761C146.064 129.036 144.536 128.839 143.152 128.274ZM148.271 107.866C149.866 108.836 152.297 111.098 150.581 113.503C148.56 115.624 145.652 113.193 144.219 112.093C142.89 111.241 141.396 113.433 142.629 114.428C152.987 122.099 157.19 108.12 149.078 106.726C148.184 106.572 147.853 107.566 148.271 107.866ZM129.711 98.9429C129.887 96.7541 133.219 96.257 133.551 98.423C133.847 100.363 133.498 102.145 132.624 103.892C131.79 105.561 129.692 104.783 129.533 103.263C129.32 101.226 129.601 100.304 129.711 98.9429ZM155.076 97.9739C155.541 97.3652 156.212 96.9497 157.015 97.1845C159.526 97.9185 158.786 101.485 157.904 103.22C157.425 104.163 155.876 104.402 155.176 103.572C154.036 102.219 153.489 99.5157 154.94 98.1825C154.979 98.1136 155.023 98.044 155.076 97.9739ZM132.589 89.3654L132.986 89.2959C134.213 89.0836 135.738 88.8796 136.606 89.8665C137.067 90.3898 137.225 91.3624 136.606 91.8633C135.518 92.7446 134.314 92.4031 133.01 92.4777C131.935 92.5394 130.902 92.7174 129.867 93.0135C127.595 93.663 125.744 94.8486 123.804 96.1505C123.55 96.3213 123.29 95.9956 123.411 95.7574C124.531 93.563 126.701 91.7604 128.875 90.6616C130.036 90.0751 131.305 89.5885 132.589 89.3654ZM152.787 88.3823L153.091 88.4445C156.395 89.1353 160.687 90.5153 162.251 93.7615C162.311 94.2205 162.248 94.3189 162.197 94.3832L162.18 94.4046C162.137 94.4595 162.104 94.5351 161.905 94.5976C161.85 94.5844 161.794 94.5705 161.737 94.5557C161.02 94.3677 160.453 94.1087 159.904 93.84L159.308 93.5465C158.617 93.2076 157.92 92.881 157.181 92.6399C155.605 92.1255 153.983 91.7631 152.337 91.5696C151.98 91.5277 151.636 91.4072 151.365 91.2006C151.108 91.0046 150.911 90.7332 150.821 90.3724C150.705 89.9056 150.739 89.5521 150.989 89.1309C151.177 88.8146 151.447 88.5953 151.756 88.4694C152.071 88.3411 152.43 88.3108 152.787 88.3823Z" fill="black"/>
<path fill-rule="evenodd" clip-rule="evenodd" d="M148.503 116.101C146.153 115.042 141.934 115.966 140.403 116.333C136.842 117.188 133.26 119.034 132.153 121.926C130.905 125.186 133.394 126.212 133.76 126.044C136.225 126.218 139.161 124.668 141.744 124.268C143.841 123.94 146.053 123.654 148.018 122.539C149.453 123.329 152.693 123.755 155.307 124.446C157.534 125.033 158.499 126.307 160.564 126.037C163.038 125.712 162.025 120.506 159.268 118.397C156.25 116.088 151.145 115.152 148.503 116.101ZM153.155 138.361C151.099 138.863 150.961 134.356 150.731 132.763C150.551 131.519 149.537 128.311 146.964 128.45C144.392 128.588 143.425 131.276 143.555 132.948C143.64 134.032 144.639 139.523 141.451 140.218C139.419 140.21 137.068 140.073 134.931 139.679C132.416 139.109 129.146 137.114 128.282 141.043C127.971 142.457 139.05 146.658 143.966 147.038C148.951 148.049 154.784 146.495 158.334 142.679C159.142 141.811 161.416 138.208 161.578 137.326C161.918 135.471 161.13 134.278 158.836 134.931C157.216 135.797 154.477 138.039 153.155 138.361Z" fill="black"/>
</svg>
