<svg width="240" height="239" viewBox="0 0 240 239" fill="none" xmlns="http://www.w3.org/2000/svg">
<path fill-rule="evenodd" clip-rule="evenodd" d="M41.1971 209.213L192.565 221.234L192.723 222.263C195.259 238.789 196.541 250 196.567 255.897L196.567 256.078C196.567 261.925 198.361 271.225 201.95 283.977L202.172 284.762L40.9859 285.043L39.0845 246.66L41.1971 209.213ZM130.81 126.849C136.965 127.153 143.168 129.792 143.647 131.479C144.714 135.236 146.43 151.319 152.073 153.79C157.716 156.261 169.763 154.009 173.207 159.909C176.651 165.81 187.963 189.865 187.963 195.469C187.963 199.206 151.1 200.503 77.3754 199.361C78.3165 169.264 82.2403 153.443 89.1468 151.898L89.7633 151.762C99.7511 149.579 105.72 149.509 109.128 145.99C112.604 142.4 113.235 136.237 114.677 131.479C115.472 128.857 123.258 126.476 130.81 126.849Z" fill="#D08B5B"/>
<path fill-rule="evenodd" clip-rule="evenodd" d="M144.308 136.255C144.331 136.237 144.355 136.232 144.38 136.245C144.859 136.475 144.959 136.936 145.123 137.415C145.364 138.117 145.643 138.802 145.901 139.497C146.414 140.892 146.904 142.285 147.477 143.657C148.064 145.068 148.673 146.455 149.37 147.818C149.706 148.477 150.067 149.124 150.435 149.767C150.688 150.213 150.925 150.826 151.259 151.244C151.284 151.111 151.32 150.984 151.362 150.866C151.318 150.887 151.276 150.91 151.235 150.935C151.151 150.988 151.049 150.883 151.1 150.8C151.282 150.5 151.518 150.297 151.789 150.16C152.537 149.329 169.022 153.293 173.528 157.745C181.69 165.808 187.199 175.778 190.823 186.383C192.823 192.235 194.666 198.145 196.569 204.029C198.58 210.251 200.68 216.446 202.696 222.664C203.138 224.031 202.174 225.274 200.957 225.724C198.69 226.561 196.407 227.349 194.104 228.078C195.221 232.371 196.003 236.754 196.565 241.15C197.725 250.215 197.871 259.464 199.698 268.434C200.118 270.492 200.649 272.522 201.21 274.546L201.34 275.013C201.673 276.201 201.978 277.399 202.387 278.561C202.74 279.561 203.197 280.569 203.444 281.601C203.733 282.814 203.307 284.139 202.172 284.762C201.261 285.263 199.958 285.056 199.409 284.116C199.297 283.923 199.229 283.714 199.202 283.503C199.119 283.327 199.043 283.148 198.976 282.964C198.949 282.893 198.926 282.82 198.904 282.746L198.838 282.526C198.678 282.002 198.53 281.474 198.382 280.945C198.141 280.098 197.899 279.253 197.631 278.413L197.495 277.993C196.831 275.972 196.238 273.935 195.72 271.872C193.868 264.476 193.475 256.818 192.966 249.238L192.94 248.846C192.479 242.053 192.204 235.275 192.768 228.497L192.691 228.522L192.614 228.545C191.881 228.769 191.146 228.989 190.409 229.203C190.385 229.211 190.364 229.22 190.341 229.226C189.869 229.372 189.384 229.511 188.891 229.64L188.594 229.716L188.385 229.773L188.165 229.836C187.466 230.039 186.753 230.272 186.029 230.249C184.829 230.441 183.608 230.557 182.408 230.562C182.778 236.608 183.204 242.651 183.714 248.687C184.225 254.755 184.903 260.8 185.607 266.844C185.953 269.831 186.325 272.811 186.735 275.786C186.942 277.295 187.157 278.796 187.432 280.292C187.715 281.823 188.216 283.458 187.914 285.006C187.907 285.003 187.901 285.001 187.895 285.001C187.793 285.449 187.523 285.851 187.052 286.128C186.188 286.633 184.979 286.337 184.483 285.454C184.44 285.38 184.4 285.304 184.362 285.225C183.853 285.443 183.295 285.528 182.611 285.534L173.328 285.627C169.109 285.669 164.89 285.714 160.668 285.775C147.416 285.97 134.163 286.196 120.911 286.356L115.941 286.413C108.487 286.491 101.03 286.646 93.5762 286.643C89.8476 286.643 86.1227 286.631 82.3938 286.54C80.5875 286.496 78.7854 286.426 76.9812 286.352L76.6626 286.337C75.2223 286.266 73.693 286.133 72.2847 286.455C71.8959 287.212 70.903 287.368 70.3833 286.595C69.1956 284.825 68.8715 282.355 68.6521 280.192L68.5748 279.413C68.3319 276.989 68.1185 274.565 67.96 272.136C67.3981 263.532 67.1931 254.92 67.4509 246.299C67.5819 241.905 67.9854 237.536 68.4628 233.168C68.6128 231.804 68.7692 230.443 68.9382 229.084L68.9411 228.601C68.9414 228.447 68.9403 228.299 68.9361 228.161L68.894 226.849C68.859 225.756 68.8265 224.663 68.8129 223.569L68.8072 222.913L68.8009 221.691C67.7572 221.592 66.6438 221.245 65.7438 221.078C64.2842 220.806 62.8283 220.512 61.3769 220.201C58.4699 219.576 55.5945 218.836 52.7382 218.018L52.1307 217.843C49.4951 217.084 46.8232 216.274 44.3297 215.137C43.3537 214.691 42.3797 214.188 41.5241 213.529C41.4734 214.222 41.3952 214.913 41.3488 215.6C41.256 216.959 41.1459 218.314 41.0551 219.673L40.9682 220.966C40.8255 223.12 40.697 225.273 40.6389 227.434C40.3812 236.86 40.3368 246.326 40.8354 255.746C41.0826 260.461 41.4354 265.177 41.9445 269.873C42.1938 272.183 42.4579 274.499 42.7833 276.801C43.1192 279.166 43.7255 281.516 43.9114 283.898C44.0889 286.195 40.5776 286.529 40.0009 284.429C39.3103 281.91 39.1343 279.192 38.7703 276.602L38.729 276.315C38.3255 273.563 38.0023 270.801 37.7234 268.034C36.7606 258.492 36.5107 248.901 37.0157 239.322C37.2557 234.735 37.8249 230.165 38.5138 225.626L38.5938 225.103C38.9074 223.07 39.201 221.037 39.5562 219.013L39.6924 218.255C40.0114 216.515 40.2565 214.624 40.7741 212.884L40.6203 212.742C40.3326 212.474 40.0209 212.164 39.7938 211.83C39.0121 211.724 38.3466 211.162 38.429 210.141C38.6974 206.787 39.9227 203.376 41.015 200.21C42.1114 197.027 43.3833 193.903 44.8241 190.86C49.8924 180.163 57.1917 170.452 66.1178 162.672C70.8523 158.544 76.041 154.883 81.7748 152.278C84.6016 150.99 87.5255 149.995 90.5889 149.458C92.1058 149.192 93.6375 148.985 95.1798 148.94C96.4309 148.201 97.9165 148.512 99.128 149.323L99.1938 149.367H99.1962L99.5065 149.429C99.5826 149.443 99.5805 149.564 99.5065 149.581C99.5023 149.581 99.4959 149.583 99.4917 149.585C99.6903 149.741 99.8783 149.908 100.054 150.088C100.633 150.68 100.63 151.394 100.333 151.971C102.105 153.615 103.225 155.727 104.397 157.855C105.654 160.133 107.3 162.103 109.303 163.764C116.645 169.856 127.442 172.55 136.641 169.674C143.406 167.56 149.184 161.839 150.781 154.951C150.403 155.086 149.993 155.108 149.604 154.968C147.779 154.317 147.083 152.321 146.385 150.652L146.351 150.572C145.668 148.955 145.096 147.313 144.644 145.618C144.188 143.906 143.919 142.099 143.807 140.332C143.764 139.633 143.783 138.935 143.819 138.236L143.851 137.659C143.876 137.135 143.868 136.6 144.308 136.255ZM114.606 131.544C114.631 131.481 114.731 131.447 114.769 131.523C116.385 134.858 115.324 139.427 113.797 142.608C112.197 145.935 109.789 148.458 106.935 150.642C106.542 150.942 106.138 151.238 105.728 151.527C103.347 153.21 101.226 148.674 103.975 147.807C106.84 146.351 109.168 143.756 110.786 141.029C111.661 139.556 112.436 138.022 113.03 136.411C113.621 134.805 113.976 133.133 114.606 131.544Z" fill="black"/>
<path fill-rule="evenodd" clip-rule="evenodd" d="M161.475 89.3057C161.583 84.0023 161.092 78.5672 158.521 73.827C156.289 69.3781 152.977 65.5216 149.578 61.9318C148.159 60.434 146.265 58.9247 146.442 56.6542C146.629 54.2717 148.058 49.1105 148.279 46.7064C148.713 41.9793 145.338 40.6784 141.392 38.4322C136.634 35.7229 130.948 36.0364 125.791 37.2527C116.173 39.5534 104.744 43.3719 101.109 53.5894C100.236 56.1093 100.454 58.7616 100.28 61.3756C100.117 63.8224 99.1395 66.1527 98.203 68.3884C93.252 79.4386 93.2967 91.6394 94.1957 103.5C91.552 104.113 88.9958 106.184 88.4131 108.931C87.4365 113.742 92.4693 115.966 95.4419 118.566C99.0671 121.737 101.706 125.841 105.002 129.325C126.386 152.963 173.573 142.084 163.764 105.265C162.433 100.033 161.276 94.7408 161.475 89.3057Z" fill="#D08B5B"/>
<path fill-rule="evenodd" clip-rule="evenodd" d="M125.791 37.2527C130.897 36.0485 136.521 35.7293 141.249 38.3518L141.746 38.6319C145.537 40.7596 148.7 42.1211 148.279 46.7064C148.058 49.1105 146.629 54.2717 146.442 56.6542C146.437 56.7295 146.433 56.8039 146.432 56.8775L144.237 66.7368H132.306C126.562 60.5687 121.427 57.4847 116.902 57.4847C112.435 57.4847 107.704 58.8632 102.709 61.6203L102.509 61.7313L100.237 61.8624C100.254 61.7007 100.269 61.5384 100.28 61.3756C100.454 58.7616 100.236 56.1093 101.109 53.5894C104.744 43.3719 116.173 39.5534 125.791 37.2527Z" fill="#EC7495"/>
<path fill-rule="evenodd" clip-rule="evenodd" d="M119.174 37.7627C124.486 35.6932 130.226 34.8182 135.904 35.5516C138.959 35.9462 141.922 36.77 144.716 38.0774C146.063 38.7081 147.356 39.4559 148.568 40.3197L148.679 40.399C149.639 41.0928 150.617 41.951 150.505 43.1027C150.58 43.3439 150.593 43.6089 150.534 43.8733C149.587 48.132 148.594 52.3772 147.614 56.6277C147.408 57.5212 147.208 58.4163 147.011 59.312C153.681 64.3472 159.951 71.2309 162.326 79.4108C164.65 87.4184 163.632 95.8522 164.454 104.047C164.649 105.989 164.977 107.915 165.494 109.798C166.049 111.82 166.976 113.731 167.444 115.776C168.388 119.889 167.02 123.926 164.855 127.414C160.841 133.879 154.778 139.335 147.728 142.231C144.12 143.713 140.149 144.519 136.246 144.456C132.419 144.395 128.062 143.607 124.858 141.393C122.692 139.896 124.543 136.949 126.873 137.937L127.506 138.204C129.122 138.882 130.726 139.511 132.458 139.871C134.395 140.274 136.384 140.36 138.356 140.236C142.179 139.996 145.804 138.721 149.103 136.805C152.081 135.076 154.734 132.843 157.103 130.349L157.367 130.069C159.61 127.684 161.868 124.965 163.129 121.931C163.779 120.369 164.13 118.652 163.849 116.968C163.525 115.026 162.662 113.197 162.159 111.299C161.203 107.694 160.881 103.935 160.771 100.216L160.763 99.93C160.56 92.2972 161.137 84.5675 158.441 77.2719C155.999 70.6647 150.965 65.6103 146.848 60.0501C146.645 60.9701 146.444 61.8905 146.24 62.8099C145.995 63.9085 145.773 65.014 145.507 66.1071L145.487 66.1868C145.567 66.4225 145.539 66.6905 145.325 66.8591C145.301 66.8777 145.277 66.8938 145.254 66.9111C145.035 67.4167 144.697 67.8045 144.049 67.9655C143.429 68.1196 142.938 67.8569 142.663 67.4029L139.427 67.4194C137.372 67.43 135.117 67.6667 133.096 67.2474C132.785 67.1827 132.824 66.7401 133.096 66.655C135.006 66.0568 137.236 66.0712 139.218 65.8859L142.343 65.5936C142.481 65.5807 142.62 65.5642 142.759 65.5468L142.969 65.5204L144.055 60.6752C144.486 58.7528 144.937 56.8335 145.331 54.9032C146.041 51.4229 146.819 47.9585 147.597 44.4932C145.154 43.8927 142.661 43.6239 140.134 43.7309L139.842 43.7438C138.863 43.7906 137.813 43.8888 136.995 44.4585C135.979 45.1649 135.906 46.6219 135.681 47.7454C135.064 50.8267 134.622 53.9374 134.235 57.0559C134.047 58.5638 133.906 60.0758 133.74 61.5857C133.664 62.2709 133.618 62.9675 133.516 63.6485C133.42 64.2967 133.188 64.9276 133.057 65.5682C133.282 66.5459 131.931 67.4748 131.177 66.6061C130.244 65.5323 129.427 64.4113 128.385 63.4293C127.34 62.444 126.198 61.5815 124.967 60.8424C122.465 59.3401 119.866 58.4161 117.072 57.6352C116.98 57.6094 116.927 57.5517 116.902 57.4849C114.114 58.2779 111.387 59.3524 108.857 60.7336C102.992 63.9357 98.3742 69.4644 96.6246 75.9575C95.5384 79.9895 95.2987 84.2484 95.2839 88.4084C95.2772 90.3395 95.3181 92.2928 95.6227 94.2036C95.9628 96.3355 96.7344 98.2415 97.3561 100.287C97.5184 100.821 97.4786 101.298 97.3057 101.696L97.4641 101.72C98.7339 101.919 101.221 102.48 101.448 103.868C101.511 104.257 101.294 104.562 100.895 104.596C100.186 104.656 99.7397 104.139 99.1732 103.786C99.0714 103.723 98.9666 103.665 98.8622 103.606C98.8352 103.625 98.799 103.63 98.7617 103.608C95.4119 101.696 91.318 104.621 90.5725 108.015C89.8764 111.183 91.061 114.853 94.1156 116.238C95.6514 116.935 97.2846 117.372 98.6982 118.325C99.8879 119.126 100.939 120.107 101.856 121.209C103.744 123.477 105.168 126.063 106.84 128.484C107.574 129.546 108.389 130.55 109.358 131.409C110.419 132.349 111.896 132.72 112.345 134.192C112.52 134.765 112.229 135.455 111.714 135.747C109.828 136.816 107.692 134.956 106.373 133.695C105.019 132.4 103.914 130.833 102.9 129.264C101.202 126.637 99.7523 123.64 97.2615 121.649C95.7663 120.453 93.9037 120.001 92.2209 119.156C90.29 118.186 88.9186 116.597 88.0991 114.61C86.5907 110.952 86.9879 106.289 89.8458 103.378C90.7738 102.433 91.9483 101.828 93.178 101.585C91.9083 99.3578 91.4367 96.5505 91.1181 94.0584C90.7979 91.5548 90.7643 89.0348 90.8961 86.5168L90.9226 86.0275C91.1749 81.5376 91.6832 76.9263 93.3043 72.7106C94.669 69.1622 96.7399 65.907 99.4915 63.2767C99.7755 63.0054 100.067 62.7395 100.363 62.478C100.284 62.417 100.207 62.3514 100.139 62.2773C99.3684 61.4361 99.5335 60.3005 99.6361 59.255C99.7502 58.0927 99.9349 56.9339 100.212 55.7994C102.148 47.8835 108.1 41.425 115.759 38.7536C116.865 38.3676 118.009 38.0356 119.174 37.7627ZM93.3705 107.812C94.6101 107.027 96.502 107.327 97.7944 107.842C99.3146 108.447 100.934 109.576 101.532 111.154C102.087 112.614 100.018 113.132 99.2463 112.12C98.7694 111.494 98.4165 110.892 97.9641 110.347C97.9064 110.403 97.8516 110.462 97.8029 110.527L97.7676 110.576C97.5758 110.858 97.226 111.152 96.852 111.102L96.751 111.089C96.3735 111.038 95.958 110.854 95.8537 110.443L95.8434 110.396L95.8295 110.322C95.7433 109.864 95.8795 109.36 96.3169 109.121C96.3463 109.105 96.3762 109.091 96.4057 109.076C95.4422 108.57 94.4486 108.412 93.4011 108.047C93.2969 108.011 93.2735 107.873 93.3705 107.812ZM127.835 39.7021C121.375 39.5396 114.288 41.5309 109.513 46.017C107.252 48.1413 105.721 50.6124 104.348 53.3667C103.699 54.6672 103.282 56.1079 102.973 57.5246C102.804 58.2996 102.677 59.0814 102.609 59.8723C102.596 60.0247 102.599 60.1855 102.575 60.3364C102.555 60.4649 102.531 60.4983 102.509 60.4899C102.52 60.5258 102.573 60.5991 102.624 60.6691C107.461 57.1816 113.448 55.1518 119.368 56.4742C119.556 56.5163 119.556 56.8143 119.368 56.8563C119.065 56.924 118.763 56.9996 118.461 57.0738C121.052 57.1311 123.714 57.9448 125.951 59.1548C128.187 60.3639 130.538 62.0733 132.159 64.1526C132.113 63.8491 132.076 63.5443 132.069 63.2359C132.051 62.4123 132.07 61.5845 132.101 60.7615C132.167 58.9766 132.288 57.192 132.435 55.4122L132.499 54.6365C132.761 51.5257 133.084 48.3267 133.711 45.2836C134.077 43.5089 135.056 42.4279 136.372 41.794C133.929 40.2127 130.613 39.7723 127.835 39.7021ZM139.814 38.6667C136.903 37.7921 133.873 37.4068 130.84 37.4595C131.942 37.7386 133.009 38.1444 134.014 38.7047C135.306 39.4259 136.216 40.3812 137.031 41.5195C137.798 41.2519 138.65 41.1042 139.548 41.0404C141.62 40.893 143.714 41.0038 145.773 41.331C145.389 41.0938 144.999 40.8662 144.603 40.65C143.08 39.8196 141.474 39.1653 139.814 38.6667Z" fill="black"/>
<path fill-rule="evenodd" clip-rule="evenodd" d="M145.116 130.389C146.713 130.166 148.431 129.261 149.956 129.997C150.669 130.34 151.007 131.516 150.525 132.169C149.789 133.167 149.029 133.332 147.834 133.428C146.938 133.5 146.037 133.505 145.143 133.402L144.916 133.374C143.321 133.168 141.664 132.723 140.429 131.651C140.176 131.431 140.305 130.957 140.63 130.889C142.097 130.58 143.631 130.596 145.116 130.389ZM143.237 126.71C143.236 126.697 143.256 126.697 143.257 126.71C143.295 127.623 143.552 128.469 144.026 129.251C144.032 129.262 144.015 129.272 144.009 129.261C143.534 128.479 143.276 127.624 143.237 126.71ZM148.271 107.866C149.866 108.836 152.297 111.098 150.581 113.503C148.561 115.624 145.652 113.193 144.219 112.093C142.89 111.241 141.396 113.433 142.629 114.428C152.987 122.099 157.19 108.12 149.078 106.726C148.184 106.572 147.853 107.566 148.271 107.866ZM156.436 97.0098C156.811 97.0098 157.169 97.137 157.495 97.3723C157.817 97.604 158.107 97.9421 158.349 98.3638C158.808 99.1618 159.094 100.264 159.094 101.482C159.094 102.7 158.808 103.802 158.349 104.6C158.107 105.022 157.817 105.36 157.495 105.592C157.169 105.827 156.811 105.954 156.436 105.954C156.062 105.954 155.703 105.827 155.377 105.592C155.056 105.36 154.765 105.022 154.523 104.6C154.065 103.802 153.778 102.7 153.778 101.482C153.778 100.264 154.065 99.1618 154.523 98.3638C154.765 97.9421 155.056 97.604 155.377 97.3723C155.703 97.137 156.062 97.0098 156.436 97.0098ZM139.087 98.2524L139.228 98.2257C140.051 98.0759 140.467 98.1263 141.184 98.6874C141.722 99.109 141.568 99.9394 141.184 100.383C140.514 101.156 139.86 101.019 138.943 101.048L138.879 101.05C138.115 101.082 137.35 101.103 136.585 101.115C136.376 101.118 136.167 101.117 135.958 101.119C135.98 103.055 134.864 104.529 133.394 105.65C132.444 106.375 131.243 105.538 130.904 104.636C130.624 103.89 130.563 102.972 130.709 102.155C130.763 101.854 130.875 101.527 131.046 101.248L131.095 101.173L131.087 101.066C131.085 101.039 131.087 101.014 131.086 100.987C129.722 100.905 128.365 100.768 127.01 100.596L126.558 100.537C125.4 100.384 123.701 100.335 122.764 99.5816C122.734 99.5575 122.745 99.5049 122.776 99.4882C123.291 99.2108 123.814 99.2265 124.389 99.2009L124.472 99.1969C125.098 99.1646 125.723 99.1376 126.349 99.1161L126.975 99.0965C128.577 99.0507 130.18 98.9729 131.781 98.8877C132.059 98.8729 132.337 98.8554 132.616 98.8383C132.907 98.7161 133.217 98.643 133.523 98.6295C133.776 98.618 134.02 98.6531 134.249 98.726C134.834 98.6809 135.418 98.6316 136.002 98.5787L136.585 98.5246C137.409 98.4462 138.274 98.412 139.087 98.2524ZM149.201 83.7411C150.961 82.8756 153.102 82.8544 154.915 83.5707L155.035 83.6194C156.866 84.3796 159.072 86.1355 158.595 88.3227C158.158 90.3246 155.019 89.9854 154.86 88.0932C153.846 86.6885 151.574 86.3804 150.145 87.2736C149.279 87.8155 148.684 88.7279 148.277 89.6481C147.931 90.4318 147.866 91.3995 147.334 92.0822C147.316 92.1044 147.282 92.1084 147.256 92.1025C145.669 91.7352 145.633 89.2123 145.903 87.9886C146.296 86.2094 147.558 84.5488 149.201 83.7411Z" fill="black"/>
</svg>
