<svg width="348" height="400" viewBox="0 0 348 400" fill="none" xmlns="http://www.w3.org/2000/svg">
<rect x="186.254" y="281.448" width="70.1514" height="86.4579" fill="#FDEA6B"/>
<path fill-rule="evenodd" clip-rule="evenodd" d="M165.793 196.883C173.355 191.12 192.34 188.528 200.41 194.077C208.382 199.649 209.251 208.66 212.966 216.95C216.47 215.296 222.258 217.665 223.274 220.92C224.535 222.455 224.591 226.768 225.46 228.831C263.275 234.855 269.016 264.361 273.568 297.858C279.589 331.849 293.258 365.766 287.324 400.744C288.097 401.863 288.707 402.952 289.271 404.244C290.621 406.544 288.882 409.8 286.157 409.674C282.631 409.364 279.14 408.941 275.597 408.809C265.776 408.467 255.946 408.508 246.121 408.633L244.781 408.651C195.267 409.268 145.755 410.483 96.2389 410.806C94.4425 410.808 93.563 409.196 93.8029 407.605C94.286 404.403 94.7341 401.199 95.2019 397.995C83.49 401.091 71.0392 401.87 59.3604 398.321C58.5434 397.488 61.264 397.939 61.6956 397.813C50.9474 390.462 54.1572 374.977 55.1093 363.824C61.0296 325.608 63.1167 283.324 85.9906 250.713C95.8863 237.405 110.394 226.868 127.065 224.497L127.527 224.433C132.402 223.783 137.834 223.573 142.096 220.92C146.889 217.09 148.932 210.014 153.975 209.947C155.64 209.926 157.905 212.034 160.343 213.465C160.525 210.316 162.22 207.659 162.595 205.217L162.625 205.009C163.016 202.162 162.481 199.601 165.793 196.883ZM247.061 298.868C236.434 291.48 208.982 295.192 208.353 295.606C206.97 296.517 206.374 296.597 205.625 297.78C204.887 297.878 204.148 297.98 203.411 298.085C201.931 298.569 203.027 300.39 204.737 299.74C203.709 304.178 206.734 307.334 207.939 311.721C208.33 313.145 207.953 315.707 207.939 317.163C208.056 319.019 210.106 321.211 209.764 323.072C208.549 329.691 201.958 336.148 204.737 342.567C206.578 346.192 212.115 348.041 215.797 349.274C223.424 352.203 236.715 349.163 241.146 342.567C243.51 339.049 246.249 330.174 247.658 327.421L247.971 323.054C248.741 312.199 249.426 300.513 247.061 298.868Z" fill="#D08B5B"/>
<path fill-rule="evenodd" clip-rule="evenodd" d="M153.582 209.967L156.623 211.835L174.286 220.574C177.71 221.533 179.422 222.683 179.422 224.023V237.673C179.422 239.499 182.636 243.639 189.062 250.091L195 244.168L194.867 243.392C194.302 240.05 194.019 237.815 194.019 236.685C194.019 235.471 199.828 230.861 211.445 222.856L216.528 218.068L215.986 216.418C219.12 216.566 222.518 218.498 223.274 220.92C224.535 222.455 224.591 226.768 225.46 228.831C263.275 234.856 269.016 264.361 273.568 297.858C279.589 331.85 293.258 365.767 287.324 400.744C288.097 401.864 288.707 402.952 289.271 404.245C290.621 406.545 288.882 409.8 286.157 409.674C282.631 409.364 279.14 408.941 275.597 408.809C265.776 408.468 255.946 408.508 246.121 408.633L244.781 408.651C195.267 409.268 145.755 410.483 96.2389 410.806C94.4425 410.808 93.563 409.196 93.8029 407.605C94.286 404.403 94.7341 401.199 95.2019 397.995C83.49 401.091 71.0392 401.87 59.3604 398.321C58.5434 397.488 61.264 397.94 61.6956 397.813C50.9474 390.463 54.1572 374.978 55.1093 363.825C61.0296 325.608 63.1167 283.324 85.9906 250.713C95.8863 237.405 110.394 226.868 127.065 224.497L127.527 224.434L127.993 224.373C132.745 223.767 137.97 223.489 142.096 220.92C146.763 217.191 148.822 210.385 153.582 209.967ZM195.905 290.08C194.172 290.08 190.624 292.773 185.261 298.158L184.788 298.376C178.305 301.391 174.009 304.005 171.903 306.22L171.827 306.3C169.699 308.585 165.484 314.662 159.183 324.53L150.058 329.93H146.606L144.148 347.775L150.058 360.516L163.447 356.003L185.261 350.249L197.778 337.539L204.839 335.166C203.983 337.643 203.672 340.108 204.737 342.567C206.578 346.192 212.115 348.041 215.797 349.274C223.424 352.203 236.715 349.163 241.146 342.567C243.51 339.049 246.249 330.174 247.658 327.421L248.063 321.748C248.791 311.28 249.332 300.447 247.061 298.868C236.434 291.479 208.982 295.192 208.354 295.606C206.97 296.516 206.374 296.597 205.626 297.78L205.238 297.832L207.417 294.875L206.645 294.462C201.141 291.541 197.561 290.08 195.905 290.08ZM204.737 299.74C203.752 303.988 206.484 307.062 207.775 311.166L204.475 304.843L204.475 299.822C204.56 299.801 204.648 299.774 204.737 299.74Z" fill="#9DDADB"/>
<path fill-rule="evenodd" clip-rule="evenodd" d="M152.123 209.307C152.857 208.657 153.942 209.474 153.476 210.352C152.428 212.326 151.354 214.197 149.948 215.942C149.095 217 148.182 218.001 147.256 218.99C149.632 221.047 151.668 223.6 153.592 225.992C156.051 229.052 158.377 232.242 161.138 235.042C163.861 237.804 166.872 239.734 170.512 241.021L171.247 241.277C174.905 242.562 178.813 244.297 180.875 247.762C181.281 248.446 180.463 249.29 179.775 248.864C176.193 246.644 171.984 246.198 168.085 244.731C164.318 243.314 161.035 241.134 158.134 238.351C155.238 235.572 152.806 232.412 150.27 229.317C147.761 226.258 145.061 223.645 142.094 221.056C137.515 224.139 132.289 225.48 126.975 226.798L126.395 226.941C121.075 228.26 115.783 229.791 110.791 232.087C106.39 234.11 102.062 236.527 98.477 239.821C94.6717 243.316 91.71 247.78 88.9992 252.145C82.9356 261.912 78.6726 272.612 74.9196 283.442C71.0163 294.706 67.7513 306.197 65.1156 317.823C63.7751 323.737 62.6863 329.694 61.7915 335.691C61.3608 338.58 60.9782 341.475 60.6421 344.376C60.2834 347.474 60.201 350.661 59.2514 353.64C58.8442 354.917 57.883 355.447 56.9208 355.402L56.7253 357.848C56.4662 361.109 56.2246 364.372 56.143 367.653C56.0076 373.11 56.069 378.551 56.4611 383.996L56.5167 384.739C56.8249 388.713 57.5135 393.178 60.4994 396.088C63.5916 399.101 68.3469 400.049 72.5146 400.103C82.2215 400.23 91.5654 395.64 100.155 391.613C109.002 387.466 117.606 382.862 126.005 377.87C130.282 375.327 134.513 372.7 138.69 369.996C140.739 368.669 142.775 367.319 144.795 365.948C145.952 365.162 147.048 364.301 148.226 363.604C147.649 363.067 147.391 362.221 147.875 361.483C144.47 358.525 143.053 353.246 142.887 348.975C142.753 345.528 143.26 342.09 143.66 338.675C143.862 336.953 144.111 335.234 144.37 333.519C144.472 332.842 144.551 332.117 144.67 331.402C135.476 336.459 126.024 340.962 116.322 344.963C111.349 347.014 106.312 348.857 101.206 350.547L100.171 350.888C95.3326 352.473 90.3786 353.97 85.3768 354.876C85.1094 354.925 84.8922 354.53 85.1777 354.404C90.0521 352.251 95.0954 350.435 100.043 348.453L100.856 348.122C100.763 348.116 100.666 348.104 100.565 348.079C97.6631 347.378 94.7841 346.298 91.9383 345.389C89.297 344.545 86.3295 344.015 83.8607 342.741C83.6708 342.643 83.7771 342.378 83.9621 342.366C86.7369 342.173 89.7492 342.983 92.4698 343.459L93.4918 343.638C95.2039 343.94 96.954 344.265 98.6578 344.688C98.7194 344.117 99.0382 343.544 99.4919 343.207C104.484 339.507 103.977 332.034 104.511 326.523L104.907 322.431C105.604 315.271 106.34 308.111 107.46 301.005C107.52 300.625 108.106 300.734 108.109 301.092C108.166 309.902 107.502 318.671 107.169 327.467L107.117 328.91C106.933 334.337 106.789 339.973 103.373 344.15C103.851 343.87 104.497 343.87 104.883 344.331C105.359 344.897 105.633 345.533 105.625 346.157C108.711 344.862 111.784 343.533 114.842 342.177C124.673 337.818 134.298 332.94 143.669 327.662C144.677 327.094 145.636 327.54 146.135 328.289L146.207 328.279C146.219 328.277 146.231 328.276 146.243 328.276L146.315 328.273C146.318 328.273 146.32 328.273 146.323 328.273C147.642 327.547 149.439 328.064 150.571 329.122C150.604 329.154 150.633 329.188 150.662 329.222C152.095 328.578 153.433 327.709 154.648 326.607C157.133 324.353 159.238 321.566 161.073 318.771C164.452 313.624 167.322 307.899 171.887 303.662C175.596 300.219 180.194 298.076 185.018 296.73C184.998 296.589 185.052 296.439 185.149 296.339C185.397 296.085 185.574 295.997 185.894 296.151C185.919 296.164 185.934 296.181 185.945 296.199L186.416 295.394C186.672 294.958 186.936 294.518 187.028 294.402C187.575 293.712 188.139 293.027 188.711 292.357C189.682 291.221 190.787 290.101 192.067 289.314C194.87 287.59 197.817 288.566 200.699 289.507C202.44 290.077 204.175 290.665 205.913 291.242L206.093 291.301C207.389 291.718 208.905 292.082 209.485 293.457C209.715 294.001 209.75 294.565 209.643 295.113C221.953 291.98 235.625 293.419 247.638 297.097C248.099 297.238 248.559 297.617 248.657 298.116C250.033 305.18 250.646 312.424 250.023 319.609C249.486 325.811 248.113 331.888 245.525 337.566L245.378 337.886C242.947 343.148 239.093 349.635 233.207 351.284C229.653 352.28 225.723 351.692 222.098 351.51C218.576 351.333 214.975 351.307 211.486 350.752C208.378 350.259 205.656 348.865 203.735 346.336C202.078 344.154 201.206 341.518 200.491 338.895C200.164 338.999 199.839 339.11 199.519 339.235C198.169 339.763 197.025 340.615 195.991 341.617C193.807 343.733 192.113 346.304 189.828 348.324C187.76 350.152 185.403 351.574 182.875 352.668C177.636 354.933 172.016 355.839 166.474 357.039L166.088 357.123C161.916 358.039 157.658 359.164 153.976 361.338C153.904 361.978 153.613 362.58 153.146 362.974C153.795 363.585 154.07 364.551 153.5 365.458C151.905 367.99 149.16 369.431 146.694 371.05L146.534 371.156C144.109 372.765 141.663 374.342 139.197 375.887C134.184 379.028 129.066 381.997 123.876 384.834C115.528 389.399 107 393.704 98.3187 397.609C98.8397 400.175 98.6493 402.821 99.041 405.403L99.101 405.772C99.2684 406.73 99.0424 407.532 98.3826 408.159L98.3128 408.223L98.3141 408.214L98.2522 408.271L98.2315 408.288L98.2384 408.283C98.1624 408.353 98.0839 408.417 98.0039 408.473L97.902 408.539C97.2666 408.925 96.4486 408.921 95.798 408.579L95.7237 408.539L95.5987 408.467C94.7391 407.972 94.1463 406.746 94.5029 405.772C95.3793 403.378 95.7105 400.823 96.5198 398.413L95.8778 398.701L95.0315 399.07C85.8787 403.031 75.7119 406.367 65.7393 403.666C61.3329 402.473 57.2145 399.948 55.0098 395.834C52.8403 391.785 52.5337 387.084 52.4185 382.58C52.2764 377.021 52.5741 371.377 53.3066 365.866C53.7982 362.167 54.3929 358.398 55.31 354.737C54.8383 354.32 54.4915 353.723 54.3999 352.983C53.967 349.486 54.7246 345.851 55.1884 342.372C55.6415 338.976 56.142 335.586 56.7082 332.207C57.8511 325.383 59.1791 318.573 60.7252 311.828C63.4767 299.825 67.1102 288.035 71.4847 276.527L71.8678 275.525C75.91 265.006 80.5904 254.712 87.1076 245.471C90.2252 241.05 93.5208 237.042 97.9259 233.856C102.053 230.871 106.708 228.722 111.512 227.079C116.321 225.435 121.264 224.334 126.295 223.648C131.403 222.952 136.796 222.526 141.562 220.429C140.959 219.347 141.476 217.887 142.491 217.216C145.905 214.958 149.063 212.021 152.123 209.307ZM261.426 307.483C261.569 307.266 261.909 307.403 261.846 307.66C260.186 314.469 258.627 321.292 257.609 328.231C255.771 340.755 256.109 353.443 256.259 366.06L256.267 366.712C256.344 373.508 256.451 380.304 256.676 387.097C256.789 390.531 257.014 393.998 256.892 397.433C256.825 399.296 256.329 401.059 256.153 402.9C255.999 404.51 256.136 406.144 256.213 407.756C256.265 408.828 254.684 408.782 254.576 407.756L254.439 406.429C254.26 404.749 254.039 403.08 253.489 401.472C252.828 399.538 252.511 397.639 252.281 395.609C251.93 392.498 251.773 389.356 251.638 386.223L251.545 384.056C250.979 370.963 250.999 357.809 251.916 344.73L251.983 343.796C252.891 331.434 254.466 318.076 261.426 307.483ZM226.027 229.565C225.593 229.387 225.745 228.73 226.226 228.845L227.099 229.053C233.5 230.588 239.785 232.25 245.759 235.105C251.737 237.962 256.798 242.227 260.82 247.471C268.638 257.666 271.887 270.055 274.451 282.433C277.301 296.186 279.896 309.991 282.771 323.74L283.305 326.301C285.965 339.107 288.477 351.921 290.328 364.878L290.461 365.818C292.327 379.143 293.45 392.929 291.413 406.289C291.01 408.932 286.616 408.274 286.787 405.662C287.284 398.113 287.639 390.604 287.296 383.038C286.952 375.47 286.243 367.936 285.186 360.434C284.296 354.122 282.97 347.888 281.796 341.625L281.612 340.636C280.629 335.309 279.616 329.988 278.605 324.667L277.095 316.699C274.831 304.769 272.522 292.828 269.914 280.973L269.759 280.275C267.206 268.869 263.443 256.922 255.786 247.864C248.016 238.673 236.892 234.043 226.027 229.565ZM197.793 350.544C197.98 350.127 198.634 350.173 198.835 350.544C199.622 351.998 199.709 353.854 199.858 355.495L199.874 355.664C200.063 357.667 200.231 359.677 200.333 361.686C200.528 365.5 200.621 369.309 200.609 373.127C200.597 377.04 200.518 380.949 200.307 384.857L200.25 385.904C200.058 389.299 199.735 393.087 198.123 396.055C197.537 397.135 195.943 396.818 195.604 395.726C194.492 392.153 195.063 387.915 195.348 384.255L195.569 381.4C195.789 378.543 195.998 375.686 196.164 372.826C196.391 368.914 196.578 364.998 196.759 361.084C196.817 359.813 196.881 358.541 196.948 357.27L197.051 355.363C197.139 353.768 197.131 352.018 197.793 350.544ZM72.7616 355.609L73.2538 355.133C74.765 353.653 76.6747 351.373 78.9086 351.515C79.7995 351.571 80.3671 352.311 80.1824 353.188C79.7878 355.063 77.8766 356.037 76.5008 357.181C74.9936 358.435 73.5732 359.775 72.1554 361.128C70.8977 362.328 69.6881 363.562 68.5075 364.834L68.0661 365.313C67.6429 365.775 64.6295 368.503 64.9553 369.211L64.973 369.242C65.0637 369.378 64.9127 369.564 64.7623 369.517C63.4609 369.105 63.5421 367.989 64.0341 366.858C64.9795 364.685 66.6349 362.675 68.0805 360.819C69.5222 358.967 71.0827 357.244 72.7616 355.609ZM202.508 301.112C201.502 298.731 197.795 298.781 195.69 298.923C190.391 299.282 184.657 300.624 179.941 303.103C175.053 305.673 171.759 309.791 168.813 314.345L168.675 314.559C165.803 319.026 163.037 324.315 158.54 327.387C156.25 328.953 153.575 330.382 150.796 331.001C150.605 331.336 150.296 331.602 149.891 331.699L149.702 331.742C148.911 331.917 147.681 332.11 146.619 331.995C146.626 332.515 146.621 333.031 146.634 333.523C146.671 334.935 146.687 336.353 146.687 337.766C146.688 340.726 146.529 343.692 146.652 346.652C146.761 349.27 147.131 352.005 148.387 354.345C149.308 356.062 150.524 357.198 151.992 358.283C155.602 356.081 159.685 354.739 163.828 353.729C168.839 352.509 173.97 351.694 178.867 350.039C181.224 349.242 183.49 348.2 185.543 346.783C187.722 345.28 189.387 343.245 191.099 341.255L191.367 340.946C193.114 338.94 195.021 337.02 197.491 335.933C199.618 334.996 202.421 334.829 204.281 333.38C205.253 332.621 205.335 331.521 205.437 330.394C204.246 330.564 202.985 330.291 201.798 330.152L201.183 330.079C200.061 329.946 198.964 329.799 197.859 329.513C197.654 329.46 197.654 329.151 197.859 329.098C199.165 328.76 200.459 328.616 201.798 328.459L202.113 328.42C203.324 328.261 204.597 328.021 205.785 328.288C205.999 327.476 206.307 326.701 206.738 325.925C207.345 324.834 208.492 323.598 208.647 322.324C208.693 321.943 208.605 321.495 208.425 321.159L208.364 321.044C208.288 320.908 208.199 320.772 208.069 320.688C208.054 320.705 208.024 320.724 207.957 320.745C207.043 321.033 206.245 320.585 205.822 319.895C204.024 320.118 202.063 320.043 200.377 320.117L198.673 320.2C196.852 320.283 194.949 320.32 193.238 319.952C192.999 319.901 192.926 319.503 193.166 319.4C195.269 318.5 197.821 318.212 200.073 317.867C201.331 317.673 202.598 317.526 203.86 317.356C204.7 317.242 205.591 317.055 206.461 317.01C208.643 314.292 207.468 310.003 204.431 308.832C203.325 309.319 202.33 309.036 201.121 308.932C199.915 308.828 198.706 308.758 197.494 308.763C195.067 308.774 192.495 309.413 190.092 309.138C189.701 309.093 189.338 308.572 189.726 308.255C191.566 306.752 194.203 306.262 196.538 305.942L197.022 305.877C197.805 305.775 198.757 305.625 199.745 305.535C199.968 305.099 200.369 304.77 200.971 304.688C201.15 304.663 201.33 304.649 201.509 304.634L201.507 304.616C202.975 304.545 202.911 302.064 202.508 301.112ZM102.009 347.537C101.983 347.577 101.954 347.615 101.924 347.652L101.878 347.706L102.119 347.608L102.009 347.537ZM228.125 295.793C221.947 295.128 215.759 295.268 209.562 295.447C209.066 297.069 207.341 298.452 205.669 298.504C206.978 300.498 207.113 303.198 206.195 305.313C208.145 306.089 209.824 307.484 210.843 309.471C212.257 312.225 212.072 315.29 210.675 317.835C211.867 318.916 212.571 320.67 212.501 322.324C212.422 324.168 211.324 325.743 210.411 327.27C209.425 328.921 209.392 330.375 209.089 332.225C208.646 334.931 206.822 336.573 204.475 337.598L204.6 338.089C205.205 340.446 205.958 342.933 207.687 344.657C209.911 346.874 213.363 346.853 216.302 346.994L216.444 347.001C219.135 347.136 221.825 347.293 224.516 347.446L226.533 347.559C229.631 347.729 232.606 347.75 235.135 345.7C239.263 342.355 242.094 336.818 243.885 331.917C247.645 321.629 247.69 310.339 245.964 299.624C240.176 297.757 234.17 296.443 228.125 295.793ZM176.74 312.861L176.786 312.864C178.058 313.01 178.932 314.041 179.243 315.264C179.695 317.041 179.473 318.648 180.561 320.253C181.68 321.903 182.368 323.224 182.531 325.263C182.598 326.102 182.567 326.938 182.754 327.759L182.889 328.334C183.033 328.948 183.15 329.539 183.079 330.197C183.013 330.798 182.721 331.266 182.119 331.458C180.158 332.086 178.643 330.64 178.136 328.81C177.699 327.23 178.283 325.347 177.666 323.863C177.323 323.041 176.692 322.353 176.336 321.524C175.983 320.704 175.805 319.846 175.749 318.954C175.641 317.267 177.132 315.239 176.3 313.71C176.123 313.384 176.324 312.851 176.74 312.861ZM150.686 295.447C152.014 295.177 153.521 294.558 154.831 295.072C155.504 295.337 155.837 296.159 155.268 296.73C154.28 297.721 152.845 297.776 151.514 298.01L151.397 298.031C149.824 298.322 148.248 298.598 146.67 298.86C143.702 299.352 140.726 299.787 137.74 300.157C134.673 300.537 131.597 300.875 128.517 301.13L127.325 301.228C124.723 301.436 122.016 301.593 119.463 301.194C119.092 301.136 119.152 300.596 119.463 300.501C122.26 299.654 125.328 299.427 128.219 299.068C131.293 298.686 134.361 298.283 137.422 297.805C140.478 297.327 143.529 296.815 146.57 296.248C147.944 295.992 149.316 295.725 150.686 295.447ZM198.613 292.727C197.448 292.314 196.165 291.702 194.902 291.907C192.724 292.26 190.786 294.384 189.062 295.783L189.927 295.614C194.357 294.762 200.223 293.845 203.941 296.663C203.95 296.647 203.958 296.631 203.968 296.614C204.269 296.158 204.616 295.802 204.996 295.412C205.032 295.378 205.067 295.342 205.102 295.306L205.306 295.088L204.838 294.926C203.835 294.571 202.646 294.113 202.459 294.046L202.446 294.041C201.167 293.608 199.886 293.179 198.613 292.727ZM162.22 199.808C162.038 197.462 165.687 197.481 165.867 199.808C166.262 204.889 165.119 209.921 162.661 214.374C162.642 214.407 162.623 214.436 162.604 214.466C164.141 215.267 165.697 216.036 167.287 216.722C169.32 217.601 171.392 218.401 173.502 219.08C175.409 219.694 177.76 219.937 179.364 221.215C182.746 223.911 181.476 229.505 180.825 233.131L180.723 233.703C180.399 235.569 180.165 237.484 180.951 239.274C181.79 241.187 183.488 242.606 185.002 243.975L185.308 244.252C186.649 245.475 188.182 246.961 189.166 248.619C190.064 246.761 191.289 245.242 192.583 243.532C193.507 242.312 192.85 241.91 192.186 240.718C191.547 239.57 191.235 238.347 191.435 237.039C191.804 234.622 193.734 232.875 195.655 231.564C197.924 230.015 200.457 228.868 202.802 227.427C207.622 224.467 212.316 221.083 216.545 217.325C216.662 217.221 216.864 217.357 216.771 217.499C213.43 222.584 209.513 226.979 204.699 230.709C202.747 232.221 200.696 233.476 198.632 234.794L198.039 235.175C197.21 235.713 196.176 236.431 195.801 237.346C195.424 238.266 196.228 238.961 196.661 239.723C198.036 242.143 197.372 244.402 195.743 246.454L195.667 246.549C194.048 248.546 192.82 250.403 192.233 252.955C190.972 258.435 192.729 264.144 194.568 269.29L194.64 269.493C195.635 272.266 196.692 275.019 197.556 277.837L197.794 278.616C198.577 281.209 199.218 283.766 198.34 286.431C198.041 287.338 196.806 287.552 196.293 286.699C194.483 283.69 194.031 280.069 192.897 276.761C191.791 273.537 190.521 270.371 189.453 267.134C188.077 262.966 187.157 258.479 187.656 254.107C187.642 254.082 187.626 254.058 187.613 254.031L187.263 253.265C186.308 251.189 185.386 249.376 183.65 247.722C181.839 245.996 179.873 244.469 178.448 242.379C175.353 237.842 177.267 232.794 177.641 227.832L177.684 227.223C177.752 226.193 177.789 224.793 177.116 224.08C176.36 223.277 174.586 223.073 173.583 222.717C170.989 221.799 168.433 220.728 165.999 219.443C163.682 218.22 161.438 216.869 159.348 215.285L158.289 214.488C156.617 213.226 154.884 211.848 153.764 210.13C153.635 209.932 153.855 209.613 154.089 209.708C155.958 210.467 157.667 211.675 159.416 212.726C159.444 212.662 159.475 212.597 159.511 212.532C161.676 208.611 162.566 204.268 162.22 199.808ZM221.951 226.67C222.696 224.626 226.091 224.784 225.956 227.213C225.852 229.08 225.06 230.764 224.337 232.459L224.259 232.64C223.512 234.406 222.649 236.064 221.616 237.682C219.642 240.775 217.33 243.646 214.86 246.356C212.622 248.812 209.683 250.314 206.297 250.064C204.871 249.959 203.431 249.596 202.181 248.883C200.696 248.035 199.083 245.491 197.189 246.107C197.006 246.167 196.835 245.898 196.993 245.771C199.18 244.008 201.662 246.741 203.756 247.4C206.911 248.392 210.149 247.295 212.179 244.742C214.3 242.077 216.251 239.093 218.033 236.191C218.938 234.718 219.763 233.189 220.477 231.612C221.196 230.021 221.36 228.293 221.951 226.67ZM216.865 214.087C216.774 213.805 217.124 213.536 217.372 213.697C218.809 214.634 220.054 215.871 221.38 216.955C222.85 218.158 224.332 219.337 225.836 220.497C228.029 222.189 225.486 225.304 223.555 223.456C220.913 220.927 218.02 217.621 216.865 214.087ZM208.975 204.19C209.559 201.937 213.012 202.867 212.509 205.093L212.492 205.161C211.539 208.839 212.896 212.584 215.794 214.968L215.901 215.055C217.734 216.523 215.137 219.09 213.322 217.636C209.359 214.462 207.711 209.07 208.975 204.19Z" fill="black"/>
<path fill-rule="evenodd" clip-rule="evenodd" d="M238.703 132.466C237.568 123.384 234.004 113.742 230.255 105.276C221.826 87.3753 202.529 84.9108 185.229 81.2201C168.158 78.7275 150.081 76.4768 133.268 81.45C123.815 83.7724 120.123 95.0628 121.615 103.973C122.467 109.525 124.986 114.779 127.135 119.925C131.406 130.492 134.116 141.804 134.12 153.245C133.827 160.721 132.775 169.255 141.341 172.422C149.493 176.487 150.182 187.509 160.389 193.762C164.517 202.147 175.76 202.885 183.852 204.83C188.966 205.811 194.139 206.534 199.325 207.001C214.343 208.931 226.356 204.566 234.217 191.149C239.478 182.984 243.395 173.556 242.428 163.66C241.464 153.239 239.858 142.873 238.703 132.466Z" fill="#D08B5B"/>
<path fill-rule="evenodd" clip-rule="evenodd" d="M185.359 59.4652C186.216 58.4909 187.537 58.8251 188.338 59.5955C188.86 59.7498 189.366 59.9791 189.843 60.2826C190.922 60.1437 192.054 60.1437 193.112 60.1827C193.369 60.0383 193.644 59.9098 193.943 59.7994C196.083 59.0149 197.978 59.4134 199.541 60.4638C200.294 59.7494 201.244 59.3012 202.458 59.369C203.542 59.4297 204.314 59.9411 204.976 60.6146C205.636 59.6602 206.703 58.9793 208.032 58.8846C209.89 58.7521 211.675 59.4993 213.156 60.656C214.018 59.6639 215.194 59.0937 216.504 59.0881C217.366 58.9312 218.276 58.9931 219.098 59.242C220.291 59.6035 221.339 60.2808 222.174 61.1598C223.494 59.8917 225.11 58.9793 226.973 59.1124C229.385 59.2871 231.385 61.0656 232.314 63.2547C233.946 63.9105 235.453 64.8459 236.713 66.1795C236.78 66.2497 236.844 66.3233 236.912 66.3972C237.59 66.6483 238.229 67.0042 238.792 67.473C240.574 68.9603 240.971 71.1125 240.381 73.2216C240.464 73.5591 240.534 73.9025 240.598 74.2456C242.267 74.5 243.783 75.4661 244.646 77.0389C245.825 79.1973 245.593 82.0421 244.315 84.1027C243.766 84.989 243.069 85.7359 242.286 86.3889C243.171 88.4063 242.746 90.8136 241.318 92.4453C240.97 93.0078 240.543 93.5156 240.063 93.9751C240.593 96.0609 239.65 98.2128 237.767 99.3273L237.606 99.7316C237.579 99.7987 237.551 99.8656 237.523 99.9318C237.502 100.018 237.476 100.101 237.451 100.184C237.406 100.925 237.163 101.651 236.681 102.335C235.693 103.738 234.469 104.652 233.82 106.289L233.755 106.461C233.476 107.236 232.575 107.783 231.807 107.544C236.07 116.325 238.305 126.095 239.84 135.671C240.605 140.448 241.196 145.241 241.675 150.053L242.144 154.845C242.557 159.104 242.925 163.377 242.928 167.651C242.934 177.318 240.176 186.616 234.258 194.309C228.661 201.581 220.74 206.851 211.793 208.927C202.555 211.067 191.718 210.224 183.434 205.324C180.991 203.884 183.131 200.419 185.616 201.578C190.321 203.773 195.102 205.404 200.317 205.769C205.401 206.128 210.497 205.49 215.317 203.822C223.293 201.06 230.079 195.275 234.442 188.07C236.591 184.519 238.147 180.666 238.975 176.594C240.006 171.519 239.851 166.274 239.472 161.134L239.446 160.784C238.697 150.88 237.709 140.916 236.114 131.112C234.703 122.442 232.534 113.948 229.719 105.641C228.616 104.667 227.382 103.862 226.062 103.25C216.393 102.845 206.708 102.963 197.052 103.632C188.818 104.206 180.623 105.178 172.49 106.594L171.619 106.747C169.818 107.069 167.819 107.253 166.122 107.98C164.667 108.605 164.077 109.807 163.711 111.285C162.787 115.022 162.647 119.112 162.491 122.944C162.338 126.691 162.683 130.468 162.384 134.202C162.13 137.326 161.332 140.524 159.024 142.784C157.817 143.967 156.331 144.614 154.937 145.512C154.035 146.092 153.653 146.689 153.769 147.762C154.02 150.111 155.906 153.069 153.788 155.081C153.415 155.433 152.77 155.479 152.403 155.081C151.529 154.127 150.321 153.401 149.285 152.631C148.851 152.312 149.212 151.693 149.704 151.914C150.352 152.205 151.012 152.549 151.688 152.849C150.196 151.617 148.074 151.012 146.308 150.654C145.418 150.476 144.483 150.424 143.556 150.507C142.872 150.834 142.172 151.138 141.471 151.435C140.582 151.81 139.683 152.15 138.778 152.472C135.639 155.038 134.141 159.211 134.795 163.291C135.153 165.545 136.189 167.994 138.143 169.31C140.457 170.867 143.556 170.199 146.057 171.355C148.398 172.437 149.823 174.623 150.89 176.886L151.335 177.828C152.325 179.913 153.343 181.944 154.696 183.842C156.261 186.04 158.178 188.014 160.268 189.71C161.283 190.531 162.364 191.269 163.481 191.941L163.787 192.123C164.918 192.788 165.728 193.423 165.805 194.83C165.829 195.32 165.52 195.768 165.123 196.022C163.411 197.111 161.708 195.75 160.284 194.799C158.746 193.775 157.276 192.623 155.915 191.366C153.329 188.98 151.092 186.148 149.371 183.072C148.059 180.73 147.313 177.434 145.241 175.619C143.975 174.512 142.187 174.503 140.606 174.301C139.136 174.111 137.745 173.804 136.437 173.078C131.115 170.113 129.611 162.936 130.873 157.39C131.087 156.454 131.387 155.544 131.757 154.667C129.776 154.998 127.55 152.944 128.354 150.871C128.415 150.715 128.486 150.568 128.553 150.417C127.248 149.556 126.217 148.25 125.728 146.542C125.478 145.659 125.441 144.767 125.572 143.906C124.94 143.48 124.417 142.894 124.081 142.173C123.029 141.686 122.097 140.956 121.54 139.914C120.77 138.476 120.868 137.151 121.455 135.959C121.372 135.809 121.293 135.656 121.216 135.499C119.061 134.129 117.557 131.768 117.728 129.149C117.783 128.282 117.997 127.5 118.328 126.795C118.3 126.706 118.273 126.614 118.248 126.525C116.445 125.605 114.953 124.094 114.421 122.077C113.889 120.047 114.516 118.023 115.769 116.466C113.935 115.12 112.831 113.241 113.501 110.398C113.773 109.243 114.32 108.191 115.06 107.305C115.057 107.278 115.051 107.25 115.044 107.222L114.873 107.089C112.609 105.297 111.307 103.013 112.697 100.204C113.32 98.9416 114.21 98.0613 115.255 97.4819L115.307 97.3163C114.558 95.7067 114.305 93.9193 114.821 92.04C115.243 90.492 116.243 89.2592 117.521 88.4409C117.435 87.7477 117.447 87.0091 117.585 86.2086C117.814 84.8569 118.483 83.6765 119.462 82.8395C119.498 82.6614 119.544 82.487 119.596 82.3119C119.926 81.2422 120.544 80.0802 121.259 79.2184C121.849 78.5041 122.509 78.2435 123.316 78.2159C123.268 77.557 123.301 76.8884 123.436 76.2108C123.848 74.1202 125.175 72.1546 127.141 71.2625C127.948 70.8976 128.798 70.7906 129.617 70.8792C130.314 69.4076 131.674 68.341 133.346 68.111C133.997 68.0191 134.603 68.0249 135.159 68.108C135.474 67.9605 135.801 67.829 136.143 67.7091C136.369 67.6294 136.599 67.5558 136.828 67.4825C137.601 66.5198 138.619 65.75 139.809 65.2874C141.181 64.7508 142.578 64.8057 143.816 65.2564L144.21 65.1736C144.828 64.1006 145.812 63.2697 147.325 62.8926C149.043 62.4664 150.807 63.0612 152.158 64.1438C152.165 64.1438 152.171 64.1438 152.18 64.1404C152.886 62.5553 154.094 61.4516 156.12 61.5283C157.383 61.5773 158.523 62.2061 159.403 63.1014C159.892 63.0398 160.382 62.9846 160.874 62.9297C161.393 62.3193 161.971 61.7493 162.61 61.2373C163.656 60.397 165.016 60.4647 165.786 61.6478C165.954 61.9054 166.11 62.166 166.266 62.4266L166.972 62.3775C167.804 61.2523 168.938 60.492 170.491 60.431C171.915 60.3724 172.93 61.0718 173.704 62.0495C174.333 62.0341 174.966 62.0222 175.599 62.0127C176.336 61.1573 177.204 60.4031 178.194 59.7777C178.952 59.2994 180.071 59.4622 180.686 60.0999C181.101 60.5334 181.487 60.9859 181.846 61.4544C182.772 60.4132 184.023 59.7274 185.359 59.4652ZM140.368 156.822C141.796 156.006 143.715 156.889 145.097 157.582C146.781 158.425 148.453 159.698 149.484 161.292C150.887 163.463 147.588 165.216 146.112 163.27C145.204 162.071 144.479 160.863 143.379 159.814C142.373 158.852 140.915 158.208 140.337 156.938C140.316 156.896 140.322 156.846 140.368 156.822ZM141.371 104.135L141.397 104.058C141.803 102.944 140.032 102.464 139.629 103.569C139.019 105.243 139.722 107.063 141.371 107.786C141.828 107.987 142.35 107.917 142.626 107.456C142.857 107.068 142.75 106.396 142.297 106.198C141.369 105.791 141.058 105.073 141.371 104.135ZM126.107 101.02C126.994 100.235 125.692 98.9381 124.81 99.7196C123.986 100.449 123.375 101.439 123.534 102.578C123.696 103.739 124.568 104.558 125.524 105.137C126.536 105.751 127.459 104.161 126.449 103.549L126.336 103.479C125.912 103.215 125.416 102.852 125.344 102.333C125.268 101.781 125.734 101.35 126.107 101.02ZM131.141 87.1707L131.204 87.1244C132.157 86.4425 131.242 84.8464 130.278 85.536C129.395 86.1685 128.686 86.9901 128.612 88.1233C128.539 89.2245 129.098 90.1792 129.829 90.954C130.641 91.8158 131.937 90.5134 131.126 89.6534C130.335 88.8153 130.181 87.9007 131.141 87.1707Z" fill="black"/>
<path fill-rule="evenodd" clip-rule="evenodd" d="M213.807 180.075C214.277 179.257 215.359 178.5 216.349 178.616C220.784 179.137 220.777 184.519 219.064 187.66C217.545 190.446 214.403 192.082 211.257 191.843C207.953 191.592 205.137 189.647 203.898 186.554C203.079 184.507 202.7 180.729 204.88 179.354C204.92 179.328 204.987 179.335 205.019 179.372C206.064 180.589 206.106 182.416 207.021 183.77C207.872 185.031 209.194 186.071 210.743 186.232C211.899 186.352 213.07 185.934 213.522 184.895C213.767 184.333 213.739 184.028 213.647 183.641L213.563 183.304C213.274 182.127 213.143 181.23 213.807 180.075ZM214.992 156.472C217.306 157.879 220.83 161.161 218.342 164.65C215.412 167.726 211.195 164.199 209.117 162.604C207.19 161.367 205.024 164.547 206.812 165.99C221.83 177.118 227.925 156.84 216.162 154.818C214.867 154.595 214.386 156.037 214.992 156.472ZM190.564 146.823C191.984 144.691 195.225 145.005 196.007 147.535C196.431 148.905 195.846 150.137 195.876 151.506C195.902 152.662 195.826 153.95 195.472 155.07C194.664 157.623 192.37 159.426 189.655 159.351C186.95 159.277 184.567 157.563 183.434 155.149C182.296 152.726 182.537 150.219 183.367 147.755C183.407 147.637 183.562 147.579 183.656 147.679C184.637 148.723 185.355 149.825 186.099 150.993L186.86 152.191C187.443 153.093 188.289 154.245 189.376 154.173L189.539 154.157C189.841 154.131 189.795 154.191 190.028 153.779C190.135 153.588 190.116 153.234 190.168 153.009L190.186 152.933L190.176 152.892C190.153 152.783 190.13 152.577 190.112 152.221L190.108 152.142C190.029 150.475 189.558 148.333 190.564 146.823ZM226.557 148.242C226.302 145.515 230.132 144.91 231.406 146.927C232.07 147.979 232.263 149.301 232.41 150.553L232.479 151.148C232.63 152.434 232.689 153.772 232.132 154.971C231.253 156.861 229.342 157.86 227.281 157.702C225.313 157.55 223.517 156.408 222.571 154.674C221.727 153.127 220.888 150.107 221.913 148.493C221.975 148.395 222.098 148.383 222.183 148.458C223.152 149.319 223.31 150.889 223.886 152.01C224.48 153.166 225.381 154.293 226.746 154.469C228.052 154.637 228.551 153.923 228.218 152.677C227.788 151.068 226.718 149.973 226.557 148.242ZM191.599 130.611L192.225 130.371C194.372 129.56 197.318 128.622 199.063 130.368C200.14 131.445 200.345 133.032 199.576 134.346C198.645 135.938 196.975 135.978 195.363 136.212C193.529 136.479 191.664 136.986 189.956 137.709C188.033 138.524 186.247 139.539 184.499 140.673C182.836 141.751 181.18 143.512 179.19 143.844C179.109 143.858 179.017 143.823 178.996 143.733C178.544 141.787 179.8 139.871 180.92 138.352C182.276 136.513 183.919 135.004 185.755 133.65C187.527 132.344 189.552 131.4 191.599 130.611ZM230.585 137.533L230.777 137.499C232.078 137.282 233.258 137.332 234.238 138.364C234.987 139.151 235.276 140.171 234.919 141.212C234.59 142.171 233.853 143.147 232.784 143.348C229.176 144.027 225.179 143.915 221.553 143.401C219.894 143.165 218.219 142.877 216.603 142.423L215.86 142.207C214.511 141.821 212.966 141.418 211.986 140.425C211.634 140.068 211.837 139.557 212.258 139.392C213.968 138.722 216.312 139.079 218.136 139.026C220.257 138.965 222.381 138.806 224.492 138.587C226.555 138.373 228.551 137.906 230.585 137.533Z" fill="black"/>
<path fill-rule="evenodd" clip-rule="evenodd" d="M187.701 187.998C190.181 182.183 195.594 177.909 201.826 176.346C206.403 175.202 211.206 175.238 215.872 175.693C218.316 175.929 220.938 176.123 223.242 177.031C225.209 177.807 226.812 179.274 228.017 180.996C229.452 183.037 230.428 185.373 231.113 187.767C231.211 188.107 231.302 188.45 231.387 188.794C231.089 190.601 230.457 192.138 228.785 193.274C227.154 194.382 225.208 194.836 223.267 194.997C223.077 194.906 222.893 194.812 222.725 194.715C219.701 192.983 217.573 188.89 213.757 189.444C210.351 189.938 208.109 194.227 206.084 196.742C199.583 197.5 193.087 195.545 187.797 191.824C187.529 190.551 187.513 189.267 187.701 187.998ZM235.806 183.587C235.286 182.126 234.631 180.712 233.855 179.379C231.288 174.972 227.347 171.46 222.67 169.453C211.604 164.711 197.287 168.054 188.35 175.831C185.298 178.489 182.211 182.396 181.278 186.599C180.999 186.654 180.736 186.799 180.519 187.003C174.063 182.935 167.414 179.021 162.211 173.382C158.433 169.284 155.805 164.435 154.196 159.107C154.065 158.669 153.358 158.733 153.379 159.218C153.385 159.331 153.391 159.445 153.398 159.558C153.33 159.35 153.012 159.457 152.988 159.66C152.122 166.132 151.039 172.995 152.036 179.502C152.633 183.384 154.395 186.227 156.751 189.296C159.275 192.586 162.132 195.645 165.054 198.58C166.908 200.443 168.844 202.591 171.114 203.957C173.754 205.544 176.749 206.75 179.567 207.974C182.434 209.223 185.343 210.377 188.307 211.378C194.233 213.385 200.358 214.773 206.59 215.38C211.58 215.865 217.282 216.393 222.064 214.515C225.729 213.075 228.687 210.473 231.034 207.342C233.588 203.932 235.608 200.048 236.724 195.952C237.884 191.698 236.05 184.273 235.806 183.587Z" fill="black"/>
</svg>
