<svg width="240" height="256" viewBox="0 0 240 256" fill="none" xmlns="http://www.w3.org/2000/svg">
<path fill-rule="evenodd" clip-rule="evenodd" d="M170.479 181.122C168.644 180.468 166.876 179.712 165.265 178.6C160.621 175.142 157.592 169.937 154.731 165.006C150.7 157.835 147.829 150.193 145.844 142.221C144.991 138.795 144.702 134.824 142.764 131.787C138.371 125.429 125.49 126.253 118.651 127.369C114.07 128.18 113.124 133.308 112.083 137.102C111.217 140.255 110.65 143.443 110.174 146.674C109.042 147.419 107.763 148.024 106.545 148.551C93.2646 152.625 90.9305 160.177 85.8582 171.843C77.2911 188.799 54.0443 195.439 50.5328 215.506C48.2703 228.755 54.704 241.219 61.3372 252.232C67.5147 264.263 76.1388 270.037 89.8731 267.195C102.755 264.304 115.135 259.468 127.791 255.731C133.92 254.223 140.04 250.302 146.488 251.669C159.773 254.654 173.424 256.057 187.039 255.67C206.155 256.443 206.152 238.089 204.19 223.875C202.816 201.755 191.663 187.551 170.479 181.122Z" fill="#D08B5B"/>
<path fill-rule="evenodd" clip-rule="evenodd" d="M171.757 213.13C173.354 214.187 174.698 215.789 175.776 217.475C171.274 217.007 166.779 216.466 162.294 215.851C162.881 215.476 163.474 215.109 164.08 214.762C166.292 213.516 169.288 211.497 171.757 213.13ZM96.9503 226.445C96.1253 226.121 95.8061 224.863 95.4846 224.142C94.4764 221.88 93.5563 219.579 92.5991 217.295C96.2337 216.259 99.7682 215.109 103.533 214.556C107.582 213.963 111.69 213.819 115.776 213.952C124.052 214.222 132.252 215.576 140.388 217.026C148.516 218.476 156.643 219.868 164.827 220.961C172.845 222.031 180.888 222.815 188.947 223.502C190.513 223.636 193.123 224.199 194.383 222.967C195.379 221.991 195.412 220.19 194.164 219.397C193.387 218.902 192.261 218.895 191.374 218.78C190.256 218.637 189.133 218.541 188.008 218.466C187.55 218.436 187.092 218.408 186.633 218.38C190.313 216.992 194.156 216.235 198.145 216.446C198.371 217.817 199.387 219.228 199.944 220.359C200.915 222.333 201.672 224.331 202.169 226.477C203.208 230.964 203.254 235.62 202.96 240.196C202.691 244.011 202.112 248.231 199.12 250.934C196.855 252.979 193.659 253.737 190.695 253.975C187.249 254.252 183.75 253.956 180.333 253.494C175.541 252.846 170.726 251.989 166.028 250.84C156.928 248.615 148.206 245.074 140.159 240.274C136.235 237.933 132.49 235.3 128.512 233.048C124.459 230.753 120.145 228.973 115.616 227.868C110.548 226.631 105.249 226.103 100.04 226.408C99.1357 226.461 97.8296 226.789 96.9503 226.445ZM91.0767 224.148C91.6093 225.877 92.0168 227.851 93.1536 229.304C94.2797 230.743 95.9785 231.252 97.7384 231.38C99.8603 231.534 102.007 231.435 104.134 231.514C108.495 231.676 112.797 232.385 116.967 233.685C120.853 234.897 124.459 236.786 127.934 238.883C131.147 240.822 134.266 242.904 137.48 244.837C136.624 245.229 135.779 245.653 134.928 246.023C133.145 246.797 131.35 247.545 129.548 248.274C125.993 249.711 122.423 251.113 118.817 252.416C111.546 255.043 104.155 257.338 96.675 259.293C93.1076 260.226 89.4894 261.315 85.7831 261.47C82.4967 261.607 79.4525 260.678 76.8019 258.723C71.3043 254.669 66.9305 248.816 63.3947 243.044C61.2941 239.614 59.4609 236.011 57.9446 232.285C57.1777 230.4 56.4822 228.487 55.8562 226.552C55.5626 225.643 55.2841 224.729 55.0205 223.811C54.9045 223.407 54.7934 223.002 54.6833 222.597C60.3049 220.881 65.9933 219.332 71.8152 218.472C74.9236 218.012 78.0734 217.78 81.2157 217.814C82.7755 217.83 84.3345 217.915 85.886 218.076C86.7212 218.162 87.5529 218.274 88.3811 218.412C88.7234 218.469 89.0751 218.553 89.4279 218.615C89.9669 220.463 90.5103 222.309 91.0767 224.148ZM207.283 216.802C207.586 216.189 207.713 215.586 207.822 214.919C207.905 214.41 208.125 213.693 207.932 213.032C207.717 212.291 207.13 211.629 206.708 210.998C206.243 210.3 205.778 209.602 205.313 208.903C204.384 207.506 203.458 206.107 202.532 204.707C198.753 198.992 195 193.261 191.241 187.533C187.905 182.45 184.625 177.321 181.188 172.306C178.248 168.017 175.045 163.8 171.021 160.465C165.934 156.248 159.877 154.262 153.549 152.712C152.858 151.994 151.935 151.602 150.949 151.682C149.555 150.1 148.447 148.995 147.945 146.984C147.704 146.021 147.779 143.314 146.842 142.744C145.728 142.067 145.146 142.963 144.839 143.973C143.811 147.353 144.99 151.896 147.705 155.282C146.561 159.236 145.045 164.856 142.34 168.024C139.443 171.417 135.437 172.473 131.114 172.542C122.871 172.675 114.636 169.61 108.349 164.299C106.438 162.684 104.663 160.881 103.057 158.964C101.852 157.525 100.428 155.305 99.4853 153.627C99.4853 152.973 98.7135 152.289 106.571 151.76C114.429 151.232 115.025 140.469 115.2 139.004C115.342 137.814 115.945 135.968 115.108 134.998C114.752 134.586 114.022 134.52 113.571 134.8C112.721 135.328 112.442 136.678 112.175 137.595C111.8 138.88 110.576 146.854 108.257 147.777C107.172 148.209 105.926 148.217 104.778 148.297C103.36 148.396 101.939 148.469 100.526 148.634C100.005 148.695 99.4367 148.863 98.9227 148.868C98.5883 148.871 98.2433 148.709 97.92 148.595C96.8291 148.209 95.7389 148.498 94.615 148.649C84.6778 149.985 74.4459 153.034 65.9698 158.521C58.499 163.357 53.2357 170.311 49.7626 178.442C46.2191 186.74 44.1879 195.713 42.4857 204.547C41.9155 207.507 41.4176 210.48 40.9898 213.464C40.5763 216.347 40.0591 219.294 39.9353 222.207C39.8863 223.359 40.1616 224.429 40.5852 225.482C41.0622 226.667 42.1898 227.134 43.2712 227.687C45.6453 228.902 48.1496 229.844 50.7298 230.511C52.3061 233.38 53.6326 236.36 54.6987 239.454C54.3032 240.238 54.295 241.408 54.2189 242.17C54.0303 244.068 53.9495 245.975 53.9326 247.881C53.8986 251.701 54.1283 255.517 54.3083 259.332C54.4908 263.2 55.0976 278.464 55.1964 280.328C55.2734 281.776 55.1698 283.801 55.9323 285.086C57.104 287.062 59.9958 286.996 61.3353 285.394C94.615 292.551 157.171 290.395 182.366 286.794C185.644 286.326 184.615 286.845 185.448 286.017C186.074 285.394 186.606 284.329 186.779 283.473C187.011 282.33 186.637 281.296 185.983 280.371C185.296 279.398 185.17 277.824 184.915 276.668C184.311 273.935 184.011 261.932 183.728 260.602C183.641 260.188 183.555 259.75 183.453 259.311C188.074 259.749 192.89 259.749 197.286 258.203C199.78 257.326 202.105 255.949 203.895 253.982C206.062 251.601 207.268 248.603 207.888 245.474C208.688 241.439 208.857 237.26 208.7 233.158C208.482 228.31 207.678 223.395 205.683 218.944C206.34 218.334 206.89 217.598 207.283 216.802Z" fill="black"/>
<path fill-rule="evenodd" clip-rule="evenodd" d="M133.465 60.2713C165.196 61.2784 167.11 76.3883 167.11 101.728C167.11 127.068 150.649 143.036 144.588 145.824C138.527 148.612 122.567 160.588 108.164 155.069C93.7613 149.55 97.9321 126.233 97.9321 116.215C97.9321 106.196 101.733 59.2642 133.465 60.2713Z" fill="#D08B5B"/>
<path fill-rule="evenodd" clip-rule="evenodd" d="M102.795 100.486C109.356 73.6655 121.333 60.5802 138.726 61.2296C164.817 62.2036 164.542 88.8625 162.905 86.4318C161.835 84.8437 154.348 79.296 140.443 69.7886L139.584 69.2016L102.795 100.486Z" fill="#9FD8E5"/>
<path fill-rule="evenodd" clip-rule="evenodd" d="M146.338 137.502C140.51 140.763 133.838 140.89 127.57 138.837C123.811 137.61 120.364 135.711 117.139 133.442C114.333 131.465 111.828 129.274 109.347 126.947C107.304 122.43 105.485 117.922 104.633 113.008C103.87 108.597 103.768 104.017 104.654 99.6149C111.202 94.2149 117.71 88.7706 124.21 83.3095C127.52 80.5279 130.838 77.7615 134.196 75.0391C135.902 73.6569 137.591 72.2535 139.29 70.865C139.57 70.6367 139.849 70.4084 140.129 70.1802C143.637 72.7544 147.398 74.9611 150.881 77.5774C152.704 78.9491 154.477 80.4095 156.166 81.9458C157.051 82.7513 157.916 83.5819 158.759 84.4336C159.531 85.2116 160.275 86.3273 161.369 86.6213C161.519 86.6613 161.66 86.6697 161.793 86.6507C163.256 99.4924 164.295 113.359 158.028 125.021C155.293 130.109 151.416 134.657 146.338 137.502ZM108.43 142.221C107.627 141.484 108.823 140.292 109.622 141.025C114.641 145.634 121.202 148.077 127.83 149.208C128.899 149.391 128.443 151.02 127.381 150.838C120.462 149.658 113.661 147.025 108.43 142.221ZM102.408 149.292C101.45 148.777 102.302 147.318 103.259 147.832C107.169 149.935 111.457 151.027 115.808 151.765C116.877 151.946 116.421 153.575 115.359 153.395C110.861 152.632 106.448 151.465 102.408 149.292ZM118.321 78.0616C121.566 75.1427 125.053 72.3653 128.736 70.0217C132.463 67.6503 136.534 66.2322 140.934 66.1983C140.626 66.4456 140.333 66.7204 140.036 66.9759C139.206 67.6884 138.377 68.4048 137.548 69.1192C135.891 70.5501 134.23 71.9786 132.594 73.4329C129.373 76.2988 126.141 79.1499 122.926 82.0221C116.747 87.5426 110.7 93.1833 104.785 98.9872C104.816 98.8456 104.85 98.704 104.884 98.5626C106.842 90.362 112.17 83.5967 118.321 78.0616ZM143.755 66.5555C143.776 66.4921 143.791 66.4306 143.799 66.3717C152.243 67.4749 159.295 73.7032 161.626 81.9038C161.424 82.187 161.312 82.523 161.354 82.88C161.375 83.0599 161.397 83.2416 161.418 83.4213C161.129 83.1341 160.832 82.8654 160.579 82.6097C159.737 81.7558 158.875 80.925 157.99 80.1156C156.179 78.4609 154.298 76.9138 152.316 75.4703C148.87 72.9594 145.138 70.6515 141.029 69.4468C141.299 69.2249 141.569 69.003 141.841 68.7832C142.652 68.1214 143.405 67.5764 143.755 66.5555ZM158.892 57.7866C153.708 52.1076 146.529 47.9483 138.97 46.5026C131.751 45.1204 124.277 46.0313 117.457 48.7176C103.187 54.3395 91.9265 66.7016 86.6539 81.0267C83.5801 89.3729 82.5723 98.5223 83.496 107.357C84.4149 116.151 87.0565 125.233 91.8633 132.715C92.3039 133.399 92.7867 134.057 93.2926 134.693C93.0671 137.275 92.2069 139.807 90.8534 142.01C90.7807 142.128 90.704 142.243 90.6281 142.359C89.2421 143.4 87.8045 144.376 86.4011 145.384C85.1848 146.258 83.9811 147.154 82.8373 148.121C81.7577 149.034 80.504 150.051 79.773 151.284C79.1741 152.293 78.9295 153.666 79.7471 154.629C80.7323 155.789 82.4016 155.38 83.7361 155.38C83.8503 155.38 83.9644 155.382 84.0785 155.384C84.4792 155.636 84.892 155.865 85.2919 156.077C89.3334 158.224 93.3896 160.349 97.45 162.462C105.537 166.674 113.591 171.056 121.844 174.934C125.669 176.732 129.763 178.305 134.047 178.299C138.065 178.292 141.697 176.692 144.834 174.26C148.41 171.489 151.4 167.97 154.3 164.521C155.46 163.14 156.596 161.743 157.711 160.327C159.853 159.611 161.978 159.402 163.888 160.784C165.421 161.894 167.441 160.384 167.477 158.719C167.489 158.127 167.464 157.544 167.401 156.969C167.017 153.418 165.284 150.206 163.332 147.226C162.265 145.596 161.142 143.996 160.011 142.411C159.746 142.037 159.484 141.663 159.231 141.282C163.77 134.583 167.371 127.154 169.585 119.391C171.91 111.222 172.701 102.751 172.182 94.2868C171.385 81.3141 167.835 67.5848 158.892 57.7866Z" fill="black"/>
<path fill-rule="evenodd" clip-rule="evenodd" d="M143.152 128.274C141.732 127.695 140.465 126.728 139.538 125.493C139.216 125.063 139.133 124.61 139.2 124.195C139.276 123.729 139.552 123.306 139.928 123.023C140.305 122.739 140.777 122.598 141.233 122.67C141.63 122.732 142.024 122.949 142.337 123.399L142.402 123.489C142.953 124.235 143.67 124.846 144.488 125.241C145.276 125.621 146.158 125.798 147.07 125.695C148.808 125.499 150.005 124.559 151.278 123.282C151.436 123.121 151.594 122.955 151.752 122.786C151.852 122.633 151.991 122.534 152.146 122.483C152.317 122.425 152.511 122.429 152.689 122.491C152.86 122.55 153.013 122.664 153.116 122.815C153.213 122.958 153.269 123.135 153.251 123.339C153.134 124.661 152.443 125.842 151.461 126.769C150.37 127.799 148.924 128.511 147.563 128.761C146.064 129.036 144.536 128.839 143.152 128.274ZM148.271 107.866C149.866 108.836 152.297 111.098 150.581 113.503C148.56 115.624 145.652 113.193 144.219 112.093C142.89 111.241 141.396 113.433 142.629 114.428C152.987 122.099 157.19 108.12 149.078 106.726C148.184 106.572 147.853 107.566 148.271 107.866ZM129.711 98.9429C129.887 96.7541 133.219 96.257 133.551 98.423C133.847 100.363 133.498 102.145 132.624 103.892C131.79 105.561 129.692 104.783 129.533 103.263C129.32 101.226 129.601 100.304 129.711 98.9429ZM155.076 97.9739C155.541 97.3652 156.212 96.9497 157.015 97.1845C159.526 97.9185 158.786 101.485 157.904 103.22C157.425 104.163 155.876 104.402 155.176 103.572C154.036 102.219 153.489 99.5157 154.94 98.1825C154.979 98.1136 155.023 98.044 155.076 97.9739ZM132.589 89.3654L132.986 89.2959C134.213 89.0836 135.738 88.8796 136.606 89.8665C137.067 90.3898 137.225 91.3624 136.606 91.8633C135.518 92.7446 134.314 92.4031 133.01 92.4777C131.935 92.5394 130.902 92.7174 129.867 93.0135C127.595 93.663 125.744 94.8486 123.804 96.1505C123.55 96.3213 123.29 95.9956 123.411 95.7574C124.531 93.563 126.701 91.7604 128.875 90.6616C130.036 90.0751 131.305 89.5885 132.589 89.3654ZM152.787 88.3823L153.091 88.4445C156.395 89.1353 160.687 90.5153 162.251 93.7615C162.311 94.2205 162.248 94.3189 162.197 94.3832L162.18 94.4046C162.137 94.4595 162.104 94.5351 161.905 94.5976C161.85 94.5844 161.794 94.5705 161.737 94.5557C161.02 94.3677 160.453 94.1087 159.904 93.84L159.308 93.5465C158.617 93.2076 157.92 92.881 157.181 92.6399C155.605 92.1255 153.983 91.7631 152.337 91.5696C151.98 91.5277 151.636 91.4072 151.365 91.2006C151.108 91.0046 150.911 90.7332 150.821 90.3724C150.705 89.9056 150.739 89.5521 150.989 89.1309C151.177 88.8146 151.447 88.5953 151.756 88.4694C152.071 88.3411 152.43 88.3108 152.787 88.3823Z" fill="black"/>
<path fill-rule="evenodd" clip-rule="evenodd" d="M167.179 109.153C164.614 111.805 160.332 112.566 156.919 111.144C148.156 107.481 152.445 96.0578 159.203 92.99C160.047 92.7795 161.175 92.2801 162.203 92.1668C162.296 92.1211 162.499 92.2532 162.744 92.1283C170.196 92.9606 171.892 104.532 167.179 109.153ZM138.916 109.832C136.039 113.649 130.69 114.827 126.321 113.052C117.688 109.651 120.75 99.5216 126.656 95.5503C139.133 90.8602 144.285 102.794 138.916 109.832ZM120.202 101.374C120.194 101.37 120.185 101.369 120.177 101.365C120.223 101.345 120.269 101.325 120.314 101.304C120.299 101.343 120.283 101.381 120.269 101.42C120.246 101.404 120.227 101.386 120.202 101.374ZM173.118 97.2481C172.413 97.2496 171.396 97.3654 170.813 97.8542C169.375 93.0031 164.067 88.5134 159.452 91.7872C155.817 92.9566 153.12 95.5501 151.587 98.9981C148.823 97.3533 144.476 98.0557 142.08 100.231C140.51 95.0418 136.647 93.2248 132.048 92.9566C127.03 92.1342 122.027 97.0103 120.466 100.922C119.168 100.774 117.229 100.361 116.008 101.162C108.084 99.0834 94.2304 97.9373 92.6195 99.0923C91.4715 99.533 90.8415 102.244 92.445 102.39C93.8423 102.192 92.2819 100.404 93.6904 100.209C101.195 99.7433 108.481 101.255 115.906 101.89C116.569 102.782 118.711 103.08 119.854 102.722C118.054 109.357 121.939 113.872 127.761 115.224C136.775 117.296 144.618 109.229 142.26 100.838C144.991 99.4791 148.132 99.5374 151.107 100.253C146.136 118.554 175.599 117.733 170.997 98.4813C174.059 100.005 174.724 97.5556 173.118 97.2481Z" fill="black"/>
</svg>
