<svg width="259" height="260" viewBox="0 0 259 260" fill="none" xmlns="http://www.w3.org/2000/svg">
<path fill-rule="evenodd" clip-rule="evenodd" d="M245.861 194.94C248.025 193.81 250.138 192.583 252.217 191.305C253.682 190.428 252.385 188.22 250.884 189.018C250.116 189.426 249.351 189.838 248.583 190.244C249.187 189.723 249.747 189.156 250.249 188.539L250.215 188.504C252.151 186.769 249.664 183.495 247.462 184.92C245.52 186.328 243.561 187.765 241.332 188.692C236.715 190.65 231.623 190.974 226.668 191.031C224.855 190.895 223.123 191.209 221.363 191.559C222.053 188.791 223.779 186.7 224.695 184.019C225.371 181.312 221.465 179.468 220.08 182.07C219.741 182.709 219.417 183.356 219.1 184.005C216.108 186.728 211.112 186.488 208.095 189.411C206.376 190.937 205.535 193.008 205.202 195.086C204.977 196.497 205.328 197.912 204.475 199.162C200.351 204.997 193.835 214.22 190.526 220.641C188.183 205.382 181.927 186.509 175.464 172.556C173.327 168.094 170.882 163.734 167.672 159.951C168.036 158.69 166.752 156.451 165.936 157.14C163.422 154.069 158.979 153.273 155.407 151.746C150.584 149.683 146.583 145.395 144.616 140.522C142.089 131.241 135.868 130.062 127.24 130.472C118.982 130.462 112.873 133.995 111.071 142.404C107.411 148.786 98.7691 147.73 92.5518 149.42C87.9951 150.461 83.5731 152.071 79.3706 154.115C74.6954 149.679 57.9514 168.298 56.4294 173.089C57.3254 173.263 58.2159 173.472 59.0984 173.727C59.8843 173.954 59.5543 175.142 58.7616 174.952C57.7752 174.715 56.7825 174.552 55.7851 174.439C55.7546 174.534 55.728 174.629 55.7082 174.723C55.5962 174.715 55.4844 174.705 55.3725 174.698C55.6207 174.827 55.8596 174.977 56.0925 175.171C56.6553 175.638 55.9226 176.54 55.3245 176.168C54.7611 175.746 54.0231 175.813 53.3472 175.671C53.3071 177.061 48.348 175.506 47.5777 175.045C44.1542 174.617 40.6321 175.077 37.436 173.425C33.1834 172.529 28.8989 171.538 24.6941 170.397C23.5809 170.831 22.5347 172.385 23.4189 173.525C23.9162 174.044 23.2769 174.891 22.6507 174.522C20.5505 173.285 18.9263 171.355 17.5492 169.275C16.901 168.621 15.7505 168.762 14.8796 168.49C14.7632 168.699 14.6946 168.933 14.6956 169.172C11.0016 169.78 13.6368 173.816 15.4938 175.074C14.5087 175.716 14.4713 176.972 14.5575 178.022C14.3487 178.395 14.279 178.859 14.4607 179.277C15.1553 180.879 16.6577 182.227 17.8 183.525C19.0613 184.958 20.1858 186.398 21.7205 187.56C27.5701 192.021 34.6291 194.514 41.871 195.49C44.4423 195.885 48.141 196.49 49.7331 198.665C49.3425 201.246 48.6252 203.722 47.9745 206.239C47.0646 209.581 47.1265 213.079 47.1144 216.485C46.9872 216.383 46.743 216.404 46.7067 216.599C46.495 218.011 46.3376 219.455 45.4796 220.641C44.7275 222.848 44.227 225.201 43.9458 227.519C42.8194 238.508 42.5504 249.822 45.0903 260.64C46.0703 264.653 47.6644 268.467 49.8362 271.979C50.4837 273.027 51.5249 273.334 52.4597 273.128C55.5886 274.754 59.5302 275.275 62.9027 274.862C74.4001 271.606 70.394 279.447 86.5144 277.046C114.34 273.5 142.46 280.468 170.227 276.377C170.91 281.661 179.863 280.145 182.972 277.911C192.296 270.977 196.926 249.023 201.606 237.886C204.822 229.107 210.208 213.56 217.262 207.669C219.377 206.014 221.933 205.143 224.491 204.44C234.038 201.979 243.622 199.652 253.187 197.259C254.809 196.859 254.517 194.092 252.783 194.269C250.481 194.505 248.171 194.718 245.861 194.94Z" fill="#D08B5B"/>
<path fill-rule="evenodd" clip-rule="evenodd" d="M33.337 193.294C32.6905 193.214 32.0567 192.984 31.4271 192.802C30.4658 192.521 29.5236 192.193 28.5961 191.819C26.682 191.052 24.825 190.145 23.0841 189.035C20.2722 187.241 17.7877 184.942 15.9137 182.173L15.7851 181.98C14.7152 180.35 12.7418 176.73 14.9546 175.492C13.5284 174.3 12.1806 172.159 12.2566 170.506C12.3644 168.169 15.2291 168.201 16.7101 169.192C17.6799 169.841 18.4066 170.749 19.1355 171.644C19.9425 172.637 20.8045 173.584 21.7003 174.495C21.938 174.735 22.178 174.972 22.4222 175.204L22.6679 175.435C22.6299 175.344 22.5961 175.251 22.5665 175.156C22.0721 173.615 22.6615 171.61 24.2017 170.904C25.1442 170.472 26.123 170.735 27.0364 171.102L27.1763 171.159C28.4059 171.669 29.6503 172.119 30.9306 172.48C36.1489 173.954 41.5953 174.199 46.9425 174.934C49.0024 175.22 51.1003 175.579 53.1496 176.107C53.9312 172.787 55.8474 169.604 57.9263 166.985C67.8812 154.458 84.2988 150.318 99.3178 147.638C100.687 147.395 101.821 149.209 102.618 148.78C104.128 147.968 105.457 146.818 106.624 145.569C109.11 142.904 110.874 139.77 112.947 136.8C113.971 135.333 116.329 136.646 115.378 138.221L114.913 138.99C112.995 142.142 110.872 145.39 108.121 147.835C106.659 149.133 105.037 150.158 103.182 150.798C101.777 151.282 99.806 151.69 98.2679 151.22L98.0833 150.952C98.1444 151.041 98.2059 151.131 98.2679 151.221C102.282 157.039 107.319 161.964 112.626 166.611C117.982 171.3 123.761 175.498 129.575 179.603L130.059 179.945C139.53 173.034 147.531 164.02 153.144 153.721C151.968 153.579 150.804 152.825 149.798 152.263C148.588 151.582 147.449 150.77 146.562 149.688C144.628 147.332 144.88 144.295 144.531 141.435C144.51 141.258 144.745 141.213 144.852 141.302C145.9 142.173 146.268 143.599 146.705 144.832C147.187 146.186 147.732 147.302 148.837 148.255C149.866 149.143 151.121 149.796 152.34 150.377C152.968 150.676 156.089 151.442 156.445 152.077C161.836 150.811 167.088 152.998 171.083 156.688C174.943 160.254 177.776 164.889 180.278 169.464C182.946 174.347 185.133 179.436 187.017 184.667C188.927 189.976 190.391 195.401 191.196 200.989C191.876 205.701 192.292 210.486 192.562 215.25L192.595 215.845C196.583 209.583 200.671 203.386 204.844 197.244C203.895 194.71 204.945 192.123 206.722 190.166C208.691 188 211.414 186.994 214.019 185.823L214.362 185.668C215.617 185.095 216.869 184.464 217.953 183.606C218.997 182.777 219.764 181.636 220.862 180.873C222.459 179.761 225.358 179.998 225.432 182.427C225.47 183.76 224.897 185.223 224.374 186.421C223.78 187.776 222.979 189.004 222.028 190.132C221.984 190.185 221.936 190.226 221.888 190.259L221.851 190.282C223.165 190.5 224.49 190.676 225.84 190.737C228.563 190.862 231.316 190.661 233.982 190.086C236.712 189.498 239.357 188.543 241.812 187.212C243.909 186.074 245.853 184.603 248.236 184.257C248.456 184.223 248.678 184.202 248.906 184.189C249.286 184.168 249.666 184.616 249.516 184.992C249.434 185.199 249.347 185.404 249.252 185.612C248.428 187.427 247.165 189.188 245.588 190.525L245.466 190.627C246.022 190.435 246.569 190.219 247.108 189.976C250.275 188.549 253.148 186.394 256.543 185.527C256.704 185.485 256.867 185.447 257.029 185.411C258.079 185.185 258.633 186.326 258.016 187.108C257.917 187.235 257.817 187.359 257.714 187.484C256.199 189.365 254.528 191.111 252.686 192.679C252.054 193.216 251.403 193.736 250.74 194.233C250.46 194.443 250.179 194.649 249.895 194.852L249.755 194.951C250.087 194.717 250.414 194.478 250.74 194.233C252.819 193.603 254.868 192.857 256.873 192.03C257.669 191.703 258.288 192.51 258.373 193.174C258.656 195.397 256.188 197.006 254.583 198.075C252.973 199.149 251.2 199.965 249.385 200.619C245.896 201.881 242.231 202.454 238.572 202.967L236.795 203.215C229.761 204.199 222.413 205.375 217.366 210.851C214.537 213.92 212.623 217.733 210.871 221.484C209.122 225.231 207.586 229.078 206.128 232.946C204.618 236.948 203.302 241.025 201.903 245.069C200.619 248.781 199.084 252.446 197.565 256.074L197.325 256.646C194.099 264.357 190.245 271.618 184.875 278.056C183.99 279.119 182.559 277.61 183.377 276.558C188.995 269.313 192.903 260.764 196.129 252.235C197.597 248.355 198.827 244.382 200.238 240.48L201.078 238.162C202.199 235.073 203.33 231.987 204.51 228.922C206.004 225.043 207.645 221.211 209.524 217.504L209.723 217.114C211.562 213.538 213.746 210.013 216.753 207.307C222.165 202.433 229.367 201.264 236.33 200.338L238.52 200.049C241.464 199.658 244.416 199.226 247.279 198.438C248.931 197.986 250.545 197.407 252.062 196.608C252.666 196.291 253.256 195.943 253.826 195.562C252.2 196.04 250.55 196.431 248.87 196.737C248.048 196.887 247.235 196.999 246.424 197.077C244.334 197.284 242.262 197.276 240.121 197.164C239.94 197.153 239.881 196.868 240.075 196.832C241.565 196.567 243.058 196.236 244.544 195.876L244.989 195.767C244.998 195.52 245.095 195.258 245.298 195.008C246.037 194.108 247.442 193.647 248.416 193.011C249.436 192.345 250.425 191.627 251.367 190.857C252.229 190.154 253.057 189.409 253.854 188.632L254.093 188.397C254.013 188.476 253.934 188.554 253.854 188.632C251.703 189.625 249.664 190.9 247.419 191.686C245.633 192.314 243.762 192.736 241.873 192.886L241.756 192.896L241.638 192.903C239.667 193.045 237.683 192.988 235.742 193.415C235.524 193.463 235.457 193.172 235.651 193.089C237.348 192.383 239.112 192.111 240.895 191.781C240.933 191.641 241.03 191.517 241.199 191.436L241.655 191.218C243.014 190.566 244.28 189.907 245.409 188.847C246.407 187.911 247.237 186.816 247.86 185.603C245.365 186.151 243.174 188.042 240.905 189.105C238.433 190.266 235.818 191.098 233.131 191.572L232.824 191.624C227.802 192.462 221.763 192.356 217.264 189.743C217.121 189.659 217.224 189.467 217.372 189.49C218.648 189.699 219.912 189.946 221.175 190.166C220.928 189.94 220.818 189.534 221.103 189.209C222.238 187.908 223.135 186.421 223.709 184.794L223.818 184.476C224.083 183.721 224.529 182.549 224.074 181.869C223.638 181.22 222.614 181.308 222.001 181.583C220.727 182.158 219.88 183.593 218.807 184.46C217.636 185.407 216.305 186.108 214.943 186.736L214.655 186.867C212.298 187.927 209.78 188.82 207.926 190.692C206.929 191.698 206.071 192.956 205.784 194.366C205.653 195.012 205.653 195.678 205.826 196.319C205.964 196.819 206.251 197.128 206.086 197.637C205.871 198.295 205.108 199.081 204.715 199.666C204.259 200.343 203.805 201.021 203.35 201.7C202.444 203.056 201.542 204.418 200.64 205.777C198.835 208.499 197.05 211.234 195.28 213.977C194.704 214.87 194.13 215.764 193.557 216.66L192.7 218.003L192.247 218.711L191.475 219.926C191.502 220.038 191.5 220.157 191.464 220.26C191.333 220.635 191.086 220.892 190.78 221.078L190.725 221.11C186.216 228.239 181.78 235.414 177.299 242.56C177.06 244.741 176.836 246.924 176.642 249.107C176.2 254.049 175.898 259.003 175.801 263.963C175.754 266.364 175.947 268.78 176.05 271.179C176.101 272.324 176.17 273.467 176.261 274.61L176.328 275.421C176.417 276.534 176.467 277.639 176.067 278.701C175.712 279.633 174.631 279.842 173.99 279.132C165.639 278.796 157.281 278.54 148.924 278.382C133.964 278.094 118.997 278.139 104.035 278.428C96.5207 278.574 89.0038 278.779 81.4911 279.033C77.7897 279.155 74.0862 279.329 70.3827 279.379C68.3873 279.406 65.2469 278.68 65.0859 276.434L65.082 276.365C64.8327 276.433 64.5749 276.488 64.3108 276.528C64.1933 276.546 64.0804 276.541 63.9761 276.517L63.9242 276.503C60.9498 277.41 57.1874 276.116 54.3611 275.362L54.1278 275.3C51.4299 274.596 49.2623 273.59 47.494 271.354C44.3989 267.438 43.3426 262.179 42.7933 257.333C42.2778 252.772 42.2482 248.127 42.8757 243.575C42.5059 239.865 42.8672 236.038 43.2876 232.35C43.4947 230.526 43.7376 228.704 44.0292 226.89C44.1918 225.878 44.4052 224.876 44.6228 223.876C44.7097 223.477 44.782 223.047 44.8922 222.631L44.9418 222.454C44.6038 222.498 44.2341 222.425 43.877 222.228C43.0277 221.761 42.7806 220.816 42.7658 219.912C42.7193 217.185 43.0446 214.381 43.332 211.671C43.6214 208.966 44.0186 206.25 44.5383 203.578L44.6728 202.89C45.0666 200.891 45.5172 198.828 46.3108 196.95C43.3299 196.443 40.3574 195.904 37.4651 194.987C36.0539 194.537 34.6637 193.977 33.337 193.294ZM188.927 221.668C188.881 221.679 188.836 221.691 188.792 221.704C187.6 222.038 186.396 222.321 185.196 222.625C183.121 223.147 181.093 223.731 179.164 224.637C178.76 229.74 178.161 234.825 177.592 239.913L177.478 240.931C178.353 239.307 179.249 237.697 180.185 236.105C183.035 231.255 185.95 226.442 188.927 221.668ZM45.6686 222.173C45.6749 222.78 45.5482 223.41 45.4806 223.993C45.3707 224.94 45.282 225.891 45.17 226.838C44.9418 228.74 44.7475 230.644 44.6059 232.555C44.5151 233.774 44.4559 234.998 44.4031 236.222C45.601 231.743 47.1876 227.362 48.6961 222.974C48.444 222.947 48.1862 222.886 47.9203 222.815L47.4727 222.695C47.2088 222.627 46.3526 222.416 45.6686 222.173ZM192.7 218.003L192.709 218.204C192.74 218.916 192.314 219.318 191.796 219.421C192.096 218.948 192.398 218.475 192.7 218.003ZM55.6299 184.246C56.8911 184.358 58.127 184.627 59.3059 185.092L59.4197 185.136C60.2916 185.473 61.5665 185.896 61.8517 186.827C61.932 187.091 61.7165 187.309 61.4693 187.33C60.5228 187.406 59.4073 186.391 58.5306 186.049C57.5545 185.669 56.532 185.385 55.4968 185.235C53.1707 184.895 50.7453 185.153 48.5566 186.001C48.4277 186.051 48.3475 185.846 48.4637 185.785C50.6693 184.584 53.1221 184.024 55.6299 184.246ZM28.9025 190.291C28.7566 190.162 28.6108 190.027 28.4672 189.892C27.3345 188.82 26.3314 187.569 25.5887 186.194L25.3933 185.822C24.7884 184.65 24.0456 182.981 25.4672 182.137C26.3165 181.632 27.339 181.759 28.2855 182.065C28.3467 182.084 28.408 182.105 28.4693 182.126C28.8918 182.275 29.2996 182.452 29.6629 182.621C31.2411 183.346 32.6334 184.401 34.0911 185.331C35.6706 186.339 37.2303 186.983 39.0532 187.361L39.2249 187.395C40.9362 187.734 42.7911 187.951 43.9848 189.359C44.2848 189.714 44.0101 190.38 43.4925 190.204C40.1925 189.091 36.7003 188.845 33.6707 187.017C32.4157 186.26 31.2284 185.392 29.946 184.675C29.2657 184.295 28.5634 183.962 27.8149 183.733L27.406 183.613C27.1665 183.543 26.8805 183.474 26.6883 183.543C26.3223 183.669 26.4391 183.865 26.5523 184.207L26.5636 184.242C27.4531 186.994 29.9883 189.297 32.3376 190.821C32.8763 191.172 33.4277 191.494 33.9897 191.792C37.7937 193.82 42.05 194.764 46.2304 195.885C46.2304 195.885 48.6475 196.56 49.4482 196.813C50.3398 196.739 51.356 197.054 52.0278 197.43C52.6806 197.796 53.2067 198.286 53.6038 198.863C53.6038 198.863 53.9862 199.182 54.056 199.677C54.2567 200.136 54.3919 200.63 54.4595 201.146C54.4975 201.448 54.4214 201.68 54.2778 201.845C54.7099 208.48 52.9185 215.078 50.8988 221.383L50.6987 222.005L50.57 222.399C48.3919 229.084 45.8926 235.721 44.7771 242.691C44.0313 247.347 44.0545 252.166 44.6017 256.843L44.6403 257.165C45.1794 261.588 46.2168 266.548 49.0278 270.107C50.4616 271.924 52.1603 272.731 54.3321 273.316L54.451 273.347C56.4158 273.865 58.444 274.599 60.47 274.821C62.3503 275.025 63.9264 274.326 65.6186 273.671L65.6207 273.669C69.1848 270.513 70.8031 265.918 71.9989 261.281C75.0982 249.281 74.7137 236.824 72.9559 224.648C72.039 218.286 70.7926 211.98 69.5503 205.675C68.9292 202.524 68.2595 199.379 67.7038 196.217L67.3738 194.356C67.1917 193.323 67.0156 192.288 66.8651 191.248C66.6623 189.851 66.601 188.478 66.5313 187.072C64.8242 184.242 62.3461 181.911 59.4749 180.239C57.4193 179.041 55.2433 178.21 52.9975 177.608C46.577 175.877 39.5777 175.999 33.1172 174.668C30.9468 174.221 28.8866 173.558 26.8275 172.763L26.5468 172.654C25.6024 172.286 24.639 172.081 24.17 173.195C23.8362 173.987 24.0348 174.812 24.5355 175.477C25.763 177.109 28.2306 177.866 30.0876 178.453C31.2052 178.808 32.3461 179.089 33.4996 179.299C34.6531 179.508 35.8108 179.561 36.9179 179.969C37.3446 180.125 37.4291 180.803 36.9179 180.924C35.5151 181.251 34.1038 180.97 32.7094 180.698C31.1777 180.395 29.6693 179.966 28.2031 179.423C27.9327 179.324 27.6528 179.218 27.3678 179.107L27.1531 179.022C27.3749 179.182 27.5968 179.341 27.8207 179.5C27.8799 179.542 27.8439 179.654 27.7658 179.626C24.3183 178.34 21.1815 176.018 18.7515 173.271L18.6306 173.134C17.7749 172.153 15.8249 169.185 14.1813 170.012C12.6378 170.787 15.2688 173.775 16.2687 174.996L16.3848 175.139C17.5214 175.169 18.6221 175.877 19.5433 176.447C21.1426 177.439 22.8137 178.293 24.5165 179.091C27.901 180.683 31.4947 181.805 34.8433 183.477C34.8876 183.5 34.8538 183.557 34.8116 183.551C32.6799 183.211 30.5714 182.667 28.5116 181.993L28.4197 181.965L28.3278 181.934C27.0412 181.511 25.7714 181.034 24.5229 180.524C23.1348 179.958 21.7785 179.322 20.4623 178.601C19.2707 177.95 17.9482 176.777 16.5665 176.604C16.4186 176.585 16.2876 176.583 16.1736 176.593C14.587 176.726 15.8989 179.356 16.3426 180.142C17.0672 181.433 17.9419 182.625 18.9454 183.714C20.9799 185.924 23.4454 187.676 26.1137 189.04C27.0243 189.505 27.956 189.915 28.9025 190.291Z" fill="black"/>
<path fill-rule="evenodd" clip-rule="evenodd" d="M129.619 53.9492C141.59 53.9492 159.111 61.9629 160.429 69.6728C161.982 78.7587 165.43 112.924 163.553 124.104C161.675 135.285 154.354 143.546 138.163 143.546C121.972 143.546 109.887 134.694 107.113 131.655C104.338 128.616 100.976 119.158 100.976 119.158C100.976 119.158 92.1112 117.651 92.0701 110.567C92.029 103.483 96.5232 101.294 96.5232 101.294C96.5232 101.294 94.0977 71.9058 99.1958 64.6271C104.294 57.3483 117.649 53.9492 129.619 53.9492Z" fill="#D08B5B"/>
<path fill-rule="evenodd" clip-rule="evenodd" d="M165.76 91.3743C166.416 98.5158 166.663 105.719 166.789 112.888C166.912 119.68 166.315 126.765 162.455 132.573C159.079 137.654 153.94 141.342 148.216 143.333C144.958 144.468 141.351 144.888 137.911 144.992C136.134 145.045 134.352 144.968 132.585 144.785C132.363 144.761 132.14 144.741 131.916 144.721C130.42 144.588 128.936 144.455 127.846 143.322C127.502 142.965 127.507 142.231 128.015 141.999C128.983 141.557 129.638 141.511 130.699 141.657C131.578 141.777 132.459 141.872 133.344 141.933C135.242 142.067 137.152 142.071 139.049 141.925C142.536 141.657 146.103 140.669 149.27 139.173C154.235 136.823 158.5 132.972 160.802 127.919C163.441 122.133 163.308 115.442 163.185 109.212L163.18 108.956C163.043 102.045 162.788 95.1553 162.189 88.2674C161.962 85.6617 161.639 83.0701 161.315 80.4777C161.224 79.7478 161.133 79.0178 161.044 78.2875C160.831 76.5206 160.551 74.7619 160.207 73.0164C160.104 72.4892 159.983 71.9663 159.861 71.444C159.77 71.0511 159.679 70.6584 159.596 70.2646C159.455 70.2876 159.311 70.3005 159.164 70.3067C158.282 70.3365 157.319 70.1209 156.665 69.4932C156.415 69.6644 156.096 69.7722 155.713 69.7912C153.369 69.9072 151.002 69.8555 148.64 69.8039C147.349 69.7757 146.06 69.7475 144.777 69.7468C141.134 69.7447 137.489 69.7468 133.844 69.7574C133.288 69.7589 132.732 69.7611 132.176 69.7632C129.089 69.775 125.996 69.7869 122.913 69.7045C122.259 69.687 121.602 69.6756 120.942 69.6642C118.18 69.6163 115.378 69.5678 112.68 69.0662C111.556 73.0692 111.596 77.4674 113.938 81.0435C114.6 82.0516 114.062 83.2394 113.2 83.8692C112.319 84.5119 110.735 85.4975 109.379 85.5987C109.326 85.7171 109.273 85.8352 109.22 85.9531C109.141 86.1298 109.061 86.306 108.985 86.4819C108.338 87.9599 107.755 89.4472 107.347 91.012C107.137 91.8185 106.956 92.6384 106.803 93.4633C106.816 93.6076 106.829 93.7517 106.844 93.8957C106.844 93.9087 106.846 93.9215 106.848 93.936L106.848 93.942C106.857 94.0014 106.867 94.069 106.874 94.107C106.893 94.2085 106.912 94.3101 106.931 94.4115C106.989 94.7242 107.048 95.0365 107.11 95.3477C107.306 96.3516 107.457 97.3639 107.565 98.3803C107.761 100.24 107.742 102.658 105.933 103.759C104.966 104.349 103.806 104.288 102.783 103.892C102.213 103.672 101.714 103.375 101.199 103.069C101.094 103.006 100.988 102.943 100.88 102.88C100.714 102.783 100.544 102.693 100.375 102.604C100.162 102.491 99.9498 102.38 99.7455 102.252C99.6446 102.189 99.5476 102.113 99.4569 102.033C98.7718 102.178 98.1032 102.451 97.7282 102.637C96.7224 103.138 95.8392 103.863 95.0885 104.696C93.4928 106.469 93.0142 108.967 93.2377 111.286C93.4462 113.443 94.2918 115.922 95.9929 117.358C96.7329 117.983 97.6565 118.349 98.6326 118.338C99.1131 118.334 99.556 118.233 100.02 118.11C100.218 118.058 100.436 118.035 100.653 118.012C100.939 117.982 101.225 117.952 101.464 117.856C102.09 117.605 102.862 118.372 102.607 119.002C102.55 119.142 102.5 119.277 102.452 119.408C102.338 119.719 102.234 120.003 102.065 120.264C103.81 123.121 105.723 125.89 107.757 128.547C109.047 130.229 110.497 131.724 111.954 133.225C112.569 133.858 113.185 134.492 113.791 135.143C114.691 136.111 115.066 138.017 113.437 138.431C112.003 138.799 110.889 137.481 110.006 136.436C109.887 136.296 109.773 136.16 109.663 136.035C105.794 131.624 102.87 126.56 101.502 120.843C100.884 121.282 100.176 121.521 99.4293 121.625C97.943 121.83 96.4401 121.536 95.1372 120.782C90.2037 117.926 89.0105 110.21 91.3211 105.374C91.8783 104.21 92.7014 103.17 93.7047 102.363C93.6256 102.212 93.5944 102.034 93.6452 101.843C93.7344 101.509 93.8324 101.179 93.9353 100.85C93.8229 100.8 93.7407 100.697 93.7563 100.543C93.8348 99.738 93.9116 98.9334 93.9884 98.1288L94.0304 97.6894C94.0207 97.2533 94.0076 96.8173 93.9944 96.3812C93.9643 95.3802 93.9341 94.3784 93.9458 93.3715C93.9577 92.3001 93.9941 91.2292 94.0306 90.1583C94.0725 88.9265 94.1144 87.6948 94.1189 86.4625C94.1325 82.4714 94.2199 78.4824 94.3074 74.4935C94.3959 70.4511 94.4845 66.4088 94.4963 62.3643C94.5087 58.4351 94.5172 54.5 94.4139 50.5731C94.4128 50.5453 94.4122 50.518 94.4117 50.4907C94.4112 50.4662 94.4108 50.4417 94.4099 50.4167C94.3969 49.9348 94.3664 49.4278 94.3351 48.9076C94.1622 46.0351 93.9649 42.7562 96.5602 41.0347C97.0641 40.7009 97.6924 40.6967 98.2405 40.9123C99.8174 39.8111 101.795 39.2804 103.686 38.974C106.474 38.5228 109.28 38.2523 112.088 37.9817C112.909 37.9026 113.731 37.8234 114.552 37.7397C116.445 37.5474 118.437 37.4736 120.343 37.5159C121.334 37.5376 122.333 37.5017 123.332 37.4658C124.276 37.4319 125.22 37.398 126.162 37.4123C128.363 37.4482 130.581 37.5307 132.79 37.7124C132.841 37.7072 132.893 37.7024 132.945 37.6977C132.998 37.6929 133.05 37.6882 133.102 37.6828C136.449 37.3611 139.792 37.5312 143.136 37.7014C143.946 37.7426 144.756 37.7839 145.566 37.8181C149.525 37.9851 153.705 38.3951 157.26 40.2949C157.717 40.5388 158.104 40.8161 158.435 41.1251C158.898 41.1904 159.34 41.3221 159.737 41.5434C160.881 41.3115 162.159 41.8255 162.429 43.1568C162.823 45.1076 162.973 47.075 162.737 49.0535C162.734 49.0784 162.731 49.104 162.728 49.1302C162.726 49.1528 162.723 49.1759 162.72 49.1993C163.198 51.0347 163.166 53.0391 162.769 54.8493C162.936 57.1366 163.032 59.4304 163.045 61.7203C163.047 62.0669 163.052 62.4148 163.057 62.7634C163.075 64.0085 163.093 65.2628 162.978 66.4967C162.849 67.8852 162.278 68.984 161.381 70.0387C161.212 70.2373 160.927 70.2703 160.689 70.2221C160.628 70.2097 160.574 70.1927 160.526 70.1727C160.968 71.1239 161.335 72.1226 161.694 73.0995C161.773 73.3162 161.852 73.5318 161.932 73.7455C162.628 75.6181 163.302 77.5224 163.781 79.4626C164.751 83.3745 165.389 87.3607 165.76 91.3743ZM98.5784 109.078C98.3782 108.94 98.1764 108.8 97.9579 108.697C97.9305 108.684 96.7752 108.308 96.9987 108.804C97.0746 108.969 96.8764 109.153 96.7352 109.007C96.3346 108.599 96.5581 108.109 96.9397 107.745C97.6288 107.088 98.6579 107.24 99.5032 107.397C100.68 107.614 101.822 108.13 102.813 108.792C103.88 109.504 105.198 110.491 105.408 111.841C105.6 113.082 104.369 114.449 103.102 113.619C102.416 113.169 101.936 112.499 101.455 111.827C101.111 111.349 100.767 110.868 100.347 110.466C99.8509 109.992 99.3154 109.576 98.7485 109.195C98.6917 109.157 98.6351 109.118 98.5784 109.078Z" fill="black"/>
<path fill-rule="evenodd" clip-rule="evenodd" d="M147.453 124.137C147.777 123.573 148.523 123.051 149.206 123.131C152.265 123.49 152.26 127.2 151.078 129.366C150.031 131.287 147.864 132.414 145.694 132.249C143.416 132.076 141.474 130.736 140.619 128.603C140.054 127.192 139.793 124.588 141.296 123.64C141.324 123.622 141.37 123.627 141.392 123.652C142.113 124.491 142.142 125.751 142.773 126.685C143.36 127.553 144.271 128.271 145.34 128.381C146.137 128.464 146.944 128.176 147.256 127.46C147.425 127.072 147.406 126.862 147.343 126.595L147.285 126.363C147.085 125.551 146.995 124.933 147.453 124.137ZM148.271 107.866C149.866 108.836 152.297 111.099 150.581 113.504C148.56 115.624 145.652 113.193 144.218 112.093C142.889 111.241 141.396 113.433 142.629 114.428C152.986 122.099 157.19 108.12 149.077 106.726C148.184 106.572 147.853 107.566 148.271 107.866ZM131.424 101.214C132.403 99.7445 134.638 99.9609 135.177 101.705C135.469 102.65 135.066 103.499 135.087 104.442C135.104 105.239 135.052 106.127 134.808 106.899C134.251 108.659 132.669 109.903 130.797 109.851C128.931 109.8 127.287 108.618 126.506 106.954C125.722 105.284 125.888 103.555 126.46 101.857C126.488 101.775 126.595 101.736 126.659 101.805C127.336 102.524 127.831 103.284 128.344 104.089L128.869 104.915C129.271 105.537 129.854 106.331 130.604 106.281L130.716 106.27C130.925 106.252 130.893 106.294 131.053 106.01C131.128 105.878 131.114 105.634 131.15 105.479L131.163 105.426L131.156 105.398C131.14 105.323 131.124 105.181 131.111 104.936L131.109 104.881C131.054 103.732 130.73 102.256 131.424 101.214ZM156.246 102.193C156.07 100.313 158.712 99.8955 159.59 101.286C160.048 102.012 160.181 102.923 160.283 103.786L160.33 104.196C160.434 105.082 160.475 106.005 160.091 106.832C159.485 108.134 158.167 108.823 156.746 108.714C155.388 108.609 154.15 107.822 153.497 106.627C152.915 105.561 152.336 103.478 153.043 102.366C153.086 102.299 153.171 102.29 153.23 102.342C153.898 102.935 154.006 104.017 154.404 104.79C154.813 105.587 155.435 106.364 156.376 106.485C157.277 106.601 157.621 106.109 157.391 105.25C157.095 104.141 156.357 103.386 156.246 102.193ZM132.137 90.0387L132.569 89.8732C134.049 89.3138 136.081 88.6673 137.285 89.8713C138.027 90.6138 138.169 91.7075 137.639 92.6136C136.997 93.7112 135.845 93.7382 134.733 93.8999C133.468 94.0838 132.182 94.4333 131.004 94.9317C129.677 95.4933 128.446 96.1932 127.24 96.975C126.094 97.7179 124.952 98.9321 123.579 99.161C123.523 99.1703 123.46 99.1462 123.445 99.0847C123.134 97.7427 124 96.4219 124.772 95.3749C125.708 94.1072 126.841 93.0667 128.107 92.1338C129.329 91.2333 130.726 90.5825 132.137 90.0387ZM159.025 94.8103L159.156 94.7872C160.054 94.6377 160.867 94.6721 161.544 95.3833C162.06 95.9258 162.259 96.629 162.013 97.3463C161.786 98.008 161.278 98.6803 160.541 98.819C158.052 99.2873 155.296 99.21 152.795 98.8553C151.651 98.693 150.496 98.4944 149.382 98.1811L148.869 98.0324C147.938 97.7665 146.873 97.4888 146.197 96.8042C145.954 96.5582 146.095 96.2061 146.385 96.0921C147.565 95.6301 149.181 95.8759 150.438 95.8398C151.901 95.7979 153.366 95.6882 154.822 95.5371C156.245 95.3892 157.621 95.0677 159.025 94.8103Z" fill="black"/>
<path fill-rule="evenodd" clip-rule="evenodd" d="M169.071 112.228C168.371 111.288 167.112 110.054 165.839 110.12C165.676 110.129 165.615 110.305 165.713 110.424C166.129 110.933 166.698 111.295 167.115 111.814C167.609 112.429 167.966 113.17 168.197 113.92C168.534 115.009 168.627 116.241 168.327 117.349C167.798 119.301 166.125 120.732 164.3 121.462C162.494 122.186 160.32 122.433 158.612 121.373C156.091 119.809 153.952 117.554 150.783 117.509C150.041 117.499 149.519 117.838 149.208 118.323C148.895 117.856 148.379 117.525 147.656 117.517C144.104 117.477 141.452 119.923 138.47 121.449C136.454 122.48 133.847 122.16 131.768 121.478C129.806 120.836 127.678 119.546 126.938 117.51C126.529 116.385 126.621 115.071 127.04 113.963C127.316 113.234 127.742 112.529 128.268 111.956C128.814 111.362 129.532 110.988 130.092 110.425C130.206 110.309 130.116 110.13 129.966 110.12C127.59 109.959 125.444 112.797 124.996 114.856C124.554 116.884 125.213 118.906 126.546 120.453C129.257 123.599 134.277 124.636 138.184 123.712C141.347 122.964 144.351 121.241 147.656 121.488C148.381 121.543 148.901 121.241 149.215 120.782C149.53 121.254 150.053 121.562 150.783 121.492C153.864 121.193 156.614 123.376 159.605 123.909C161.986 124.333 164.558 123.761 166.598 122.478C168.731 121.136 170.232 118.984 170.331 116.419C170.388 114.943 169.955 113.416 169.071 112.228Z" fill="black"/>
<path fill-rule="evenodd" clip-rule="evenodd" d="M163.095 111.465C159.925 112.993 155.501 110.74 153.369 108.379C152.593 107.52 151.995 105.061 152.293 103.502C153.102 99.2791 156.14 96.7446 159.347 95.8791C163.793 94.679 168.267 97.7191 167.745 101.307C167.251 104.707 166.502 109.638 163.095 111.465ZM141.514 103.353C141.26 107.955 137.566 111.983 133.15 113.177C126.036 115.163 122.52 110.16 120.928 104.77C120.769 104.235 120.397 102.6 121.395 101.198C125.321 95.6827 134.873 96.6228 139.644 98.1369C141.041 99.4729 141.612 101.401 141.514 103.353ZM166.54 95.4154C166.538 95.4181 166.536 95.4205 166.534 95.4232C166.517 95.4133 166.501 95.4031 166.485 95.3934C166.503 95.401 166.522 95.4076 166.54 95.4154ZM172.493 95.9474C172.079 91.2617 157.383 93.0559 155.665 93.4399C150.975 94.8196 146.925 98.5732 141.682 96.9232C136.25 90.8652 117.957 92.6025 114.122 95.6884C113.396 95.4035 112.513 95.5564 111.578 95.8252C106.775 95.6517 84.8487 97.308 89.3335 103.44C90.0142 103.913 90.6943 103.432 90.7131 102.459C114.093 94.0162 111.826 101.924 114.599 101.001C115.022 101.123 115.464 101.2 115.851 101.281C117.997 101.972 118.725 101.758 119.008 104.168C120.95 122.778 145.722 116.355 143.691 101.09C145.702 100.98 147.462 100.109 149.589 100.959C151.066 115.339 162.633 115.919 166.114 110.934C168.739 107.475 167.698 102.253 171.307 99.5316C172.731 100.724 172.823 96.6995 172.493 95.9474Z" fill="black"/>
</svg>
