<svg width="260" height="264" viewBox="0 0 260 264" fill="none" xmlns="http://www.w3.org/2000/svg">
<path fill-rule="evenodd" clip-rule="evenodd" d="M137.498 128.859C148.834 128.047 164.375 130.295 167.654 143.225C168.671 147.931 170.674 149.996 174.04 153.073C195.405 180.429 120.862 185.028 117.03 158.352C108.957 161.293 100.169 161.916 92.0916 164.889C87.7105 166.508 83.7378 169.062 79.931 171.734C64.4073 182.764 49.1033 194.109 33.6349 205.218C39.6207 207.975 51.0013 218.503 46.364 225.578C45.2837 226.956 43.6802 227.906 42.2617 228.914L41.5138 229.448C39.9046 230.601 37.1958 232.568 35.6979 233.636L35.4217 233.837C35.3134 233.916 35.1912 234.004 35.0808 234.083C45.8829 249.882 58.525 264.46 72.5481 277.475C73.7421 278.586 73.2531 281.068 71.5249 281.358L69.466 281.66C62.8182 282.628 56.044 283.5 49.3447 282.974C42.8202 282.264 38.8885 276.486 34.4282 272.301C25.5214 263.194 17.2302 253.479 9.6782 243.216L9.52095 242.999C7.17054 239.786 4.05081 236.502 3.82249 232.353C3.40608 231.106 4.50193 229.318 5.55489 228.468L5.91436 227.949C11.5618 219.824 17.9534 211.988 25.9612 206.103C25.9314 205.226 26.3366 204.305 27.139 203.724L60.6055 179.495C69.2404 173.551 77.2663 166.564 86.6259 161.764C96.1963 157.154 106.996 156.973 116.804 153.126C117.012 150.353 122.839 149.645 122.655 150.073C128.804 146.361 131.969 141.943 132.945 137.883C133.922 133.824 132.708 130.121 137.498 128.859ZM220.258 215.845C230.606 200.268 240.47 217.502 244.778 227.89C249.868 242.105 239.327 259.591 232.518 271.845C230.01 275.248 226.711 282.426 222.29 282.947C211.152 282.901 199.998 282.117 188.854 281.883C181.657 280.097 191.754 269.279 198.728 273.23C200.841 274.021 201.897 276.421 203.958 277.191C204.708 277.351 204.76 277.017 205.065 276.269L205.109 276.164C205.653 274.87 206.181 273.569 206.717 272.271C211.255 261.093 216.052 250.013 220.821 238.938C221.84 236.534 220.411 234.553 218.553 233.122C217.131 231.95 211.016 229.091 216.777 230.35C214.559 225.198 217.225 219.97 220.258 215.845ZM194.566 194.522C195.562 194.397 196.842 195.402 196.995 196.375C198.266 204.441 196.85 212.416 195.153 220.306L194.84 221.751C194.214 224.629 193.514 227.564 191.953 230.086C190.359 232.66 187.948 234.601 185.181 235.78C176.302 239.319 165.26 235.819 158.729 229.202C154.551 223.476 158.224 216.284 158.925 210.008C158.262 208.318 158.018 206.362 157.635 204.618L157.588 204.41L156.099 197.906C155.771 196.472 156.815 194.509 158.533 194.706C170.506 196.08 182.607 196.018 194.566 194.522Z" fill="#D08B5B"/>
<rect x="155.422" y="194.865" width="42.0423" height="42.2701" fill="#FDEA6B"/>
<path fill-rule="evenodd" clip-rule="evenodd" d="M236.38 213.807C236.344 213.646 236.536 213.524 236.661 213.644C238.767 215.675 240.254 218.271 241.887 220.676C243.442 222.967 245.135 225.169 246.295 227.697C247.372 230.047 248.067 232.431 248.274 235.014C248.481 237.578 248.213 240.148 247.761 242.673C246.871 247.648 244.97 252.359 242.883 256.935C240.853 261.383 238.56 265.705 236.139 269.948L235.271 271.463C234.212 273.308 233.142 275.148 231.996 276.935C230.57 279.159 229.268 281.454 227.388 283.31C226.053 284.63 223.537 283.31 224.145 281.422C224.409 280.6 224.616 279.826 225.026 279.063C225.337 278.482 225.687 277.918 226.017 277.345C226.676 276.2 227.329 275.05 227.988 273.904C229.372 271.497 230.83 269.134 232.201 266.719C234.58 262.53 236.825 258.262 238.811 253.871L239.045 253.352C240.872 249.285 242.604 245.073 243.406 240.674C244.252 236.039 243.495 231.67 241.849 227.314C240.998 225.061 240.041 222.859 239.046 220.665L238.855 220.246C237.894 218.152 236.875 216.07 236.38 213.807ZM134.094 133.637C134.114 133.555 134.253 133.549 134.266 133.637C134.857 137.573 133.541 141.736 131.397 145.01C130.226 146.798 128.783 148.413 127.083 149.711L126.95 149.811C125.213 151.11 122.865 152.365 120.709 151.522C120.641 151.496 120.578 151.467 120.518 151.433C120.761 151.809 120.985 152.205 121.214 152.6C121.892 153.777 122.5 154.997 123.161 156.184C124.344 158.308 125.754 160.208 127.535 161.872C134.656 168.522 144.656 170.102 154.047 170.026L154.711 170.02C158.836 169.991 164.231 170.202 167.416 167.215C169.127 165.611 170.069 163.33 170.921 161.189C171.757 159.09 172.33 156.924 173.025 154.789C171.573 153.794 170.242 152.579 169.197 151.158C168.106 149.679 167.283 148.014 166.807 146.236L166.737 145.971C166.369 144.553 166 142.678 166.592 141.339C166.659 141.185 166.913 141.195 166.985 141.339C167.304 141.98 167.365 142.702 167.561 143.387C167.79 144.184 168.047 144.976 168.387 145.731C169.044 147.194 169.913 148.584 170.954 149.802C171.814 150.81 172.746 151.735 173.811 152.513C174.438 151.429 175.894 151.283 177.113 151.64C178.747 152.118 180.359 152.731 181.934 153.379L182.249 153.509C183.806 154.155 185.566 154.749 187.023 155.631C187.909 156.053 188.758 156.478 189.556 156.854C193.536 158.724 197.456 160.709 201.358 162.731L202.195 163.165C203.83 164.017 205.45 164.877 206.872 166.065C208.319 167.274 209.443 168.927 210.499 170.476C212.914 174.018 215.19 177.662 217.577 181.223C222.398 188.409 227.219 195.595 232.068 202.764C233.24 204.499 234.563 206.192 235.615 208.001C236.623 209.73 236.595 211.505 236.399 213.435L236.362 213.789C235.985 217.329 235.337 220.728 233.352 223.764C230.228 228.536 225.305 231.507 220.097 233.553C220.733 234.027 221.331 234.538 222.09 234.864C223.256 235.363 224.5 235.621 225.761 235.724C227.107 235.832 228.624 235.496 229.714 236.411C230.152 236.776 230.164 237.656 229.714 238.021C228.666 238.877 227.311 238.632 226.034 238.488L225.958 238.48C224.773 238.349 223.604 238.129 222.491 237.694C222.216 237.586 221.944 237.465 221.68 237.332C221.688 237.356 221.692 237.383 221.688 237.413C221.498 238.869 221.086 240.245 220.65 241.637L220.374 242.519C219.812 244.32 219.246 246.116 218.663 247.912C217.553 251.332 216.345 254.72 215.132 258.103L214.085 261.023C213.009 264.018 211.92 267.009 210.717 269.954C209.973 271.772 209.225 273.589 208.48 275.405C207.751 277.178 207.145 279.093 206.24 280.782C205.497 282.172 203.468 281.177 203.794 279.748C204.221 277.874 205.025 276.014 205.64 274.19C206.266 272.338 206.878 270.485 207.514 268.637C208.62 265.428 209.845 262.262 211.076 259.099L212.296 255.963C213.493 252.891 214.704 249.821 215.999 246.788L216.14 246.456C217.485 243.284 218.873 239.717 221.316 237.259C221.348 237.225 221.392 237.208 221.437 237.203C220.837 236.878 220.275 236.483 219.78 236.016L219.756 235.991C219.561 235.784 218.754 234.764 218.494 234.154C218.156 234.274 217.818 234.39 217.48 234.504C216.89 234.703 216.402 234.559 216.058 234.244L215.402 234.65C214.701 235.079 213.947 235.485 213.172 235.506C212.196 235.532 211.429 234.993 210.907 234.198C210.438 233.488 210.159 232.721 209.566 232.084C208.982 231.459 208.306 230.931 207.616 230.428L206.802 229.835C205.31 228.745 203.863 227.644 202.661 226.205C202.057 225.478 201.248 224.615 200.88 223.742C200.809 223.574 200.764 223.415 200.756 223.261C200.675 223.806 200.593 224.353 200.511 224.899C199.357 232.573 198.425 240.3 198.128 248.06C197.982 251.888 197.916 255.72 198.087 259.549C198.172 261.462 198.311 263.373 198.504 265.279C198.599 266.234 198.698 267.188 198.814 268.139L198.841 268.359C198.875 268.65 198.897 268.932 198.871 269.2C199.801 269.658 200.335 270.817 200.707 271.721C200.99 272.41 200.771 273.08 200.314 273.564C200.859 274.061 201.345 274.644 201.753 275.312C201.835 275.447 201.658 275.553 201.552 275.468C200.883 274.936 200.162 274.498 199.41 274.162C199.015 274.312 198.584 274.352 198.187 274.243C197.756 274.124 197.384 273.837 197.116 273.471C194.98 273.12 192.759 273.549 190.837 274.887C190.437 275.166 190.076 275.481 189.732 275.823C189.673 275.883 189.611 275.959 189.55 276.033L189.97 276.194C190.143 276.26 190.286 276.311 190.34 276.322C190.706 276.397 191.078 276.437 191.45 276.469L192.007 276.515C194.147 276.692 196.281 276.751 198.271 277.647C198.69 277.835 198.544 278.48 198.149 278.588C196.695 278.982 195.253 278.952 193.774 278.846L193.456 278.822C192.081 278.717 190.604 278.723 189.263 278.343C189.584 279.222 189.147 280.37 187.805 280.549C183.776 281.086 179.722 280.833 175.689 280.477C171.616 280.118 167.544 279.778 163.461 279.565C150.251 278.869 137.021 279.003 123.799 279.192L116.328 279.3C110.369 279.384 104.41 279.449 98.4512 279.404L95.6622 279.378C94.4834 279.366 93.3041 279.352 92.1267 279.317L91.4205 279.294C90.0177 279.243 88.1607 279.454 86.9417 278.624C85.936 277.939 85.7121 276.684 86.3184 275.671C86.4938 275.38 86.7346 275.12 86.986 274.866C87.5015 270.46 87.791 266.032 88.0867 261.606C89.1135 246.118 88.5135 230.711 86.1452 215.379C79.7903 217.322 73.5325 219.759 67.4353 222.373C64.1374 223.787 60.8565 225.254 57.6135 226.792C54.6536 228.198 51.6811 229.954 48.5184 230.867C48.2309 231.122 47.829 231.244 47.4724 231.13L47.4262 231.114H47.4241C47.0987 231.19 46.7374 231.144 46.3825 230.93C46.3107 230.887 46.2389 230.843 46.167 230.798L46.0593 230.73C44.9459 230.028 43.8262 229.164 43.0382 228.107C42.0811 228.995 41.0522 229.808 40.0403 230.632C38.9417 231.529 37.8473 232.429 36.7614 233.338C36.3304 233.699 35.855 234.044 35.4748 234.46L35.4195 234.521C35.4107 234.531 35.4022 234.541 35.3945 234.551C37.0403 235.616 38.4811 237.233 39.772 238.638C41.1581 240.147 42.4963 241.703 43.8236 243.266L45.1084 244.782C54.1943 255.515 63.3731 266.637 75.136 274.526C76.9952 275.773 75.2227 278.81 73.3762 277.535C69.8818 275.128 66.5755 272.454 63.4001 269.641C57.8353 264.715 52.8283 259.188 48.1403 253.429C45.7677 250.514 43.4649 247.528 41.2086 244.522L40.4428 243.503C39.4223 242.143 38.4072 240.779 37.4353 239.385L37.232 239.092C36.3796 237.862 35.473 236.479 34.9234 235.062C34.7121 235.276 34.4734 235.455 34.1248 235.591C33.529 235.823 32.798 235.335 32.6522 234.754C32.2973 233.344 33.5227 232.505 34.5198 231.757C35.7304 230.852 36.9642 229.979 38.2001 229.111L38.6416 228.799C40.1871 227.702 41.7408 226.577 43.4248 225.71C43.4755 225.643 43.5367 225.579 43.6065 225.524C43.6867 225.461 43.7649 225.399 43.8452 225.338C41.8339 222.075 39.6283 218.938 37.167 215.975C35.3163 213.746 33.3515 211.617 31.2727 209.601L30.3388 208.696C28.9262 207.332 27.4574 205.947 25.8896 204.761L25.3988 205.318C24.7434 206.059 24.0815 206.795 23.3818 207.492C22.0043 208.861 20.6459 210.259 19.2938 211.655C17.0483 213.98 14.8789 216.375 12.7164 218.774L11.6353 219.974C9.38322 222.474 6.97054 224.928 4.92336 227.599L4.82112 227.735C3.92737 228.934 3.29114 230.261 3.70646 231.784C4.10719 233.253 5.05993 234.555 5.88114 235.823L5.9628 235.95C9.31561 241.175 12.9072 246.266 16.7543 251.138C24.4593 260.896 33.248 270.144 43.7353 276.929C45.1889 277.869 43.8304 280.207 42.3748 279.256C36.2501 275.251 30.6241 270.441 25.448 265.275C20.6966 260.534 16.391 255.314 12.3558 249.956C10.3889 247.342 8.50435 244.672 6.69801 241.944C4.9466 239.296 2.92054 236.572 1.65082 233.651C0.985383 232.114 0.740261 230.451 1.28533 228.832C1.7852 227.344 2.77377 226.108 3.80219 224.946L3.89871 224.837C6.2628 222.181 8.66913 219.556 11.0966 216.956C13.5325 214.348 16.0804 211.833 18.6811 209.392C20.7241 207.471 22.8536 205.777 25.1311 204.209C24.9262 204.064 24.7212 203.924 24.5121 203.789C23.8762 203.375 23.7156 202.489 24.2734 201.927C25.7966 200.388 27.5522 199.05 29.2043 197.649C30.7572 196.332 32.31 195.014 33.8628 193.695C37.0234 191.015 40.1839 188.333 43.3445 185.651C49.0212 180.834 54.6663 175.984 60.3241 171.146C62.6832 169.129 65.0644 167.138 67.4394 165.14L71.6591 161.588L73.723 159.854C74.7804 158.968 75.8603 158.092 77.0628 157.417C79.8922 155.827 83.2937 155.139 86.411 154.296L86.6184 154.24C90.1149 153.283 93.6304 152.382 97.1649 151.579C100.704 150.776 104.257 150.045 107.825 149.383C111.033 148.787 114.316 148.276 117.586 148.2C118.397 147.891 119.416 147.783 120.214 148.113C120.544 148.25 120.888 148.451 121.194 148.705C122.794 148.142 124.372 147.874 125.866 146.923C127.357 145.974 128.678 144.727 129.789 143.353C132.085 140.509 133.287 137.148 134.094 133.637ZM170.857 229.969C169.59 229.88 168.449 230.404 167.316 230.962C167.954 231.239 168.592 231.514 169.23 231.786L173.477 233.6C174.88 234.198 176.365 234.718 177.698 235.455C177.793 235.508 177.869 235.572 177.926 235.646C179.312 234.758 180.778 233.966 182.183 233.122C182.504 232.93 182.828 232.738 183.151 232.545C181.478 233.105 179.762 233.386 177.945 232.86C175.522 232.161 173.418 230.149 170.857 229.969ZM174.33 225.716L174.103 225.562C172.873 224.718 171.406 223.633 169.913 224.391C169.209 224.749 168.633 225.325 167.94 225.71C167.242 226.099 166.475 226.397 165.698 226.577C164.407 226.875 162.928 226.919 161.54 226.631L161.561 228.508C162.611 228.942 163.655 229.386 164.699 229.834C165.376 229.602 166.028 229.323 166.714 229.018L167.177 228.811C168.497 228.217 169.83 227.82 171.29 228.008C174.039 228.36 176.116 230.404 178.744 231.085C181.966 231.922 184.873 229.517 187.917 228.923C188.419 228.824 188.936 228.766 189.451 228.757L189.622 228.756L189.698 228.711C190.353 228.327 191.333 227.959 191.79 227.312C192.286 226.611 192.328 225.435 192.491 224.611C192.508 224.529 192.525 224.444 192.54 224.362C192.252 224.362 191.961 224.376 191.665 224.431C190.735 224.603 189.861 224.932 188.994 225.3C187.357 225.995 185.756 226.788 184.032 227.251C182.344 227.705 180.58 227.921 178.841 227.669C177.145 227.424 175.735 226.659 174.33 225.716ZM174.595 219.118L174.34 218.954C173.669 218.525 172.899 218.081 172.076 218.239C171.341 218.381 170.709 218.966 170.069 219.327C168.664 220.12 167.088 220.553 165.48 220.663C164.143 220.754 162.755 220.591 161.468 220.194L161.513 224.349C161.984 224.499 162.472 224.607 162.985 224.645C164.544 224.761 166.066 224.387 167.373 223.527L168.035 223.088C169.167 222.343 170.229 221.753 171.728 222.024C173.211 222.295 174.455 223.246 175.668 224.074L175.867 224.208C177.259 225.128 178.671 225.721 180.379 225.736C182.223 225.75 184.047 225.237 185.764 224.605C187.469 223.979 189.09 223.229 190.913 222.999C191.471 222.929 192.151 222.908 192.791 223.018C192.875 222.546 192.956 222.077 193.032 221.606C193.197 220.593 193.338 219.583 193.461 218.571C190.226 217.7 187.239 220.517 184.235 221.386C182.492 221.889 180.594 221.883 178.852 221.396C177.239 220.946 175.971 220.012 174.595 219.118ZM174.603 212.12C173.912 211.987 173.23 212.306 172.642 212.634C171.144 213.465 169.852 214.621 168.155 215.058C165.973 215.62 163.585 215.136 161.418 214.217C161.426 215.5 161.437 216.783 161.447 218.066C161.855 218.22 162.273 218.345 162.7 218.444C164.217 218.791 165.825 218.744 167.318 218.307C168.842 217.86 170.01 216.656 171.537 216.28C173.099 215.894 174.572 216.645 175.83 217.498L176.209 217.757C177.648 218.734 179.044 219.582 180.844 219.748C182.747 219.923 184.402 219.327 186.102 218.537L186.498 218.354C188.651 217.364 191.446 216.238 193.596 217.364C193.765 215.766 193.887 214.169 193.97 212.568C193.674 212.458 193.368 212.378 193.015 212.376C192.172 212.372 191.287 212.638 190.501 212.915C188.783 213.522 187.184 214.426 185.483 215.075C183.871 215.692 182.086 216.013 180.366 215.737C178.773 215.481 177.578 214.648 176.477 213.507L176.317 213.338C175.834 212.824 175.318 212.259 174.603 212.12ZM175.864 206.188C175.068 205.767 174.098 205.376 173.177 205.499C172.298 205.615 171.712 206.211 171.171 206.849L170.878 207.198C169.91 208.344 168.957 209.307 167.464 209.779C165.918 210.265 164.278 210.074 162.84 209.362C162.328 209.109 161.853 208.794 161.375 208.483L161.401 211.854C162.356 212.329 163.328 212.759 164.394 213.019C166.363 213.498 168.037 213.143 169.721 212.057L169.897 211.942C171.166 211.109 172.466 210.117 174.033 210.024C175.561 209.932 176.709 210.78 177.715 211.818L177.833 211.941C179.103 213.28 180.385 213.934 182.274 213.779C184.105 213.63 185.819 212.821 187.496 212.124L187.649 212.061C189.183 211.431 190.951 210.782 192.635 211.023C193.038 211.08 193.56 211.205 194.025 211.423C194.092 209.846 194.124 208.267 194.13 206.687C193.173 205.856 191.684 205.719 190.486 206.059C188.61 206.591 187.074 207.965 185.283 208.711C183.694 209.373 182.037 209.521 180.417 208.895C178.744 208.248 177.432 207.016 175.864 206.188ZM194.025 199.547C191.221 199.644 188.479 201.468 185.802 202.164C182.812 202.94 180.372 201.882 177.708 200.707L177.364 200.555C175.997 199.955 174.529 199.416 173.014 199.661C171.537 199.902 170.232 200.72 168.962 201.46L168.719 201.6C166.406 202.917 164.05 203.819 161.35 203.594C161.365 204.442 161.359 205.287 161.361 206.116C161.804 206.369 162.231 206.657 162.637 206.919L162.782 207.011C164.07 207.817 165.397 208.346 166.932 207.849C168.415 207.367 169.112 206.076 170.13 205.013C171.066 204.036 172.287 203.443 173.656 203.499C175.129 203.558 176.521 204.207 177.738 205C178.955 205.793 180.132 206.817 181.556 207.215C184.75 208.102 187.486 204.723 190.507 204.197C191.775 203.975 193.173 204.256 194.13 205.021C194.12 203.199 194.08 201.373 194.025 199.547ZM169.894 198.782C169.499 198.797 169.104 198.814 168.709 198.831C167.247 198.894 165.785 198.966 164.323 199.048C163.311 199.103 162.066 199.414 161.073 199.105C161.048 199.207 161.014 199.304 160.97 199.399C161.12 200.147 161.213 200.921 161.27 201.703C162.187 201.802 163.118 201.768 164.023 201.58C166.192 201.13 167.954 199.761 169.894 198.782ZM193.983 198.154C188.644 198.522 183.264 198.396 177.917 198.511L177.275 198.526C177.25 198.526 177.225 198.529 177.199 198.529C177.813 198.766 178.421 199.038 179.027 199.316L179.633 199.594C181.066 200.253 182.523 200.792 184.127 200.676C185.844 200.551 187.463 199.85 189.068 199.283C190.6 198.742 192.364 198.378 193.997 198.615C193.993 198.461 193.989 198.309 193.983 198.154Z" fill="black"/>
<path fill-rule="evenodd" clip-rule="evenodd" d="M123.981 43.648C137.266 42.9209 149.036 39.1789 158.387 47.5537C158.387 47.5537 173.515 36.228 176.039 40.5415C177.731 43.4319 175.385 47.312 176.014 50.8787C180.115 57.8872 179.883 69.7499 180.115 72.5298C180.7 79.5368 184.381 105.904 184.381 112.166C184.381 115.362 181.752 123.732 180.115 128.39C176.472 138.758 169.517 144.042 158.111 144.042C146.705 144.042 128.089 134.486 122.119 126C121.595 125.257 118.212 127.426 114.672 123.663C110.838 119.586 108.711 111.81 108.711 107.175C108.711 101.293 104.919 97.2138 105.36 89.6846C106.345 72.8699 109.766 44.4259 123.981 43.648Z" fill="#D08B5B"/>
<path fill-rule="evenodd" clip-rule="evenodd" d="M176.053 40.5008C177.744 43.3911 175.399 47.2713 176.027 50.8379C177.61 53.5424 178.547 56.9698 179.115 60.3192L176.014 61.9691L174.867 62.1378C156.262 64.8876 144.388 67.3624 139.244 69.5621C134.048 71.7842 127.742 79.5887 120.326 92.9757L120.101 93.3831L118.631 103.374L111.894 105.445L108.723 106.952C108.647 101.167 104.937 97.0952 105.374 89.6438C106.359 72.8291 109.779 44.3852 123.995 43.6072C137.279 42.8801 149.049 39.1381 158.401 47.5129C168.486 39.9625 174.37 37.6251 176.053 40.5008Z" fill="#9FD8E5"/>
<path fill-rule="evenodd" clip-rule="evenodd" d="M122.497 24.0984C122.67 24.0878 122.845 24.0963 123.02 24.1134C123.212 24.1219 123.404 24.1407 123.595 24.1789C124.572 24.3668 125.442 24.8846 126.117 25.6138C126.136 25.6328 126.151 25.6542 126.167 25.673C126.484 25.9118 126.777 26.1825 127.04 26.4698C127.087 26.4254 127.131 26.3812 127.179 26.3368C127.319 26.214 127.464 26.0978 127.616 25.9881C128.251 25.4421 128.996 25.0451 129.798 24.8193L129.907 24.7895C129.929 24.7832 129.95 24.779 129.971 24.7747C130.54 24.5847 131.139 24.4875 131.742 24.4894C132.463 24.4662 133.186 24.5847 133.86 24.8635C134.659 25.1955 135.355 25.7195 135.939 26.3495C136.323 26.6623 136.658 27.0066 137.012 27.3851C137.744 28.169 138.321 29.0863 138.686 30.0967C138.737 30.2383 138.781 30.384 138.821 30.5298C139.713 30.4264 140.609 30.3525 141.505 30.3163C142.51 30.2552 143.516 30.2339 144.524 30.2679C147.3 30.3586 150.016 30.8491 152.645 31.7474C153.172 31.9036 153.684 32.1022 154.177 32.3474C154.951 32.656 155.683 33.0491 156.372 33.5246L156.959 33.8738C157.254 34.0495 157.549 34.2276 157.835 34.4102C158.516 34.8479 159.161 35.338 159.772 35.8664C160.418 36.3886 161.027 36.9572 161.607 37.553C161.764 37.7142 161.916 37.8776 162.066 38.042C163.402 38.7651 164.59 39.6908 165.697 40.7949C166.575 40.2885 167.484 39.8294 168.422 39.4213C169.39 39.0007 170.619 38.5674 171.633 38.2823C172.544 38.0266 173.444 37.8512 174.357 37.722C174.772 37.6502 175.19 37.5931 175.609 37.5445L175.593 37.5511C175.888 37.5191 176.181 37.4917 176.478 37.4663L176.47 37.4642C176.596 37.4538 176.725 37.4431 176.851 37.4346L177.159 37.4095C177.252 37.401 177.387 37.6185 177.395 37.6946L177.406 37.7728C177.475 37.8512 177.538 37.9378 177.583 37.9907C177.638 37.9862 177.692 37.9822 177.747 37.9799C177.912 37.9653 178.101 38.2589 178.198 38.3709L178.286 38.4742C178.386 38.5946 178.486 38.7333 178.502 38.8845C178.609 39.7618 178.711 40.6408 178.803 41.52C178.839 42.1858 178.803 42.8452 178.694 43.4982C178.612 44.1323 178.527 44.7663 178.443 45.3983C178.308 45.8423 178.175 46.2862 178.042 46.7298C177.99 46.8991 177.931 47.0658 177.874 47.2328C177.537 48.3479 177.141 49.4334 176.67 50.4853C177.014 50.8661 177.334 51.2609 177.632 51.6686C177.703 51.742 177.775 51.8149 177.842 51.891C177.861 51.8616 177.888 51.8341 177.918 51.8191C178.019 51.7747 178.093 51.8276 178.156 51.9144C178.82 52.5504 179.303 53.2924 179.602 54.1397L179.789 54.5816C179.82 54.6555 179.85 54.7295 179.881 54.8034C180.119 55.4461 180.302 56.1055 180.454 56.7732C180.59 57.2986 180.687 57.8312 180.75 58.3695C181.205 59.9024 181.566 61.4706 181.905 63.0177C181.959 63.2612 181.933 63.4785 181.856 63.6636L182.054 63.8576L182.394 64.1964C182.964 64.7661 183.545 65.3651 183.968 66.043C184.407 66.7468 184.73 67.4992 185.088 68.2455L185.165 68.404L185.323 68.7219C185.494 69.0689 185.575 69.2607 185.727 69.6803C185.978 70.3801 186.113 71.0837 186.176 71.8257C186.269 72.9055 186.256 74.0827 185.784 75.0867C185.782 75.0951 185.777 75.1017 185.773 75.1078C185.558 76.0781 185.027 76.9782 184.219 77.5531C184.047 77.7161 183.861 77.8619 183.663 77.9779C183.187 78.2579 182.75 78.283 182.231 78.1534L182.166 78.1364C182.101 78.1195 182.042 78.1047 181.985 78.0921C182.069 78.1618 182.111 78.2444 181.985 78.3034C181.862 78.3626 181.753 78.3964 181.649 78.4091C181.694 78.4662 181.698 78.5274 181.605 78.5782C181.403 78.686 181.238 78.72 181.07 78.6902L181.105 78.984C181.382 81.2074 181.629 81.6472 181.846 84.0354C181.989 86.4806 182.217 88.9195 182.531 91.3482L182.639 92.2306C182.986 95.0275 183.376 97.845 183.973 100.597C184.274 101.799 184.534 103.01 184.753 104.23C185.063 105.158 185.28 106.107 185.4 107.075C185.575 108.059 185.695 109.053 185.765 110.055C186.007 110.695 186.125 111.346 186.119 112.01C186.151 112.901 186.121 113.791 186.026 114.677C185.973 115.598 185.847 116.511 185.647 117.416C185.467 118.657 185.141 119.855 184.673 121.018C184.297 122.315 183.838 123.588 183.315 124.832C182.503 126.76 181.523 128.55 180.408 130.315C179.362 131.969 178.24 133.563 176.959 135.045C175.302 136.959 173.413 138.714 171.342 140.193C170.162 141.068 168.916 141.854 167.613 142.527C166.019 143.351 164.4 144.093 162.673 144.593C161.596 144.906 160.5 145.122 159.391 145.287C157.213 145.61 154.957 145.561 152.767 145.183C151.354 144.993 149.965 144.663 148.652 144.192C147.572 143.803 146.543 143.357 145.515 142.854C144.985 142.598 144.475 142.302 143.986 141.971C143.164 141.436 142.394 140.832 141.678 140.164C141.444 139.963 141.216 139.758 140.992 139.542C140.885 139.447 140.944 139.305 141.068 139.272L141.106 139.267C141.058 139.223 141.007 139.179 140.959 139.132C140.948 139.124 140.94 139.113 140.931 139.103C140.908 139.081 140.883 139.06 140.862 139.039C140.78 138.967 140.862 138.807 140.933 138.769C140.961 138.754 140.997 138.752 141.037 138.756C141.028 138.747 141.022 138.741 141.014 138.735C141.005 138.728 141.003 138.712 141.005 138.695L140.973 138.669C140.866 138.574 140.921 138.435 141.047 138.399C141.109 138.38 141.211 138.39 141.317 138.413L141.357 138.422L141.285 138.354C141.159 138.244 141.199 138.122 141.355 138.084C141.471 138.091 141.586 138.107 141.7 138.135L141.785 138.158C141.827 138.168 141.867 138.181 141.91 138.194C141.838 138.128 141.766 138.065 141.697 137.999C141.627 137.938 141.701 137.763 141.764 137.727C141.851 137.678 142.019 137.746 142.097 137.803C142.289 137.824 142.542 137.908 142.635 137.989C142.89 138.234 143.153 138.468 143.421 138.697C143.583 138.747 143.737 138.815 143.855 138.917C144.159 139.208 144.475 139.483 144.798 139.749L145.043 139.919C145.084 139.947 145.125 139.974 145.167 140.001C145.631 140.273 146.094 140.544 146.556 140.817C148.249 141.391 149.942 141.967 151.633 142.539L151.856 142.607L153.498 142.81C154.578 142.924 155.659 142.918 156.739 142.793C157.548 142.803 158.352 142.723 159.142 142.558C160.485 142.33 161.803 141.994 163.084 141.525C164.56 140.986 165.966 140.276 167.339 139.511C167.832 139.234 168.317 138.94 168.794 138.629C168.947 138.519 169.101 138.407 169.255 138.293C170.269 137.53 171.239 136.716 172.173 135.856C172.612 135.453 173.033 135.032 173.44 134.597C173.499 134.533 173.556 134.472 173.613 134.408C174.003 133.982 174.38 133.54 174.741 133.083L175.084 132.695C176.472 130.964 177.705 129.102 178.814 127.185C179.914 125.284 180.821 123.285 181.542 121.216C181.774 120.478 181.976 119.73 182.145 118.974C182.457 118.065 182.661 117.133 182.756 116.182C182.788 115.996 182.813 115.81 182.838 115.624L182.853 115.33C182.855 115.282 182.857 115.233 182.857 115.184C182.9 114.888 182.935 114.592 182.963 114.296C182.98 113.999 182.99 113.7 182.992 113.402L182.969 111.574C182.963 111.517 182.957 111.458 182.952 111.399L182.906 110.995C182.805 110.162 182.727 109.328 182.626 108.495C182.626 108.491 182.626 108.484 182.623 108.478C182.586 108.167 182.545 107.854 182.499 107.542C182.476 107.356 182.446 107.17 182.419 106.984L182.366 106.658C182.268 106.092 182.15 105.531 182.006 104.975L181.943 104.737L181.576 102.888L181.162 101.068C180.895 99.8485 180.671 98.6205 180.494 97.382C180.174 95.4082 179.9 93.4319 179.661 91.4473C179.649 91.3522 179.636 91.255 179.626 91.1598C179.383 89.3192 179.208 87.4718 179.094 85.6182C178.94 83.7924 178.852 81.9619 178.829 80.1297C178.827 80.0471 178.881 79.9796 178.947 79.9414L178.941 79.5891C178.933 79.2774 178.928 79.6513 178.925 79.296L178.921 78.3188C178.921 78.2373 178.922 78.1806 178.924 78.1766C177.797 78.2547 177.04 78.1907 175.952 78.1333L175.768 78.1238C174.77 78.0775 173.779 77.9676 172.795 77.8025C172.791 77.8534 172.757 77.8892 172.7 77.8997C172.599 77.904 172.504 77.904 172.407 77.9063L172.443 78.0434C172.445 78.1134 172.413 78.1576 172.346 78.1766L172.065 78.1893C171.689 78.2051 171.312 78.2125 170.94 78.1618C170.604 78.1176 170.278 78.0392 169.953 77.9462C169.753 77.9124 169.548 77.8661 169.34 77.8067C168.804 77.6525 168.273 77.4453 167.735 77.2807C167.187 77.1642 166.631 77.1264 166.049 77.2657C165.433 77.4115 164.912 77.6757 164.267 77.5151C164.139 77.4836 164.014 77.435 163.89 77.384L163.775 77.376C163.755 77.3743 163.735 77.3721 163.715 77.3692C163.042 77.2722 162.444 76.8453 161.803 76.6168C161.579 76.5622 161.357 76.576 161.14 76.6667L161.086 76.691L160.873 76.8495C160.787 76.9508 160.702 77.0532 160.619 77.1559L160.493 77.3101C160.264 77.5954 160.019 77.8511 159.722 78.0371C159.363 78.3689 158.938 78.5634 158.43 78.576C158.141 78.5845 157.854 78.5232 157.576 78.4347C156.526 78.7601 155.402 78.8257 154.354 78.5086C153.939 78.445 153.532 78.3332 153.142 78.1576C152.959 78.0751 152.775 77.9779 152.598 77.8701C151.858 78.1832 151.158 78.5993 150.444 78.9588L150.283 79.0398C149.552 79.4045 148.744 79.7601 147.918 79.707C146.876 79.6391 145.854 79.4999 144.834 79.3242C144.825 79.3242 144.815 79.3221 144.806 79.32L144.666 79.2966L144.155 79.2068L143.744 79.13L143.533 79.2108C141.844 79.8517 139.992 80.3517 138.294 79.9033C137.554 79.8127 136.86 79.5631 136.234 79.1382C136.213 79.1234 136.192 79.1087 136.171 79.0917C136.072 79.041 135.979 78.9842 135.897 78.9229L135.879 78.909L135.863 78.8952L135.855 78.891C134.929 78.4642 134.398 77.5552 134.491 76.5367C134.434 76.2132 134.436 75.8961 134.499 75.5582C134.198 75.9152 133.89 76.2683 133.578 76.6189C132.437 77.9967 131.319 79.4019 130.284 80.8647L130.047 81.2033C129.477 82.0084 128.948 82.8413 128.459 83.6992C127.964 84.5467 127.456 85.386 126.931 86.2145C126.248 86.9706 125.588 87.745 124.952 88.5382L124.681 88.8794L123.766 90.0862C123.119 90.8557 122.581 91.6969 122.158 92.6097C121.81 93.2588 121.489 93.9203 121.2 94.5987C121.108 94.8035 121.019 95.0107 120.933 95.2178C120.635 96.0272 120.385 96.8517 120.189 97.7032C120.031 98.3195 119.918 98.9444 119.851 99.578L119.83 99.7895C119.805 100.039 119.786 100.288 119.775 100.537C119.836 100.574 119.887 100.609 119.925 100.645L120.079 100.7L120.203 100.737C120.397 100.798 120.732 100.922 120.652 101.076L120.245 101.854C120.288 101.899 120.307 101.945 120.279 101.996C120.007 102.518 119.733 103.04 119.459 103.562C119.451 103.581 119.436 103.596 119.421 103.606C119.655 103.714 119.883 103.832 120.1 103.961C120.524 104.215 120.836 104.509 121.125 104.851C121.428 105.033 121.715 105.232 121.985 105.46C122.318 105.811 122.609 106.196 122.855 106.612C123.083 107.005 123.269 107.415 123.412 107.844C123.475 108.07 123.505 108.305 123.503 108.543C123.248 110.349 121.188 109.112 121.148 108.953C120.865 107.863 120.541 107.174 119.811 106.362L119.792 106.35C119.371 106.164 118.953 105.98 118.517 105.836C118.451 105.849 118.384 105.857 118.316 105.868C118.392 105.976 118.354 106.081 118.201 106.1C117.536 106.231 116.866 106.267 116.191 106.21L115.167 106.064C114.742 106.228 114.336 106.438 113.953 106.688L113.826 106.772L113.803 106.789C112.814 107.586 112.051 108.645 111.528 109.799C111.482 109.902 111.437 110.005 111.394 110.11L111.332 110.268L111.328 110.276C110.645 112.967 111.254 115.922 112.502 118.363C113.183 119.455 113.893 120.527 114.636 121.577L115.357 122.522C115.782 122.924 116.2 123.336 116.607 123.759C116.67 123.822 116.737 123.885 116.805 123.947C117.02 124.088 117.239 124.213 117.463 124.319C117.549 124.348 117.638 124.376 117.726 124.399C118.156 124.606 118.607 124.716 119.082 124.729C119.708 124.77 120.316 124.697 120.904 124.51L121.021 124.471L121.108 124.439C121.428 124.234 121.725 123.978 122.008 123.678C122.071 123.613 122.189 123.613 122.324 123.649C122.398 123.573 122.472 123.492 122.541 123.406C122.59 123.353 122.666 123.351 122.725 123.391C122.925 123.368 123.467 123.676 123.326 123.839C123.302 123.877 123.273 123.911 123.248 123.947C123.342 123.995 123.437 124.05 123.522 124.107C123.964 124.231 124.618 124.673 124.565 124.807L124.559 124.817C124.456 125.012 124.323 125.175 124.159 125.304L124.104 125.346L123.979 125.432C124.154 125.543 124.302 125.669 124.228 125.758C124.194 125.823 124.158 125.887 124.116 125.944C124.475 126.388 124.831 126.836 125.185 127.284C125.539 128.053 125.978 128.772 126.501 129.438C126.937 130.16 127.462 130.809 128.075 131.388C128.126 131.439 128.179 131.488 128.229 131.536C128.681 131.871 129.154 132.185 129.647 132.486L129.859 132.614C129.971 132.682 130.158 132.766 130.07 132.929C130.059 132.95 130.047 132.967 130.032 132.98C130.342 133.183 130.662 133.375 130.993 133.553L131.025 133.572C131.15 133.652 131.319 133.797 131.141 133.916C130.989 134.017 130.586 133.743 130.397 133.616C130.361 133.616 130.319 133.606 130.276 133.593C130.34 133.627 130.402 133.663 130.465 133.699L130.561 133.751C130.635 133.796 130.997 134.036 130.744 134.138C130.62 134.148 130.506 134.117 130.401 134.045C130.276 133.984 130.154 133.918 130.034 133.85C130.076 133.916 130.076 133.982 129.971 134.024C129.935 134.026 129.899 134.024 129.863 134.02C130.112 134.178 130.367 134.326 130.631 134.466L130.673 134.492C130.785 134.565 130.962 134.702 130.833 134.821C130.687 134.952 130.287 134.673 130.184 134.609L129.876 134.425C129.853 134.436 129.827 134.44 129.8 134.442C129.893 134.5 129.979 134.561 130.074 134.616L130.203 134.686C130.365 134.776 130.593 134.923 130.51 135.07C130.428 135.216 130.182 135.096 130.023 135.001L129.852 134.895C129.845 134.891 129.837 134.886 129.829 134.882L129.823 134.907C129.821 134.911 129.82 134.916 129.817 134.92C129.738 135.058 129.539 134.967 129.402 134.888L129.292 134.821C129.105 134.708 128.92 134.596 128.736 134.483L128.461 134.314H128.457C127.506 133.741 126.627 133.17 125.799 132.435C125.303 131.995 124.841 131.53 124.403 131.033C123.522 130.038 122.866 128.899 122.234 127.736C122.223 127.717 122.238 127.668 122.263 127.616C122.193 127.472 122.126 127.326 122.059 127.176C121.409 127.358 120.684 127.411 120.016 127.366C119.657 127.343 119.303 127.28 118.951 127.185C117.827 127.028 116.744 126.515 115.808 125.899C115.749 125.861 115.696 125.819 115.641 125.781C115.255 125.563 114.888 125.31 114.541 125.02C113.862 124.458 113.215 123.832 112.626 123.179C112.201 122.672 111.798 122.146 111.42 121.601C111.037 121.062 110.649 120.523 110.261 119.984C109.184 118.293 108.494 116.346 108.227 114.358C108.096 113.624 108.028 112.882 108.043 112.143C108.054 111.608 108.113 111.067 108.216 110.528C108.155 110.469 108.094 110.41 108.033 110.349C107.999 110.408 107.965 110.45 107.944 110.429L107.461 109.944C107.118 109.597 106.888 109.342 106.494 108.782C105.865 107.888 105.397 106.905 105.049 105.87C104.799 105.13 104.632 104.289 104.567 103.475C104.546 103.34 104.524 103.203 104.508 103.063C104.373 101.962 104.497 100.907 104.664 99.821C104.674 99.7493 104.71 99.7049 104.758 99.6815C104.771 99.5955 104.785 99.5071 104.8 99.419C103.403 97.937 102.398 96.1509 102.48 93.9938C102.506 93.3141 102.645 92.6442 102.911 92.0186L102.943 91.948C101.777 91.7683 100.853 90.9474 100.158 89.93C100.096 89.8812 100.037 89.8319 99.9794 89.7829C98.7372 88.7194 97.876 87.2135 97.2863 85.6229C96.8641 84.6993 96.5843 83.7123 96.4656 82.6885C96.4572 82.6154 96.4521 82.5429 96.4456 82.4702C96.1572 80.8515 96.0838 79.2164 96.217 77.6057C95.9276 76.6088 95.6921 75.5943 95.5308 74.5562C95.4549 74.0618 95.4022 73.5671 95.3622 73.0725L95.3579 73.0452L95.3516 72.9562L95.3338 72.7344C95.331 72.6977 95.3284 72.6611 95.3263 72.6244C94.97 68.0973 95.9799 63.642 97.6496 59.4489C97.795 59.0718 97.9453 58.6956 98.1002 58.3225L98.2645 57.9326C99.9406 55.2231 102.457 53.0316 104.589 50.7171C105.325 49.9186 104.135 48.7199 103.397 49.5215C101.98 51.0593 100.461 52.5322 99.0891 54.1129C98.8468 54.1306 98.6042 54.1372 98.3622 54.1251C97.9405 54.1038 97.5315 54.0364 97.1352 53.9284C96.1464 53.7826 95.2462 53.3831 94.4282 52.7955C93.3341 52.2843 92.4001 51.3203 92.3074 50.0628C92.2968 49.936 92.2989 49.8113 92.3074 49.6868C92.2062 49.0716 92.2968 48.4271 92.554 47.833C92.5983 47.6703 92.6552 47.5097 92.7269 47.3512C92.9356 46.8799 93.2792 46.4278 93.6988 46.1211C93.7093 46.1148 93.7178 46.1107 93.7262 46.1042C93.7705 46.0579 93.8126 46.0112 93.8611 45.9691C93.9328 45.9034 94.0087 45.8423 94.0888 45.7853C93.8042 45.3159 93.547 44.8342 93.3277 44.3204C93.0895 43.7624 92.9672 43.1962 92.8998 42.5979C92.8724 42.3612 92.8618 42.1266 92.8576 41.8922C92.845 41.7842 92.8365 41.6743 92.8281 41.5644C92.7754 40.7274 92.8724 39.859 93.1844 39.0768C93.2076 39.0178 93.2371 38.9584 93.2645 38.8972C93.3235 38.7196 93.3889 38.5423 93.469 38.3688C93.781 37.703 94.2237 37.1387 94.7698 36.6759C95.0649 36.3779 95.3959 36.1137 95.7564 35.8896C95.9693 35.7565 96.2118 35.6381 96.4669 35.5409C96.9222 35.3 97.5062 35.0802 97.9806 35.0635C98.0375 35.0611 98.0881 35.0677 98.1429 35.0677C98.1872 33.8543 98.3432 32.5334 98.8218 31.4344C99.1 30.6378 99.5175 29.9298 100.146 29.4202C100.51 29.039 100.959 28.7293 101.519 28.527L101.619 28.4924L101.657 28.4818C102.161 28.2366 102.705 28.1394 103.264 28.1417C103.915 28.1077 104.579 28.2305 105.146 28.5304C105.264 28.5938 105.391 28.672 105.511 28.7566C105.602 28.5748 105.703 28.3909 105.819 28.2073C106.226 27.554 106.717 26.9854 107.286 26.4676C107.354 26.4064 107.428 26.3514 107.499 26.2924C107.775 26.0409 108.068 25.8084 108.372 25.5971C109.028 25.1404 109.747 24.8003 110.501 24.5803C111.373 24.2575 112.292 24.1076 113.212 24.1392L113.402 24.1472C113.444 24.1512 113.487 24.1534 113.527 24.1555C114.439 24.2149 115.34 24.4389 116.2 24.7768C117.092 25.13 117.846 25.6645 118.548 26.2774C118.713 26.0494 118.9 25.8336 119.13 25.6307C119.196 25.5738 119.265 25.5229 119.331 25.4701C119.381 25.4193 119.434 25.3707 119.489 25.3221C119.74 25.1002 120.005 24.9079 120.296 24.7367C120.623 24.5446 120.975 24.4114 121.34 24.329C121.711 24.202 122.101 24.1238 122.497 24.0984ZM118.165 111.228C118.202 111.226 120.155 111.96 121.127 112.434L121.175 112.458C122.297 113.016 122.836 113.417 123.844 114.134C123.912 114.182 123.981 114.256 123.981 114.328C123.981 115.372 123.728 116.648 122.853 116.082C122.727 116.001 122.599 115.921 122.471 115.842L122.278 115.725L122.271 115.727C122.274 115.727 122.276 115.725 122.278 115.723C120.372 114.558 118.359 113.645 116.234 112.992C116.088 112.94 117.165 111.308 117.463 111.399C117.292 111.331 118.136 111.229 118.165 111.228ZM138.189 65.1352C136.922 65.2711 135.655 65.4049 134.387 65.5357C133.58 65.6287 132.77 65.7112 131.961 65.7809C130.744 65.872 129.528 65.8866 128.316 65.7196C127.886 65.6606 127.464 65.5759 127.047 65.4723C126.762 65.6816 126.467 65.8781 126.165 66.0664L122.818 68.6341C120.572 70.4033 118.375 72.2778 116.398 74.3469C112.944 77.9619 110.131 82.191 108.363 86.8756C108.202 86.9705 108.078 87.1359 108.037 87.3898C107.725 89.3099 106.811 91.0611 106.481 92.9734C106.156 94.857 106.588 96.4582 107.768 97.9512C108.02 98.2701 108.536 98.2532 108.853 98.0378C108.926 98.1828 109.245 98.1767 109.357 97.5363C109.882 96.9667 110.331 96.3696 110.635 95.6303C110.859 95.0859 110.482 94.7084 110.026 94.6342C110.215 93.9495 110.429 93.2708 110.67 92.5993C111.383 90.604 112.289 88.6978 113.43 86.9098C114.433 85.3371 115.595 83.9676 116.843 82.5938C116.858 82.5748 116.883 82.5687 116.91 82.5644L117.17 82.2768C117.205 82.2366 117.279 82.2409 117.361 82.262C117.439 82.1796 117.515 82.095 117.595 82.0126C117.673 81.9281 117.76 81.9534 117.808 82.0211C117.941 81.9915 118.184 82.1352 118.257 82.1819C118.384 82.2662 118.424 82.3613 118.316 82.4818C118.297 82.5031 118.279 82.5243 118.26 82.5431C118.405 82.6046 118.548 82.6868 118.66 82.7673C119.05 82.8538 119.598 83.2173 119.503 83.3253C119.303 83.5343 119.109 83.748 118.917 83.9655C119.086 84.084 119.196 84.2001 119.151 84.251C118.329 85.1195 117.57 86.039 116.874 87.0132C116.345 87.7402 115.867 88.4968 115.439 89.2852C114.802 90.4011 114.262 91.5487 113.784 92.7281C113.716 92.9079 113.651 93.0874 113.588 93.267C112.888 95.2304 112.365 97.2679 112.144 99.3433L112.134 99.4833C112.093 100.231 112.077 102.233 112 102.71C112.466 102.941 112.951 103.137 113.455 103.298C113.55 103.325 113.647 103.351 113.744 103.374C113.799 103.351 113.855 103.332 113.912 103.315C114.376 103.126 114.861 102.991 115.357 102.926C115.69 102.882 116.023 102.866 116.355 102.876L116.497 102.881C116.645 102.886 116.79 102.896 116.938 102.911C116.929 102.826 116.925 102.744 116.919 102.659C116.877 102.632 116.845 102.594 116.843 102.543C116.744 101.592 116.742 100.641 116.836 99.6899C116.9 99.1933 116.974 98.6987 117.054 98.2044C117.136 97.7984 117.231 97.3991 117.334 96.9995C117.608 95.8795 117.973 94.7866 118.416 93.7174C119.676 90.6674 121.483 87.9177 123.3 85.1829C124.626 83.1858 125.881 81.144 127.253 79.1805C128.421 77.5087 129.648 75.8623 130.957 74.2983C132.264 72.7367 133.645 71.2337 135.136 69.8433C135.376 69.6211 135.619 69.4056 135.865 69.1923C137.278 67.9242 138.813 66.882 140.411 65.8593C140.472 65.8192 140.581 65.8635 140.672 65.9394L140.93 65.7805C140.973 65.7541 141.016 65.7281 141.06 65.7027C141.1 65.6776 141.144 65.7196 141.167 65.7555C141.277 65.6985 141.387 65.6437 141.496 65.5886C141.576 65.5239 141.659 65.4626 141.739 65.3988C140.554 65.339 139.371 65.2502 138.189 65.1352ZM153.051 51.0456C152.094 50.8534 151.133 50.8258 150.167 50.9695C149.763 51.0289 149.36 51.1003 148.961 51.1867C149.868 51.9793 150.597 52.9936 151.07 54.1609C151.582 55.4226 149.541 55.9664 149.037 54.7228C148.551 53.5232 147.63 52.603 146.518 52.0514C146.278 52.186 146.045 52.3318 145.822 52.4933C145.531 52.73 145.257 52.9858 145 53.2669C144.439 53.8779 143.925 54.6935 143.588 55.5008C143.457 55.9404 143.36 56.3927 143.299 56.8577C143.286 56.9634 143.274 57.0712 143.263 57.179C143.055 59.3662 143.679 61.4943 144.752 63.3774L144.794 63.3781C145.752 62.8573 146.755 62.4185 147.787 62.0611C148.614 61.5034 149.472 60.9875 150.355 60.5204C152.233 59.5272 154.216 58.7616 156.26 58.238L156.496 58.1786C156.978 58.0553 157.463 57.9467 157.951 57.8517L158.244 57.7963H158.248L158.217 57.4812C158.052 56.2448 157.569 55.0971 156.945 54.0364C156.477 53.2354 155.771 52.4153 154.987 51.7601L154.983 51.7578C154.627 51.5549 154.252 51.3871 153.867 51.2484L153.722 51.1977L153.051 51.0456ZM127.352 49.1669C125.362 48.9786 123.372 48.9976 121.382 49.1603C120.081 49.2895 118.789 49.4689 117.503 49.6971C116.632 49.8472 115.778 50.0586 114.939 50.3208L115.419 51.2938C116.221 52.9143 117.043 54.524 118.011 56.0546C118.51 56.8429 119.052 57.5934 119.643 58.3139C120.041 58.8296 120.479 59.3075 120.96 59.7469C121.087 59.9014 121.222 60.0472 121.359 60.1886C121.797 60.5648 122.269 60.8945 122.786 61.1671C123.2 61.4696 123.632 61.7338 124.083 61.9654L124.253 62.0508L125.834 62.6593C125.919 62.6832 126.004 62.7072 126.09 62.7299L126.218 62.763L126.458 62.8135L126.639 62.7154C126.669 62.6992 126.699 62.6832 126.73 62.6677C126.781 62.6405 126.817 62.6933 126.827 62.7311C126.832 62.7461 126.825 62.7671 126.815 62.7882L127.045 62.6633C127.441 62.8245 127.862 62.9535 128.313 63.0384C128.517 63.0767 128.721 63.1061 128.926 63.1312L128.953 63.1496C128.958 63.1528 128.962 63.1563 128.967 63.1604H129.191C130.767 63.3128 132.366 63.1113 133.939 62.8279C136.166 62.6035 138.392 62.356 140.617 62.1245C140.659 62.1205 140.676 62.1393 140.676 62.1691L140.813 62.1565C141.011 62.1351 141.243 62.4669 141.094 62.5876C141.214 62.6593 141.33 62.763 141.416 62.8433L141.467 62.8389C141.161 62.2387 140.925 61.611 140.756 60.9581L140.541 59.8631C140.482 59.4552 140.449 59.02 140.442 58.5908C140.427 58.3942 140.417 58.2106 140.417 58.0497C140.417 57.8975 140.419 57.7454 140.425 57.5934C140.006 57.4199 139.58 57.2679 139.146 57.1388C137.912 56.9868 136.681 56.8344 135.448 56.6844C134.708 56.7119 133.968 56.7647 133.23 56.8471C132.393 56.9211 131.558 57.0162 130.725 57.1303C130.647 57.1388 130.508 57.0331 130.424 56.9105L130.068 56.9594C129.882 56.9826 129.688 56.6104 129.933 56.5343C130.021 56.4991 130.11 56.4658 130.198 56.4337L130.331 56.3864L130.255 56.3948C130.23 56.3972 130.198 56.3906 130.163 56.3781C129.966 56.4033 129.77 56.4287 129.576 56.4519C129.33 56.4827 129.386 56.1576 129.559 56.081L129.642 56.0503C129.496 55.9592 129.368 55.71 129.548 55.6285L129.572 55.6192C129.657 55.5856 129.739 55.5579 129.823 55.5262C129.817 55.4989 129.817 55.4734 129.825 55.4503L129.477 55.4945C129.446 55.4987 129.597 55.2761 129.669 55.2321L129.682 55.2261L129.848 55.1754C129.874 55.1035 130.009 54.945 130.055 54.9304C130.666 54.7379 131.236 54.5648 131.83 54.4314C131.86 54.3955 131.893 54.368 131.931 54.3595C132.302 54.2708 132.678 54.201 133.053 54.1421C133.078 54.1038 133.104 54.0765 133.133 54.0742C134.063 53.9559 134.995 53.9284 135.931 53.992C136.11 54.0087 136.289 54.0279 136.468 54.051C136.812 54.0892 137.155 54.1378 137.497 54.2034C138.353 54.3505 139.188 54.5743 140.002 54.8761L140.189 54.9471C140.394 55.0234 140.596 55.1035 140.796 55.1904C140.898 54.8289 141.024 54.4737 141.174 54.1252C141.197 54.0573 141.222 53.992 141.25 53.9265L141.045 53.8037C141.001 53.8882 140.91 53.9537 140.851 53.918C139.386 52.9268 137.836 52.1002 136.203 51.4408C135.288 51.035 134.352 50.6907 133.392 50.4031C132.914 50.249 132.431 50.1095 131.946 49.9763C131.704 49.9254 131.461 49.8747 131.215 49.8324C129.947 49.49 128.659 49.2683 127.352 49.1669ZM175.633 52.5216C175.455 52.8298 175.27 53.135 175.074 53.4359C174.121 54.8983 172.978 56.2706 171.682 57.467C172.02 57.4662 172.357 57.4791 172.69 57.5103C173.264 57.5647 173.827 57.6602 174.375 57.794C174.419 57.7583 174.469 57.7403 174.509 57.7686L174.652 57.8677C175.828 58.1858 176.931 58.6859 177.931 59.3559L177.913 59.2236C177.91 59.2015 177.907 59.1795 177.903 59.1574C177.92 58.8974 177.924 58.6373 177.916 58.3794C177.709 56.8556 177.193 55.4522 176.602 54.0322C176.591 54.0047 176.599 53.969 176.616 53.9326C176.318 53.4448 175.992 52.9731 175.633 52.5216ZM175.905 40.5415C175.464 40.6218 175.028 40.7253 174.593 40.8543C173.777 40.977 172.987 41.1926 172.224 41.4989C171.172 41.873 170.151 42.3083 169.135 42.7693C167.162 43.6652 165.311 44.7983 163.626 46.1636C163.519 46.2458 163.415 46.3306 163.312 46.4151C162.935 46.7425 162.568 47.0849 162.22 47.4463C161.855 47.8436 161.489 48.2412 161.124 48.6404C160.677 49.1098 160.162 49.5344 159.758 50.0417C159.675 50.1452 159.604 50.2593 159.538 50.3737L159.777 50.4559C159.977 50.5235 159.943 50.8997 159.745 50.8448C159.678 50.8258 159.614 50.8025 159.551 50.7774C159.579 50.8133 159.597 50.8492 159.602 50.8807C159.614 50.9822 159.536 51.1219 159.412 51.0859C159.355 51.0709 159.298 51.0498 159.241 51.0265C159.224 51.0921 159.212 51.1576 159.212 51.221C159.222 51.2252 159.233 51.2294 159.245 51.2318C159.385 51.2804 159.646 51.4979 159.684 51.646C159.713 51.7601 159.616 51.8825 159.492 51.8487C159.399 51.8233 159.309 51.7853 159.22 51.743C159.279 51.8003 159.326 51.8616 159.33 51.9144C159.338 52.0116 159.254 52.1488 159.138 52.1173C158.923 52.0579 158.75 51.9673 158.607 51.8531C158.569 51.9036 158.514 51.9438 158.47 51.9313L158.387 51.906C158.41 51.927 158.43 51.9491 158.45 51.9708L158.48 52.003C159.062 52.6328 159.57 53.3303 159.977 54.0808C159.996 54.0594 160.019 54.0404 160.049 54.0171C160.238 53.8565 160.434 53.7001 160.631 53.5482L160.69 53.4962L160.751 53.4444L160.31 53.5902L160.32 53.5788C160.351 53.5388 160.448 53.4056 160.493 53.3612L160.504 53.3514C161.109 52.8084 161.769 52.3475 162.482 51.9715C162.943 51.6712 163.428 51.4175 163.936 51.2083C165.148 50.644 166.384 50.2152 167.653 49.8178C167.843 49.7565 168.032 49.691 168.222 49.6316C168.277 49.6126 168.288 49.6359 168.279 49.6739L168.378 49.6443C168.555 49.5872 168.857 49.9 168.737 50.0459C168.809 50.1051 168.88 50.171 168.943 50.2329L168.987 50.2784L169.038 50.2636C169.189 50.217 169.443 50.4524 169.604 50.6191L169.723 50.7454C169.814 50.8427 169.991 51.0435 169.774 51.1219L169.502 51.2146C169.51 51.2696 169.487 51.3161 169.403 51.3478C169.308 51.3795 169.215 51.4133 169.122 51.4473C169.179 51.4965 169.234 51.5477 169.288 51.5995L169.369 51.6775C169.465 51.7752 169.691 51.9905 169.491 52.0856L169.466 52.096L169.207 52.189C169.24 52.2651 169.232 52.3371 169.118 52.3792C167.604 52.8949 166.127 53.4996 164.683 54.1864C163.601 54.7865 162.458 55.2347 161.255 55.5283C161.155 55.5602 160.94 55.4102 160.852 55.2601L160.672 55.3131C160.642 55.3219 160.612 55.3303 160.582 55.3381L160.553 55.3446C160.778 55.947 160.945 56.5998 161.037 57.2318C161.048 57.2889 161.056 57.3482 161.063 57.4053C161.299 57.3861 161.533 57.3692 161.769 57.3567C163.403 57.2698 165.056 57.3227 166.694 57.5171C167.356 57.1219 167.992 56.6886 168.602 56.2196C168.787 56.0757 168.971 55.9278 169.152 55.7777C170.24 54.8308 171.224 53.768 172.097 52.6201C172.905 51.557 173.607 50.4157 174.197 49.2197C174.72 48.0972 175.152 46.9306 175.479 45.7259C175.778 44.6247 175.881 43.5532 175.957 42.414C175.983 42.228 175.999 42.0423 176.014 41.8561L176.012 41.7764L176.01 41.7377C175.989 41.3385 175.949 40.9388 175.905 40.5415ZM160.458 54.6956C160.409 54.7125 160.359 54.7294 160.308 54.7442C160.337 54.8097 160.365 54.8733 160.392 54.9386L160.395 54.9373L160.595 54.7801C160.553 54.7611 160.504 54.7317 160.458 54.6956ZM175.609 37.5446C175.989 37.403 176.276 37.3755 176.47 37.4643C176.183 37.4854 175.896 37.5129 175.609 37.5446Z" fill="black"/>
<path fill-rule="evenodd" clip-rule="evenodd" d="M155.709 130.703L153.477 122.178L153.837 122.234C157.378 122.79 159.149 123.362 159.149 123.949L159.147 123.989C159.1 124.649 157.954 126.887 155.709 130.703ZM176.258 124.02L175.468 130.116L171.35 125.601L176.258 124.02Z" fill="white"/>
<path fill-rule="evenodd" clip-rule="evenodd" d="M152.993 108.845C157.602 108.845 161.338 105.439 161.338 101.237C161.338 97.0347 157.602 93.6282 152.993 93.6282C148.384 93.6282 144.648 97.0347 144.648 101.237C144.648 105.439 148.384 108.845 152.993 108.845Z" fill="white"/>
<path fill-rule="evenodd" clip-rule="evenodd" d="M165.352 101.025C169.553 101.025 172.958 97.6662 172.958 93.5225C172.958 89.3787 169.553 86.0195 165.352 86.0195C161.152 86.0195 157.746 89.3787 157.746 93.5225C157.746 97.6662 161.152 101.025 165.352 101.025Z" fill="white"/>
<path fill-rule="evenodd" clip-rule="evenodd" d="M175.704 107.366C179.088 107.366 181.831 104.338 181.831 100.603C181.831 96.8676 179.088 94.3743 175.704 94.3743C172.321 94.3743 169.578 96.8676 169.578 100.603C169.578 104.338 172.321 107.366 175.704 107.366Z" fill="white"/>
<path fill-rule="evenodd" clip-rule="evenodd" d="M153.555 121.88C155.088 121.584 156.994 122.228 158.522 122.511L158.636 122.531C160.489 122.855 162.338 123.247 164.212 123.438C166 123.62 167.827 123.653 169.616 123.448C170.475 123.349 171.326 123.18 172.161 122.955C172.518 122.858 172.872 122.75 173.222 122.631L173.261 122.616C173.518 122.509 174.213 122.109 174.205 122.332C174.401 122.107 174.67 121.947 174.965 121.869C175.382 121.759 175.918 121.862 176.267 122.157C176.721 121.798 177.402 122.056 177.706 122.486C178.228 123.225 178.058 124.091 177.991 124.948L177.985 125.023C177.928 125.831 177.84 126.633 177.732 127.435L177.684 127.779C177.516 128.965 177.47 130.92 176.033 131.309C174.897 131.617 173.858 130.447 173.125 129.519L172.725 129.005C172.25 128.403 171.819 127.783 171.472 127.098C171.313 126.786 171.16 126.466 171.028 126.143C171.011 126.102 170.999 126.066 170.986 126.029C168.879 126.312 166.723 126.272 164.611 125.993C163.273 125.817 161.956 125.562 160.658 125.22L160.073 126.278C159.388 127.513 158.693 128.743 157.962 129.95L157.906 130.042C157.222 131.13 156.077 132.22 154.724 131.405C153.513 130.675 153.461 129.016 153.333 127.777C153.248 126.95 153.179 126.117 153.146 125.286L153.134 124.929C153.112 124.123 152.981 123.188 153.291 122.434C153.336 122.324 153.494 122.239 153.589 122.355C154.236 123.142 154.432 124.363 154.712 125.329C155.023 126.405 155.474 127.579 155.636 128.695L155.681 128.616C155.841 128.313 156.003 128.012 156.167 127.711L156.657 126.808C157.097 125.993 157.544 125.183 157.996 124.375C157.48 124.181 156.969 123.973 156.46 123.762L155.305 123.278C154.646 123 153.973 122.685 153.477 122.178C153.389 122.088 153.42 121.906 153.555 121.88ZM175.468 124.857C174.33 125.32 173.152 125.654 171.954 125.876C172.031 125.955 172.108 126.034 172.18 126.117C172.462 126.444 172.761 126.757 173.062 127.068L173.243 127.253C173.704 127.727 174.397 128.506 175.103 128.959L175.141 128.754C175.148 128.719 175.153 128.688 175.155 128.665L175.23 127.992C175.243 127.88 175.254 127.768 175.266 127.656C175.327 127.05 175.375 126.442 175.426 125.835C175.452 125.515 175.459 125.186 175.468 124.857ZM161.999 85.7855C164.71 84.6273 167.927 85.1741 170.262 86.9236C172.651 88.7139 173.695 91.6246 173.833 94.5286C175.723 92.9147 178.444 94.1363 180.035 95.6485C181.871 97.3937 182.8 100.027 182.372 102.527C181.945 105.018 180.144 107.215 177.706 107.956C176.539 108.311 175.239 108.319 174.066 107.989C173.668 107.877 173.179 107.703 172.728 107.461C172.754 107.564 172.78 107.668 172.805 107.772C173.39 110.251 173.722 113.037 172.844 115.488C171.432 119.428 166.417 121.633 163.286 118.136C162.057 116.764 161.101 114.614 161.175 112.742C161.214 111.759 161.771 110.621 162.921 110.688C163.813 110.739 164.235 111.486 164.007 112.276L163.993 112.321C163.51 113.831 164.335 116.013 165.531 117.043C167.364 118.623 169.88 117.248 170.882 115.396C172.051 113.238 171.909 110.47 171.535 108.122C171.168 105.816 170.35 103.707 169.482 101.573C169.39 101.59 169.297 101.605 169.201 101.618C167.475 101.853 163.962 101.941 162.055 100.69C162.26 102.621 161.858 104.609 160.761 106.244C159.539 108.066 157.698 109.031 155.555 109.326C153.474 109.614 151.062 109.672 149.007 109.179C144.632 108.128 143.09 102.725 144.413 98.8239C145.195 96.5166 147.38 94.4413 149.807 93.9172C151.058 93.0942 152.737 92.8505 154.181 92.9627C156.336 93.1307 158.46 94.0626 159.904 95.6991C160.455 96.3242 160.909 97.032 161.258 97.7895C161.376 97.6969 161.513 97.6274 161.667 97.5911C161.909 97.5344 162.12 97.5217 162.356 97.605C162.474 97.6466 162.644 97.7937 162.746 97.8893L162.979 98.1632C163.265 98.4964 163.536 98.7759 164.045 98.983C165.464 99.5606 167.387 99.686 168.894 99.5678C172.739 99.2669 172.255 94.1718 171.308 91.5543C170.186 88.4533 166.971 86.5243 163.7 87.0751C162.294 87.3116 160.953 88.06 159.924 89.0379C158.776 90.1298 158.284 91.4486 157.595 92.8306C157.554 92.9124 157.414 92.8946 157.396 92.8044C156.83 89.8903 159.515 86.8473 161.999 85.7855ZM141.52 109.28C141.403 109.143 141.556 108.901 141.724 109.015C142.949 109.848 144.312 110.449 145.794 110.612C146.49 110.688 147.191 110.693 147.884 110.586C148.475 110.495 149.007 110.315 149.596 110.478C149.91 110.564 149.967 110.928 149.776 111.157C148.885 112.217 146.693 111.934 145.497 111.65C143.952 111.282 142.55 110.491 141.52 109.28ZM182.762 107.344C183.363 106.971 184.08 107.709 183.724 108.306C182.81 109.837 180.162 109.961 178.626 109.595C178.506 109.567 178.534 109.378 178.655 109.381C179.538 109.403 180.336 109.233 181.097 108.773C181.747 108.379 182.134 107.733 182.762 107.344ZM153.403 95.1067L153.283 95.1077C151.878 95.1303 150.592 95.6661 149.239 95.9493C149.127 95.973 149.014 95.9609 148.912 95.9237C147.264 97.0238 146.128 98.7535 145.974 101.03C145.867 102.606 146.251 104.324 147.187 105.617C148.252 107.09 149.968 107.317 151.657 107.361L151.829 107.365C155.023 107.427 158.537 107.238 159.675 103.666C160.518 101.022 159.618 97.8128 157.271 96.2291C156.131 95.46 154.77 95.1054 153.403 95.1067ZM179.136 97.0027L179.042 96.8932C177.789 95.4554 175.803 94.1458 173.845 94.8699L173.85 95.1121C173.851 95.1525 173.851 95.1929 173.851 95.2332C173.845 98.01 172.77 100.601 170.126 101.416C170.836 102.428 171.405 103.551 171.862 104.717C172.023 104.612 172.219 104.545 172.446 104.522C173.376 104.428 173.91 105.302 174.717 105.628C175.472 105.934 176.329 106.013 177.127 105.855C178.871 105.51 180.095 104.004 180.524 102.334C181.009 100.446 180.369 98.4671 179.136 97.0027ZM152.578 99.3396C153.159 98.3564 154.595 98.4987 155.17 99.3655L155.198 99.4087L155.204 99.4007C156.162 100.643 155.699 102.605 154.308 103.304C153.191 103.864 151.772 103.717 151.03 102.627C150.864 102.382 150.757 102.095 150.718 101.804C150.691 101.606 150.706 101.408 150.751 101.211L150.74 101.257C150.762 101.158 150.796 101.002 150.806 100.965C150.904 100.565 151.139 100.135 151.433 99.8445C151.736 99.5457 152.157 99.3639 152.578 99.3396ZM176.486 98.3183C177.002 98.3183 177.459 98.5339 177.831 98.8757C178.361 99.362 178.434 100.062 178.32 100.726C178.285 100.929 178.237 101.125 178.186 101.324L178.143 101.505C178.135 101.535 178.127 101.565 178.118 101.594C178.086 101.717 178.036 101.831 177.976 101.94C177.755 102.76 176.863 103.168 176.077 102.989C175.706 102.904 175.337 102.597 175.149 102.275C175.087 102.169 175.043 102.063 175.012 101.957L174.859 101.594C174.831 101.507 174.813 101.413 174.79 101.324C174.738 101.125 174.689 100.929 174.653 100.726C174.532 100.04 174.628 99.3893 175.142 98.8757C175.487 98.5305 175.999 98.3183 176.486 98.3183ZM165.137 91.1993C166.031 91.0793 166.942 91.4961 167.404 92.2863C167.806 92.9732 167.804 93.8974 167.404 94.5843L167.37 94.6424C166.633 95.9076 164.914 96.0699 163.88 95.0924L163.83 95.0451C163.165 94.4167 163.015 93.3745 163.359 92.5583C163.674 91.8118 164.334 91.3073 165.137 91.1993Z" fill="black"/>
<path fill-rule="evenodd" clip-rule="evenodd" d="M186.085 109.758C184.662 111.67 182.025 112.279 179.593 112.068C174.347 111.563 172.696 105.603 172.524 100.97C176.041 101.96 172.226 94.9491 184.251 94.1781C188.49 93.8247 187.322 96.3858 189.195 98.2571C189.156 102.184 188.503 106.452 186.085 109.758ZM161.098 105.245C158 119.755 141.04 116.304 139.259 103.224C140.904 102.063 140.471 99.1945 142.514 98.1553C145.754 96.0849 149.803 96.1734 153.481 96.222C158.183 96.5452 159.523 98.4936 161.938 100.619C161.822 102.039 161.487 103.722 161.098 105.245ZM192.803 91.775C192.629 91.7461 192.455 91.7188 192.281 91.6932C192.145 91.6161 191.986 91.5567 191.8 91.521C191.377 91.4134 190.956 91.3409 190.536 91.3018C184.508 89.9447 170.563 91.8716 169.987 97.0176C168.068 97.6586 166.407 97.0846 164.182 97.1416C162.488 90.0603 133.21 91.0598 131.802 95.3291C131.797 95.3276 131.792 95.3263 131.786 95.3246C130.433 94.9057 128.439 95.0068 126.89 94.9404C123.584 94.8711 120.273 95.1659 117.038 95.8636C110.98 96.8267 102.712 97.9543 106.925 105.522C106.926 105.524 106.927 105.525 106.928 105.526L106.928 105.526C107.655 106.27 108.887 105.671 108.933 104.663C107.516 101.077 110.716 100.647 113.177 99.6165C119.303 97.4151 125.539 97.1099 131.874 97.7909C132.351 98.3522 133.074 98.8417 133.838 99.0979C138.074 99.8012 135.841 102.944 138.519 103.402C138.027 114.358 151.324 120.339 159.029 113.137C162.105 110.128 162.839 105.671 163.552 101.653C163.929 101.568 164.169 101.362 164.309 101.089C165.216 100.183 165.786 99.3466 167.579 99.0979C169.373 98.8493 170.753 99.3483 170.94 99.5011C170.987 99.596 171.038 99.6911 171.096 99.7862C171.178 99.9281 171.29 100.041 171.417 100.13C169.646 111.041 178.113 117.941 186.66 112.282C190.374 108.787 191.159 103.436 191.314 98.66C191.818 98.356 192.136 97.767 191.962 97.0264C191.722 96.0056 192.285 95.1217 193.182 94.6779C194.348 94.1016 194.142 91.9967 192.803 91.775Z" fill="black"/>
</svg>
