<svg width="240" height="232" viewBox="0 0 240 232" fill="none" xmlns="http://www.w3.org/2000/svg">
<path fill-rule="evenodd" clip-rule="evenodd" d="M41.0849 260.271C40.4524 266.071 39.0196 272.461 41.7508 277.934C40.0307 278.011 41.4261 278.509 42.3544 278.68C42.8845 279.091 43.5969 279.253 44.2668 279.196C47.7451 279.932 51.3358 280.198 54.8676 280.614C98.9629 284.278 143.354 283.305 187.532 281.726C188.968 281.664 189.932 280.62 190.043 279.214C191.662 258.518 192.467 237.758 192.426 216.999C191.707 209.704 197.219 212.55 194.278 202.937C191.915 192.798 188.416 182.928 183.955 173.524C180.872 167.405 177.966 160.965 173.266 155.891C171.781 155.685 170.516 154.209 169.261 153.385C167.99 153.138 167.048 152.058 165.759 151.726C163.304 151.087 157.81 149.728 155.719 151.362C155.637 151.34 155.553 151.32 155.47 151.297C155.061 151.751 154.499 151.41 154.194 151.002C153.149 150.191 148.582 150.108 148.064 148.862C145.363 146.411 144.64 141.251 144.64 138.232C143.629 137.097 143.559 137.308 142.188 136.707C140.844 135.011 139.219 133.533 137.406 132.368C127.204 125.667 112.399 132.728 110.011 144.376C106.235 147.367 102.349 150.405 97.7245 151.963C95.4677 150.802 92.8968 150.431 90.5017 150.429C88.7162 150.364 86.2491 149.331 85.0888 151.211C65.5683 157.604 53.7872 176.196 45.41 193.813C44.2358 196.321 42.831 198.947 43.1904 201.805C43.4374 205.228 47.1502 207.265 46.4486 210.892C45.4288 220.869 44.2687 230.835 43.2071 240.809C42.4996 247.296 41.7922 253.784 41.0849 260.271Z" fill="#D08B5B"/>
<path fill-rule="evenodd" clip-rule="evenodd" d="M85.0889 151.211C86.2492 149.331 88.7164 150.364 90.5018 150.429C92.8969 150.431 95.4678 150.802 97.7246 151.963C97.8168 151.932 97.9087 151.9 98.0003 151.868L98.1341 152.165L88.3088 153.55L93.2635 162.54C104.931 173.459 117.9 178.312 132.172 177.098C146.3 175.897 156.01 168.349 161.302 154.455L161.46 154.032L154.74 152.165L154.74 151.452C154.985 151.555 155.25 151.541 155.47 151.297C155.553 151.32 155.637 151.34 155.719 151.362C157.81 149.728 163.304 151.087 165.76 151.726C167.048 152.058 167.99 153.137 169.261 153.385C170.516 154.209 171.781 155.685 173.266 155.891C177.966 160.965 180.872 167.404 183.955 173.524C188.417 182.928 191.915 192.798 194.279 202.937C196.16 209.09 194.58 210.139 193.387 212.009L193.289 212.024C191.672 212.275 190.166 212.63 188.771 213.088C185.793 214.066 182.861 215.302 179.975 216.796L179.643 216.97L183.294 281.876L181.014 281.954C143.776 283.226 106.403 283.927 69.2021 281.646L72.6818 219.879L43.7317 203.806C43.4471 203.181 43.2424 202.524 43.1905 201.805C42.8312 198.947 44.2359 196.321 45.4101 193.813C53.7873 176.196 65.5684 157.604 85.0889 151.211Z" fill="#78E185"/>
<path fill-rule="evenodd" clip-rule="evenodd" d="M183.891 212.676C182.629 213.133 180.86 213.578 179.957 214.611C179.853 213.649 179.748 212.687 179.643 211.724C182.287 211.661 184.938 211.638 187.584 211.564C186.335 211.87 185.1 212.238 183.891 212.676ZM178.081 273.217C177.171 273.225 176.257 273.288 175.348 273.324C173.596 273.392 171.844 273.459 170.092 273.525C166.518 273.659 162.944 273.788 159.37 273.912C152.291 274.158 145.212 274.386 138.133 274.594C123.973 275.011 109.807 275.263 95.6491 275.74C91.7215 275.872 87.794 275.974 83.8699 276.188C81.8365 276.299 79.7935 276.394 77.7698 276.63C76.0625 276.829 74.3796 277.164 72.6818 277.414C72.7957 275.201 72.9024 272.987 73.0133 270.774C73.1183 268.681 73.2163 266.587 73.3137 264.493C79.941 264.84 86.576 264.98 93.2122 265.039C100.232 265.102 107.249 265.276 114.269 265.289C128.167 265.317 142.065 265.142 155.962 265.003C159.893 264.963 163.823 264.923 167.754 264.884C169.719 264.864 171.685 264.844 173.65 264.825C174.631 264.815 175.618 264.836 176.598 264.795C177.644 264.752 178.279 264.454 179.039 263.75C179.444 263.374 179.461 262.609 179.039 262.237C178.429 261.698 177.864 261.285 177.019 261.225C176.19 261.166 175.324 261.247 174.492 261.258C172.667 261.282 170.842 261.306 169.018 261.33C165.508 261.377 161.999 261.423 158.489 261.469C151.47 261.561 144.451 261.656 137.432 261.762C130.553 261.868 123.674 261.946 116.796 262.119C109.774 262.296 102.76 262.615 95.7389 262.841C88.266 263.081 80.7968 263.367 73.3407 263.928C73.5199 260.047 73.6849 256.165 73.8402 252.282C88.6448 253.088 103.459 253.662 118.289 253.687C133.738 253.713 149.187 253.449 164.631 253.046C166.807 252.989 168.984 252.931 171.159 252.863C172.282 252.828 173.406 252.795 174.529 252.755C175.354 252.725 176.203 252.689 176.949 252.294C178.422 251.515 178.676 249.239 176.929 248.616C175.973 248.276 174.96 248.609 174.727 249.47C174.656 249.477 174.588 249.483 174.529 249.485C173.686 249.517 172.844 249.541 172.002 249.567C170.177 249.625 168.352 249.684 166.526 249.742C163.157 249.847 159.787 249.945 156.417 250.034C149.537 250.216 142.656 250.365 135.775 250.48C122.15 250.707 108.526 250.916 94.9034 251.228C87.888 251.389 80.8748 251.597 73.8603 251.775C74.0278 247.554 74.186 243.334 74.3286 239.113C74.3453 238.618 74.3635 238.123 74.3815 237.629C75.3867 237.85 76.416 237.972 77.44 238.117C79.2169 238.369 80.9994 238.555 82.784 238.743C86.1465 239.098 89.52 239.316 92.895 239.502C99.7758 239.882 106.658 240.149 113.546 240.359C127.172 240.774 140.814 240.865 154.445 240.818C161.846 240.793 169.293 240.89 176.691 240.568C177.147 240.692 177.617 240.679 178.072 240.531C178.445 247.129 178.839 253.726 179.226 260.324C179.487 264.775 179.718 269.241 180.039 273.694C179.412 273.385 178.835 273.21 178.081 273.217ZM49.8134 206.181C48.5153 205.546 47.0838 204.966 45.9379 204.066C44.6853 203.082 44.3776 201.927 44.7626 200.383C44.7913 200.267 44.8251 200.152 44.8551 200.037C54.0856 200.06 63.2926 199.654 72.5191 199.434C81.8931 199.212 91.2636 199.025 100.64 198.972C119.34 198.867 138.037 199.289 156.727 199.814C163.459 200.003 170.19 200.189 176.921 200.373C176.767 202.015 176.827 203.697 176.792 205.327C176.761 206.759 176.769 208.193 176.79 209.627C173.269 209.618 169.749 209.542 166.227 209.502C157.508 209.404 148.794 209.655 140.077 209.854C122.644 210.253 105.207 210.567 87.7775 211.092C83.0436 211.235 78.2793 211.31 73.5237 211.512C73.3602 210.739 73.1787 209.969 72.974 209.204C72.6486 207.99 72.2815 206.741 71.3086 205.897C71.2619 205.856 71.1972 205.874 71.1763 205.932C70.8068 206.956 70.9002 207.999 71.0084 209.073C71.0939 209.921 71.1518 210.771 71.1947 211.622C68.2376 211.778 65.2866 211.996 62.351 212.324C61.5117 211.909 60.6719 211.495 59.8308 211.083C56.4922 209.448 53.1524 207.815 49.8134 206.181ZM156.975 236.685C150.088 236.74 143.2 236.746 136.313 236.702C122.681 236.615 109.053 236.279 95.4233 236.008C91.63 235.933 87.8417 235.859 84.0478 235.858C82.0836 235.858 80.1129 235.871 78.1509 235.957C76.916 236.01 75.6641 236.018 74.4349 236.167C74.5832 232.194 74.7376 228.218 74.7328 224.244C87.7355 226.214 100.878 226.755 114.009 227.142C127.312 227.535 140.619 227.738 153.928 227.758C157.71 227.764 161.492 227.755 165.274 227.733C167.095 227.722 168.917 227.708 170.737 227.691C171.716 227.682 172.701 227.702 173.679 227.66C174.713 227.617 175.338 227.372 176.06 226.636C176.43 226.259 176.449 225.61 176.06 225.235C174.771 223.991 173.254 224.261 171.578 224.281C169.897 224.302 168.216 224.32 166.535 224.336C163.173 224.366 159.811 224.386 156.449 224.394C149.865 224.411 143.282 224.386 136.698 224.318C123.392 224.182 110.09 223.886 96.7872 223.575C89.433 223.402 82.0803 223.45 74.7319 223.807C74.7292 223.147 74.7231 222.487 74.7102 221.827C74.6618 219.328 74.4184 216.829 74.0377 214.357C77.639 214.345 81.24 214.268 84.825 214.222C93.5426 214.11 102.258 213.935 110.975 213.76C119.621 213.586 128.267 213.413 136.914 213.239C145.555 213.066 154.222 213.053 162.853 212.587C167.51 212.335 172.169 211.992 176.831 211.813C176.84 212.241 176.849 212.669 176.858 213.097C176.97 218.348 177.175 223.593 177.44 228.839C177.567 231.359 177.701 233.88 177.839 236.4C177.772 236.393 177.704 236.389 177.634 236.388C170.752 236.343 163.858 236.629 156.975 236.685ZM47.9954 191.081C48.7838 189.052 49.6403 187.036 50.5661 185.048C54.4965 186.158 58.6891 186.73 62.7455 187.111C67.0638 187.517 71.3905 187.745 75.7266 187.834C84.2749 188.008 92.8232 187.603 101.362 187.25C118.926 186.524 136.489 185.994 154.069 185.96C158.979 185.951 163.888 185.974 168.797 186.029C171.252 186.057 173.706 186.09 176.161 186.132C177.423 186.154 178.685 186.178 179.947 186.204C180.506 186.215 181.072 186.256 181.63 186.239C182.377 186.217 182.923 185.992 183.616 185.722C184.412 185.412 184.881 184.081 183.888 183.64C182.896 183.199 182.1 182.94 180.999 182.917C179.807 182.891 178.615 182.867 177.423 182.845C175.249 182.806 173.075 182.772 170.901 182.745C166.483 182.69 162.064 182.667 157.646 182.667C148.949 182.668 140.252 182.771 131.558 182.976C114.103 183.387 96.6873 184.604 79.2387 185.126C74.4294 185.27 69.611 185.298 64.8015 185.154C60.1431 185.014 55.4945 184.622 50.8418 184.457C52.4489 181.068 54.2673 177.767 56.3191 174.629C64.0754 174.901 71.815 174.7 79.5729 174.463C83.6438 174.339 87.7148 174.214 91.7853 174.074C93.8206 174.004 95.856 173.934 97.8913 173.865C98.8739 173.831 99.8565 173.797 100.839 173.764C101.898 173.727 103.012 173.796 104.04 173.517C104.226 173.467 104.374 173.359 104.485 173.222C107.221 174.63 110.115 175.741 113.092 176.564C119.552 178.351 126.5 179.021 133.181 178.471C138.543 178.03 143.887 176.702 148.601 174.103C159.247 175.083 170.043 174.623 180.712 174.553C181.731 174.546 182.155 173.612 181.985 172.842C185.409 180.223 187.677 188.226 189.8 196.01C191.119 200.848 192.293 205.716 193.41 210.601C193.363 210.605 193.317 210.609 193.271 210.614C193.4 210.078 193.109 209.448 192.377 209.431C188.059 209.332 183.727 209.58 179.407 209.62C179.286 208.539 179.164 207.458 179.036 206.377C178.861 204.905 178.653 203.437 178.475 201.966C178.41 201.432 178.35 200.917 178.277 200.41C181.697 200.503 185.117 200.597 188.537 200.687C190.757 200.746 190.753 197.307 188.537 197.24C169.743 196.664 150.949 196.082 132.149 195.763C113.338 195.444 94.4618 195.247 75.6649 196.211C65.4216 196.737 55.2036 197.44 45.0877 199.173C45.8734 196.43 46.9695 193.722 47.9954 191.081ZM63.9924 164.953C64.3327 165.208 64.4417 165.369 64.9505 165.459C65.5021 165.555 66.0693 165.586 66.6262 165.641C67.8178 165.757 69.0123 165.801 70.2079 165.857C72.5952 165.971 74.9823 166.091 77.3713 166.164C82.1136 166.308 86.9576 166.512 91.6978 166.301C92.8574 166.249 93.385 165.293 93.2796 164.421C94.1686 165.522 95.1406 166.556 96.1758 167.499C97.8402 169.014 99.6368 170.357 101.531 171.542C100.302 171.587 99.051 171.741 97.8913 171.791C95.9261 171.875 93.9609 171.96 91.9957 172.044C87.8544 172.222 83.7136 172.413 79.5729 172.607C71.9096 172.965 64.2725 173.411 56.6384 174.142C58.8186 170.865 61.2609 167.773 63.9924 164.953ZM188.718 180.875C185.481 171.983 181.306 162.748 173.794 156.641C169.933 153.502 165.631 151.331 160.759 150.302C160.609 150.27 160.55 150.483 160.696 150.531C169.121 153.296 175.355 160.613 179.573 168.111C180.337 169.47 181.045 170.861 181.715 172.273C181.497 172.008 181.163 171.831 180.712 171.838C170.749 172.006 160.67 171.837 150.73 172.81C150.983 172.641 151.237 172.473 151.486 172.295C154.201 170.359 156.645 167.99 158.664 165.307C159.881 165.616 161.162 165.691 162.403 165.809C164.059 165.967 165.727 166.039 167.389 166.128C169.048 166.217 170.714 166.225 172.375 166.266C173.517 166.293 175.749 166.483 175.75 164.736C175.751 162.987 173.517 163.172 172.375 163.195C170.714 163.228 169.049 163.232 167.389 163.31C165.798 163.385 164.197 163.445 162.61 163.588C161.643 163.674 160.647 163.731 159.674 163.885C161.257 161.522 162.518 158.947 163.359 156.232C163.444 155.959 163.472 155.703 163.458 155.467C163.815 155.09 164.043 154.574 164.043 154.101C164.043 152.976 163.167 152.317 162.143 152.2C158.09 151.736 153.624 151.076 150.358 148.41C148.884 147.207 147.699 145.785 146.583 144.254C145.329 142.534 144.859 140.367 144.854 138.261C144.854 138.143 144.658 138.107 144.64 138.232C144.026 142.501 144.911 147.375 147.974 150.573C150.981 153.714 155.066 154.89 159.211 155.577C157.502 160.461 154.681 164.751 150.72 168.124C146.307 171.883 140.72 173.893 135.025 174.652C128.88 175.471 122.439 175.073 116.396 173.736C110.575 172.449 104.88 170.146 100.143 166.472C97.7523 164.618 95.5534 162.433 93.6374 160.094C92.0561 158.164 90.8436 156.011 89.4862 153.943C94.5505 155.332 100.674 153.435 104.916 150.754C107.414 149.176 109.603 147.205 111.401 144.861C112.288 143.705 113.077 142.484 113.728 141.179C114.067 140.5 114.371 139.802 114.651 139.097C114.824 138.662 114.993 138.215 114.993 137.736C114.992 137.383 114.904 137.055 114.727 136.751C114.364 136.365 114.292 136.254 114.51 136.415C114.154 135.685 113.123 135.5 112.464 135.878C112.219 136.02 111.641 136.294 111.357 136.751C111.165 137.059 111.061 137.429 110.938 137.768C110.744 138.303 110.549 138.832 110.305 139.347C109.739 140.544 109.06 141.687 108.285 142.761C106.869 144.724 105.05 146.499 103.068 147.884C100.987 149.339 98.7442 150.528 96.3119 151.27C93.7429 152.054 91.2 152.288 88.5495 152.575C88.5212 152.536 88.4937 152.497 88.4654 152.457C88.4143 152.387 88.3038 152.41 88.2993 152.502C88.2972 152.547 88.2983 152.591 88.297 152.635C87.9191 152.813 87.8878 153.346 88.3088 153.55C88.465 156.003 89.523 158.418 90.6759 160.541C91.1561 161.425 91.6986 162.282 92.2864 163.109C92.1125 163.043 91.9171 163.001 91.6978 162.992C86.9559 162.81 82.1132 163.045 77.3713 163.218C75.0522 163.303 72.7357 163.433 70.4185 163.557C69.2242 163.621 68.0269 163.662 66.8369 163.786C66.2417 163.848 65.643 163.896 65.051 163.985C65.0081 163.992 64.9682 163.999 64.9306 164.005C66.3951 162.562 67.9388 161.196 69.5686 159.92C74.9149 155.737 81.0552 152.328 87.6066 150.474C87.6687 150.456 87.6596 150.35 87.591 150.357C74.5604 151.69 63.7061 159.905 56.1131 170.219C51.9 175.942 48.7046 182.277 45.955 188.811C44.5691 192.104 43.2577 195.455 42.1595 198.856C41.6014 200.585 41.3498 202.418 42.1492 204.114C42.7623 205.415 43.8936 206.382 45.0795 207.15C45.1583 207.202 45.2394 207.249 45.3191 207.299C44.1068 211.524 43.2947 215.859 42.5155 220.181C41.6692 224.877 40.9308 229.591 40.2966 234.32C39.029 243.772 38.058 253.243 37.634 262.773C37.5167 265.409 37.4384 268.046 37.4041 270.685C37.387 272.004 37.3946 273.324 37.4126 274.643C37.4331 276.12 37.2332 277.787 37.9847 279.105C38.9888 280.866 40.9391 280.259 41.7968 279.055C41.8093 279.071 41.8222 279.088 41.8348 279.105C41.9126 278.952 41.9776 278.799 42.0332 278.646C42.1255 278.443 42.1857 278.231 42.2077 278.014C42.3693 277.197 42.3085 276.366 42.3019 275.477C42.2924 274.227 42.2996 272.977 42.3032 271.726C42.3102 269.366 42.337 267.006 42.4042 264.646C42.5388 259.927 42.8016 255.213 43.161 250.506C43.875 241.155 44.9284 231.848 45.8299 222.516C46.2888 217.765 46.8423 213.001 46.9378 208.225C48.0505 208.811 49.1988 209.342 50.3094 209.908C52.3701 210.957 54.4306 212.006 56.4911 213.056C58.4895 214.073 60.4908 215.085 62.493 216.095C64.5119 217.114 66.5172 218.461 68.7886 218.712C70.0027 218.846 70.4422 217.209 69.7268 216.445C68.7926 215.447 67.552 214.827 66.3049 214.247C67.9619 214.307 69.621 214.34 71.2809 214.352C71.3037 216.442 71.23 218.536 71.1252 220.62C70.8674 225.734 70.5091 230.838 70.1698 235.947C69.4646 246.566 68.782 257.19 68.2494 267.819C68.1191 270.423 67.9885 273.026 67.8579 275.629C67.7946 276.894 67.7065 278.162 67.6705 279.428C67.6304 280.849 67.6653 282.631 68.98 283.508C69.9087 284.128 70.9082 283.836 71.6054 282.984C72.5377 281.844 72.5362 280.193 72.6112 278.795C72.6286 278.472 72.644 278.149 72.6607 277.826C74.0846 278.01 75.4982 278.265 76.9283 278.405C78.675 278.575 80.4328 278.675 82.1872 278.72C85.7646 278.813 89.3362 278.846 92.9147 278.846C99.9964 278.846 107.077 278.725 114.158 278.61C128.32 278.382 142.48 277.985 156.637 277.545C160.561 277.423 164.486 277.295 168.41 277.162C170.443 277.093 172.475 277.022 174.507 276.95C176.431 276.881 178.532 277.13 180.225 276.131C180.274 276.739 180.324 277.348 180.378 277.955C180.479 279.106 181.288 280.095 182.517 280.095C183.671 280.095 184.663 279.116 184.656 277.955C184.225 267.455 183.291 256.953 182.552 246.47C181.873 236.842 181.237 227.2 180.266 217.594C180.542 217.772 180.878 217.883 181.275 217.884C182.544 217.89 183.809 217.103 184.996 216.684C186.193 216.263 187.41 215.897 188.643 215.598C189.374 215.421 190.107 215.272 190.842 215.145C190.753 216.648 190.776 218.165 190.748 219.662C190.705 221.964 190.634 224.265 190.578 226.566C190.468 231.101 190.429 235.635 190.342 240.17C190.168 249.312 189.88 258.449 189.392 267.579C189.258 270.088 189.107 272.596 188.939 275.103C188.851 276.426 188.758 277.749 188.66 279.071C188.564 280.371 188.34 281.752 188.83 282.998C188.845 282.989 188.861 282.981 188.876 282.971C189.217 284.044 190.717 284.559 191.426 283.338C192.53 281.435 192.275 278.707 192.402 276.565C192.538 274.268 192.66 271.969 192.769 269.67C192.985 265.071 193.135 260.47 193.222 255.866C193.396 246.658 193.367 237.436 192.804 228.24C192.65 225.726 192.434 223.217 192.213 220.708C192.047 218.827 191.956 216.895 191.662 215.014C193.097 214.802 194.542 214.679 196.001 214.643C197.413 214.608 198.324 213.334 198.025 211.985C195.68 201.421 192.419 191.036 188.718 180.875Z" fill="black"/>
<path fill-rule="evenodd" clip-rule="evenodd" d="M103.981 43.648C117.266 42.9209 129.036 39.1789 138.387 47.5537C138.387 47.5537 153.515 36.228 156.039 40.5415C157.731 43.4319 155.385 47.312 156.014 50.8787C160.115 57.8872 159.883 69.7499 160.115 72.5298C160.699 79.5368 164.38 105.904 164.38 112.166C164.38 115.362 161.752 123.732 160.115 128.39C156.471 138.758 149.517 144.042 138.111 144.042C126.705 144.042 108.089 134.486 102.118 126C101.595 125.257 98.2114 127.426 94.6722 123.663C90.838 119.586 88.711 111.81 88.711 107.175C88.711 101.293 84.9191 97.2138 85.3602 89.6846C86.3452 72.8699 89.7658 44.4259 103.981 43.648Z" fill="#D08B5B"/>
<path fill-rule="evenodd" clip-rule="evenodd" d="M156.053 40.5008C157.744 43.3911 155.399 47.2713 156.027 50.8379C157.61 53.5424 158.547 56.9698 159.115 60.3192L156.014 61.9691L154.867 62.1378C136.262 64.8876 124.388 67.3624 119.244 69.5621C114.048 71.7842 107.742 79.5887 100.326 92.9757L100.101 93.3831L98.6312 103.374L91.8943 105.445L88.7233 106.952C88.6465 101.167 84.9371 97.0952 85.3736 89.6438C86.3586 72.8291 89.7792 44.3852 103.995 43.6072C117.279 42.8801 129.049 39.1381 138.401 47.5129C148.486 39.9625 154.37 37.6251 156.053 40.5008Z" fill="#9FD8E5"/>
<path fill-rule="evenodd" clip-rule="evenodd" d="M102.497 24.0984C102.67 24.0878 102.845 24.0963 103.02 24.1134C103.212 24.1219 103.404 24.1407 103.595 24.1789C104.572 24.3668 105.442 24.8846 106.117 25.6138C106.136 25.6328 106.151 25.6542 106.167 25.673C106.484 25.9118 106.777 26.1825 107.04 26.4698C107.087 26.4254 107.131 26.3812 107.179 26.3368C107.319 26.214 107.464 26.0978 107.616 25.9881C108.251 25.4421 108.996 25.0451 109.798 24.8193L109.907 24.7895C109.929 24.7832 109.95 24.779 109.971 24.7747C110.54 24.5847 111.139 24.4875 111.742 24.4894C112.463 24.4662 113.186 24.5847 113.86 24.8635C114.659 25.1955 115.355 25.7195 115.939 26.3495C116.323 26.6623 116.658 27.0066 117.012 27.3851C117.744 28.169 118.321 29.0863 118.686 30.0967C118.737 30.2383 118.781 30.384 118.821 30.5298C119.713 30.4264 120.609 30.3525 121.505 30.3163C122.51 30.2552 123.516 30.2339 124.524 30.2679C127.3 30.3586 130.016 30.8491 132.645 31.7474C133.172 31.9036 133.684 32.1022 134.177 32.3474C134.951 32.656 135.683 33.0491 136.372 33.5246L136.959 33.8738C137.254 34.0495 137.549 34.2276 137.835 34.4102C138.516 34.8479 139.161 35.338 139.772 35.8664C140.418 36.3886 141.027 36.9572 141.607 37.553C141.764 37.7142 141.916 37.8776 142.066 38.042C143.402 38.7651 144.59 39.6908 145.697 40.7949C146.575 40.2885 147.484 39.8294 148.422 39.4213C149.39 39.0007 150.619 38.5674 151.633 38.2823C152.544 38.0266 153.444 37.8512 154.357 37.722C154.772 37.6502 155.19 37.5931 155.609 37.5445L155.593 37.5511C155.888 37.5191 156.181 37.4917 156.478 37.4663L156.47 37.4642C156.596 37.4538 156.725 37.4431 156.851 37.4346L157.159 37.4095C157.252 37.401 157.387 37.6185 157.395 37.6946L157.406 37.7728C157.475 37.8512 157.538 37.9378 157.583 37.9907C157.638 37.9862 157.692 37.9822 157.747 37.9799C157.912 37.9653 158.101 38.2589 158.198 38.3709L158.286 38.4742C158.386 38.5946 158.486 38.7333 158.502 38.8845C158.609 39.7618 158.711 40.6408 158.803 41.52C158.839 42.1858 158.803 42.8452 158.694 43.4982C158.612 44.1323 158.527 44.7663 158.443 45.3983C158.308 45.8423 158.175 46.2862 158.042 46.7298C157.99 46.8991 157.931 47.0658 157.874 47.2328C157.537 48.3479 157.141 49.4334 156.67 50.4853C157.014 50.8661 157.334 51.2609 157.632 51.6686C157.703 51.742 157.775 51.8149 157.842 51.891C157.861 51.8616 157.888 51.8341 157.918 51.8191C158.019 51.7747 158.093 51.8276 158.156 51.9144C158.82 52.5504 159.303 53.2924 159.602 54.1397L159.789 54.5816C159.82 54.6555 159.85 54.7295 159.881 54.8034C160.119 55.4461 160.302 56.1055 160.454 56.7732C160.59 57.2986 160.687 57.8312 160.75 58.3695C161.205 59.9024 161.566 61.4706 161.905 63.0177C161.959 63.2612 161.933 63.4785 161.856 63.6636L162.054 63.8576L162.394 64.1964C162.964 64.7661 163.545 65.3651 163.968 66.043C164.407 66.7468 164.73 67.4992 165.088 68.2455L165.165 68.404L165.323 68.7219C165.494 69.0689 165.575 69.2607 165.727 69.6803C165.978 70.3801 166.113 71.0837 166.176 71.8257C166.269 72.9055 166.256 74.0827 165.784 75.0867C165.782 75.0951 165.777 75.1017 165.773 75.1078C165.558 76.0781 165.027 76.9782 164.219 77.5531C164.047 77.7161 163.861 77.8619 163.663 77.9779C163.187 78.2579 162.75 78.283 162.231 78.1534L162.166 78.1364C162.101 78.1195 162.042 78.1047 161.985 78.0921C162.069 78.1618 162.111 78.2444 161.985 78.3034C161.862 78.3626 161.753 78.3964 161.649 78.4091C161.694 78.4662 161.698 78.5274 161.605 78.5782C161.403 78.686 161.238 78.72 161.07 78.6902L161.105 78.984C161.382 81.2074 161.629 81.6472 161.846 84.0354C161.989 86.4806 162.217 88.9195 162.531 91.3482L162.639 92.2306C162.986 95.0275 163.376 97.845 163.973 100.597C164.274 101.799 164.534 103.01 164.753 104.23C165.063 105.158 165.28 106.107 165.4 107.075C165.575 108.059 165.695 109.053 165.765 110.055C166.007 110.695 166.125 111.346 166.119 112.01C166.151 112.901 166.121 113.791 166.026 114.677C165.973 115.598 165.847 116.511 165.647 117.416C165.467 118.657 165.141 119.855 164.673 121.018C164.297 122.315 163.838 123.588 163.315 124.832C162.503 126.76 161.523 128.55 160.408 130.315C159.362 131.969 158.24 133.563 156.959 135.045C155.302 136.959 153.413 138.714 151.342 140.193C150.162 141.068 148.916 141.854 147.613 142.527C146.019 143.351 144.4 144.093 142.673 144.593C141.596 144.906 140.5 145.122 139.391 145.287C137.213 145.61 134.957 145.561 132.767 145.183C131.354 144.993 129.965 144.663 128.652 144.192C127.572 143.803 126.543 143.357 125.515 142.854C124.985 142.598 124.475 142.302 123.986 141.971C123.164 141.436 122.394 140.832 121.678 140.164C121.444 139.963 121.216 139.758 120.992 139.542C120.885 139.447 120.944 139.305 121.068 139.272L121.106 139.267C121.058 139.223 121.007 139.179 120.959 139.132C120.948 139.124 120.94 139.113 120.931 139.103C120.908 139.081 120.883 139.06 120.862 139.039C120.78 138.967 120.862 138.807 120.933 138.769C120.961 138.754 120.997 138.752 121.037 138.756C121.028 138.747 121.022 138.741 121.014 138.735C121.005 138.728 121.003 138.712 121.005 138.695L120.973 138.669C120.866 138.574 120.921 138.435 121.047 138.399C121.109 138.38 121.211 138.39 121.317 138.413L121.357 138.422L121.285 138.354C121.159 138.244 121.199 138.122 121.355 138.084C121.471 138.091 121.586 138.107 121.7 138.135L121.785 138.158C121.827 138.168 121.867 138.181 121.91 138.194C121.838 138.128 121.766 138.065 121.697 137.999C121.627 137.938 121.701 137.763 121.764 137.727C121.851 137.678 122.019 137.746 122.097 137.803C122.289 137.824 122.542 137.908 122.635 137.989C122.89 138.234 123.153 138.468 123.421 138.697C123.583 138.747 123.737 138.815 123.855 138.917C124.159 139.208 124.475 139.483 124.798 139.749L125.043 139.919C125.084 139.947 125.125 139.974 125.167 140.001C125.631 140.273 126.094 140.544 126.556 140.817C128.249 141.391 129.942 141.967 131.633 142.539L131.856 142.607L133.498 142.81C134.578 142.924 135.659 142.918 136.739 142.793C137.548 142.803 138.352 142.723 139.142 142.558C140.485 142.33 141.803 141.994 143.084 141.525C144.56 140.986 145.966 140.276 147.339 139.511C147.832 139.234 148.317 138.94 148.794 138.629C148.947 138.519 149.101 138.407 149.255 138.293C150.269 137.53 151.239 136.716 152.173 135.856C152.612 135.453 153.033 135.032 153.44 134.597C153.499 134.533 153.556 134.472 153.613 134.408C154.003 133.982 154.38 133.54 154.741 133.083L155.084 132.695C156.472 130.964 157.705 129.102 158.814 127.185C159.914 125.284 160.821 123.285 161.542 121.216C161.774 120.478 161.976 119.73 162.145 118.974C162.457 118.065 162.661 117.133 162.756 116.182C162.788 115.996 162.813 115.81 162.838 115.624L162.853 115.33C162.855 115.282 162.857 115.233 162.857 115.184C162.9 114.888 162.935 114.592 162.963 114.296C162.98 113.999 162.99 113.7 162.992 113.402L162.969 111.574C162.963 111.517 162.957 111.458 162.952 111.399L162.906 110.995C162.805 110.162 162.727 109.328 162.626 108.495C162.626 108.491 162.626 108.484 162.623 108.478C162.586 108.167 162.545 107.854 162.499 107.542C162.476 107.356 162.446 107.17 162.419 106.984L162.366 106.658C162.268 106.092 162.15 105.531 162.006 104.975L161.943 104.737L161.576 102.888L161.162 101.068C160.895 99.8485 160.671 98.6205 160.494 97.382C160.174 95.4082 159.9 93.4319 159.661 91.4473C159.649 91.3522 159.636 91.255 159.626 91.1598C159.383 89.3192 159.208 87.4718 159.094 85.6182C158.94 83.7924 158.852 81.9619 158.829 80.1297C158.827 80.0471 158.881 79.9796 158.947 79.9414L158.941 79.5891C158.933 79.2774 158.928 79.6513 158.925 79.296L158.921 78.3188C158.921 78.2373 158.922 78.1806 158.924 78.1766C157.797 78.2547 157.04 78.1907 155.952 78.1333L155.768 78.1238C154.77 78.0775 153.779 77.9676 152.795 77.8025C152.791 77.8534 152.757 77.8892 152.7 77.8997C152.599 77.904 152.504 77.904 152.407 77.9063L152.443 78.0434C152.445 78.1134 152.413 78.1576 152.346 78.1766L152.065 78.1893C151.689 78.2051 151.312 78.2125 150.94 78.1618C150.604 78.1176 150.278 78.0392 149.953 77.9462C149.753 77.9124 149.548 77.8661 149.34 77.8067C148.804 77.6525 148.273 77.4453 147.735 77.2807C147.187 77.1642 146.631 77.1264 146.049 77.2657C145.433 77.4115 144.912 77.6757 144.267 77.5151C144.139 77.4836 144.014 77.435 143.89 77.384L143.775 77.376C143.755 77.3743 143.735 77.3721 143.715 77.3692C143.042 77.2722 142.444 76.8453 141.803 76.6168C141.579 76.5622 141.357 76.576 141.14 76.6667L141.086 76.691L140.873 76.8495C140.787 76.9508 140.702 77.0532 140.619 77.1559L140.493 77.3101C140.264 77.5954 140.019 77.8511 139.722 78.0371C139.363 78.3689 138.938 78.5634 138.43 78.576C138.141 78.5845 137.854 78.5232 137.576 78.4347C136.526 78.7601 135.402 78.8257 134.354 78.5086C133.939 78.445 133.532 78.3332 133.142 78.1576C132.959 78.0751 132.775 77.9779 132.598 77.8701C131.858 78.1832 131.158 78.5993 130.444 78.9588L130.283 79.0398C129.552 79.4045 128.744 79.7601 127.918 79.707C126.876 79.6391 125.854 79.4999 124.834 79.3242C124.825 79.3242 124.815 79.3221 124.806 79.32L124.666 79.2966L124.155 79.2068L123.744 79.13L123.533 79.2108C121.844 79.8517 119.992 80.3517 118.294 79.9033C117.554 79.8127 116.86 79.5631 116.234 79.1382C116.213 79.1234 116.192 79.1087 116.171 79.0917C116.072 79.041 115.979 78.9842 115.897 78.9229L115.879 78.909L115.863 78.8952L115.855 78.891C114.929 78.4642 114.398 77.5552 114.491 76.5367C114.434 76.2132 114.436 75.8961 114.499 75.5582C114.198 75.9152 113.89 76.2683 113.578 76.6189C112.437 77.9967 111.319 79.4019 110.284 80.8647L110.047 81.2033C109.477 82.0084 108.948 82.8413 108.459 83.6992C107.964 84.5467 107.456 85.386 106.931 86.2145C106.248 86.9706 105.588 87.745 104.952 88.5382L104.681 88.8794L103.766 90.0862C103.119 90.8557 102.581 91.6969 102.158 92.6097C101.81 93.2588 101.489 93.9203 101.2 94.5987C101.108 94.8035 101.019 95.0107 100.933 95.2178C100.635 96.0272 100.385 96.8517 100.189 97.7032C100.031 98.3195 99.918 98.9444 99.8508 99.578L99.8302 99.7895C99.8049 100.039 99.7859 100.288 99.7753 100.537C99.8365 100.574 99.8871 100.609 99.925 100.645L100.079 100.7L100.203 100.737C100.397 100.798 100.732 100.922 100.652 101.076L100.245 101.854C100.288 101.899 100.307 101.945 100.279 101.996C100.007 102.518 99.7332 103.04 99.4591 103.562C99.4507 103.581 99.4359 103.596 99.4212 103.606C99.6552 103.714 99.8829 103.832 100.1 103.961C100.524 104.215 100.836 104.509 101.125 104.851C101.428 105.033 101.715 105.232 101.985 105.46C102.318 105.811 102.609 106.196 102.855 106.612C103.083 107.005 103.269 107.415 103.412 107.844C103.475 108.07 103.505 108.305 103.503 108.543C103.248 110.349 101.188 109.112 101.148 108.953C100.865 107.863 100.541 107.174 99.8112 106.362L99.7922 106.35C99.3706 106.164 98.9531 105.98 98.5167 105.836C98.4514 105.849 98.3839 105.857 98.3165 105.868C98.3923 105.976 98.3544 106.081 98.2005 106.1C97.5364 106.231 96.866 106.267 96.1914 106.21L95.1668 106.064C94.7418 106.228 94.3355 106.438 93.9527 106.688L93.8259 106.772L93.8028 106.789C92.814 107.586 92.0508 108.645 91.528 109.799C91.4816 109.902 91.4371 110.005 91.3945 110.11L91.3319 110.268L91.3277 110.276C90.6446 112.967 91.2539 115.922 92.502 118.363C93.1829 119.455 93.8934 120.527 94.6355 121.577L95.3565 122.522C95.7824 122.924 96.1998 123.336 96.6067 123.759C96.6699 123.822 96.7374 123.885 96.8049 123.947C97.0199 124.088 97.2392 124.213 97.4626 124.319C97.5491 124.348 97.6376 124.376 97.7262 124.399C98.1562 124.606 98.6074 124.716 99.0817 124.729C99.7083 124.77 100.316 124.697 100.904 124.51L101.021 124.471L101.108 124.439C101.428 124.234 101.725 123.978 102.008 123.678C102.071 123.613 102.189 123.613 102.324 123.649C102.398 123.573 102.472 123.492 102.541 123.406C102.59 123.353 102.666 123.351 102.725 123.391C102.925 123.368 103.467 123.676 103.326 123.839C103.302 123.877 103.273 123.911 103.248 123.947C103.342 123.995 103.437 124.05 103.522 124.107C103.964 124.231 104.618 124.673 104.565 124.807L104.559 124.817C104.456 125.012 104.323 125.175 104.159 125.304L104.104 125.346L103.979 125.432C104.154 125.543 104.302 125.669 104.228 125.758C104.194 125.823 104.158 125.887 104.116 125.944C104.475 126.388 104.831 126.836 105.185 127.284C105.539 128.053 105.978 128.772 106.501 129.438C106.937 130.16 107.462 130.809 108.075 131.388C108.126 131.439 108.179 131.488 108.229 131.536C108.681 131.871 109.154 132.185 109.647 132.486L109.859 132.614C109.971 132.682 110.158 132.766 110.07 132.929C110.059 132.95 110.047 132.967 110.032 132.98C110.342 133.183 110.662 133.375 110.993 133.553L111.025 133.572C111.15 133.652 111.319 133.797 111.141 133.916C110.989 134.017 110.586 133.743 110.397 133.616C110.361 133.616 110.319 133.606 110.276 133.593C110.34 133.627 110.402 133.663 110.465 133.699L110.561 133.751C110.635 133.796 110.997 134.036 110.744 134.138C110.62 134.148 110.506 134.117 110.401 134.045C110.276 133.984 110.154 133.918 110.034 133.85C110.076 133.916 110.076 133.982 109.971 134.024C109.935 134.026 109.899 134.024 109.863 134.02C110.112 134.178 110.367 134.326 110.631 134.466L110.673 134.492C110.785 134.565 110.962 134.702 110.833 134.821C110.687 134.952 110.287 134.673 110.184 134.609L109.876 134.425C109.853 134.436 109.827 134.44 109.8 134.442C109.893 134.5 109.979 134.561 110.074 134.616L110.203 134.686C110.365 134.776 110.593 134.923 110.51 135.07C110.428 135.216 110.182 135.096 110.023 135.001L109.852 134.895C109.845 134.891 109.837 134.886 109.829 134.882L109.823 134.907C109.821 134.911 109.82 134.916 109.817 134.92C109.738 135.058 109.539 134.967 109.402 134.888L109.292 134.821C109.105 134.708 108.92 134.596 108.736 134.483L108.461 134.314H108.457C107.506 133.741 106.627 133.17 105.799 132.435C105.303 131.995 104.841 131.53 104.403 131.033C103.522 130.038 102.866 128.899 102.234 127.736C102.223 127.717 102.238 127.668 102.263 127.616C102.193 127.472 102.126 127.326 102.059 127.176C101.409 127.358 100.684 127.411 100.016 127.366C99.6573 127.343 99.3031 127.28 98.951 127.185C97.8273 127.028 96.7437 126.515 95.8077 125.899C95.7486 125.861 95.6959 125.819 95.6411 125.781C95.2553 125.563 94.8885 125.31 94.5406 125.02C93.8618 124.458 93.2146 123.832 92.6264 123.179C92.2005 122.672 91.7978 122.146 91.4205 121.601C91.0368 121.062 90.6489 120.523 90.2609 119.984C89.1836 118.293 88.4943 116.346 88.2265 114.358C88.0958 113.624 88.0283 112.882 88.0431 112.143C88.0536 111.608 88.1127 111.067 88.216 110.528C88.1548 110.469 88.0937 110.41 88.0326 110.349C87.9988 110.408 87.9651 110.45 87.944 110.429L87.4608 109.944C87.1181 109.597 86.8881 109.342 86.4936 108.782C85.8653 107.888 85.3973 106.905 85.0494 105.87C84.7986 105.13 84.632 104.289 84.5666 103.475C84.5456 103.34 84.5245 103.203 84.5076 103.063C84.3727 101.962 84.4971 100.907 84.6636 99.821C84.6742 99.7493 84.71 99.7049 84.7585 99.6815C84.7707 99.5955 84.7853 99.5071 84.7996 99.419C83.4031 97.937 82.3981 96.1509 82.4801 93.9938C82.5059 93.3141 82.645 92.6442 82.9106 92.0186L82.9429 91.948C81.7773 91.7683 80.8526 90.9474 80.1579 89.93C80.0964 89.8812 80.0367 89.8319 79.9794 89.7829C78.7372 88.7194 77.876 87.2135 77.2863 85.6229C76.8641 84.6993 76.5843 83.7123 76.4656 82.6885C76.4572 82.6154 76.4521 82.5429 76.4456 82.4702C76.1572 80.8515 76.0838 79.2164 76.217 77.6057C75.9276 76.6088 75.6921 75.5943 75.5308 74.5562C75.4549 74.0618 75.4022 73.5671 75.3622 73.0725L75.3579 73.0452L75.3516 72.9562L75.3338 72.7344C75.331 72.6977 75.3284 72.6611 75.3263 72.6244C74.97 68.0973 75.9799 63.642 77.6496 59.4489C77.795 59.0718 77.9453 58.6956 78.1002 58.3225L78.2645 57.9326C79.9406 55.2231 82.4574 53.0316 84.589 50.7171C85.3246 49.9186 84.1349 48.7199 83.3966 49.5215C81.9803 51.0593 80.4609 52.5322 79.0891 54.1129C78.8468 54.1306 78.6042 54.1372 78.3622 54.1251C77.9405 54.1038 77.5315 54.0364 77.1352 53.9284C76.1464 53.7826 75.2462 53.3831 74.4282 52.7955C73.3341 52.2843 72.4001 51.3203 72.3074 50.0628C72.2968 49.936 72.2989 49.8113 72.3074 49.6868C72.2062 49.0716 72.2968 48.4271 72.554 47.833C72.5983 47.6703 72.6552 47.5097 72.7269 47.3512C72.9356 46.8799 73.2792 46.4278 73.6988 46.1211C73.7093 46.1148 73.7178 46.1107 73.7262 46.1042C73.7705 46.0579 73.8126 46.0112 73.8611 45.9691C73.9328 45.9034 74.0087 45.8423 74.0888 45.7853C73.8042 45.3159 73.547 44.8342 73.3277 44.3204C73.0895 43.7624 72.9672 43.1962 72.8998 42.5979C72.8724 42.3612 72.8618 42.1266 72.8576 41.8922C72.845 41.7842 72.8365 41.6743 72.8281 41.5644C72.7754 40.7274 72.8724 39.859 73.1844 39.0768C73.2076 39.0178 73.2371 38.9584 73.2645 38.8972C73.3235 38.7196 73.3889 38.5423 73.469 38.3688C73.781 37.703 74.2237 37.1387 74.7698 36.6759C75.0649 36.3779 75.3959 36.1137 75.7564 35.8896C75.9693 35.7565 76.2118 35.6381 76.4669 35.5409C76.9222 35.3 77.5062 35.0802 77.9806 35.0635C78.0375 35.0611 78.0881 35.0677 78.1429 35.0677C78.1872 33.8543 78.3432 32.5334 78.8218 31.4344C79.1 30.6378 79.5175 29.9298 80.1457 29.4202C80.5101 29.039 80.9591 28.7293 81.5193 28.527L81.6194 28.4924L81.6573 28.4818C82.1612 28.2366 82.7051 28.1394 83.2638 28.1417C83.9152 28.1077 84.5793 28.2305 85.1464 28.5304C85.2645 28.5938 85.391 28.672 85.5111 28.7566C85.6018 28.5748 85.703 28.3909 85.8189 28.2073C86.2258 27.554 86.717 26.9854 87.2863 26.4676C87.3537 26.4064 87.4275 26.3514 87.4992 26.2924C87.7754 26.0409 88.0684 25.8084 88.372 25.5971C89.0276 25.1404 89.7465 24.8003 90.5013 24.5803C91.3727 24.2575 92.292 24.1076 93.2118 24.1392L93.4022 24.1472C93.4444 24.1512 93.4865 24.1534 93.5266 24.1555C94.4394 24.2149 95.3396 24.4389 96.1998 24.7768C97.0916 25.13 97.8463 25.6645 98.5484 26.2774C98.7128 26.0494 98.9004 25.8336 99.1302 25.6307C99.1956 25.5738 99.2652 25.5229 99.3305 25.4701C99.3811 25.4193 99.4338 25.3707 99.4886 25.3221C99.7395 25.1002 100.005 24.9079 100.296 24.7367C100.623 24.5446 100.975 24.4114 101.34 24.329C101.711 24.202 102.101 24.1238 102.497 24.0984ZM98.1647 111.228C98.202 111.226 100.155 111.96 101.127 112.434L101.175 112.458C102.297 113.016 102.836 113.417 103.844 114.134C103.912 114.182 103.981 114.256 103.981 114.328C103.981 115.372 103.728 116.648 102.853 116.082C102.727 116.001 102.599 115.921 102.471 115.842L102.278 115.725L102.271 115.727C102.274 115.727 102.276 115.725 102.278 115.723C100.372 114.558 98.3586 113.645 96.2336 112.992C96.0881 112.94 97.1654 111.308 97.4626 111.399C97.2919 111.331 98.1363 111.229 98.1647 111.228ZM118.189 65.1352C116.922 65.2711 115.655 65.4049 114.387 65.5357C113.58 65.6287 112.77 65.7112 111.961 65.7809C110.744 65.872 109.528 65.8866 108.316 65.7196C107.886 65.6606 107.464 65.5759 107.047 65.4723C106.762 65.6816 106.467 65.8781 106.165 66.0664L102.818 68.6341C100.572 70.4033 98.3755 72.2778 96.398 74.3469C92.9443 77.9619 90.1313 82.191 88.3627 86.8756C88.2023 86.9705 88.0783 87.1359 88.037 87.3898C87.7246 89.3099 86.8108 91.0611 86.4807 92.9734C86.1556 94.857 86.588 96.4582 87.7682 97.9512C88.0201 98.2701 88.5362 98.2532 88.8529 98.0378C88.9264 98.1828 89.2452 98.1767 89.3572 97.5363C89.8819 96.9667 90.3307 96.3696 90.6347 95.6303C90.8586 95.0859 90.4823 94.7084 90.0257 94.6342C90.2154 93.9495 90.4294 93.2708 90.6699 92.5993C91.3825 90.604 92.2891 88.6978 93.4296 86.9098C94.4331 85.3371 95.5947 83.9676 96.8428 82.5938C96.8576 82.5748 96.8829 82.5687 96.9103 82.5644L97.1696 82.2768C97.2054 82.2366 97.2792 82.2409 97.3614 82.262C97.4394 82.1796 97.5153 82.095 97.5954 82.0126C97.6734 81.9281 97.7599 81.9534 97.8084 82.0211C97.9412 81.9915 98.1836 82.1352 98.2574 82.1819C98.3839 82.2662 98.424 82.3613 98.3165 82.4818C98.2975 82.5031 98.2785 82.5243 98.2595 82.5431C98.405 82.6046 98.5484 82.6868 98.6601 82.7673C99.0501 82.8538 99.5983 83.2173 99.5034 83.3253C99.3031 83.5343 99.1091 83.748 98.9173 83.9655C99.086 84.084 99.1956 84.2001 99.1513 84.251C98.3291 85.1195 97.5701 86.039 96.8744 87.0132C96.3453 87.7402 95.8667 88.4968 95.4387 89.2852C94.8021 90.4011 94.2623 91.5487 93.7838 92.7281C93.7163 92.9079 93.651 93.0874 93.5877 93.267C92.8878 95.2304 92.365 97.2679 92.1436 99.3433L92.1343 99.4833C92.0931 100.231 92.077 102.233 92.0002 102.71C92.4661 102.941 92.951 103.137 93.4549 103.298C93.5498 103.325 93.6467 103.351 93.7437 103.374C93.7985 103.351 93.8555 103.332 93.9124 103.315C94.3762 103.126 94.8611 102.991 95.3565 102.926C95.6904 102.882 96.0227 102.866 96.3548 102.876L96.4971 102.881C96.6446 102.886 96.7901 102.896 96.9377 102.911C96.9292 102.826 96.925 102.744 96.9187 102.659C96.8765 102.632 96.8449 102.594 96.8428 102.543C96.7437 101.592 96.7416 100.641 96.8365 99.6899C96.8997 99.1933 96.9735 98.6987 97.0536 98.2044C97.1359 97.7984 97.2307 97.3991 97.334 96.9995C97.6081 95.8795 97.9728 94.7866 98.4155 93.7174C99.6763 90.6674 101.483 87.9177 103.3 85.1829C104.626 83.1858 105.881 81.144 107.253 79.1805C108.421 77.5087 109.648 75.8623 110.957 74.2983C112.264 72.7367 113.645 71.2337 115.136 69.8433C115.376 69.6211 115.619 69.4056 115.865 69.1923C117.278 67.9242 118.813 66.882 120.411 65.8593C120.472 65.8192 120.581 65.8635 120.672 65.9394L120.93 65.7805C120.973 65.7541 121.016 65.7281 121.06 65.7027C121.1 65.6776 121.144 65.7196 121.167 65.7555C121.277 65.6985 121.387 65.6437 121.496 65.5886C121.576 65.5239 121.659 65.4626 121.739 65.3988C120.554 65.339 119.371 65.2502 118.189 65.1352ZM133.051 51.0456C132.094 50.8534 131.133 50.8258 130.167 50.9695C129.763 51.0289 129.36 51.1003 128.961 51.1867C129.868 51.9793 130.597 52.9936 131.07 54.1609C131.582 55.4226 129.541 55.9664 129.037 54.7228C128.551 53.5232 127.63 52.603 126.518 52.0514C126.278 52.186 126.045 52.3318 125.822 52.4933C125.531 52.73 125.257 52.9858 125 53.2669C124.439 53.8779 123.925 54.6935 123.588 55.5008C123.457 55.9404 123.36 56.3927 123.299 56.8577C123.286 56.9634 123.274 57.0712 123.263 57.179C123.055 59.3662 123.679 61.4943 124.752 63.3774L124.794 63.3781C125.752 62.8573 126.755 62.4185 127.787 62.0611C128.614 61.5034 129.472 60.9875 130.355 60.5204C132.233 59.5272 134.216 58.7616 136.26 58.238L136.496 58.1786C136.978 58.0553 137.463 57.9467 137.951 57.8517L138.244 57.7963H138.248L138.217 57.4812C138.052 56.2448 137.569 55.0971 136.945 54.0364C136.477 53.2354 135.771 52.4153 134.987 51.7601L134.983 51.7578C134.627 51.5549 134.252 51.3871 133.867 51.2484L133.722 51.1977L133.051 51.0456ZM107.352 49.1669C105.362 48.9786 103.372 48.9976 101.382 49.1603C100.081 49.2895 98.7887 49.4689 97.5027 49.6971C96.632 49.8472 95.7782 50.0586 94.9391 50.3208L95.419 51.2938C96.2211 52.9143 97.0427 54.524 98.0108 56.0546C98.5104 56.8429 99.0522 57.5934 99.6425 58.3139C100.041 58.8296 100.479 59.3075 100.96 59.7469C101.087 59.9014 101.222 60.0472 101.359 60.1886C101.797 60.5648 102.269 60.8945 102.786 61.1671C103.2 61.4696 103.632 61.7338 104.083 61.9654L104.253 62.0508L105.834 62.6593C105.919 62.6832 106.004 62.7072 106.09 62.7299L106.218 62.763L106.458 62.8135L106.639 62.7154C106.669 62.6992 106.699 62.6832 106.73 62.6677C106.781 62.6405 106.817 62.6933 106.827 62.7311C106.832 62.7461 106.825 62.7671 106.815 62.7882L107.045 62.6633C107.441 62.8245 107.862 62.9535 108.313 63.0384C108.517 63.0767 108.721 63.1061 108.926 63.1312L108.953 63.1496C108.958 63.1528 108.962 63.1563 108.967 63.1604H109.191C110.767 63.3128 112.366 63.1113 113.939 62.8279C116.166 62.6035 118.392 62.356 120.617 62.1245C120.659 62.1205 120.676 62.1393 120.676 62.1691L120.813 62.1565C121.011 62.1351 121.243 62.4669 121.094 62.5876C121.214 62.6593 121.33 62.763 121.416 62.8433L121.467 62.8389C121.161 62.2387 120.925 61.611 120.756 60.9581L120.541 59.8631C120.482 59.4552 120.449 59.02 120.442 58.5908C120.427 58.3942 120.417 58.2106 120.417 58.0497C120.417 57.8975 120.419 57.7454 120.425 57.5934C120.006 57.4199 119.58 57.2679 119.146 57.1388C117.912 56.9868 116.681 56.8344 115.448 56.6844C114.708 56.7119 113.968 56.7647 113.23 56.8471C112.393 56.9211 111.558 57.0162 110.725 57.1303C110.647 57.1388 110.508 57.0331 110.424 56.9105L110.068 56.9594C109.882 56.9826 109.688 56.6104 109.933 56.5343C110.021 56.4991 110.11 56.4658 110.198 56.4337L110.331 56.3864L110.255 56.3948C110.23 56.3972 110.198 56.3906 110.163 56.3781C109.966 56.4033 109.77 56.4287 109.576 56.4519C109.33 56.4827 109.386 56.1576 109.559 56.081L109.642 56.0503C109.496 55.9592 109.368 55.71 109.548 55.6285L109.572 55.6192C109.657 55.5856 109.739 55.5579 109.823 55.5262C109.817 55.4989 109.817 55.4734 109.825 55.4503L109.477 55.4945C109.446 55.4987 109.597 55.2761 109.669 55.2321L109.682 55.2261L109.848 55.1754C109.874 55.1035 110.009 54.945 110.055 54.9304C110.666 54.7379 111.236 54.5648 111.83 54.4314C111.86 54.3955 111.893 54.368 111.931 54.3595C112.302 54.2708 112.678 54.201 113.053 54.1421C113.078 54.1038 113.104 54.0765 113.133 54.0742C114.063 53.9559 114.995 53.9284 115.931 53.992C116.11 54.0087 116.289 54.0279 116.468 54.051C116.812 54.0892 117.155 54.1378 117.497 54.2034C118.353 54.3505 119.188 54.5743 120.002 54.8761L120.189 54.9471C120.394 55.0234 120.596 55.1035 120.796 55.1904C120.898 54.8289 121.024 54.4737 121.174 54.1252C121.197 54.0573 121.222 53.992 121.25 53.9265L121.045 53.8037C121.001 53.8882 120.91 53.9537 120.851 53.918C119.386 52.9268 117.836 52.1002 116.203 51.4408C115.288 51.035 114.352 50.6907 113.392 50.4031C112.914 50.249 112.431 50.1095 111.946 49.9763C111.704 49.9254 111.461 49.8747 111.215 49.8324C109.947 49.49 108.659 49.2683 107.352 49.1669ZM155.633 52.5216C155.455 52.8298 155.27 53.135 155.074 53.4359C154.121 54.8983 152.978 56.2706 151.682 57.467C152.02 57.4662 152.357 57.4791 152.69 57.5103C153.264 57.5647 153.827 57.6602 154.375 57.794C154.419 57.7583 154.469 57.7403 154.509 57.7686L154.652 57.8677C155.828 58.1858 156.931 58.6859 157.931 59.3559L157.913 59.2236C157.91 59.2015 157.907 59.1795 157.903 59.1574C157.92 58.8974 157.924 58.6373 157.916 58.3794C157.709 56.8556 157.193 55.4522 156.602 54.0322C156.591 54.0047 156.599 53.969 156.616 53.9326C156.318 53.4448 155.992 52.9731 155.633 52.5216ZM155.905 40.5415C155.464 40.6218 155.028 40.7253 154.593 40.8543C153.777 40.977 152.987 41.1926 152.224 41.4989C151.172 41.873 150.151 42.3083 149.135 42.7693C147.162 43.6652 145.311 44.7983 143.626 46.1636C143.519 46.2458 143.415 46.3306 143.312 46.4151C142.935 46.7425 142.568 47.0849 142.22 47.4463C141.855 47.8436 141.489 48.2412 141.124 48.6404C140.677 49.1098 140.162 49.5344 139.758 50.0417C139.675 50.1452 139.604 50.2593 139.538 50.3737L139.777 50.4559C139.977 50.5235 139.943 50.8997 139.745 50.8448C139.678 50.8258 139.614 50.8025 139.551 50.7774C139.579 50.8133 139.597 50.8492 139.602 50.8807C139.614 50.9822 139.536 51.1219 139.412 51.0859C139.355 51.0709 139.298 51.0498 139.241 51.0265C139.224 51.0921 139.212 51.1576 139.212 51.221C139.222 51.2252 139.233 51.2294 139.245 51.2318C139.385 51.2804 139.646 51.4979 139.684 51.646C139.713 51.7601 139.616 51.8825 139.492 51.8487C139.399 51.8233 139.309 51.7853 139.22 51.743C139.279 51.8003 139.326 51.8616 139.33 51.9144C139.338 52.0116 139.254 52.1488 139.138 52.1173C138.923 52.0579 138.75 51.9673 138.607 51.8531C138.569 51.9036 138.514 51.9438 138.47 51.9313L138.387 51.906C138.41 51.927 138.43 51.9491 138.45 51.9708L138.48 52.003C139.062 52.6328 139.57 53.3303 139.977 54.0808C139.996 54.0594 140.019 54.0404 140.049 54.0171C140.238 53.8565 140.434 53.7001 140.631 53.5482L140.69 53.4962L140.751 53.4444L140.31 53.5902L140.32 53.5788C140.351 53.5388 140.448 53.4056 140.493 53.3612L140.504 53.3514C141.109 52.8084 141.769 52.3475 142.482 51.9715C142.943 51.6712 143.428 51.4175 143.936 51.2083C145.148 50.644 146.384 50.2152 147.653 49.8178C147.843 49.7565 148.032 49.691 148.222 49.6316C148.277 49.6126 148.288 49.6359 148.279 49.6739L148.378 49.6443C148.555 49.5872 148.857 49.9 148.737 50.0459C148.809 50.1051 148.88 50.171 148.943 50.2329L148.987 50.2784L149.038 50.2636C149.189 50.217 149.443 50.4524 149.604 50.6191L149.723 50.7454C149.814 50.8427 149.991 51.0435 149.774 51.1219L149.502 51.2146C149.51 51.2696 149.487 51.3161 149.403 51.3478C149.308 51.3795 149.215 51.4133 149.122 51.4473C149.179 51.4965 149.234 51.5477 149.288 51.5995L149.369 51.6775C149.465 51.7752 149.691 51.9905 149.491 52.0856L149.466 52.096L149.207 52.189C149.24 52.2651 149.232 52.3371 149.118 52.3792C147.604 52.8949 146.127 53.4996 144.683 54.1864C143.601 54.7865 142.458 55.2347 141.255 55.5283C141.155 55.5602 140.94 55.4102 140.852 55.2601L140.672 55.3131C140.642 55.3219 140.612 55.3303 140.582 55.3381L140.553 55.3446C140.778 55.947 140.945 56.5998 141.037 57.2318C141.048 57.2889 141.056 57.3482 141.063 57.4053C141.299 57.3861 141.533 57.3692 141.769 57.3567C143.403 57.2698 145.056 57.3227 146.694 57.5171C147.356 57.1219 147.992 56.6886 148.602 56.2196C148.787 56.0757 148.971 55.9278 149.152 55.7777C150.24 54.8308 151.224 53.768 152.097 52.6201C152.905 51.557 153.607 50.4157 154.197 49.2197C154.72 48.0972 155.152 46.9306 155.479 45.7259C155.778 44.6247 155.881 43.5532 155.957 42.414C155.983 42.228 155.999 42.0423 156.014 41.8561L156.012 41.7764L156.01 41.7377C155.989 41.3385 155.949 40.9388 155.905 40.5415ZM140.458 54.6956C140.409 54.7125 140.359 54.7294 140.308 54.7442C140.337 54.8097 140.365 54.8733 140.392 54.9386L140.395 54.9373L140.595 54.7801C140.553 54.7611 140.504 54.7317 140.458 54.6956ZM155.609 37.5446C155.989 37.403 156.276 37.3755 156.47 37.4643C156.183 37.4854 155.896 37.5129 155.609 37.5446Z" fill="black"/>
<path fill-rule="evenodd" clip-rule="evenodd" d="M143.152 128.274C141.732 127.695 140.465 126.728 139.538 125.493C139.216 125.063 139.133 124.61 139.2 124.195C139.276 123.729 139.552 123.306 139.928 123.023C140.305 122.739 140.777 122.598 141.233 122.67C141.63 122.732 142.024 122.949 142.337 123.399L142.402 123.489C142.953 124.235 143.67 124.846 144.488 125.241C145.276 125.621 146.158 125.798 147.07 125.695C148.808 125.499 150.005 124.559 151.278 123.282C151.436 123.121 151.594 122.955 151.752 122.786C151.852 122.633 151.991 122.534 152.146 122.483C152.317 122.425 152.511 122.429 152.689 122.491C152.86 122.55 153.013 122.664 153.116 122.815C153.213 122.958 153.269 123.135 153.251 123.339C153.134 124.661 152.443 125.842 151.461 126.769C150.37 127.799 148.924 128.511 147.563 128.761C146.064 129.036 144.536 128.839 143.152 128.274ZM148.271 107.866C149.866 108.836 152.297 111.098 150.581 113.503C148.56 115.624 145.652 113.193 144.219 112.093C142.89 111.241 141.396 113.433 142.629 114.428C152.987 122.099 157.19 108.12 149.078 106.726C148.184 106.572 147.853 107.566 148.271 107.866ZM129.711 98.9429C129.887 96.7541 133.219 96.257 133.551 98.423C133.847 100.363 133.498 102.145 132.624 103.892C131.79 105.561 129.692 104.783 129.533 103.263C129.32 101.226 129.601 100.304 129.711 98.9429ZM155.076 97.9739C155.541 97.3652 156.212 96.9497 157.015 97.1845C159.526 97.9185 158.786 101.485 157.904 103.22C157.425 104.163 155.876 104.402 155.176 103.572C154.036 102.219 153.489 99.5157 154.94 98.1825C154.979 98.1136 155.023 98.044 155.076 97.9739ZM132.589 89.3654L132.986 89.2959C134.213 89.0836 135.738 88.8796 136.606 89.8665C137.067 90.3898 137.225 91.3624 136.606 91.8633C135.518 92.7446 134.314 92.4031 133.01 92.4777C131.935 92.5394 130.902 92.7174 129.867 93.0135C127.595 93.663 125.744 94.8486 123.804 96.1505C123.55 96.3213 123.29 95.9956 123.411 95.7574C124.531 93.563 126.701 91.7604 128.875 90.6616C130.036 90.0751 131.305 89.5885 132.589 89.3654ZM152.787 88.3823L153.091 88.4445C156.395 89.1353 160.687 90.5153 162.251 93.7615C162.311 94.2205 162.248 94.3189 162.197 94.3832L162.18 94.4046C162.137 94.4595 162.104 94.5351 161.905 94.5976C161.85 94.5844 161.794 94.5705 161.737 94.5557C161.02 94.3677 160.453 94.1087 159.904 93.84L159.308 93.5465C158.617 93.2076 157.92 92.881 157.181 92.6399C155.605 92.1255 153.983 91.7631 152.337 91.5696C151.98 91.5277 151.636 91.4072 151.365 91.2006C151.108 91.0046 150.911 90.7332 150.821 90.3724C150.705 89.9056 150.739 89.5521 150.989 89.1309C151.177 88.8146 151.447 88.5953 151.756 88.4694C152.071 88.3411 152.43 88.3108 152.787 88.3823Z" fill="black"/>
<path fill-rule="evenodd" clip-rule="evenodd" d="M157 133.092C156.262 132.851 155.538 132.57 154.81 132.299C151.09 130.43 146.596 130.091 142.695 131.665C140.78 132.438 138.994 133.826 137.073 134.736C136.617 134.907 136.156 135.061 135.691 135.191C135.406 135.092 135.121 134.986 134.838 134.88C132.8 134.112 130.883 133.164 129.021 132.121C128.823 131.842 128.617 131.57 128.395 131.309C129.742 131.117 131.061 130.8 132.254 130.472C135.917 129.468 139.369 127.832 143.02 126.784C146.419 125.805 150.108 125.27 153.522 126.486C155.143 127.063 156.569 128.073 158.145 128.753C158.96 129.104 159.938 129.449 160.891 129.499C160.276 130.972 159.499 132.348 158.436 133.494C157.95 133.39 157.469 133.245 157 133.092ZM164.927 121.554C164.6 121.825 163.254 122.7 162.818 123.222C162.705 123.179 162.593 123.135 162.481 123.09C162.289 122.854 162.006 122.751 161.718 122.757C159.705 121.82 157.912 120.496 156.313 118.837C155.176 117.66 154.012 116.427 152.493 115.745C150.704 114.937 148.944 115.309 147.064 115.432C145.063 115.565 143.088 114.997 141.089 115.269C139.627 115.47 138.258 116.089 137.075 116.962C134.66 118.744 132.995 121.246 130.955 123.404C128.639 125.851 125.791 127.415 122.624 128.214C122.586 128.189 122.546 128.164 122.506 128.14C120.171 126.027 118.063 123.641 116.198 121.098C114.376 118.615 109.574 107.437 108.414 106.456C107.933 106.048 107.405 105.873 106.9 105.887C105.985 105.908 105.14 106.545 104.762 107.546C104.119 109.25 104.44 111.452 104.491 113.234C104.555 115.415 104.698 117.594 104.926 119.765C105.152 121.91 105.452 124.049 105.826 126.173C106.014 127.246 106.224 128.318 106.454 129.385C106.526 129.721 106.617 130.021 106.726 130.3C106.838 130.827 106.959 131.351 107.088 131.871C107.929 135.276 109.255 138.685 111.788 141.198C114.425 143.816 118.008 145.556 121.336 147.111C124.505 148.593 127.826 149.909 131.233 150.941C134.193 152.283 137.362 153.344 140.544 153.902C144.047 154.517 147.729 154.555 151.112 153.338C152.774 152.739 154.346 151.905 155.772 150.865C157.794 149.814 159.613 148.371 161.102 146.46C163.77 143.036 165.043 138.881 165.601 134.596C165.743 133.499 166.279 129.296 166.322 128.642C166.458 126.528 166.594 124.415 166.73 122.302C166.794 121.304 165.571 121.02 164.927 121.554Z" fill="black"/>
</svg>
