<svg width="240" height="243" viewBox="0 0 240 243" fill="none" xmlns="http://www.w3.org/2000/svg">
<path fill-rule="evenodd" clip-rule="evenodd" d="M51.5018 284.886C64.4381 285.249 76.6584 285.648 89.5698 284.886C110.231 283.608 170.864 285.912 184.192 284.886C185.198 284.809 188.657 285.912 188.729 284.886C189.315 277.741 189.695 205.452 187.954 200.478C186.213 195.503 177.622 171.593 166.674 160.443C163.621 157.431 158.976 156.264 156.41 152.783C154.197 148.987 154.369 146.76 152.184 144.763C151.236 143.896 149 143.545 147.338 142.342C145.668 140.681 147.25 137.024 146.564 134.711C145.15 128.936 139.943 125.231 134.252 124.358C126.342 122.464 117.991 124.255 114.202 130.47C112.791 132.784 113.542 135.597 111.807 139.304C111.931 142.106 108.661 142.783 106.707 143.893L102.826 147.817C90.8678 154.548 76.8009 158.183 66.3235 167.225C57.4156 176.266 48.5554 186.714 44.603 198.945C43.7848 202.278 43.5178 205.723 43.1787 209.128C42.2106 219.08 39.5151 228.739 37.1954 238.433C34.5503 250.647 32.0847 263.612 35.6496 275.942C36.6774 278.551 49.162 284.764 51.5018 284.886Z" fill="#D08B5B"/>
<path fill-rule="evenodd" clip-rule="evenodd" d="M111.754 139.278L112.764 139.386V147.168L125.975 160.916L128.389 163.677C126.95 168.81 128.399 171.377 132.737 171.377C139.243 171.377 134.213 169.486 135.436 166.926L135.488 166.821C136.375 165.069 139.41 161.351 144.594 155.67L150.54 145.727V143.911L150.741 143.994C151.303 144.228 151.787 144.466 152.116 144.767C154.301 146.764 154.129 148.992 156.342 152.788C158.908 156.269 163.553 157.436 166.606 160.448C177.553 171.597 186.145 195.508 187.886 200.482C189.627 205.456 189.247 277.746 188.661 284.891C188.589 285.917 185.13 284.814 184.124 284.891C170.796 285.917 110.163 283.613 89.5017 284.891C76.5903 285.653 64.37 285.253 51.4337 284.891C49.0939 284.769 36.6093 278.556 35.5815 275.946C32.0165 263.617 34.4822 250.652 37.1273 238.438L37.3566 237.485C39.5835 228.269 42.0878 219.075 43.0616 209.622L43.1106 209.133C43.4496 205.727 43.7167 202.283 44.5349 198.95C48.4873 186.719 57.3475 176.27 66.2554 167.23C76.628 158.278 90.5187 154.626 102.398 148.023L102.757 147.822L106.639 143.898L106.758 143.832C108.723 142.76 111.86 142.055 111.739 139.309L111.754 139.278Z" fill="#FDEA6B"/>
<path fill-rule="evenodd" clip-rule="evenodd" d="M113.516 131.465C113.62 131.127 114.066 131.222 114.1 131.544C114.435 134.731 114.013 138.062 113.607 141.228C113.413 142.756 113.301 144.345 113.005 145.852C112.967 146.013 112.931 146.175 112.897 146.336C112.994 146.509 113.282 146.704 113.419 146.837L114.015 147.417L115.211 148.574C117.55 150.84 119.888 153.108 122.227 155.373L125.66 158.702C126.837 159.843 128.174 160.936 129.207 162.208C129.767 162.899 129.894 163.747 129.342 164.487C129.07 164.852 128.58 165.119 128.083 165.174C128.277 165.444 128.427 165.751 128.523 166.091C128.717 166.784 128.016 167.636 127.27 167.346C126.423 167.021 125.723 166.437 124.861 166.158C123.991 165.875 123.045 165.82 122.142 165.972C121.728 166.042 121.323 166.146 120.927 166.277C125.155 168.224 129.729 169.342 134.394 169.502C135.344 169.534 136.293 169.521 137.237 169.458C138.826 169.354 140.404 169.113 141.955 168.724C143.174 168.418 144.381 168.033 145.551 167.568C146.126 167.34 146.694 167.089 147.243 166.803L147.291 166.775C147.416 166.697 149.711 165.395 149.751 165.199C149.791 165.003 149.791 164.935 149.716 164.765C149.642 164.594 149.434 164.477 149.434 164.477C148.725 164.174 147.99 163.892 147.216 163.886C145.432 163.876 143.487 165.195 142.012 166.093C140.392 167.08 138.902 168.234 137.343 169.304C137.307 169.329 137.267 169.339 137.229 169.339C137.064 169.339 136.912 169.136 137.018 168.978C138.135 167.332 139.643 165.961 141.221 164.765L141.857 164.288C143.302 163.21 144.992 162.016 146.749 161.756C148.901 161.439 151.15 162.781 153.07 163.567L156.471 164.96C157.077 165.207 157.737 165.419 158.347 165.7L156.922 161.238C156.21 159.007 155.499 156.776 154.796 154.543L154.66 154.105C153.959 151.839 153.316 149.481 152.149 147.41C151.87 146.913 151.551 146.446 151.236 145.974C150.908 145.486 150.786 144.948 150.374 144.512C149.559 143.647 148.39 143.14 147.275 142.809C147.002 142.728 147.083 142.369 147.338 142.342C148.483 142.221 149.575 142.488 150.609 142.971L151.039 143.176C152.017 143.639 152.971 144.07 153.697 144.901C155.353 146.799 156.214 149.188 157.004 151.547L157.215 152.18C157.511 152.083 159.52 152.696 159.771 152.841C167.303 156.026 173.104 161.957 177.347 168.906C181.995 176.521 184.525 185.222 186.615 193.833C187.26 196.49 187.876 199.156 188.469 201.827C185.829 202.843 183.024 203.375 180.553 204.806C179.612 205.351 180.462 206.813 181.406 206.266C183.72 204.926 186.356 204.43 188.834 203.489C190.177 209.674 191.371 215.892 192.372 222.137C195.446 241.302 197.387 260.78 197.265 280.207C197.263 280.637 197.136 281.116 196.901 281.528C197.039 281.461 197.147 281.38 197.208 281.283C197.987 280.059 199.942 281.194 199.158 282.425L199.043 282.603C198.455 283.51 197.906 284.203 196.872 284.715C195.83 285.231 194.702 285.318 193.553 285.347C189.647 285.45 185.738 285.517 181.827 285.566C181.291 281.381 181.073 277.157 180.334 272.997C180.144 271.928 178.515 272.381 178.705 273.447C179.418 277.464 179.646 281.542 180.144 285.586C171.784 285.676 163.42 285.677 155.066 285.7C143.746 285.734 132.426 285.71 121.106 285.704L116.254 285.702C103.177 285.702 90.0993 285.66 77.0221 285.573L73.912 285.551C72.6748 278.255 71.8327 270.897 71.8171 263.483C71.8147 262.395 70.1246 262.393 70.1269 263.483C70.1426 270.889 70.9754 278.248 72.2011 285.542C69.1048 285.528 66.0099 285.54 62.9134 285.65L61.3373 285.706C58.184 285.814 55.0242 285.88 51.8768 285.629C48.3824 285.348 44.8481 284.705 41.715 283.059C40.304 282.316 39.0615 281.366 37.9997 280.25C39.079 279.621 40.1738 279.019 41.2194 278.334C42.1259 277.741 41.2802 276.277 40.3663 276.875C39.2396 277.612 38.0552 278.255 36.8952 278.937C36.0552 277.815 35.3658 276.571 34.8423 275.228C34.0162 273.108 33.6972 270.828 33.4204 268.583C33.0932 265.939 32.9578 263.274 32.9578 260.611C32.9578 255.01 33.5472 249.426 34.3692 243.893C35.1553 238.592 36.1945 233.334 37.2928 228.093L37.443 227.378C38.5268 222.225 39.5599 217.058 40.8021 211.941C41.9508 207.21 43.2782 202.5 44.8602 197.882C46.2683 198.753 47.7418 199.515 49.128 200.422C50.0409 201.02 50.8887 199.557 49.9811 198.963C48.5022 197.994 46.9249 197.19 45.4325 196.244C47.2014 191.299 49.2778 186.469 51.7671 181.843C56.7528 172.579 63.4714 164.292 72.0763 158.176C76.3838 155.115 81.1099 152.611 86.0728 150.789C91.1326 148.929 96.3761 147.91 101.738 147.492C101.891 147.48 101.977 147.622 101.971 147.753L101.969 147.777L102.18 147.811C102.258 147.281 102.419 146.767 102.725 146.296C103.422 145.222 104.744 144.533 105.801 143.874L106.051 143.718C107.308 142.939 108.634 142.171 110.096 141.898C110.147 141.889 110.178 141.942 110.144 141.982C109.18 143.088 107.948 143.933 106.818 144.868L106.559 145.084C105.622 145.855 104.317 146.73 104.282 148.018C104.242 149.536 104.552 151.115 104.664 152.628C104.776 154.137 104.854 155.644 104.894 157.157C105.04 162.578 104.865 168.002 104.385 173.402L106.506 171.981C109.807 169.771 113.119 167.566 116.499 165.497C118.545 164.244 120.843 163.172 123.294 163.221C123.98 163.233 124.756 163.333 125.5 163.544C124.699 162.785 123.932 161.978 123.148 161.215C121.857 159.957 120.566 158.7 119.276 157.445L115.554 153.818L111.83 150.191C110.677 149.064 109.325 148.027 109.447 146.252C109.547 144.835 110.267 143.426 110.759 142.06C110.829 141.864 110.892 141.669 110.951 141.477C111.945 138.176 112.508 134.754 113.516 131.465ZM161.62 273.111C160.85 272.341 159.655 273.536 160.425 274.307L160.832 274.712C161.513 275.391 162.187 276.091 162.658 276.93L162.727 277.057C163.234 278.02 164.693 277.167 164.186 276.204C163.559 275.014 162.561 274.053 161.62 273.111ZM128.634 272.894C126.183 272.426 123.821 272.426 121.37 272.894C120.303 273.098 120.755 274.728 121.82 274.524C123.963 274.115 126.041 274.115 128.185 274.524C129.248 274.727 129.703 273.098 128.634 272.894ZM95.5346 255.85C94.48 255.583 94.03 257.213 95.0854 257.481L95.6051 257.611C97.3716 258.048 99.054 258.373 100.889 257.968C101.937 257.736 101.513 256.145 100.481 256.329L100.44 256.337C98.7416 256.713 97.1774 256.267 95.5346 255.85ZM154.319 244.868C153.538 244.109 152.342 245.303 153.124 246.063C154.099 247.012 155.249 247.733 156.642 247.772C157.713 247.802 157.729 246.161 156.69 246.084L156.642 246.081C155.708 246.055 154.964 245.496 154.319 244.868ZM54.8487 240.352C55.8218 239.866 54.9668 238.407 53.9958 238.893L48.1547 241.814C47.1816 242.301 48.0366 243.76 49.0076 243.274L54.8487 240.352ZM170.271 240.725C169.183 240.694 169.184 242.385 170.271 242.416C171.293 242.444 172.341 242.832 173.252 243.274C174.226 243.747 175.084 242.29 174.105 241.814C172.914 241.236 171.607 240.762 170.271 240.725ZM115.694 232.561C116.588 231.953 115.744 230.487 114.841 231.101C113.609 231.939 112.492 232.928 111.28 233.791L110.947 234.023C110.052 234.631 110.897 236.097 111.8 235.483C113.144 234.569 114.35 233.475 115.694 232.561ZM178.546 220.273C177.458 220.272 177.457 221.963 178.546 221.964L178.752 221.963C179.65 221.958 180.596 221.933 181.431 222.292L181.527 222.335C182.505 222.796 183.364 221.339 182.38 220.875C181.156 220.299 179.876 220.273 178.546 220.273ZM84.6839 219.065L84.8259 219.012C85.8421 218.647 85.4039 217.012 84.3765 217.381C82.8283 217.938 81.6239 218.989 80.2809 219.901C79.3859 220.509 80.2306 221.975 81.1338 221.361C82.2909 220.575 83.3676 219.58 84.6839 219.065ZM148.079 214.666L148.307 214.544C149.274 214.046 148.42 212.587 147.454 213.084C146.687 213.479 146 214.004 145.248 214.423L145.02 214.545C144.052 215.043 144.906 216.502 145.873 216.005C146.64 215.61 147.326 215.085 148.079 214.666ZM122.367 198.289L122.193 198.121C121.415 197.359 120.219 198.554 120.997 199.317C122.942 201.221 125.242 202.667 127.561 204.064L127.983 204.318C128.918 204.879 129.769 203.418 128.836 202.858L128.217 202.486C126.155 201.242 124.117 199.957 122.367 198.289ZM75.5958 196.711C76.2512 195.859 74.8259 195.026 74.1598 195.828L74.1364 195.857C73.4541 196.743 72.6447 197.545 71.7986 198.277L71.6396 198.414C71.1359 198.842 70.2192 199.761 69.5117 199.821C68.4359 199.913 68.4262 201.604 69.5117 201.512C70.6065 201.419 71.5485 200.648 72.3757 199.987C73.5795 199.026 74.6563 197.93 75.5958 196.711ZM165.514 190.551C166.299 189.813 165.139 188.638 164.347 189.331L164.319 189.356C162.851 190.735 160.74 191.105 158.851 191.573C157.796 191.835 158.243 193.465 159.3 193.203L160.161 192.991C162.092 192.509 164.029 191.947 165.514 190.551ZM132.042 179.886C130.987 179.618 130.537 181.248 131.592 181.517C133.385 181.972 135.083 182.561 136.745 183.379C137.717 183.858 138.575 182.4 137.598 181.919C135.81 181.039 133.972 180.377 132.042 179.886ZM149.307 144.244C149.282 144.168 149.362 144.081 149.44 144.108C151.337 144.816 150.329 147.301 149.739 148.788L149.632 149.06C148.709 151.444 147.419 153.765 146.011 155.9C144.539 158.134 142.904 160.272 141.133 162.28C140.365 163.152 139.569 163.999 138.745 164.82L138.435 165.127C137.603 165.945 136.53 167.382 135.239 167.224C133.849 167.057 133.073 165.571 134.087 164.442C134.804 163.644 135.797 163.007 136.597 162.28C137.392 161.562 138.161 160.82 138.911 160.057C140.445 158.491 141.898 156.836 143.227 155.092C144.512 153.406 145.742 151.673 146.86 149.872L147.083 149.511C147.934 148.109 149.899 146.049 149.307 144.244ZM82.1073 161.954C81.2068 161.339 80.3605 162.803 81.2542 163.414C82.8974 164.538 84.3431 165.899 86.1218 166.823C87.0741 167.318 87.921 165.9 87.0086 165.381L86.9749 165.363C85.1975 164.439 83.7497 163.077 82.1073 161.954Z" fill="black"/>
<path fill-rule="evenodd" clip-rule="evenodd" d="M119.785 55.5157C151.739 53.9404 166.159 76.4952 167.092 86.5694C167.739 93.5625 163.618 101.623 163.618 107.872C163.618 111.061 167.513 117.909 165.7 122.558C161.663 132.906 153.116 144.389 142.225 144.389C131.334 144.389 117.16 147.409 105.126 130.135C103.997 128.514 89.7149 119.302 88.3274 110.549C84.8712 88.7449 96.9844 56.6398 119.785 55.5157Z" fill="#D08B5B"/>
<path fill-rule="evenodd" clip-rule="evenodd" d="M118.279 41.479C119.422 40.1686 121.351 39.6444 123.065 39.7459C125.554 39.8938 127.72 41.4346 130.197 41.5487C132.794 41.6692 135.301 40.7667 137.904 41.1852C139.5 41.443 141.081 42.1849 142.104 43.4361C145.646 42.4195 149.491 43.7658 151.747 46.7057C154.53 46.2724 157.557 48.1198 158.409 50.808C161.944 50.9221 165.282 53.769 165.676 57.3366C167.089 57.7107 168.315 58.6873 169.068 59.9785C169.943 61.4748 170.088 63.191 169.93 64.8776C171.594 65.7293 172.439 67.5596 172.66 69.4956C174.18 70.6326 174.84 72.6764 174.53 74.606C175.694 75.2633 176.295 76.7935 176.289 78.1588C176.282 79.4333 175.945 80.5621 176.42 81.7919C176.842 82.8873 176.994 83.8002 176.761 84.9476L176.738 85.0594C176.697 85.2464 176.662 85.4259 176.631 85.6028C176.946 85.8796 177.212 86.2267 177.412 86.6304C178.141 88.1056 178.032 89.7881 177.476 91.2843C177.72 92.2371 177.689 93.2435 177.329 94.1593C178.003 95.1326 178.357 96.3263 178.253 97.5648C178.136 98.9515 177.505 100.193 176.547 101.111C176.802 103.005 176.034 105.052 174.645 106.385C174.842 107.519 174.672 108.708 174.053 109.783C173.612 110.549 173.018 111.12 172.333 111.517C172.356 112.15 172.271 112.797 172.061 113.445C171.769 114.345 171.275 115.173 170.626 115.841C171.013 118.326 169.529 121.083 166.917 121.78C166.697 121.839 166.488 121.866 166.287 121.87C166.028 124.26 165.461 126.617 164.584 128.856C162.353 134.556 158.297 139.539 153.008 142.648C150.391 144.185 147.452 145.237 144.452 145.677C142.294 145.994 140.217 145.916 138.05 145.7C135.33 145.427 132.598 145.019 129.954 144.318L129.529 144.204C128.433 143.91 127.277 143.571 126.328 142.978C125.266 142.314 124.713 141.291 124.469 140.087C124.332 139.416 124.756 138.695 125.488 138.681L125.535 138.681C125.696 138.684 125.854 138.678 126.015 138.668L126.136 138.66H126.143C126.151 138.658 126.155 138.658 126.164 138.658C126.235 138.647 126.305 138.626 126.374 138.616C127.18 138.48 127.884 138.614 128.641 138.867L128.736 138.899C130.009 139.338 131.272 139.746 132.587 140.049C133.947 140.359 135.324 140.606 136.705 140.801L136.842 140.818L136.884 140.824L136.905 140.826C136.909 140.826 136.913 140.826 136.918 140.828L137.325 140.879C137.645 140.917 137.965 140.951 138.286 140.985C138.876 141.044 139.466 141.09 140.057 141.124C150.246 141.699 158.803 133.657 161.386 124.015C162.322 120.526 162.383 117.045 162.107 113.562C162.018 113.308 161.965 113.027 161.967 112.719C161.967 112.558 161.976 112.4 161.986 112.239C161.643 108.87 161.046 105.499 160.673 102.117C160.237 98.1673 159.994 94.1942 160.083 90.2185C160.127 88.255 160.336 86.3106 160.61 84.3664L160.709 83.6679C159.47 83.4254 158.319 82.8366 157.402 81.9842C155.412 83.1361 152.837 83.2382 150.873 82.0219C148.672 83.4056 145.597 83.5311 143.381 82.1783C142.041 83.137 140.353 83.5506 138.696 83.1866C137.951 83.023 137.21 82.669 136.575 82.1789C136.122 82.259 135.663 82.2901 135.207 82.2662L135.113 82.319C134.061 82.8749 132.895 83.2407 131.696 83.1999C130.808 83.1699 129.893 82.9943 129.046 82.662C128.142 83.2094 127.152 83.5831 126.093 83.7171C124.546 83.9126 122.876 83.5696 121.59 82.6899C119.239 84.0324 116.348 84.2391 113.81 83.3371C113.29 84.2195 112.571 84.9804 111.729 85.5668C111.88 86.1083 111.928 86.6857 111.876 87.241C111.791 88.1548 111.562 88.9742 111.189 89.7102C111.583 90.5319 111.701 91.5409 111.481 92.5537C111.166 93.998 110.328 95.2545 109.243 96.2331C109.147 98.5381 107.886 100.699 105.834 101.9C105.73 101.961 105.627 102.01 105.524 102.055C105.433 102.179 105.325 102.288 105.201 102.38C103.896 103.589 101.831 103.493 100.195 102.81C100.163 102.812 100.132 102.814 100.1 102.815C99.5157 102.83 99.1175 102.601 98.8811 102.265C98.6431 102.278 98.4068 102.303 98.1688 102.348C97.3 102.511 96.3471 102.823 95.5607 103.229C93.5199 104.282 92.5755 106.142 92.293 108.378C91.9854 110.817 92.6851 113.302 94.5679 114.953C95.4827 115.756 96.6528 116.259 97.8418 116.47C99.1552 116.705 100.559 116.128 101.529 117.259C101.723 117.483 101.856 117.795 101.75 118.098C101.422 119.04 100.88 119.402 100.032 119.533C101.257 120.989 102.514 122.397 103.905 123.705C105.41 125.123 106.966 126.497 108.324 128.061C109.76 129.716 111.056 131.47 111.956 133.478C112.471 134.632 112.884 135.822 113.329 137.003L113.408 137.209C113.905 138.464 114.565 139.674 113.801 140.985C113.497 141.5 112.81 141.999 112.178 141.917C110.396 141.689 109.8 140.482 109.251 138.909C108.838 137.722 108.522 136.5 108.077 135.323C107.994 135.105 107.903 134.889 107.808 134.675C106.781 134.962 105.652 134.734 104.735 134.147C103.756 134.582 102.671 134.799 101.623 134.78C100.219 134.756 98.9374 134.365 97.8353 133.66C97.7475 133.637 97.6594 133.614 97.5719 133.589C95.8953 134.233 93.9317 134.118 92.4135 133.075C91.4305 132.399 90.7584 131.497 90.3764 130.493C89.1062 130.469 87.8497 130.017 86.9396 129.114C86.1039 128.285 85.6154 127.214 85.4703 126.103C84.377 125.886 83.352 125.356 82.5481 124.463C81.8769 123.718 81.4689 122.768 81.3311 121.783C79.9995 121.402 78.7987 120.53 78.1428 119.315C77.5325 118.183 77.4443 116.956 77.7429 115.84L77.6655 115.728C76.2939 115.009 75.2472 113.831 75.1396 112.148C75.1093 111.669 75.1607 111.189 75.2904 110.736C75.2436 110.229 75.2735 109.722 75.4061 109.232C73.5614 107.433 72.8931 104.544 73.8945 102.156C72.092 100.211 71.6155 97.136 72.9374 94.8282C72.0309 93.729 71.5649 92.3277 71.6429 90.8314C71.7399 88.9632 72.5938 87.3314 73.6162 85.8203C72.8573 84.9791 72.4525 83.8061 72.4822 82.6733C72.5242 81.0311 73.3949 79.6171 74.485 78.4462C73.534 75.555 74.5966 72.4185 76.9304 70.5882C76.4581 69.8084 76.2831 68.8425 76.4373 67.8639C76.7069 66.1541 77.9866 64.9896 79.3675 64.0681C79.0786 63.1257 79.1545 62.1089 79.6141 61.1345C80.2276 59.8347 81.385 59.0105 82.593 58.313C82.9051 55.4302 86.118 52.968 88.8123 54.4559C88.144 52.3107 90.069 49.9943 92.2826 49.7491C93.366 46.4563 97.1039 44.3808 100.464 45.1987C102.183 42.8443 105.381 41.9378 108.096 42.9479C111.082 40.6547 114.786 40.3144 118.279 41.479ZM97.0133 106.133C99.1109 106.019 100.684 107.735 101.789 109.306C102.826 110.779 100.165 112.334 99.3892 110.711C99.1109 110.132 98.7947 109.519 98.371 109.012C98.2998 109.112 98.2369 109.215 98.1744 109.321L98.1116 109.428C98.0653 109.506 98.0168 109.587 97.9767 109.669C97.9809 109.684 97.9177 109.878 97.9156 109.887C97.7427 110.413 97.3653 110.751 96.8511 110.933C96.1868 111.165 95.5586 110.665 95.3457 110.077C95.0064 109.139 95.7947 108.321 96.6148 107.949C95.8095 107.818 95.0168 108.092 94.4349 108.714C94.355 108.8 94.2199 108.731 94.2159 108.623C94.1482 107.15 95.6851 106.205 97.0133 106.133Z" fill="black"/>
<path fill-rule="evenodd" clip-rule="evenodd" d="M143.152 128.274C141.732 127.695 140.465 126.728 139.538 125.493C139.216 125.063 139.133 124.61 139.2 124.195C139.276 123.729 139.552 123.306 139.928 123.023C140.305 122.739 140.777 122.598 141.233 122.67C141.63 122.732 142.024 122.949 142.337 123.399L142.402 123.489C142.953 124.235 143.67 124.846 144.488 125.241C145.276 125.621 146.158 125.798 147.07 125.695C148.808 125.499 150.005 124.559 151.278 123.282C151.436 123.121 151.594 122.955 151.752 122.786C151.852 122.633 151.991 122.534 152.146 122.483C152.317 122.425 152.511 122.429 152.689 122.491C152.86 122.55 153.013 122.664 153.116 122.815C153.213 122.958 153.269 123.135 153.251 123.339C153.134 124.661 152.443 125.842 151.461 126.769C150.37 127.799 148.924 128.511 147.563 128.761C146.064 129.036 144.536 128.839 143.152 128.274ZM148.271 107.866C149.866 108.836 152.297 111.098 150.581 113.503C148.56 115.624 145.652 113.193 144.219 112.093C142.89 111.241 141.396 113.433 142.629 114.428C152.987 122.099 157.19 108.12 149.078 106.726C148.184 106.572 147.853 107.566 148.271 107.866ZM129.711 98.9429C129.887 96.7541 133.219 96.257 133.551 98.423C133.847 100.363 133.498 102.145 132.624 103.892C131.79 105.561 129.692 104.783 129.533 103.263C129.32 101.226 129.601 100.304 129.711 98.9429ZM155.076 97.9739C155.541 97.3652 156.212 96.9497 157.015 97.1845C159.526 97.9185 158.786 101.485 157.904 103.22C157.425 104.163 155.876 104.402 155.176 103.572C154.036 102.219 153.489 99.5157 154.94 98.1825C154.979 98.1136 155.023 98.044 155.076 97.9739ZM132.589 89.3654L132.986 89.2959C134.213 89.0836 135.738 88.8796 136.606 89.8665C137.067 90.3898 137.225 91.3624 136.606 91.8633C135.518 92.7446 134.314 92.4031 133.01 92.4777C131.935 92.5394 130.902 92.7174 129.867 93.0135C127.595 93.663 125.744 94.8486 123.804 96.1505C123.55 96.3213 123.29 95.9956 123.411 95.7574C124.531 93.563 126.701 91.7604 128.875 90.6616C130.036 90.0751 131.305 89.5885 132.589 89.3654ZM152.787 88.3823L153.091 88.4445C156.395 89.1353 160.687 90.5153 162.251 93.7615C162.311 94.2205 162.248 94.3189 162.197 94.3832L162.18 94.4046C162.137 94.4595 162.104 94.5351 161.905 94.5976C161.85 94.5844 161.794 94.5705 161.737 94.5557C161.02 94.3677 160.453 94.1087 159.904 93.84L159.308 93.5465C158.617 93.2076 157.92 92.881 157.181 92.6399C155.605 92.1255 153.983 91.7631 152.337 91.5696C151.98 91.5277 151.636 91.4072 151.365 91.2006C151.108 91.0046 150.911 90.7332 150.821 90.3724C150.705 89.9056 150.739 89.5521 150.989 89.1309C151.177 88.8146 151.447 88.5953 151.756 88.4694C152.071 88.3411 152.43 88.3108 152.787 88.3823Z" fill="black"/>
<path fill-rule="evenodd" clip-rule="evenodd" d="M157 133.092C156.262 132.851 155.538 132.57 154.81 132.299C151.09 130.43 146.596 130.091 142.695 131.665C140.78 132.438 138.994 133.826 137.073 134.736C136.617 134.907 136.156 135.061 135.691 135.191C135.406 135.092 135.121 134.986 134.838 134.88C132.8 134.112 130.883 133.164 129.021 132.121C128.823 131.842 128.617 131.57 128.395 131.309C129.742 131.117 131.061 130.8 132.254 130.472C135.917 129.468 139.369 127.832 143.02 126.784C146.419 125.805 150.108 125.27 153.522 126.486C155.143 127.063 156.569 128.073 158.145 128.753C158.96 129.104 159.938 129.449 160.891 129.499C160.276 130.972 159.499 132.348 158.436 133.494C157.95 133.39 157.469 133.245 157 133.092ZM164.927 121.554C164.6 121.825 163.254 122.7 162.818 123.222C162.705 123.179 162.593 123.135 162.481 123.09C162.289 122.854 162.006 122.751 161.718 122.757C159.705 121.82 157.912 120.496 156.313 118.837C155.176 117.66 154.012 116.427 152.493 115.745C150.704 114.937 148.944 115.309 147.064 115.432C145.063 115.565 143.088 114.997 141.089 115.269C139.627 115.47 138.258 116.089 137.075 116.962C134.66 118.744 132.995 121.246 130.955 123.404C128.639 125.851 125.791 127.415 122.624 128.214C122.586 128.189 122.546 128.164 122.506 128.14C120.171 126.027 118.063 123.641 116.198 121.098C114.376 118.615 109.574 107.437 108.414 106.456C107.933 106.048 107.405 105.873 106.9 105.887C105.985 105.908 105.14 106.545 104.762 107.546C104.119 109.25 104.44 111.452 104.491 113.234C104.555 115.415 104.698 117.594 104.926 119.765C105.152 121.91 105.452 124.049 105.826 126.173C106.014 127.246 106.224 128.318 106.454 129.385C106.526 129.721 106.617 130.021 106.726 130.3C106.838 130.827 106.959 131.351 107.088 131.871C107.929 135.276 109.255 138.685 111.788 141.198C114.425 143.816 118.008 145.556 121.336 147.111C124.505 148.593 127.826 149.909 131.233 150.941C134.193 152.283 137.362 153.344 140.544 153.902C144.047 154.517 147.729 154.555 151.112 153.338C152.774 152.739 154.346 151.905 155.772 150.865C157.794 149.814 159.613 148.371 161.102 146.46C163.77 143.036 165.043 138.881 165.601 134.596C165.743 133.499 166.279 129.296 166.322 128.642C166.458 126.528 166.594 124.415 166.73 122.302C166.794 121.304 165.571 121.02 164.927 121.554Z" fill="black"/>
</svg>
