<svg width="240" height="257" viewBox="0 0 240 257" fill="none" xmlns="http://www.w3.org/2000/svg">
<path fill-rule="evenodd" clip-rule="evenodd" d="M154.008 150.111C150.095 147.262 148.155 142.597 146.695 141.803C145.621 141.219 145.64 137.188 143.487 135.761C140.598 133.846 131.39 132.422 128.04 132.156C124.825 131.901 119.232 132.437 116.216 133.615C111.185 135.579 109.178 139.326 106.963 144.153C106.963 144.153 156.697 152.069 154.008 150.111Z" fill="#D08B5B"/>
<path fill-rule="evenodd" clip-rule="evenodd" d="M81.0307 153.44H160.544L188.066 177.934L200.282 280.884L182.907 286.297L75.5502 288.092L42.0217 278.609L39.9297 206.947L81.0307 153.44Z" fill="#78E185"/>
<path fill-rule="evenodd" clip-rule="evenodd" d="M189.102 262.182C188.548 261.905 187.97 261.589 187.338 261.567C186.251 261.529 186.25 259.838 187.338 259.876C188.287 259.909 189.12 260.305 189.955 260.722C190.929 261.209 190.072 262.667 189.102 262.182ZM187.338 214.59C188.079 214.59 188.826 214.684 189.396 215.203C189.734 215.511 189.707 216.086 189.396 216.398C189.062 216.732 188.538 216.706 188.2 216.398C188.31 216.498 188.201 216.399 188.161 216.377C188.152 216.372 188.147 216.368 188.144 216.366C188.136 216.364 188.127 216.362 188.113 216.359C188.025 216.336 187.938 216.315 187.849 216.299C187.847 216.303 187.66 216.286 187.616 216.284C187.523 216.281 187.43 216.281 187.338 216.281C186.879 216.28 186.493 215.894 186.493 215.435C186.493 214.979 186.881 214.59 187.338 214.59ZM179.391 233.556C179.149 234.618 177.52 234.165 177.761 233.106C178.112 231.566 178.048 229.988 177.761 228.442C177.563 227.377 179.193 226.925 179.391 227.993C179.735 229.847 179.812 231.708 179.391 233.556ZM177.256 172.79C175.997 172.491 174.753 172.456 173.465 172.455C172.376 172.455 172.377 170.764 173.465 170.764C174.901 170.765 176.303 170.827 177.706 171.16C178.765 171.412 178.314 173.041 177.256 172.79ZM173.038 213.974C172.309 213.609 171.578 213.244 170.848 212.878C169.874 212.391 170.731 210.933 171.701 211.418L173.892 212.514C174.866 213.001 174.009 214.459 173.038 213.974ZM172.734 247.27C171.809 248.606 170.506 249.436 168.944 249.85C167.89 250.13 167.444 248.498 168.495 248.22C169.612 247.923 170.605 247.384 171.275 246.417C171.891 245.528 173.356 246.374 172.734 247.27ZM166.894 187.741C166.644 187.272 166.267 187.074 165.799 187.064C164.711 187.039 164.711 185.348 165.799 185.373C166.865 185.397 167.844 185.933 168.354 186.887C168.867 187.847 167.407 188.701 166.894 187.741ZM156.174 199.233C155.871 199.563 155.284 199.555 154.979 199.233C154.793 199.036 154.636 198.816 154.512 198.575C154.466 198.484 154.421 198.39 154.37 198.302C154.347 198.262 154.321 198.223 154.295 198.185C154.286 198.177 154.268 198.158 154.249 198.138C153.924 197.794 153.932 197.287 154.249 196.942C154.552 196.612 155.139 196.62 155.444 196.942C155.63 197.139 155.787 197.359 155.911 197.6C155.958 197.692 156.002 197.785 156.053 197.874C156.076 197.914 156.102 197.953 156.128 197.991C156.137 197.999 156.155 198.018 156.174 198.038C156.499 198.381 156.491 198.888 156.174 199.233ZM155.273 224.2C154.172 224.704 152.965 224.704 151.864 224.2C151.448 224.009 151.349 223.407 151.561 223.043C151.808 222.622 152.303 222.55 152.718 222.74C153.217 222.968 153.922 222.968 154.42 222.74C154.837 222.549 155.327 222.617 155.576 223.043C155.79 223.409 155.688 224.01 155.273 224.2ZM152.271 241.872C152.082 242.32 151.673 242.558 151.196 242.576C150.723 242.594 150.371 242.174 150.351 241.731C150.338 241.444 150.493 241.199 150.715 241.047C150.716 241.032 150.716 241.016 150.716 241C150.716 240.526 151.103 240.175 151.561 240.155C152.017 240.134 152.406 240.558 152.406 241C152.406 241.299 152.387 241.595 152.271 241.872ZM147.91 269.967C146.561 269.989 145.243 270.31 143.895 270.332C142.805 270.35 142.808 268.659 143.895 268.641C145.243 268.619 146.561 268.298 147.91 268.276C149 268.258 148.997 269.949 147.91 269.967ZM142.301 161.616C141.512 162.369 140.537 162.739 139.575 163.21C138.601 163.686 137.745 162.227 138.722 161.75C139.537 161.351 140.438 161.057 141.106 160.421C141.894 159.67 143.091 160.864 142.301 161.616ZM140.182 181.105C139.628 180.828 139.051 180.512 138.418 180.49C137.332 180.452 137.33 178.761 138.418 178.799C139.367 178.832 140.2 179.228 141.035 179.645C142.01 180.132 141.153 181.589 140.182 181.105ZM130.022 259.322C129.772 258.854 129.395 258.656 128.927 258.645C127.839 258.621 127.838 256.93 128.927 256.955C129.994 256.979 130.972 257.515 131.482 258.469C131.995 259.429 130.535 260.282 130.022 259.322ZM126.504 222.607C126.167 222.298 126.191 221.724 126.504 221.411C126.869 221.046 127.234 220.681 127.599 220.316C127.933 219.982 128.457 220.006 128.794 220.316C129.13 220.625 129.107 221.198 128.794 221.511C128.429 221.877 128.064 222.242 127.699 222.607C127.365 222.941 126.841 222.917 126.504 222.607ZM122.355 279.828C121.136 279.799 119.993 279.449 118.845 279.067C117.816 278.725 118.26 277.092 119.294 277.437C120.292 277.769 121.294 278.112 122.355 278.137C123.443 278.162 123.443 279.853 122.355 279.828ZM116.879 243.672C115.778 243.641 114.864 243.08 114.091 242.328C113.31 241.568 114.506 240.374 115.286 241.133C115.729 241.563 116.239 241.963 116.879 241.981C117.967 242.011 117.967 243.702 116.879 243.672ZM120.28 197.175C120.293 197.625 120.483 198.107 120.762 198.403C121.509 199.194 120.316 200.391 119.567 199.599C118.95 198.945 118.616 198.069 118.59 197.175C118.558 196.084 120.249 196.089 120.28 197.175ZM107.388 160.35C107.034 159.657 106.571 158.845 105.866 158.462C104.908 157.942 105.762 156.483 106.719 157.002C107.677 157.522 108.363 158.548 108.847 159.496C109.342 160.465 107.883 161.319 107.388 160.35ZM105.197 177.933C104.805 177.922 104.416 177.855 104.038 177.753C103.876 177.709 103.716 177.658 103.554 177.614C103.485 177.595 103.191 177.559 103.372 177.568C102.914 177.544 102.527 177.201 102.527 176.723C102.527 176.283 102.915 175.853 103.372 175.877C103.999 175.911 104.569 176.225 105.197 176.243C106.284 176.273 106.285 177.964 105.197 177.933ZM99.721 204.959H97.8957C96.8064 204.959 96.8083 203.268 97.8957 203.268H99.721C100.81 203.268 100.808 204.959 99.721 204.959ZM97.5919 279.712C97.0383 279.989 96.386 280.252 95.9376 280.676C95.1471 281.423 93.9505 280.229 94.7425 279.48C95.3136 278.94 96.0437 278.6 96.739 278.252C97.1486 278.047 97.6523 278.14 97.8952 278.556C98.1148 278.931 98 279.508 97.5919 279.712ZM93.5134 258.349C93.4426 258.329 93.3678 258.315 93.2962 258.306C93.0088 258.267 92.7082 258.28 92.4196 258.28C91.3303 258.28 91.332 256.589 92.4196 256.589C93.2767 256.59 94.1687 256.602 94.8426 257.202C95.1847 257.507 95.1515 258.089 94.8426 258.398C94.5067 258.734 93.9881 258.701 93.6475 258.398C93.6834 258.43 93.5603 258.362 93.5134 258.349ZM92.42 229.617C92.6655 229.111 92.6693 228.781 92.6698 228.218C92.6706 227.128 94.3607 227.13 94.3599 228.218C94.3595 229.035 94.238 229.731 93.8795 230.471C93.6794 230.883 93.0938 230.991 92.7234 230.774C92.3081 230.531 92.2212 230.028 92.42 229.617ZM87.5332 189.955C86.5529 190.289 85.6779 190.761 84.8146 191.331C83.9034 191.932 83.0577 190.468 83.9615 189.871C84.9467 189.221 85.9656 188.705 87.0838 188.325C88.1178 187.973 88.5574 189.607 87.5332 189.955ZM81.8326 161.499C81.1043 161.519 80.3526 161.799 79.7036 162.114C78.7282 162.588 77.8724 161.129 78.8507 160.654C79.7778 160.203 80.7921 159.837 81.8326 159.808C82.9225 159.777 82.9179 161.468 81.8326 161.499ZM79.2771 237.463C78.9906 237.476 78.7457 237.321 78.5941 237.098C78.5782 237.098 78.5626 237.098 78.5469 237.098C78.0733 237.098 77.7226 236.711 77.7019 236.252C77.6814 235.796 78.105 235.407 78.5469 235.407C78.8452 235.407 79.1412 235.425 79.4184 235.542C79.8661 235.731 80.104 236.14 80.1222 236.618C80.1401 237.091 79.7205 237.443 79.2771 237.463ZM75.1208 178.999C74.0829 179.338 73.6422 177.705 74.6714 177.369C75.8797 176.974 77.1143 176.668 78.3224 176.273C79.3603 175.933 79.801 177.567 78.7715 177.903C77.5637 178.298 76.3288 178.604 75.1208 178.999ZM71.3305 210.912C71.0085 211.95 69.3777 211.505 69.7005 210.463C70.0124 209.457 70.0348 208.445 70.0354 207.401C70.036 206.311 71.7262 206.313 71.7255 207.401C71.7249 208.59 71.685 209.768 71.3305 210.912ZM60.0304 249.136C59.9689 249.557 59.6351 249.861 59.1982 249.88C58.7535 249.9 58.3371 249.477 58.3531 249.035C58.3842 248.184 59.0778 247.49 59.9283 247.459C60.4016 247.442 60.7536 247.86 60.7734 248.304C60.7929 248.736 60.4324 249.073 60.0304 249.136ZM54.3118 200.546C53.4188 200.845 52.4645 201.129 51.7643 201.79C50.9731 202.537 49.7765 201.343 50.5692 200.594C51.4924 199.722 52.68 199.311 53.8626 198.916C54.8983 198.57 55.3383 200.204 54.3118 200.546ZM50.4361 233.392C50.1906 233.812 49.6935 233.888 49.28 233.695C48.7257 233.438 48.1136 233.446 47.516 233.446C46.4269 233.445 46.4286 231.754 47.516 231.755C48.4379 231.756 49.2885 231.843 50.1331 232.235C50.5487 232.429 50.6499 233.027 50.4361 233.392ZM48.2461 273.254C47.7729 273.271 47.4209 272.853 47.401 272.409C47.3816 271.977 47.7418 271.64 48.1443 271.577C48.2055 271.156 48.5395 270.852 48.9762 270.833C49.4212 270.813 49.8376 271.236 49.8213 271.678C49.7902 272.529 49.0971 273.223 48.2461 273.254ZM202.223 279.647C201.936 278.613 201.279 277.779 200.783 276.849C200.616 276.535 200.558 276.34 200.468 276.111C200.346 276.356 200.108 276.541 199.75 276.541C199.064 276.541 198.261 276.497 197.621 276.791C197.205 276.982 196.714 276.914 196.465 276.487C196.251 276.121 196.353 275.521 196.768 275.331C197.712 274.898 198.726 274.85 199.75 274.85C200.003 274.85 200.194 274.943 200.33 275.083C200.721 269.723 200.711 264.359 200.341 258.996C199.946 253.264 199.038 247.646 198.087 241.988C197.626 239.245 197.029 236.474 197.145 233.68C197.261 230.905 198.45 228.318 197.607 225.535C197.269 224.419 196.691 223.396 196.314 222.293C195.911 221.105 195.947 219.932 196.131 218.702C196.509 216.197 197.136 213.722 196.133 211.277C195.689 210.193 194.971 209.225 194.624 208.105C194.193 206.712 194.253 205.171 194.181 203.728C194.035 200.815 193.997 197.884 193.756 194.978C193.648 193.676 193.414 192.442 192.879 191.247C192.366 190.098 191.603 189.052 191.263 187.832C190.925 186.632 190.895 185.366 190.714 184.138C190.524 182.84 190.226 181.561 189.824 180.314C188.274 175.487 185.432 171.15 182.075 167.39C178.507 163.394 174.241 160.384 169.714 157.579C167.333 156.105 164.952 154.63 162.573 153.155C162.523 153.432 162.346 153.686 162.008 153.799C161.114 154.098 160.16 154.381 159.46 155.043C158.669 155.789 157.472 154.596 158.265 153.847C159.092 153.066 160.131 152.655 161.188 152.294C160.104 151.61 159.009 150.902 157.786 150.508C156.714 150.161 155.134 150.463 154.266 149.677C153.583 149.058 153.368 147.91 153.106 147.069C152.779 146.025 152.495 144.924 152.079 143.909C151.796 143.216 151.384 142.55 150.864 142.013C150.636 141.134 150.218 140.331 149.478 139.843C147.543 138.562 145.167 139.834 144.315 141.66C143.612 141.658 142.87 141.813 142.186 141.855C140.779 141.944 139.369 141.984 137.96 141.98C135.203 141.971 132.444 141.792 129.71 141.426C124.822 140.771 120.079 139.45 115.272 138.42C115.245 138.357 115.213 138.294 115.175 138.23C114.14 136.493 111.56 136.787 109.935 137.444C109.238 137.725 108.529 138.08 108.129 138.74C107.707 139.025 107.341 139.372 107.098 139.737C106.595 140.492 106.207 142.013 105.186 142.14C104.514 142.223 103.832 142.094 103.15 142.191C102.296 142.309 101.531 142.609 100.743 142.952C94.7434 145.558 88.5405 148.455 82.0291 149.466C80.5018 149.702 78.9469 149.948 77.6201 150.803C76.5426 151.499 75.71 152.454 74.8208 153.361C73.9546 154.244 73.2405 154.635 72.0046 154.794C70.5046 154.986 69.2053 155.4 68.1088 156.491C67.1983 157.398 66.6046 158.556 65.8905 159.608C65.1636 160.682 64.0969 161.286 62.9898 161.91C60.3722 163.385 57.9342 165.167 55.811 167.304C51.3384 171.81 48.63 177.601 45.9004 183.244C42.949 189.347 40.1898 195.525 38.2757 202.043C36.3997 208.443 35.2842 215.027 34.7687 221.671C34.2257 228.644 34.1497 235.644 33.6976 242.62C33.4715 246.106 33.3004 249.595 33.1271 253.082C32.9581 256.527 32.7109 259.979 32.7509 263.428C32.8271 270.096 34.16 276.785 36.4905 283.028C37.0715 284.582 37.7157 286.114 38.4023 287.623C39.0046 288.948 41.0645 288.8 41.7109 287.623C41.8588 287.353 41.975 287.074 42.0722 286.79C43.7624 286.805 45.4694 286.674 47.149 286.831C50.1152 287.108 53.0875 287.262 56.0621 287.446C61.9483 287.811 67.8448 288.054 73.7328 288.39C74.3041 288.423 74.8753 288.456 75.4464 288.49C71.2504 275.497 71.7946 261.451 71.1306 247.939C71.0771 246.85 72.7677 246.856 72.8207 247.939C73.4875 261.509 72.9198 275.591 77.2641 288.605C78.9496 288.719 80.6328 288.858 82.3102 289.063C83.6664 289.225 85.0293 289.418 86.3983 289.35C87.9511 289.276 89.468 288.921 90.9828 288.612C93.7356 288.052 96.387 288.306 99.1504 288.65C102.106 289.02 105.072 289.225 108.047 289.354C119.958 289.876 131.95 290.352 143.857 289.555C146.738 289.363 149.614 289.092 152.476 288.724C155.426 288.346 158.343 287.71 161.29 287.348C164.195 286.993 166.866 287.968 169.737 288.147C172.665 288.331 175.672 287.72 178.572 287.37C179.518 287.255 180.466 287.143 181.413 287.032C180.193 278.668 179.5 270.241 178.826 261.817C178.739 260.731 180.43 260.74 180.516 261.817C181.185 270.175 181.863 278.54 183.081 286.838C188.104 286.253 193.131 285.662 198.102 284.751C199.517 284.493 200.924 284.073 201.772 282.809C202.399 281.872 202.526 280.725 202.223 279.647Z" fill="black"/>
<path fill-rule="evenodd" clip-rule="evenodd" d="M176.386 92.0542C174.457 81.5081 169.7 71.4734 162.394 63.6219C161.551 62.6896 160.793 61.2191 159.507 60.984C158.216 58.3462 155.754 56.4814 153.787 54.3512C149.492 50.0585 145.383 45.2615 139.844 42.5507C114.151 31.9574 89.4266 62.1627 84.1799 84.8789C78.9686 103.147 84.6603 128.348 107.244 129.088C110.439 133.324 114.848 136.256 119.376 138.875C125.561 142.845 132.307 144.456 139.462 142.247C146.588 144.114 153.974 138.124 158.256 132.87C161.641 128.801 163.961 123.835 167.057 119.623C170.712 119.531 173.87 116.429 174.36 112.792C177.774 106.503 177.618 98.9666 176.386 92.0542Z" fill="#D08B5B"/>
<path fill-rule="evenodd" clip-rule="evenodd" d="M84.1799 84.8789C89.4266 62.1627 114.151 31.9574 139.844 42.5507C145.383 45.2615 149.492 50.0585 153.787 54.3512C155.754 56.4814 158.216 58.3462 159.507 60.984C160.793 61.2191 161.551 62.6896 162.394 63.6219C169.7 71.4734 174.457 81.5081 176.386 92.0542C177.618 98.9666 177.774 106.503 174.36 112.792C173.87 116.429 170.712 119.531 167.057 119.623C166.387 120.534 165.753 121.481 165.138 122.446L164.992 122.496L164.974 121.427C164.666 104.105 163.671 93.648 161.989 90.0573C160.29 86.4299 152.978 79.7881 140.053 70.132L139.66 69.8385L136.625 67.3266L134.271 69.9916C125.413 80.0087 118.479 87.7384 113.469 93.1808C108.078 99.0372 103.517 107.947 99.7863 119.909L99.6735 120.273L106.266 129.04C84.4965 127.614 79.0446 102.881 84.1799 84.8789Z" fill="#9DDADB"/>
<path fill-rule="evenodd" clip-rule="evenodd" d="M120.422 38.9614C125.097 37.8664 129.999 38.0934 134.63 39.2968C143.808 41.6823 151.36 47.8857 157.622 54.8021C163.729 61.5484 168.766 69.2822 172.445 77.6134L172.631 78.0372C175.233 83.976 177.494 90.1489 177.591 96.6882C177.675 102.316 177.108 108.179 175.294 113.533C173.678 118.301 170.706 123.107 165.593 124.25C162.645 131.763 156.877 138.269 149.611 141.75C145.104 143.91 140.155 144.874 135.173 144.394C130.089 143.906 125.341 141.457 121.368 138.334C121.259 138.249 121.399 138.083 121.512 138.147C126.295 140.911 131.952 141.899 137.431 141.717C146.435 141.419 154.689 136.547 159.432 128.889C160.612 126.983 161.664 124.973 162.503 122.881C162.454 122.709 162.425 122.535 162.425 122.365C162.425 121.644 162.766 121.094 163.275 120.738C163.511 119.999 163.72 119.251 163.894 118.495C164.289 116.783 164.51 115.046 164.643 113.295C164.751 111.872 164.691 110.363 164.834 108.904C164.782 107.735 164.71 106.567 164.604 105.402C164.264 101.647 163.576 97.9007 162.252 94.3614C160.91 90.7765 158.791 87.6151 156.117 84.894C150.382 79.0578 143.242 74.7965 137.666 68.8011L137.374 68.4839L137.354 68.4775C136.662 69.1887 135.97 69.8999 135.277 70.6096L132.109 73.849C125.643 80.4677 119.23 87.1506 113.605 94.5157C110.366 98.7569 107.456 103.203 104.949 107.917C103.761 110.15 102.685 112.438 101.712 114.773L101.329 115.702C100.873 116.814 100.381 118.059 100.107 119.315C100.921 120.125 101.516 121.314 102.174 122.232C102.921 123.274 103.782 124.266 104.668 125.191C105.564 126.128 106.548 127.026 107.592 127.796L107.717 127.886C108.915 128.739 110.29 129.327 110.47 130.95C110.548 131.654 109.919 132.221 109.338 132.44C107.745 133.04 106.096 131.317 105.035 130.326C104.373 129.708 103.765 129.042 103.2 128.339C102.651 128.418 102.098 128.457 101.551 128.392C100.704 128.291 99.8641 128.143 99.0383 127.925C92.1891 126.122 87.1195 120.422 84.3843 114.074C80.7122 105.551 80.7976 95.7263 82.3241 86.7135C85.1135 70.243 94.1413 54.8613 107.773 45.1233C111.591 42.3961 115.825 40.038 120.422 38.9614ZM127.801 41.1648C118.995 40.6996 110.966 45.2521 104.524 50.919C92.7952 61.2371 85.5708 76.3444 84.1174 91.8582C83.3452 100.101 83.923 108.985 88.2103 116.268C89.8737 119.093 92.016 121.555 94.5449 123.631C96.9278 125.588 99.644 126.715 102.548 127.483C102.416 127.3 102.285 127.116 102.158 126.929C101.483 125.938 100.946 124.884 100.497 123.78C100.457 123.82 100.383 123.828 100.338 123.767C98.5056 121.246 99.0792 118.238 99.9529 115.465C100.869 112.557 102.03 109.728 103.355 106.983C108.185 96.98 115.368 88.2659 122.825 80.1342C126.633 75.9813 130.568 71.9488 134.488 67.9025C136.445 65.882 138.398 63.8555 140.326 61.8059C141.285 60.7855 142.239 59.7598 143.184 58.7258C144.118 57.7035 144.959 56.6208 146.122 55.8551C147.049 55.2449 147.975 56.4111 147.542 57.2785C146.875 58.6126 145.729 59.6703 144.714 60.7551L144.61 60.8675C143.621 61.9377 142.622 62.9993 141.618 64.0553C140.463 65.2697 139.299 66.4758 138.132 67.6789C139.128 67.5632 140.135 67.4967 141.125 67.346C142.469 67.1414 143.795 66.84 145.114 66.5122C146.505 66.1671 147.877 65.7264 149.202 65.1786C150.446 64.6642 151.623 63.8399 152.992 63.7592C154.151 63.6907 154.513 65.1293 153.871 65.8864C152.986 66.9296 151.395 67.3402 150.101 67.7276L149.918 67.7828C148.487 68.2208 147.022 68.5494 145.542 68.769C143.594 69.0581 141.343 69.1904 139.259 68.8945C143.42 71.3407 147.25 74.3723 151.068 77.3288L151.742 77.8497C155.473 80.7274 159.115 83.8296 161.775 87.7669C164.258 91.4425 165.757 95.7217 166.599 100.058C167.014 102.197 167.287 104.358 167.471 106.529C168.156 108.454 168.046 110.742 167.874 112.859L167.812 113.589L167.817 113.804C167.843 115.127 168.373 118.075 167.123 119.075C167.102 119.181 167.082 119.288 167.06 119.395C167.216 119.299 167.369 119.2 167.522 119.098C167.584 119.056 167.645 119.009 167.706 118.964L167.879 118.822C167.886 118.816 167.891 118.811 167.896 118.807C168.284 118.466 168.654 118.11 168.999 117.724C169.636 117.012 170.242 116.107 170.816 115.065C172.077 112.774 172.882 110.283 173.505 107.708C174.644 103.001 175.114 97.944 174.595 93.1159C174.522 92.4419 174.373 91.5969 174.142 90.73C173.594 88.6714 172.964 86.6347 172.258 84.6253C170.845 80.6057 169.114 76.7061 167.095 72.9558C162.996 65.3388 157.721 58.2966 151.401 52.387C145.001 46.4022 136.7 41.6348 127.801 41.1648ZM115.382 65.5017C115.7 65.3073 116.026 65.6849 115.869 65.9897C115.106 67.4647 113.824 68.71 112.759 69.9739C111.656 71.2825 110.561 72.5984 109.469 73.9162C107.246 76.5993 105.075 79.3316 102.99 82.1248L102.44 82.8637C100.607 85.3303 98.7964 87.8359 97.1942 90.4567C96.356 91.8277 95.6172 93.2456 94.9464 94.7059C94.3078 96.0959 94.0133 97.7738 93.2459 99.0795C93.1976 99.162 93.048 99.1552 93.0294 99.051C92.7789 97.6451 93.3977 95.9518 93.8398 94.6353C94.3654 93.0696 95.1134 91.5783 95.9141 90.138C97.5842 87.1334 99.5853 84.3172 101.596 81.5349C103.638 78.7098 105.757 75.9424 107.981 73.2587C109.026 71.9981 110.094 70.7627 111.194 69.5517L111.608 69.0987C112.76 67.8458 113.921 66.3957 115.382 65.5017ZM110.043 61.1338C110.565 60.746 111.011 61.5386 110.678 61.9587C108.688 64.4683 106.424 66.7232 104.246 69.0637C102.154 71.3114 100.155 73.6432 98.2692 76.0668C94.4232 81.0088 91.3446 86.4316 88.7371 92.115C88.688 92.2222 88.5333 92.1423 88.5565 92.0387C89.9376 85.8912 93.1665 80.3078 96.843 75.2631L96.9828 75.0717C100.701 69.9987 104.976 64.899 110.043 61.1338Z" fill="black"/>
<path fill-rule="evenodd" clip-rule="evenodd" d="M128.915 119.159C131.223 117.769 139.848 118.788 146.623 119.159C152.003 119.454 155.845 118.87 157.075 119.698C159.854 121.569 158.504 130.616 153.716 131.853C148.928 133.09 131.179 134.818 128.119 131.853C125.058 128.888 124.776 121.653 128.915 119.159Z" fill="white"/>
<path fill-rule="evenodd" clip-rule="evenodd" d="M131.904 116.766C135.526 116.326 139.036 117.435 142.577 117.995C144.446 118.29 146.318 118.51 148.209 118.592C148.59 118.608 148.97 118.618 149.351 118.626C149.387 118.291 149.574 117.983 149.981 117.798C150.814 117.421 151.481 117.25 152.395 117.287C153.233 117.32 154.073 117.406 154.898 117.557C156.395 117.831 157.899 118.454 158.994 119.537C161.528 122.042 161.143 126.066 159.184 128.795C155.138 134.433 147.753 134.695 141.428 134.621L140.844 134.614C135.085 134.531 126.846 135.39 124.23 128.835C123.267 126.425 123.401 123.631 124.579 121.319C125.984 118.562 128.942 117.126 131.904 116.766ZM149.893 126.154L149.842 126.156C147.187 126.258 144.532 126.33 141.875 126.377C141.955 127.06 142.036 127.743 142.129 128.424C142.201 128.96 142.279 129.495 142.36 130.03C142.395 130.256 142.521 130.607 142.485 130.832L142.472 130.92C142.609 130.982 142.733 131.081 142.825 131.226C142.857 131.276 142.88 131.326 142.903 131.376C144.966 131.392 147.185 131.352 149.288 130.977L149.292 130.931C149.33 130.663 149.442 130.482 149.59 130.358C149.738 129.501 149.725 128.588 149.782 127.738C149.818 127.21 149.856 126.682 149.893 126.154ZM139.846 126.414C137.932 126.446 136.018 126.471 134.104 126.448L133.236 126.434C133.419 127.419 133.619 128.4 133.785 129.391C133.958 130.424 133.049 131.081 132.262 131.054C132.351 131.069 132.439 131.084 132.527 131.096C134.984 131.444 137.536 131.351 140.03 131.349C139.896 130.565 139.95 129.681 139.93 129.027L139.926 128.926C139.888 128.088 139.861 127.251 139.846 126.414ZM126.846 126.233C126.913 126.745 127.042 127.246 127.235 127.712C128.052 129.683 129.925 130.603 131.907 130.99C131.563 130.871 131.29 130.586 131.221 130.097C131.049 128.882 130.987 127.646 130.983 126.412C129.602 126.399 128.211 126.37 126.846 126.233ZM157.095 125.812C156.112 126.044 154.97 125.938 154.005 125.982C153.101 126.023 152.197 126.058 151.293 126.095C151.336 126.712 151.377 127.329 151.422 127.946C151.481 128.743 151.486 129.586 151.639 130.38C153.458 129.759 155.087 128.763 156.31 127.171C156.615 126.774 156.888 126.308 157.095 125.812ZM131.489 119.999C129.852 120.387 128.303 121.206 127.47 122.704C126.976 123.594 126.759 124.647 126.801 125.686C128.184 125.525 129.591 125.464 130.992 125.413C130.996 125.161 131.002 124.909 131.01 124.657L131.031 124.013C131.07 122.783 131.089 121.24 131.489 119.999ZM139.961 120.149L139.24 120.068C137.239 119.84 135.238 119.601 133.237 119.738C132.947 119.758 132.653 119.79 132.359 119.833C132.712 121.11 132.683 122.61 132.83 123.874C132.888 124.363 132.96 124.847 133.04 125.33L133.387 125.314C135.534 125.198 137.684 125.126 139.833 125.041C139.833 124.637 139.835 124.233 139.842 123.829L139.85 123.425C139.874 122.393 139.807 121.23 139.961 120.149ZM150.01 119.985C147.914 120.324 145.748 120.396 143.689 120.398C142.867 120.4 142.045 120.349 141.223 120.276C141.277 120.714 141.304 121.156 141.345 121.588C141.426 122.46 141.519 123.331 141.619 124.2L141.709 124.961C144.351 124.842 146.992 124.712 149.634 124.578L150.006 124.558L150.111 123.095C150.182 122.12 150.26 121.145 150.371 120.174L150.288 120.144C150.19 120.104 150.098 120.049 150.01 119.985ZM150.921 120.349C151.036 121.728 151.1 123.113 151.185 124.494L152.926 124.401C153.216 124.385 153.506 124.369 153.797 124.352C154.925 124.287 156.375 123.945 157.49 124.264C157.575 123.25 157.285 122.262 156.37 121.58C154.764 120.383 152.718 120.809 150.921 120.349ZM144.972 108.02C147.565 106.534 154.07 105.016 154.482 109.684C154.671 111.832 153.075 113.612 151.211 114.406L151.141 114.435C149.393 115.154 146.294 115.966 144.781 114.407C143.522 113.109 145.192 110.783 146.757 111.846C147.561 112.392 149.253 111.989 150.151 111.729L150.207 111.713C151.175 111.428 152.466 110.517 152.066 109.325C151.711 108.27 150.204 108.077 149.26 108.043C147.85 107.992 146.479 108.319 145.082 108.426C144.861 108.443 144.793 108.122 144.972 108.02ZM155.712 100.514C159.231 100.349 161.42 104.193 160.611 107.342C160.471 107.886 159.863 108.419 159.277 108.358L159.129 108.344C159.054 108.337 158.978 108.328 158.909 108.308C158.352 108.154 157.853 107.575 157.893 106.974L157.904 106.799C157.986 105.311 157.825 103.597 156.058 103.237C154.559 102.931 153.722 104.375 153.704 105.703C153.701 105.939 153.436 106.104 153.227 105.977C152.144 105.317 151.956 104.005 152.37 102.875C152.895 101.443 154.207 100.584 155.712 100.514ZM129.599 101.338C132.159 100.484 134.922 101.849 136.162 104.114C136.597 104.24 137.031 104.576 136.971 105.089C136.884 105.828 136.752 106.294 136.24 106.854C135.439 107.731 133.939 107.282 133.606 106.203L133.592 106.155C133.214 104.76 131.679 103.84 130.281 104.328C128.648 104.898 128.695 106.624 127.55 107.629C127.415 107.747 127.254 107.766 127.093 107.688C125.876 107.1 126.094 105.329 126.528 104.316C127.097 102.987 128.203 101.804 129.599 101.338ZM126.111 93.5592C128.186 91.4411 133.597 89.3914 135.017 93.3029C135.287 94.0479 134.711 95.0524 133.936 95.2069C132.666 95.4597 131.54 94.9083 130.279 95.0072C129.257 95.0877 128.192 95.429 127.376 96.0618C125.115 97.8143 124.618 100.779 123.042 103.009C122.966 103.118 122.817 103.072 122.803 102.944C122.444 99.6966 123.838 95.879 126.111 93.5592ZM153.173 91.4741C154.55 90.9875 156.11 91.0292 157.494 91.4608C158.888 91.8957 160.168 92.7217 161.155 93.8008C161.602 94.2907 162.016 94.8314 162.348 95.4069C162.525 95.7119 162.71 96.3419 162.911 96.717C163.996 97.3436 164.459 98.7713 163.488 99.787L163.444 99.8315L163.314 99.9604C162.792 100.477 162.005 100.701 161.292 100.495C159.698 100.033 159.504 98.7769 158.952 97.4432C158.587 96.5623 157.963 95.7829 157.205 95.2103C155.415 93.8577 152.48 93.4267 150.325 94.0642C150.21 94.0982 150.075 93.9519 150.157 93.8458C150.566 93.3166 150.801 92.8823 151.348 92.4554C151.903 92.0221 152.508 91.7091 153.173 91.4741Z" fill="black"/>
</svg>
